<?xml version="1.0" encoding="utf-8" standalone="no"?>
<!DOCTYPE svg PUBLIC "-//W3C//DTD SVG 1.1//EN"
  "http://www.w3.org/Graphics/SVG/1.1/DTD/svg11.dtd">
<svg xmlns:xlink="http://www.w3.org/1999/xlink" width="864pt" height="504pt" viewBox="0 0 864 504" xmlns="http://www.w3.org/2000/svg" version="1.1">
 <metadata>
  <rdf:RDF xmlns:dc="http://purl.org/dc/elements/1.1/" xmlns:cc="http://creativecommons.org/ns#" xmlns:rdf="http://www.w3.org/1999/02/22-rdf-syntax-ns#">
   <cc:Work>
    <dc:type rdf:resource="http://purl.org/dc/dcmitype/StillImage"/>
    <dc:date>2022-09-02T21:20:52.264792</dc:date>
    <dc:format>image/svg+xml</dc:format>
    <dc:creator>
     <cc:Agent>
      <dc:title>Matplotlib v3.5.3, https://matplotlib.org/</dc:title>
     </cc:Agent>
    </dc:creator>
   </cc:Work>
  </rdf:RDF>
 </metadata>
 <defs>
  <style type="text/css">*{stroke-linejoin: round; stroke-linecap: butt}</style>
 </defs>
 <g id="figure_1">
  <g id="patch_1">
   <path d="M 0 504 
L 864 504 
L 864 0 
L 0 0 
z
" style="fill: #ffffff"/>
  </g>
  <g id="axes_1">
   <g id="patch_2">
    <path d="M 69.587495 119.980829 
L 847.8 119.980829 
L 847.8 32.4 
L 69.587495 32.4 
z
" style="fill: #ffffff"/>
   </g>
   <g id="PathCollection_1">
    <defs>
     <path id="m3dbcae95e0" d="M 0 0.5 
C 0.132602 0.5 0.25979 0.447317 0.353553 0.353553 
C 0.447317 0.25979 0.5 0.132602 0.5 0 
C 0.5 -0.132602 0.447317 -0.25979 0.353553 -0.353553 
C 0.25979 -0.447317 0.132602 -0.5 0 -0.5 
C -0.132602 -0.5 -0.25979 -0.447317 -0.353553 -0.353553 
C -0.447317 -0.25979 -0.5 -0.132602 -0.5 0 
C -0.5 0.132602 -0.447317 0.25979 -0.353553 0.353553 
C -0.25979 0.447317 -0.132602 0.5 0 0.5 
z
" style="stroke: #1f77b4"/>
    </defs>
    <g clip-path="url(#p1a8eaaf877)">
     <use xlink:href="#m3dbcae95e0" x="168.696458" y="36.380947" style="fill: #1f77b4; stroke: #1f77b4"/>
     <use xlink:href="#m3dbcae95e0" x="195.607074" y="36.380947" style="fill: #1f77b4; stroke: #1f77b4"/>
     <use xlink:href="#m3dbcae95e0" x="289.794227" y="36.380947" style="fill: #1f77b4; stroke: #1f77b4"/>
     <use xlink:href="#m3dbcae95e0" x="483.125753" y="36.380947" style="fill: #1f77b4; stroke: #1f77b4"/>
     <use xlink:href="#m3dbcae95e0" x="675.040931" y="36.380947" style="fill: #1f77b4; stroke: #1f77b4"/>
    </g>
   </g>
   <g id="matplotlib.axis_1">
    <g id="xtick_1">
     <g id="line2d_1">
      <defs>
       <path id="mfb651f5045" d="M 0 0 
L 0 5 
" style="stroke: #000000; stroke-width: 0.8"/>
      </defs>
      <g>
       <use xlink:href="#mfb651f5045" x="104.96079" y="119.980829" style="stroke: #000000; stroke-width: 0.8"/>
      </g>
     </g>
    </g>
    <g id="xtick_2">
     <g id="line2d_2">
      <g>
       <use xlink:href="#mfb651f5045" x="246.595608" y="119.980829" style="stroke: #000000; stroke-width: 0.8"/>
      </g>
     </g>
    </g>
    <g id="xtick_3">
     <g id="line2d_3">
      <g>
       <use xlink:href="#mfb651f5045" x="388.230425" y="119.980829" style="stroke: #000000; stroke-width: 0.8"/>
      </g>
     </g>
    </g>
    <g id="xtick_4">
     <g id="line2d_4">
      <g>
       <use xlink:href="#mfb651f5045" x="529.865243" y="119.980829" style="stroke: #000000; stroke-width: 0.8"/>
      </g>
     </g>
    </g>
    <g id="xtick_5">
     <g id="line2d_5">
      <g>
       <use xlink:href="#mfb651f5045" x="671.500061" y="119.980829" style="stroke: #000000; stroke-width: 0.8"/>
      </g>
     </g>
    </g>
    <g id="xtick_6">
     <g id="line2d_6">
      <g>
       <use xlink:href="#mfb651f5045" x="813.134878" y="119.980829" style="stroke: #000000; stroke-width: 0.8"/>
      </g>
     </g>
    </g>
   </g>
   <g id="matplotlib.axis_2">
    <g id="ytick_1">
     <g id="line2d_7">
      <defs>
       <path id="m206704bc78" d="M 0 0 
L -5 0 
" style="stroke: #000000; stroke-width: 0.8"/>
      </defs>
      <g>
       <use xlink:href="#m206704bc78" x="69.587495" y="95.636859" style="stroke: #000000; stroke-width: 0.8"/>
      </g>
     </g>
     <g id="text_1">
      <!-- −50 -->
      <g transform="translate(34.717187 100.383983)scale(0.12495 -0.12495)">
       <defs>
        <path id="DejaVuSans-2212" d="M 678 2272 
L 4684 2272 
L 4684 1741 
L 678 1741 
L 678 2272 
z
" transform="scale(0.015625)"/>
        <path id="DejaVuSans-35" d="M 691 4666 
L 3169 4666 
L 3169 4134 
L 1269 4134 
L 1269 2991 
Q 1406 3038 1543 3061 
Q 1681 3084 1819 3084 
Q 2600 3084 3056 2656 
Q 3513 2228 3513 1497 
Q 3513 744 3044 326 
Q 2575 -91 1722 -91 
Q 1428 -91 1123 -41 
Q 819 9 494 109 
L 494 744 
Q 775 591 1075 516 
Q 1375 441 1709 441 
Q 2250 441 2565 725 
Q 2881 1009 2881 1497 
Q 2881 1984 2565 2268 
Q 2250 2553 1709 2553 
Q 1456 2553 1204 2497 
Q 953 2441 691 2322 
L 691 4666 
z
" transform="scale(0.015625)"/>
        <path id="DejaVuSans-30" d="M 2034 4250 
Q 1547 4250 1301 3770 
Q 1056 3291 1056 2328 
Q 1056 1369 1301 889 
Q 1547 409 2034 409 
Q 2525 409 2770 889 
Q 3016 1369 3016 2328 
Q 3016 3291 2770 3770 
Q 2525 4250 2034 4250 
z
M 2034 4750 
Q 2819 4750 3233 4129 
Q 3647 3509 3647 2328 
Q 3647 1150 3233 529 
Q 2819 -91 2034 -91 
Q 1250 -91 836 529 
Q 422 1150 422 2328 
Q 422 3509 836 4129 
Q 1250 4750 2034 4750 
z
" transform="scale(0.015625)"/>
       </defs>
       <use xlink:href="#DejaVuSans-2212"/>
       <use xlink:href="#DejaVuSans-35" x="83.789062"/>
       <use xlink:href="#DejaVuSans-30" x="147.412109"/>
      </g>
     </g>
    </g>
    <g id="ytick_2">
     <g id="line2d_8">
      <g>
       <use xlink:href="#m206704bc78" x="69.587495" y="62.716908" style="stroke: #000000; stroke-width: 0.8"/>
      </g>
     </g>
     <g id="text_2">
      <!-- 0 -->
      <g transform="translate(53.137551 67.464032)scale(0.12495 -0.12495)">
       <use xlink:href="#DejaVuSans-30"/>
      </g>
     </g>
    </g>
    <g id="text_3">
     <!-- V -->
     <g transform="translate(27.597656 81.320883)rotate(-90)scale(0.15 -0.15)">
      <defs>
       <path id="DejaVuSans-56" d="M 1831 0 
L 50 4666 
L 709 4666 
L 2188 738 
L 3669 4666 
L 4325 4666 
L 2547 0 
L 1831 0 
z
" transform="scale(0.015625)"/>
      </defs>
      <use xlink:href="#DejaVuSans-56"/>
     </g>
    </g>
   </g>
   <g id="line2d_9">
    <path d="M 104.96079 108.80484 
L 148.867584 108.80484 
L 150.992106 106.177807 
L 158.073847 98.039018 
L 159.490195 96.009641 
L 160.906543 93.602382 
L 162.322891 90.596754 
L 163.031065 88.759058 
L 163.73924 86.60525 
L 164.447414 84.028673 
L 165.155588 80.872225 
L 165.863762 76.895369 
L 166.571936 71.712393 
L 167.28011 64.668894 
L 168.696458 42.964937 
L 169.404632 105.512844 
L 179.319069 100.144414 
L 181.443592 98.7114 
L 183.568114 97.000431 
L 184.984462 95.624727 
L 186.40081 93.970425 
L 187.817159 91.91083 
L 189.233507 89.236007 
L 189.941681 87.561345 
L 190.649855 85.571917 
L 191.358029 83.164343 
L 192.066203 80.18649 
L 192.774377 76.405911 
L 193.482551 71.451049 
L 194.190725 64.694243 
L 194.898899 54.999432 
L 195.607074 42.964937 
L 196.315248 105.512844 
L 204.813337 105.515913 
L 214.727774 105.287148 
L 226.058559 104.78777 
L 236.681171 104.107403 
L 245.887434 103.31693 
L 253.677349 102.431896 
L 259.342741 101.58905 
L 264.29996 100.626686 
L 267.840831 99.735652 
L 270.673527 98.834452 
L 273.506223 97.679625 
L 275.630745 96.564478 
L 277.755268 95.124564 
L 279.171616 93.900415 
L 280.587964 92.368244 
L 282.004312 90.390183 
L 283.42066 87.733957 
L 284.128835 86.031902 
L 284.837009 83.978139 
L 285.545183 81.453292 
L 286.253357 78.279246 
L 286.961531 74.179365 
L 287.669705 68.7026 
L 288.377879 61.068091 
L 289.086053 49.817783 
L 289.794227 42.964937 
L 290.502401 105.512844 
L 294.043272 106.723421 
L 297.584142 107.701232 
L 301.125013 108.432075 
L 304.665883 108.939853 
L 308.914928 109.313819 
L 313.872146 109.519024 
L 320.245713 109.557494 
L 330.16015 109.366188 
L 347.864502 108.755261 
L 377.607814 107.490043 
L 402.393907 106.231614 
L 420.098259 105.123591 
L 432.845393 104.11696 
L 442.051656 103.188764 
L 449.133397 102.271595 
L 454.79879 101.320602 
L 459.047834 100.398362 
L 462.588705 99.41058 
L 465.421401 98.398155 
L 467.545923 97.445188 
L 469.670446 96.248292 
L 471.086794 95.258786 
L 472.503142 94.054372 
L 473.91949 92.551764 
L 475.335838 90.619166 
L 476.752187 88.035853 
L 477.460361 86.387197 
L 478.168535 84.404432 
L 478.876709 81.976266 
L 479.584883 78.937746 
L 480.293057 75.034712 
L 481.001231 69.85678 
L 481.709405 62.702035 
L 483.125753 42.964937 
L 483.833927 105.512844 
L 487.374798 106.697733 
L 490.915668 107.655469 
L 494.456539 108.372683 
L 497.997409 108.872374 
L 502.246454 109.241723 
L 507.203672 109.445433 
L 513.577239 109.484316 
L 523.491676 109.294048 
L 540.487854 108.709327 
L 569.522992 107.47293 
L 594.309085 106.21129 
L 612.013437 105.098278 
L 624.760571 104.084756 
L 633.966834 103.147554 
L 641.048575 102.218398 
L 646.713968 101.25121 
L 650.963012 100.309204 
L 654.503883 99.295504 
L 657.336579 98.25119 
L 659.461101 97.26315 
L 661.585624 96.015146 
L 663.001972 94.977409 
L 664.41832 93.706968 
L 665.834668 92.110731 
L 667.251016 90.039439 
L 668.667364 87.238943 
L 669.375538 85.432895 
L 670.083713 83.241704 
L 670.791887 80.53019 
L 671.500061 77.094207 
L 672.208235 72.612041 
L 672.916409 66.549724 
L 673.624583 57.962013 
L 674.332757 45.032737 
L 675.040931 42.964937 
L 675.749105 105.512844 
L 679.289976 106.701094 
L 682.830846 107.66146 
L 686.371717 108.380464 
L 689.912587 108.881223 
L 694.161632 109.251187 
L 699.11885 109.455101 
L 705.492417 109.493937 
L 715.406854 109.303537 
L 732.403032 108.718968 
L 761.43817 107.483797 
L 769.228085 107.113414 
L 771.352607 109.643672 
L 772.768955 111.073831 
L 774.185304 112.269951 
L 775.601652 113.236007 
L 777.018 113.993365 
L 779.142522 114.805335 
L 781.267044 115.324205 
L 784.099741 115.716647 
L 787.640611 115.932061 
L 793.306004 115.998723 
L 806.053138 115.842866 
L 812.426704 115.739729 
L 812.426704 115.739729 
" clip-path="url(#p1a8eaaf877)" style="fill: none; stroke: #1f77b4; stroke-width: 0.05; stroke-linecap: square"/>
   </g>
   <g id="patch_3">
    <path d="M 69.587495 119.980829 
L 69.587495 32.4 
" style="fill: none; stroke: #000000; stroke-width: 0.8; stroke-linejoin: miter; stroke-linecap: square"/>
   </g>
   <g id="patch_4">
    <path d="M 69.587495 119.980829 
L 847.8 119.980829 
" style="fill: none; stroke: #000000; stroke-width: 0.8; stroke-linejoin: miter; stroke-linecap: square"/>
   </g>
  </g>
  <g id="axes_2">
   <g id="patch_5">
    <path d="M 69.587495 229.550551 
L 847.8 229.550551 
L 847.8 141.969722 
L 69.587495 141.969722 
z
" style="fill: #ffffff"/>
   </g>
   <g id="matplotlib.axis_3">
    <g id="xtick_7">
     <g id="line2d_10">
      <g>
       <use xlink:href="#mfb651f5045" x="104.96079" y="229.550551" style="stroke: #000000; stroke-width: 0.8"/>
      </g>
     </g>
    </g>
    <g id="xtick_8">
     <g id="line2d_11">
      <g>
       <use xlink:href="#mfb651f5045" x="246.595608" y="229.550551" style="stroke: #000000; stroke-width: 0.8"/>
      </g>
     </g>
    </g>
    <g id="xtick_9">
     <g id="line2d_12">
      <g>
       <use xlink:href="#mfb651f5045" x="388.230425" y="229.550551" style="stroke: #000000; stroke-width: 0.8"/>
      </g>
     </g>
    </g>
    <g id="xtick_10">
     <g id="line2d_13">
      <g>
       <use xlink:href="#mfb651f5045" x="529.865243" y="229.550551" style="stroke: #000000; stroke-width: 0.8"/>
      </g>
     </g>
    </g>
    <g id="xtick_11">
     <g id="line2d_14">
      <g>
       <use xlink:href="#mfb651f5045" x="671.500061" y="229.550551" style="stroke: #000000; stroke-width: 0.8"/>
      </g>
     </g>
    </g>
    <g id="xtick_12">
     <g id="line2d_15">
      <g>
       <use xlink:href="#mfb651f5045" x="813.134878" y="229.550551" style="stroke: #000000; stroke-width: 0.8"/>
      </g>
     </g>
    </g>
   </g>
   <g id="matplotlib.axis_4">
    <g id="ytick_3">
     <g id="line2d_16">
      <g>
       <use xlink:href="#m206704bc78" x="69.587495" y="205.569606" style="stroke: #000000; stroke-width: 0.8"/>
      </g>
     </g>
     <g id="text_4">
      <!-- −10 -->
      <g transform="translate(34.717187 210.31673)scale(0.12495 -0.12495)">
       <defs>
        <path id="DejaVuSans-31" d="M 794 531 
L 1825 531 
L 1825 4091 
L 703 3866 
L 703 4441 
L 1819 4666 
L 2450 4666 
L 2450 531 
L 3481 531 
L 3481 0 
L 794 0 
L 794 531 
z
" transform="scale(0.015625)"/>
       </defs>
       <use xlink:href="#DejaVuSans-2212"/>
       <use xlink:href="#DejaVuSans-31" x="83.789062"/>
       <use xlink:href="#DejaVuSans-30" x="147.412109"/>
      </g>
     </g>
    </g>
    <g id="ytick_4">
     <g id="line2d_17">
      <g>
       <use xlink:href="#m206704bc78" x="69.587495" y="155.569611" style="stroke: #000000; stroke-width: 0.8"/>
      </g>
     </g>
     <g id="text_5">
      <!-- 0 -->
      <g transform="translate(53.137551 160.316735)scale(0.12495 -0.12495)">
       <use xlink:href="#DejaVuSans-30"/>
      </g>
     </g>
    </g>
    <g id="text_6">
     <!-- U -->
     <g transform="translate(27.597656 191.249199)rotate(-90)scale(0.15 -0.15)">
      <defs>
       <path id="DejaVuSans-55" d="M 556 4666 
L 1191 4666 
L 1191 1831 
Q 1191 1081 1462 751 
Q 1734 422 2344 422 
Q 2950 422 3222 751 
Q 3494 1081 3494 1831 
L 3494 4666 
L 4128 4666 
L 4128 1753 
Q 4128 841 3676 375 
Q 3225 -91 2344 -91 
Q 1459 -91 1007 375 
Q 556 841 556 1753 
L 556 4666 
z
" transform="scale(0.015625)"/>
      </defs>
      <use xlink:href="#DejaVuSans-55"/>
     </g>
    </g>
   </g>
   <g id="line2d_18">
    <path d="M 104.96079 225.569605 
L 155.24115 225.477977 
L 161.614717 225.18168 
L 165.863762 224.79383 
L 167.988284 224.455412 
L 168.696458 224.292904 
L 169.404632 194.292907 
L 178.610895 194.880522 
L 187.108984 195.206643 
L 192.066203 195.20461 
L 194.898899 195.015131 
L 195.607074 194.912797 
L 196.315248 164.912799 
L 218.268644 168.254894 
L 237.389345 170.940825 
L 254.385523 173.111769 
L 268.549005 174.716138 
L 279.171616 175.709375 
L 284.837009 176.060223 
L 288.377879 176.076795 
L 289.794227 175.950666 
L 290.502401 145.950669 
L 316.704843 151.585254 
L 335.825543 155.529072 
L 353.529895 158.954078 
L 371.234247 162.159329 
L 389.646774 165.264707 
L 408.0593 168.140878 
L 425.763652 170.688189 
L 442.75983 172.919579 
L 458.33966 174.745024 
L 469.670446 175.8724 
L 476.752187 176.392179 
L 481.001231 176.501375 
L 483.125753 176.365888 
L 483.833927 146.365891 
L 537.655158 157.543563 
L 555.35951 160.840296 
L 573.772037 164.038909 
L 592.184563 167.007436 
L 610.597089 169.746393 
L 628.301441 172.15532 
L 644.589445 174.151171 
L 658.044753 175.580644 
L 666.542842 176.286644 
L 671.500061 176.503403 
L 674.332757 176.406961 
L 675.040931 176.311567 
L 675.749105 146.31157 
L 730.27851 157.63493 
L 747.982862 160.925812 
L 766.395389 164.118445 
L 777.726174 166.118411 
L 812.426704 172.660135 
L 812.426704 172.660135 
" clip-path="url(#pbb431c5448)" style="fill: none; stroke: #1f77b4; stroke-width: 0.1; stroke-linecap: square"/>
   </g>
   <g id="patch_6">
    <path d="M 69.587495 229.550551 
L 69.587495 141.969722 
" style="fill: none; stroke: #000000; stroke-width: 0.8; stroke-linejoin: miter; stroke-linecap: square"/>
   </g>
   <g id="patch_7">
    <path d="M 69.587495 229.550551 
L 847.8 229.550551 
" style="fill: none; stroke: #000000; stroke-width: 0.8; stroke-linejoin: miter; stroke-linecap: square"/>
   </g>
  </g>
  <g id="axes_3">
   <g id="patch_8">
    <path d="M 69.587495 339.120273 
L 847.8 339.120273 
L 847.8 251.539444 
L 69.587495 251.539444 
z
" style="fill: #ffffff"/>
   </g>
   <g id="matplotlib.axis_5">
    <g id="xtick_13">
     <g id="line2d_19">
      <g>
       <use xlink:href="#mfb651f5045" x="104.96079" y="339.120273" style="stroke: #000000; stroke-width: 0.8"/>
      </g>
     </g>
    </g>
    <g id="xtick_14">
     <g id="line2d_20">
      <g>
       <use xlink:href="#mfb651f5045" x="246.595608" y="339.120273" style="stroke: #000000; stroke-width: 0.8"/>
      </g>
     </g>
    </g>
    <g id="xtick_15">
     <g id="line2d_21">
      <g>
       <use xlink:href="#mfb651f5045" x="388.230425" y="339.120273" style="stroke: #000000; stroke-width: 0.8"/>
      </g>
     </g>
    </g>
    <g id="xtick_16">
     <g id="line2d_22">
      <g>
       <use xlink:href="#mfb651f5045" x="529.865243" y="339.120273" style="stroke: #000000; stroke-width: 0.8"/>
      </g>
     </g>
    </g>
    <g id="xtick_17">
     <g id="line2d_23">
      <g>
       <use xlink:href="#mfb651f5045" x="671.500061" y="339.120273" style="stroke: #000000; stroke-width: 0.8"/>
      </g>
     </g>
    </g>
    <g id="xtick_18">
     <g id="line2d_24">
      <g>
       <use xlink:href="#mfb651f5045" x="813.134878" y="339.120273" style="stroke: #000000; stroke-width: 0.8"/>
      </g>
     </g>
    </g>
   </g>
   <g id="matplotlib.axis_6">
    <g id="ytick_5">
     <g id="line2d_25">
      <g>
       <use xlink:href="#m206704bc78" x="69.587495" y="335.139327" style="stroke: #000000; stroke-width: 0.8"/>
      </g>
     </g>
     <g id="text_7">
      <!-- 0 -->
      <g transform="translate(53.137551 339.88645)scale(0.12495 -0.12495)">
       <use xlink:href="#DejaVuSans-30"/>
      </g>
     </g>
    </g>
    <g id="ytick_6">
     <g id="line2d_26">
      <g>
       <use xlink:href="#m206704bc78" x="69.587495" y="278.268658" style="stroke: #000000; stroke-width: 0.8"/>
      </g>
     </g>
     <g id="text_8">
      <!-- 10 -->
      <g transform="translate(45.187607 283.015782)scale(0.12495 -0.12495)">
       <use xlink:href="#DejaVuSans-31"/>
       <use xlink:href="#DejaVuSans-30" x="63.623047"/>
      </g>
     </g>
    </g>
    <g id="text_9">
     <!-- I -->
     <g transform="translate(38.068076 297.542359)rotate(-90)scale(0.15 -0.15)">
      <defs>
       <path id="DejaVuSans-49" d="M 628 4666 
L 1259 4666 
L 1259 0 
L 628 0 
L 628 4666 
z
" transform="scale(0.015625)"/>
      </defs>
      <use xlink:href="#DejaVuSans-49"/>
     </g>
    </g>
   </g>
   <g id="line2d_27">
    <path d="M 104.96079 335.139327 
L 148.15941 335.139327 
L 148.867584 255.520391 
L 768.519911 255.520391 
L 769.228085 335.139327 
L 812.426704 335.139327 
L 812.426704 335.139327 
" clip-path="url(#p125c2876a6)" style="fill: none; stroke: #1f77b4; stroke-width: 0.1; stroke-linecap: square"/>
   </g>
   <g id="patch_9">
    <path d="M 69.587495 339.120273 
L 69.587495 251.539444 
" style="fill: none; stroke: #000000; stroke-width: 0.8; stroke-linejoin: miter; stroke-linecap: square"/>
   </g>
   <g id="patch_10">
    <path d="M 69.587495 339.120273 
L 847.8 339.120273 
" style="fill: none; stroke: #000000; stroke-width: 0.8; stroke-linejoin: miter; stroke-linecap: square"/>
   </g>
  </g>
  <g id="axes_4">
   <g id="patch_11">
    <path d="M 69.587495 448.689995 
L 847.8 448.689995 
L 847.8 361.109166 
L 69.587495 361.109166 
z
" style="fill: #ffffff"/>
   </g>
   <g id="matplotlib.axis_7">
    <g id="xtick_19">
     <g id="line2d_28">
      <g>
       <use xlink:href="#mfb651f5045" x="104.96079" y="448.689995" style="stroke: #000000; stroke-width: 0.8"/>
      </g>
     </g>
     <g id="text_10">
      <!-- 0 -->
      <g transform="translate(100.985818 466.684243)scale(0.12495 -0.12495)">
       <use xlink:href="#DejaVuSans-30"/>
      </g>
     </g>
    </g>
    <g id="xtick_20">
     <g id="line2d_29">
      <g>
       <use xlink:href="#mfb651f5045" x="246.595608" y="448.689995" style="stroke: #000000; stroke-width: 0.8"/>
      </g>
     </g>
     <g id="text_11">
      <!-- 20 -->
      <g transform="translate(238.645664 466.684243)scale(0.12495 -0.12495)">
       <defs>
        <path id="DejaVuSans-32" d="M 1228 531 
L 3431 531 
L 3431 0 
L 469 0 
L 469 531 
Q 828 903 1448 1529 
Q 2069 2156 2228 2338 
Q 2531 2678 2651 2914 
Q 2772 3150 2772 3378 
Q 2772 3750 2511 3984 
Q 2250 4219 1831 4219 
Q 1534 4219 1204 4116 
Q 875 4013 500 3803 
L 500 4441 
Q 881 4594 1212 4672 
Q 1544 4750 1819 4750 
Q 2544 4750 2975 4387 
Q 3406 4025 3406 3419 
Q 3406 3131 3298 2873 
Q 3191 2616 2906 2266 
Q 2828 2175 2409 1742 
Q 1991 1309 1228 531 
z
" transform="scale(0.015625)"/>
       </defs>
       <use xlink:href="#DejaVuSans-32"/>
       <use xlink:href="#DejaVuSans-30" x="63.623047"/>
      </g>
     </g>
    </g>
    <g id="xtick_21">
     <g id="line2d_30">
      <g>
       <use xlink:href="#mfb651f5045" x="388.230425" y="448.689995" style="stroke: #000000; stroke-width: 0.8"/>
      </g>
     </g>
     <g id="text_12">
      <!-- 40 -->
      <g transform="translate(380.280482 466.684243)scale(0.12495 -0.12495)">
       <defs>
        <path id="DejaVuSans-34" d="M 2419 4116 
L 825 1625 
L 2419 1625 
L 2419 4116 
z
M 2253 4666 
L 3047 4666 
L 3047 1625 
L 3713 1625 
L 3713 1100 
L 3047 1100 
L 3047 0 
L 2419 0 
L 2419 1100 
L 313 1100 
L 313 1709 
L 2253 4666 
z
" transform="scale(0.015625)"/>
       </defs>
       <use xlink:href="#DejaVuSans-34"/>
       <use xlink:href="#DejaVuSans-30" x="63.623047"/>
      </g>
     </g>
    </g>
    <g id="xtick_22">
     <g id="line2d_31">
      <g>
       <use xlink:href="#mfb651f5045" x="529.865243" y="448.689995" style="stroke: #000000; stroke-width: 0.8"/>
      </g>
     </g>
     <g id="text_13">
      <!-- 60 -->
      <g transform="translate(521.915299 466.684243)scale(0.12495 -0.12495)">
       <defs>
        <path id="DejaVuSans-36" d="M 2113 2584 
Q 1688 2584 1439 2293 
Q 1191 2003 1191 1497 
Q 1191 994 1439 701 
Q 1688 409 2113 409 
Q 2538 409 2786 701 
Q 3034 994 3034 1497 
Q 3034 2003 2786 2293 
Q 2538 2584 2113 2584 
z
M 3366 4563 
L 3366 3988 
Q 3128 4100 2886 4159 
Q 2644 4219 2406 4219 
Q 1781 4219 1451 3797 
Q 1122 3375 1075 2522 
Q 1259 2794 1537 2939 
Q 1816 3084 2150 3084 
Q 2853 3084 3261 2657 
Q 3669 2231 3669 1497 
Q 3669 778 3244 343 
Q 2819 -91 2113 -91 
Q 1303 -91 875 529 
Q 447 1150 447 2328 
Q 447 3434 972 4092 
Q 1497 4750 2381 4750 
Q 2619 4750 2861 4703 
Q 3103 4656 3366 4563 
z
" transform="scale(0.015625)"/>
       </defs>
       <use xlink:href="#DejaVuSans-36"/>
       <use xlink:href="#DejaVuSans-30" x="63.623047"/>
      </g>
     </g>
    </g>
    <g id="xtick_23">
     <g id="line2d_32">
      <g>
       <use xlink:href="#mfb651f5045" x="671.500061" y="448.689995" style="stroke: #000000; stroke-width: 0.8"/>
      </g>
     </g>
     <g id="text_14">
      <!-- 80 -->
      <g transform="translate(663.550117 466.684243)scale(0.12495 -0.12495)">
       <defs>
        <path id="DejaVuSans-38" d="M 2034 2216 
Q 1584 2216 1326 1975 
Q 1069 1734 1069 1313 
Q 1069 891 1326 650 
Q 1584 409 2034 409 
Q 2484 409 2743 651 
Q 3003 894 3003 1313 
Q 3003 1734 2745 1975 
Q 2488 2216 2034 2216 
z
M 1403 2484 
Q 997 2584 770 2862 
Q 544 3141 544 3541 
Q 544 4100 942 4425 
Q 1341 4750 2034 4750 
Q 2731 4750 3128 4425 
Q 3525 4100 3525 3541 
Q 3525 3141 3298 2862 
Q 3072 2584 2669 2484 
Q 3125 2378 3379 2068 
Q 3634 1759 3634 1313 
Q 3634 634 3220 271 
Q 2806 -91 2034 -91 
Q 1263 -91 848 271 
Q 434 634 434 1313 
Q 434 1759 690 2068 
Q 947 2378 1403 2484 
z
M 1172 3481 
Q 1172 3119 1398 2916 
Q 1625 2713 2034 2713 
Q 2441 2713 2670 2916 
Q 2900 3119 2900 3481 
Q 2900 3844 2670 4047 
Q 2441 4250 2034 4250 
Q 1625 4250 1398 4047 
Q 1172 3844 1172 3481 
z
" transform="scale(0.015625)"/>
       </defs>
       <use xlink:href="#DejaVuSans-38"/>
       <use xlink:href="#DejaVuSans-30" x="63.623047"/>
      </g>
     </g>
    </g>
    <g id="xtick_24">
     <g id="line2d_33">
      <g>
       <use xlink:href="#mfb651f5045" x="813.134878" y="448.689995" style="stroke: #000000; stroke-width: 0.8"/>
      </g>
     </g>
     <g id="text_15">
      <!-- 100 -->
      <g transform="translate(801.209963 466.684243)scale(0.12495 -0.12495)">
       <use xlink:href="#DejaVuSans-31"/>
       <use xlink:href="#DejaVuSans-30" x="63.623047"/>
       <use xlink:href="#DejaVuSans-30" x="127.246094"/>
      </g>
     </g>
    </g>
    <g id="text_16">
     <!-- Time [ms] -->
     <g transform="translate(420.894919 484.680469)scale(0.15 -0.15)">
      <defs>
       <path id="DejaVuSans-54" d="M -19 4666 
L 3928 4666 
L 3928 4134 
L 2272 4134 
L 2272 0 
L 1638 0 
L 1638 4134 
L -19 4134 
L -19 4666 
z
" transform="scale(0.015625)"/>
       <path id="DejaVuSans-69" d="M 603 3500 
L 1178 3500 
L 1178 0 
L 603 0 
L 603 3500 
z
M 603 4863 
L 1178 4863 
L 1178 4134 
L 603 4134 
L 603 4863 
z
" transform="scale(0.015625)"/>
       <path id="DejaVuSans-6d" d="M 3328 2828 
Q 3544 3216 3844 3400 
Q 4144 3584 4550 3584 
Q 5097 3584 5394 3201 
Q 5691 2819 5691 2113 
L 5691 0 
L 5113 0 
L 5113 2094 
Q 5113 2597 4934 2840 
Q 4756 3084 4391 3084 
Q 3944 3084 3684 2787 
Q 3425 2491 3425 1978 
L 3425 0 
L 2847 0 
L 2847 2094 
Q 2847 2600 2669 2842 
Q 2491 3084 2119 3084 
Q 1678 3084 1418 2786 
Q 1159 2488 1159 1978 
L 1159 0 
L 581 0 
L 581 3500 
L 1159 3500 
L 1159 2956 
Q 1356 3278 1631 3431 
Q 1906 3584 2284 3584 
Q 2666 3584 2933 3390 
Q 3200 3197 3328 2828 
z
" transform="scale(0.015625)"/>
       <path id="DejaVuSans-65" d="M 3597 1894 
L 3597 1613 
L 953 1613 
Q 991 1019 1311 708 
Q 1631 397 2203 397 
Q 2534 397 2845 478 
Q 3156 559 3463 722 
L 3463 178 
Q 3153 47 2828 -22 
Q 2503 -91 2169 -91 
Q 1331 -91 842 396 
Q 353 884 353 1716 
Q 353 2575 817 3079 
Q 1281 3584 2069 3584 
Q 2775 3584 3186 3129 
Q 3597 2675 3597 1894 
z
M 3022 2063 
Q 3016 2534 2758 2815 
Q 2500 3097 2075 3097 
Q 1594 3097 1305 2825 
Q 1016 2553 972 2059 
L 3022 2063 
z
" transform="scale(0.015625)"/>
       <path id="DejaVuSans-20" transform="scale(0.015625)"/>
       <path id="DejaVuSans-5b" d="M 550 4863 
L 1875 4863 
L 1875 4416 
L 1125 4416 
L 1125 -397 
L 1875 -397 
L 1875 -844 
L 550 -844 
L 550 4863 
z
" transform="scale(0.015625)"/>
       <path id="DejaVuSans-73" d="M 2834 3397 
L 2834 2853 
Q 2591 2978 2328 3040 
Q 2066 3103 1784 3103 
Q 1356 3103 1142 2972 
Q 928 2841 928 2578 
Q 928 2378 1081 2264 
Q 1234 2150 1697 2047 
L 1894 2003 
Q 2506 1872 2764 1633 
Q 3022 1394 3022 966 
Q 3022 478 2636 193 
Q 2250 -91 1575 -91 
Q 1294 -91 989 -36 
Q 684 19 347 128 
L 347 722 
Q 666 556 975 473 
Q 1284 391 1588 391 
Q 1994 391 2212 530 
Q 2431 669 2431 922 
Q 2431 1156 2273 1281 
Q 2116 1406 1581 1522 
L 1381 1569 
Q 847 1681 609 1914 
Q 372 2147 372 2553 
Q 372 3047 722 3315 
Q 1072 3584 1716 3584 
Q 2034 3584 2315 3537 
Q 2597 3491 2834 3397 
z
" transform="scale(0.015625)"/>
       <path id="DejaVuSans-5d" d="M 1947 4863 
L 1947 -844 
L 622 -844 
L 622 -397 
L 1369 -397 
L 1369 4416 
L 622 4416 
L 622 4863 
L 1947 4863 
z
" transform="scale(0.015625)"/>
      </defs>
      <use xlink:href="#DejaVuSans-54"/>
      <use xlink:href="#DejaVuSans-69" x="57.958984"/>
      <use xlink:href="#DejaVuSans-6d" x="85.742188"/>
      <use xlink:href="#DejaVuSans-65" x="183.154297"/>
      <use xlink:href="#DejaVuSans-20" x="244.677734"/>
      <use xlink:href="#DejaVuSans-5b" x="276.464844"/>
      <use xlink:href="#DejaVuSans-6d" x="315.478516"/>
      <use xlink:href="#DejaVuSans-73" x="412.890625"/>
      <use xlink:href="#DejaVuSans-5d" x="464.990234"/>
     </g>
    </g>
   </g>
   <g id="matplotlib.axis_8">
    <g id="ytick_7">
     <g id="line2d_34">
      <g>
       <use xlink:href="#m206704bc78" x="69.587495" y="444.709049" style="stroke: #000000; stroke-width: 0.8"/>
      </g>
     </g>
     <g id="text_17">
      <!-- 0.0 -->
      <g transform="translate(41.21654 449.456172)scale(0.12495 -0.12495)">
       <defs>
        <path id="DejaVuSans-2e" d="M 684 794 
L 1344 794 
L 1344 0 
L 684 0 
L 684 794 
z
" transform="scale(0.015625)"/>
       </defs>
       <use xlink:href="#DejaVuSans-30"/>
       <use xlink:href="#DejaVuSans-2e" x="63.623047"/>
       <use xlink:href="#DejaVuSans-30" x="95.410156"/>
      </g>
     </g>
    </g>
    <g id="ytick_8">
     <g id="line2d_35">
      <g>
       <use xlink:href="#m206704bc78" x="69.587495" y="404.899581" style="stroke: #000000; stroke-width: 0.8"/>
      </g>
     </g>
     <g id="text_18">
      <!-- 0.5 -->
      <g transform="translate(41.21654 409.646704)scale(0.12495 -0.12495)">
       <use xlink:href="#DejaVuSans-30"/>
       <use xlink:href="#DejaVuSans-2e" x="63.623047"/>
       <use xlink:href="#DejaVuSans-35" x="95.410156"/>
      </g>
     </g>
    </g>
    <g id="ytick_9">
     <g id="line2d_36">
      <g>
       <use xlink:href="#m206704bc78" x="69.587495" y="365.090113" style="stroke: #000000; stroke-width: 0.8"/>
      </g>
     </g>
     <g id="text_19">
      <!-- 1.0 -->
      <g transform="translate(41.21654 369.837237)scale(0.12495 -0.12495)">
       <use xlink:href="#DejaVuSans-31"/>
       <use xlink:href="#DejaVuSans-2e" x="63.623047"/>
       <use xlink:href="#DejaVuSans-30" x="95.410156"/>
      </g>
     </g>
    </g>
    <g id="text_20">
     <!-- Bin spikes -->
     <g transform="translate(34.097009 442.610518)rotate(-90)scale(0.15 -0.15)">
      <defs>
       <path id="DejaVuSans-42" d="M 1259 2228 
L 1259 519 
L 2272 519 
Q 2781 519 3026 730 
Q 3272 941 3272 1375 
Q 3272 1813 3026 2020 
Q 2781 2228 2272 2228 
L 1259 2228 
z
M 1259 4147 
L 1259 2741 
L 2194 2741 
Q 2656 2741 2882 2914 
Q 3109 3088 3109 3444 
Q 3109 3797 2882 3972 
Q 2656 4147 2194 4147 
L 1259 4147 
z
M 628 4666 
L 2241 4666 
Q 2963 4666 3353 4366 
Q 3744 4066 3744 3513 
Q 3744 3084 3544 2831 
Q 3344 2578 2956 2516 
Q 3422 2416 3680 2098 
Q 3938 1781 3938 1306 
Q 3938 681 3513 340 
Q 3088 0 2303 0 
L 628 0 
L 628 4666 
z
" transform="scale(0.015625)"/>
       <path id="DejaVuSans-6e" d="M 3513 2113 
L 3513 0 
L 2938 0 
L 2938 2094 
Q 2938 2591 2744 2837 
Q 2550 3084 2163 3084 
Q 1697 3084 1428 2787 
Q 1159 2491 1159 1978 
L 1159 0 
L 581 0 
L 581 3500 
L 1159 3500 
L 1159 2956 
Q 1366 3272 1645 3428 
Q 1925 3584 2291 3584 
Q 2894 3584 3203 3211 
Q 3513 2838 3513 2113 
z
" transform="scale(0.015625)"/>
       <path id="DejaVuSans-70" d="M 1159 525 
L 1159 -1331 
L 581 -1331 
L 581 3500 
L 1159 3500 
L 1159 2969 
Q 1341 3281 1617 3432 
Q 1894 3584 2278 3584 
Q 2916 3584 3314 3078 
Q 3713 2572 3713 1747 
Q 3713 922 3314 415 
Q 2916 -91 2278 -91 
Q 1894 -91 1617 61 
Q 1341 213 1159 525 
z
M 3116 1747 
Q 3116 2381 2855 2742 
Q 2594 3103 2138 3103 
Q 1681 3103 1420 2742 
Q 1159 2381 1159 1747 
Q 1159 1113 1420 752 
Q 1681 391 2138 391 
Q 2594 391 2855 752 
Q 3116 1113 3116 1747 
z
" transform="scale(0.015625)"/>
       <path id="DejaVuSans-6b" d="M 581 4863 
L 1159 4863 
L 1159 1991 
L 2875 3500 
L 3609 3500 
L 1753 1863 
L 3688 0 
L 2938 0 
L 1159 1709 
L 1159 0 
L 581 0 
L 581 4863 
z
" transform="scale(0.015625)"/>
      </defs>
      <use xlink:href="#DejaVuSans-42"/>
      <use xlink:href="#DejaVuSans-69" x="68.603516"/>
      <use xlink:href="#DejaVuSans-6e" x="96.386719"/>
      <use xlink:href="#DejaVuSans-20" x="159.765625"/>
      <use xlink:href="#DejaVuSans-73" x="191.552734"/>
      <use xlink:href="#DejaVuSans-70" x="243.652344"/>
      <use xlink:href="#DejaVuSans-69" x="307.128906"/>
      <use xlink:href="#DejaVuSans-6b" x="334.912109"/>
      <use xlink:href="#DejaVuSans-65" x="389.197266"/>
      <use xlink:href="#DejaVuSans-73" x="450.720703"/>
     </g>
    </g>
   </g>
   <g id="LineCollection_1">
    <path d="M 104.96079 444.709049 
L 104.96079 444.709049 
" clip-path="url(#pef6cb96b72)" style="fill: none; stroke: #0000ff; stroke-width: 0.5"/>
    <path d="M 112.042531 444.709049 
L 112.042531 444.709049 
" clip-path="url(#pef6cb96b72)" style="fill: none; stroke: #0000ff; stroke-width: 0.5"/>
    <path d="M 119.124272 444.709049 
L 119.124272 444.709049 
" clip-path="url(#pef6cb96b72)" style="fill: none; stroke: #0000ff; stroke-width: 0.5"/>
    <path d="M 126.206013 444.709049 
L 126.206013 444.709049 
" clip-path="url(#pef6cb96b72)" style="fill: none; stroke: #0000ff; stroke-width: 0.5"/>
    <path d="M 133.287754 444.709049 
L 133.287754 444.709049 
" clip-path="url(#pef6cb96b72)" style="fill: none; stroke: #0000ff; stroke-width: 0.5"/>
    <path d="M 140.369495 444.709049 
L 140.369495 444.709049 
" clip-path="url(#pef6cb96b72)" style="fill: none; stroke: #0000ff; stroke-width: 0.5"/>
    <path d="M 147.451236 444.709049 
L 147.451236 444.709049 
" clip-path="url(#pef6cb96b72)" style="fill: none; stroke: #0000ff; stroke-width: 0.5"/>
    <path d="M 154.532976 444.709049 
L 154.532976 444.709049 
" clip-path="url(#pef6cb96b72)" style="fill: none; stroke: #0000ff; stroke-width: 0.5"/>
    <path d="M 161.614717 444.709049 
L 161.614717 444.709049 
" clip-path="url(#pef6cb96b72)" style="fill: none; stroke: #0000ff; stroke-width: 0.5"/>
    <path d="M 168.696458 444.709049 
L 168.696458 365.090113 
" clip-path="url(#pef6cb96b72)" style="fill: none; stroke: #0000ff; stroke-width: 0.5"/>
    <path d="M 175.778199 444.709049 
L 175.778199 444.709049 
" clip-path="url(#pef6cb96b72)" style="fill: none; stroke: #0000ff; stroke-width: 0.5"/>
    <path d="M 182.85994 444.709049 
L 182.85994 444.709049 
" clip-path="url(#pef6cb96b72)" style="fill: none; stroke: #0000ff; stroke-width: 0.5"/>
    <path d="M 189.941681 444.709049 
L 189.941681 365.090113 
" clip-path="url(#pef6cb96b72)" style="fill: none; stroke: #0000ff; stroke-width: 0.5"/>
    <path d="M 197.023422 444.709049 
L 197.023422 444.709049 
" clip-path="url(#pef6cb96b72)" style="fill: none; stroke: #0000ff; stroke-width: 0.5"/>
    <path d="M 204.105163 444.709049 
L 204.105163 444.709049 
" clip-path="url(#pef6cb96b72)" style="fill: none; stroke: #0000ff; stroke-width: 0.5"/>
    <path d="M 211.186903 444.709049 
L 211.186903 444.709049 
" clip-path="url(#pef6cb96b72)" style="fill: none; stroke: #0000ff; stroke-width: 0.5"/>
    <path d="M 218.268644 444.709049 
L 218.268644 444.709049 
" clip-path="url(#pef6cb96b72)" style="fill: none; stroke: #0000ff; stroke-width: 0.5"/>
    <path d="M 225.350385 444.709049 
L 225.350385 444.709049 
" clip-path="url(#pef6cb96b72)" style="fill: none; stroke: #0000ff; stroke-width: 0.5"/>
    <path d="M 232.432126 444.709049 
L 232.432126 444.709049 
" clip-path="url(#pef6cb96b72)" style="fill: none; stroke: #0000ff; stroke-width: 0.5"/>
    <path d="M 239.513867 444.709049 
L 239.513867 444.709049 
" clip-path="url(#pef6cb96b72)" style="fill: none; stroke: #0000ff; stroke-width: 0.5"/>
    <path d="M 246.595608 444.709049 
L 246.595608 444.709049 
" clip-path="url(#pef6cb96b72)" style="fill: none; stroke: #0000ff; stroke-width: 0.5"/>
    <path d="M 253.677349 444.709049 
L 253.677349 444.709049 
" clip-path="url(#pef6cb96b72)" style="fill: none; stroke: #0000ff; stroke-width: 0.5"/>
    <path d="M 260.75909 444.709049 
L 260.75909 444.709049 
" clip-path="url(#pef6cb96b72)" style="fill: none; stroke: #0000ff; stroke-width: 0.5"/>
    <path d="M 267.840831 444.709049 
L 267.840831 444.709049 
" clip-path="url(#pef6cb96b72)" style="fill: none; stroke: #0000ff; stroke-width: 0.5"/>
    <path d="M 274.922571 444.709049 
L 274.922571 444.709049 
" clip-path="url(#pef6cb96b72)" style="fill: none; stroke: #0000ff; stroke-width: 0.5"/>
    <path d="M 282.004312 444.709049 
L 282.004312 444.709049 
" clip-path="url(#pef6cb96b72)" style="fill: none; stroke: #0000ff; stroke-width: 0.5"/>
    <path d="M 289.086053 444.709049 
L 289.086053 365.090113 
" clip-path="url(#pef6cb96b72)" style="fill: none; stroke: #0000ff; stroke-width: 0.5"/>
    <path d="M 296.167794 444.709049 
L 296.167794 444.709049 
" clip-path="url(#pef6cb96b72)" style="fill: none; stroke: #0000ff; stroke-width: 0.5"/>
    <path d="M 303.249535 444.709049 
L 303.249535 444.709049 
" clip-path="url(#pef6cb96b72)" style="fill: none; stroke: #0000ff; stroke-width: 0.5"/>
    <path d="M 310.331276 444.709049 
L 310.331276 444.709049 
" clip-path="url(#pef6cb96b72)" style="fill: none; stroke: #0000ff; stroke-width: 0.5"/>
    <path d="M 317.413017 444.709049 
L 317.413017 444.709049 
" clip-path="url(#pef6cb96b72)" style="fill: none; stroke: #0000ff; stroke-width: 0.5"/>
    <path d="M 324.494758 444.709049 
L 324.494758 444.709049 
" clip-path="url(#pef6cb96b72)" style="fill: none; stroke: #0000ff; stroke-width: 0.5"/>
    <path d="M 331.576498 444.709049 
L 331.576498 444.709049 
" clip-path="url(#pef6cb96b72)" style="fill: none; stroke: #0000ff; stroke-width: 0.5"/>
    <path d="M 338.658239 444.709049 
L 338.658239 444.709049 
" clip-path="url(#pef6cb96b72)" style="fill: none; stroke: #0000ff; stroke-width: 0.5"/>
    <path d="M 345.73998 444.709049 
L 345.73998 444.709049 
" clip-path="url(#pef6cb96b72)" style="fill: none; stroke: #0000ff; stroke-width: 0.5"/>
    <path d="M 352.821721 444.709049 
L 352.821721 444.709049 
" clip-path="url(#pef6cb96b72)" style="fill: none; stroke: #0000ff; stroke-width: 0.5"/>
    <path d="M 359.903462 444.709049 
L 359.903462 444.709049 
" clip-path="url(#pef6cb96b72)" style="fill: none; stroke: #0000ff; stroke-width: 0.5"/>
    <path d="M 366.985203 444.709049 
L 366.985203 444.709049 
" clip-path="url(#pef6cb96b72)" style="fill: none; stroke: #0000ff; stroke-width: 0.5"/>
    <path d="M 374.066944 444.709049 
L 374.066944 444.709049 
" clip-path="url(#pef6cb96b72)" style="fill: none; stroke: #0000ff; stroke-width: 0.5"/>
    <path d="M 381.148685 444.709049 
L 381.148685 444.709049 
" clip-path="url(#pef6cb96b72)" style="fill: none; stroke: #0000ff; stroke-width: 0.5"/>
    <path d="M 388.230425 444.709049 
L 388.230425 444.709049 
" clip-path="url(#pef6cb96b72)" style="fill: none; stroke: #0000ff; stroke-width: 0.5"/>
    <path d="M 395.312166 444.709049 
L 395.312166 444.709049 
" clip-path="url(#pef6cb96b72)" style="fill: none; stroke: #0000ff; stroke-width: 0.5"/>
    <path d="M 402.393907 444.709049 
L 402.393907 444.709049 
" clip-path="url(#pef6cb96b72)" style="fill: none; stroke: #0000ff; stroke-width: 0.5"/>
    <path d="M 409.475648 444.709049 
L 409.475648 444.709049 
" clip-path="url(#pef6cb96b72)" style="fill: none; stroke: #0000ff; stroke-width: 0.5"/>
    <path d="M 416.557389 444.709049 
L 416.557389 444.709049 
" clip-path="url(#pef6cb96b72)" style="fill: none; stroke: #0000ff; stroke-width: 0.5"/>
    <path d="M 423.63913 444.709049 
L 423.63913 444.709049 
" clip-path="url(#pef6cb96b72)" style="fill: none; stroke: #0000ff; stroke-width: 0.5"/>
    <path d="M 430.720871 444.709049 
L 430.720871 444.709049 
" clip-path="url(#pef6cb96b72)" style="fill: none; stroke: #0000ff; stroke-width: 0.5"/>
    <path d="M 437.802612 444.709049 
L 437.802612 444.709049 
" clip-path="url(#pef6cb96b72)" style="fill: none; stroke: #0000ff; stroke-width: 0.5"/>
    <path d="M 444.884353 444.709049 
L 444.884353 444.709049 
" clip-path="url(#pef6cb96b72)" style="fill: none; stroke: #0000ff; stroke-width: 0.5"/>
    <path d="M 451.966093 444.709049 
L 451.966093 444.709049 
" clip-path="url(#pef6cb96b72)" style="fill: none; stroke: #0000ff; stroke-width: 0.5"/>
    <path d="M 459.047834 444.709049 
L 459.047834 444.709049 
" clip-path="url(#pef6cb96b72)" style="fill: none; stroke: #0000ff; stroke-width: 0.5"/>
    <path d="M 466.129575 444.709049 
L 466.129575 444.709049 
" clip-path="url(#pef6cb96b72)" style="fill: none; stroke: #0000ff; stroke-width: 0.5"/>
    <path d="M 473.211316 444.709049 
L 473.211316 444.709049 
" clip-path="url(#pef6cb96b72)" style="fill: none; stroke: #0000ff; stroke-width: 0.5"/>
    <path d="M 480.293057 444.709049 
L 480.293057 365.090113 
" clip-path="url(#pef6cb96b72)" style="fill: none; stroke: #0000ff; stroke-width: 0.5"/>
    <path d="M 487.374798 444.709049 
L 487.374798 444.709049 
" clip-path="url(#pef6cb96b72)" style="fill: none; stroke: #0000ff; stroke-width: 0.5"/>
    <path d="M 494.456539 444.709049 
L 494.456539 444.709049 
" clip-path="url(#pef6cb96b72)" style="fill: none; stroke: #0000ff; stroke-width: 0.5"/>
    <path d="M 501.53828 444.709049 
L 501.53828 444.709049 
" clip-path="url(#pef6cb96b72)" style="fill: none; stroke: #0000ff; stroke-width: 0.5"/>
    <path d="M 508.62002 444.709049 
L 508.62002 444.709049 
" clip-path="url(#pef6cb96b72)" style="fill: none; stroke: #0000ff; stroke-width: 0.5"/>
    <path d="M 515.701761 444.709049 
L 515.701761 444.709049 
" clip-path="url(#pef6cb96b72)" style="fill: none; stroke: #0000ff; stroke-width: 0.5"/>
    <path d="M 522.783502 444.709049 
L 522.783502 444.709049 
" clip-path="url(#pef6cb96b72)" style="fill: none; stroke: #0000ff; stroke-width: 0.5"/>
    <path d="M 529.865243 444.709049 
L 529.865243 444.709049 
" clip-path="url(#pef6cb96b72)" style="fill: none; stroke: #0000ff; stroke-width: 0.5"/>
    <path d="M 536.946984 444.709049 
L 536.946984 444.709049 
" clip-path="url(#pef6cb96b72)" style="fill: none; stroke: #0000ff; stroke-width: 0.5"/>
    <path d="M 544.028725 444.709049 
L 544.028725 444.709049 
" clip-path="url(#pef6cb96b72)" style="fill: none; stroke: #0000ff; stroke-width: 0.5"/>
    <path d="M 551.110466 444.709049 
L 551.110466 444.709049 
" clip-path="url(#pef6cb96b72)" style="fill: none; stroke: #0000ff; stroke-width: 0.5"/>
    <path d="M 558.192207 444.709049 
L 558.192207 444.709049 
" clip-path="url(#pef6cb96b72)" style="fill: none; stroke: #0000ff; stroke-width: 0.5"/>
    <path d="M 565.273948 444.709049 
L 565.273948 444.709049 
" clip-path="url(#pef6cb96b72)" style="fill: none; stroke: #0000ff; stroke-width: 0.5"/>
    <path d="M 572.355688 444.709049 
L 572.355688 444.709049 
" clip-path="url(#pef6cb96b72)" style="fill: none; stroke: #0000ff; stroke-width: 0.5"/>
    <path d="M 579.437429 444.709049 
L 579.437429 444.709049 
" clip-path="url(#pef6cb96b72)" style="fill: none; stroke: #0000ff; stroke-width: 0.5"/>
    <path d="M 586.51917 444.709049 
L 586.51917 444.709049 
" clip-path="url(#pef6cb96b72)" style="fill: none; stroke: #0000ff; stroke-width: 0.5"/>
    <path d="M 593.600911 444.709049 
L 593.600911 444.709049 
" clip-path="url(#pef6cb96b72)" style="fill: none; stroke: #0000ff; stroke-width: 0.5"/>
    <path d="M 600.682652 444.709049 
L 600.682652 444.709049 
" clip-path="url(#pef6cb96b72)" style="fill: none; stroke: #0000ff; stroke-width: 0.5"/>
    <path d="M 607.764393 444.709049 
L 607.764393 444.709049 
" clip-path="url(#pef6cb96b72)" style="fill: none; stroke: #0000ff; stroke-width: 0.5"/>
    <path d="M 614.846134 444.709049 
L 614.846134 444.709049 
" clip-path="url(#pef6cb96b72)" style="fill: none; stroke: #0000ff; stroke-width: 0.5"/>
    <path d="M 621.927875 444.709049 
L 621.927875 444.709049 
" clip-path="url(#pef6cb96b72)" style="fill: none; stroke: #0000ff; stroke-width: 0.5"/>
    <path d="M 629.009615 444.709049 
L 629.009615 444.709049 
" clip-path="url(#pef6cb96b72)" style="fill: none; stroke: #0000ff; stroke-width: 0.5"/>
    <path d="M 636.091356 444.709049 
L 636.091356 444.709049 
" clip-path="url(#pef6cb96b72)" style="fill: none; stroke: #0000ff; stroke-width: 0.5"/>
    <path d="M 643.173097 444.709049 
L 643.173097 444.709049 
" clip-path="url(#pef6cb96b72)" style="fill: none; stroke: #0000ff; stroke-width: 0.5"/>
    <path d="M 650.254838 444.709049 
L 650.254838 444.709049 
" clip-path="url(#pef6cb96b72)" style="fill: none; stroke: #0000ff; stroke-width: 0.5"/>
    <path d="M 657.336579 444.709049 
L 657.336579 444.709049 
" clip-path="url(#pef6cb96b72)" style="fill: none; stroke: #0000ff; stroke-width: 0.5"/>
    <path d="M 664.41832 444.709049 
L 664.41832 444.709049 
" clip-path="url(#pef6cb96b72)" style="fill: none; stroke: #0000ff; stroke-width: 0.5"/>
    <path d="M 671.500061 444.709049 
L 671.500061 365.090113 
" clip-path="url(#pef6cb96b72)" style="fill: none; stroke: #0000ff; stroke-width: 0.5"/>
    <path d="M 678.581802 444.709049 
L 678.581802 444.709049 
" clip-path="url(#pef6cb96b72)" style="fill: none; stroke: #0000ff; stroke-width: 0.5"/>
    <path d="M 685.663543 444.709049 
L 685.663543 444.709049 
" clip-path="url(#pef6cb96b72)" style="fill: none; stroke: #0000ff; stroke-width: 0.5"/>
    <path d="M 692.745283 444.709049 
L 692.745283 444.709049 
" clip-path="url(#pef6cb96b72)" style="fill: none; stroke: #0000ff; stroke-width: 0.5"/>
    <path d="M 699.827024 444.709049 
L 699.827024 444.709049 
" clip-path="url(#pef6cb96b72)" style="fill: none; stroke: #0000ff; stroke-width: 0.5"/>
    <path d="M 706.908765 444.709049 
L 706.908765 444.709049 
" clip-path="url(#pef6cb96b72)" style="fill: none; stroke: #0000ff; stroke-width: 0.5"/>
    <path d="M 713.990506 444.709049 
L 713.990506 444.709049 
" clip-path="url(#pef6cb96b72)" style="fill: none; stroke: #0000ff; stroke-width: 0.5"/>
    <path d="M 721.072247 444.709049 
L 721.072247 444.709049 
" clip-path="url(#pef6cb96b72)" style="fill: none; stroke: #0000ff; stroke-width: 0.5"/>
    <path d="M 728.153988 444.709049 
L 728.153988 444.709049 
" clip-path="url(#pef6cb96b72)" style="fill: none; stroke: #0000ff; stroke-width: 0.5"/>
    <path d="M 735.235729 444.709049 
L 735.235729 444.709049 
" clip-path="url(#pef6cb96b72)" style="fill: none; stroke: #0000ff; stroke-width: 0.5"/>
    <path d="M 742.31747 444.709049 
L 742.31747 444.709049 
" clip-path="url(#pef6cb96b72)" style="fill: none; stroke: #0000ff; stroke-width: 0.5"/>
    <path d="M 749.39921 444.709049 
L 749.39921 444.709049 
" clip-path="url(#pef6cb96b72)" style="fill: none; stroke: #0000ff; stroke-width: 0.5"/>
    <path d="M 756.480951 444.709049 
L 756.480951 444.709049 
" clip-path="url(#pef6cb96b72)" style="fill: none; stroke: #0000ff; stroke-width: 0.5"/>
    <path d="M 763.562692 444.709049 
L 763.562692 444.709049 
" clip-path="url(#pef6cb96b72)" style="fill: none; stroke: #0000ff; stroke-width: 0.5"/>
    <path d="M 770.644433 444.709049 
L 770.644433 444.709049 
" clip-path="url(#pef6cb96b72)" style="fill: none; stroke: #0000ff; stroke-width: 0.5"/>
    <path d="M 777.726174 444.709049 
L 777.726174 444.709049 
" clip-path="url(#pef6cb96b72)" style="fill: none; stroke: #0000ff; stroke-width: 0.5"/>
    <path d="M 784.807915 444.709049 
L 784.807915 444.709049 
" clip-path="url(#pef6cb96b72)" style="fill: none; stroke: #0000ff; stroke-width: 0.5"/>
    <path d="M 791.889656 444.709049 
L 791.889656 444.709049 
" clip-path="url(#pef6cb96b72)" style="fill: none; stroke: #0000ff; stroke-width: 0.5"/>
    <path d="M 798.971397 444.709049 
L 798.971397 444.709049 
" clip-path="url(#pef6cb96b72)" style="fill: none; stroke: #0000ff; stroke-width: 0.5"/>
    <path d="M 806.053138 444.709049 
L 806.053138 444.709049 
" clip-path="url(#pef6cb96b72)" style="fill: none; stroke: #0000ff; stroke-width: 0.5"/>
   </g>
   <g id="line2d_37">
    <defs>
     <path id="m036add3587" d="M 0 3 
C 0.795609 3 1.55874 2.683901 2.12132 2.12132 
C 2.683901 1.55874 3 0.795609 3 0 
C 3 -0.795609 2.683901 -1.55874 2.12132 -2.12132 
C 1.55874 -2.683901 0.795609 -3 0 -3 
C -0.795609 -3 -1.55874 -2.683901 -2.12132 -2.12132 
C -2.683901 -1.55874 -3 -0.795609 -3 0 
C -3 0.795609 -2.683901 1.55874 -2.12132 2.12132 
C -1.55874 2.683901 -0.795609 3 0 3 
z
" style="stroke: #1f77b4"/>
    </defs>
    <g clip-path="url(#pef6cb96b72)">
     <use xlink:href="#m036add3587" x="104.96079" y="444.709049" style="fill-opacity: 0; stroke: #1f77b4"/>
     <use xlink:href="#m036add3587" x="112.042531" y="444.709049" style="fill-opacity: 0; stroke: #1f77b4"/>
     <use xlink:href="#m036add3587" x="119.124272" y="444.709049" style="fill-opacity: 0; stroke: #1f77b4"/>
     <use xlink:href="#m036add3587" x="126.206013" y="444.709049" style="fill-opacity: 0; stroke: #1f77b4"/>
     <use xlink:href="#m036add3587" x="133.287754" y="444.709049" style="fill-opacity: 0; stroke: #1f77b4"/>
     <use xlink:href="#m036add3587" x="140.369495" y="444.709049" style="fill-opacity: 0; stroke: #1f77b4"/>
     <use xlink:href="#m036add3587" x="147.451236" y="444.709049" style="fill-opacity: 0; stroke: #1f77b4"/>
     <use xlink:href="#m036add3587" x="154.532976" y="444.709049" style="fill-opacity: 0; stroke: #1f77b4"/>
     <use xlink:href="#m036add3587" x="161.614717" y="444.709049" style="fill-opacity: 0; stroke: #1f77b4"/>
     <use xlink:href="#m036add3587" x="168.696458" y="365.090113" style="fill-opacity: 0; stroke: #1f77b4"/>
     <use xlink:href="#m036add3587" x="175.778199" y="444.709049" style="fill-opacity: 0; stroke: #1f77b4"/>
     <use xlink:href="#m036add3587" x="182.85994" y="444.709049" style="fill-opacity: 0; stroke: #1f77b4"/>
     <use xlink:href="#m036add3587" x="189.941681" y="365.090113" style="fill-opacity: 0; stroke: #1f77b4"/>
     <use xlink:href="#m036add3587" x="197.023422" y="444.709049" style="fill-opacity: 0; stroke: #1f77b4"/>
     <use xlink:href="#m036add3587" x="204.105163" y="444.709049" style="fill-opacity: 0; stroke: #1f77b4"/>
     <use xlink:href="#m036add3587" x="211.186903" y="444.709049" style="fill-opacity: 0; stroke: #1f77b4"/>
     <use xlink:href="#m036add3587" x="218.268644" y="444.709049" style="fill-opacity: 0; stroke: #1f77b4"/>
     <use xlink:href="#m036add3587" x="225.350385" y="444.709049" style="fill-opacity: 0; stroke: #1f77b4"/>
     <use xlink:href="#m036add3587" x="232.432126" y="444.709049" style="fill-opacity: 0; stroke: #1f77b4"/>
     <use xlink:href="#m036add3587" x="239.513867" y="444.709049" style="fill-opacity: 0; stroke: #1f77b4"/>
     <use xlink:href="#m036add3587" x="246.595608" y="444.709049" style="fill-opacity: 0; stroke: #1f77b4"/>
     <use xlink:href="#m036add3587" x="253.677349" y="444.709049" style="fill-opacity: 0; stroke: #1f77b4"/>
     <use xlink:href="#m036add3587" x="260.75909" y="444.709049" style="fill-opacity: 0; stroke: #1f77b4"/>
     <use xlink:href="#m036add3587" x="267.840831" y="444.709049" style="fill-opacity: 0; stroke: #1f77b4"/>
     <use xlink:href="#m036add3587" x="274.922571" y="444.709049" style="fill-opacity: 0; stroke: #1f77b4"/>
     <use xlink:href="#m036add3587" x="282.004312" y="444.709049" style="fill-opacity: 0; stroke: #1f77b4"/>
     <use xlink:href="#m036add3587" x="289.086053" y="365.090113" style="fill-opacity: 0; stroke: #1f77b4"/>
     <use xlink:href="#m036add3587" x="296.167794" y="444.709049" style="fill-opacity: 0; stroke: #1f77b4"/>
     <use xlink:href="#m036add3587" x="303.249535" y="444.709049" style="fill-opacity: 0; stroke: #1f77b4"/>
     <use xlink:href="#m036add3587" x="310.331276" y="444.709049" style="fill-opacity: 0; stroke: #1f77b4"/>
     <use xlink:href="#m036add3587" x="317.413017" y="444.709049" style="fill-opacity: 0; stroke: #1f77b4"/>
     <use xlink:href="#m036add3587" x="324.494758" y="444.709049" style="fill-opacity: 0; stroke: #1f77b4"/>
     <use xlink:href="#m036add3587" x="331.576498" y="444.709049" style="fill-opacity: 0; stroke: #1f77b4"/>
     <use xlink:href="#m036add3587" x="338.658239" y="444.709049" style="fill-opacity: 0; stroke: #1f77b4"/>
     <use xlink:href="#m036add3587" x="345.73998" y="444.709049" style="fill-opacity: 0; stroke: #1f77b4"/>
     <use xlink:href="#m036add3587" x="352.821721" y="444.709049" style="fill-opacity: 0; stroke: #1f77b4"/>
     <use xlink:href="#m036add3587" x="359.903462" y="444.709049" style="fill-opacity: 0; stroke: #1f77b4"/>
     <use xlink:href="#m036add3587" x="366.985203" y="444.709049" style="fill-opacity: 0; stroke: #1f77b4"/>
     <use xlink:href="#m036add3587" x="374.066944" y="444.709049" style="fill-opacity: 0; stroke: #1f77b4"/>
     <use xlink:href="#m036add3587" x="381.148685" y="444.709049" style="fill-opacity: 0; stroke: #1f77b4"/>
     <use xlink:href="#m036add3587" x="388.230425" y="444.709049" style="fill-opacity: 0; stroke: #1f77b4"/>
     <use xlink:href="#m036add3587" x="395.312166" y="444.709049" style="fill-opacity: 0; stroke: #1f77b4"/>
     <use xlink:href="#m036add3587" x="402.393907" y="444.709049" style="fill-opacity: 0; stroke: #1f77b4"/>
     <use xlink:href="#m036add3587" x="409.475648" y="444.709049" style="fill-opacity: 0; stroke: #1f77b4"/>
     <use xlink:href="#m036add3587" x="416.557389" y="444.709049" style="fill-opacity: 0; stroke: #1f77b4"/>
     <use xlink:href="#m036add3587" x="423.63913" y="444.709049" style="fill-opacity: 0; stroke: #1f77b4"/>
     <use xlink:href="#m036add3587" x="430.720871" y="444.709049" style="fill-opacity: 0; stroke: #1f77b4"/>
     <use xlink:href="#m036add3587" x="437.802612" y="444.709049" style="fill-opacity: 0; stroke: #1f77b4"/>
     <use xlink:href="#m036add3587" x="444.884353" y="444.709049" style="fill-opacity: 0; stroke: #1f77b4"/>
     <use xlink:href="#m036add3587" x="451.966093" y="444.709049" style="fill-opacity: 0; stroke: #1f77b4"/>
     <use xlink:href="#m036add3587" x="459.047834" y="444.709049" style="fill-opacity: 0; stroke: #1f77b4"/>
     <use xlink:href="#m036add3587" x="466.129575" y="444.709049" style="fill-opacity: 0; stroke: #1f77b4"/>
     <use xlink:href="#m036add3587" x="473.211316" y="444.709049" style="fill-opacity: 0; stroke: #1f77b4"/>
     <use xlink:href="#m036add3587" x="480.293057" y="365.090113" style="fill-opacity: 0; stroke: #1f77b4"/>
     <use xlink:href="#m036add3587" x="487.374798" y="444.709049" style="fill-opacity: 0; stroke: #1f77b4"/>
     <use xlink:href="#m036add3587" x="494.456539" y="444.709049" style="fill-opacity: 0; stroke: #1f77b4"/>
     <use xlink:href="#m036add3587" x="501.53828" y="444.709049" style="fill-opacity: 0; stroke: #1f77b4"/>
     <use xlink:href="#m036add3587" x="508.62002" y="444.709049" style="fill-opacity: 0; stroke: #1f77b4"/>
     <use xlink:href="#m036add3587" x="515.701761" y="444.709049" style="fill-opacity: 0; stroke: #1f77b4"/>
     <use xlink:href="#m036add3587" x="522.783502" y="444.709049" style="fill-opacity: 0; stroke: #1f77b4"/>
     <use xlink:href="#m036add3587" x="529.865243" y="444.709049" style="fill-opacity: 0; stroke: #1f77b4"/>
     <use xlink:href="#m036add3587" x="536.946984" y="444.709049" style="fill-opacity: 0; stroke: #1f77b4"/>
     <use xlink:href="#m036add3587" x="544.028725" y="444.709049" style="fill-opacity: 0; stroke: #1f77b4"/>
     <use xlink:href="#m036add3587" x="551.110466" y="444.709049" style="fill-opacity: 0; stroke: #1f77b4"/>
     <use xlink:href="#m036add3587" x="558.192207" y="444.709049" style="fill-opacity: 0; stroke: #1f77b4"/>
     <use xlink:href="#m036add3587" x="565.273948" y="444.709049" style="fill-opacity: 0; stroke: #1f77b4"/>
     <use xlink:href="#m036add3587" x="572.355688" y="444.709049" style="fill-opacity: 0; stroke: #1f77b4"/>
     <use xlink:href="#m036add3587" x="579.437429" y="444.709049" style="fill-opacity: 0; stroke: #1f77b4"/>
     <use xlink:href="#m036add3587" x="586.51917" y="444.709049" style="fill-opacity: 0; stroke: #1f77b4"/>
     <use xlink:href="#m036add3587" x="593.600911" y="444.709049" style="fill-opacity: 0; stroke: #1f77b4"/>
     <use xlink:href="#m036add3587" x="600.682652" y="444.709049" style="fill-opacity: 0; stroke: #1f77b4"/>
     <use xlink:href="#m036add3587" x="607.764393" y="444.709049" style="fill-opacity: 0; stroke: #1f77b4"/>
     <use xlink:href="#m036add3587" x="614.846134" y="444.709049" style="fill-opacity: 0; stroke: #1f77b4"/>
     <use xlink:href="#m036add3587" x="621.927875" y="444.709049" style="fill-opacity: 0; stroke: #1f77b4"/>
     <use xlink:href="#m036add3587" x="629.009615" y="444.709049" style="fill-opacity: 0; stroke: #1f77b4"/>
     <use xlink:href="#m036add3587" x="636.091356" y="444.709049" style="fill-opacity: 0; stroke: #1f77b4"/>
     <use xlink:href="#m036add3587" x="643.173097" y="444.709049" style="fill-opacity: 0; stroke: #1f77b4"/>
     <use xlink:href="#m036add3587" x="650.254838" y="444.709049" style="fill-opacity: 0; stroke: #1f77b4"/>
     <use xlink:href="#m036add3587" x="657.336579" y="444.709049" style="fill-opacity: 0; stroke: #1f77b4"/>
     <use xlink:href="#m036add3587" x="664.41832" y="444.709049" style="fill-opacity: 0; stroke: #1f77b4"/>
     <use xlink:href="#m036add3587" x="671.500061" y="365.090113" style="fill-opacity: 0; stroke: #1f77b4"/>
     <use xlink:href="#m036add3587" x="678.581802" y="444.709049" style="fill-opacity: 0; stroke: #1f77b4"/>
     <use xlink:href="#m036add3587" x="685.663543" y="444.709049" style="fill-opacity: 0; stroke: #1f77b4"/>
     <use xlink:href="#m036add3587" x="692.745283" y="444.709049" style="fill-opacity: 0; stroke: #1f77b4"/>
     <use xlink:href="#m036add3587" x="699.827024" y="444.709049" style="fill-opacity: 0; stroke: #1f77b4"/>
     <use xlink:href="#m036add3587" x="706.908765" y="444.709049" style="fill-opacity: 0; stroke: #1f77b4"/>
     <use xlink:href="#m036add3587" x="713.990506" y="444.709049" style="fill-opacity: 0; stroke: #1f77b4"/>
     <use xlink:href="#m036add3587" x="721.072247" y="444.709049" style="fill-opacity: 0; stroke: #1f77b4"/>
     <use xlink:href="#m036add3587" x="728.153988" y="444.709049" style="fill-opacity: 0; stroke: #1f77b4"/>
     <use xlink:href="#m036add3587" x="735.235729" y="444.709049" style="fill-opacity: 0; stroke: #1f77b4"/>
     <use xlink:href="#m036add3587" x="742.31747" y="444.709049" style="fill-opacity: 0; stroke: #1f77b4"/>
     <use xlink:href="#m036add3587" x="749.39921" y="444.709049" style="fill-opacity: 0; stroke: #1f77b4"/>
     <use xlink:href="#m036add3587" x="756.480951" y="444.709049" style="fill-opacity: 0; stroke: #1f77b4"/>
     <use xlink:href="#m036add3587" x="763.562692" y="444.709049" style="fill-opacity: 0; stroke: #1f77b4"/>
     <use xlink:href="#m036add3587" x="770.644433" y="444.709049" style="fill-opacity: 0; stroke: #1f77b4"/>
     <use xlink:href="#m036add3587" x="777.726174" y="444.709049" style="fill-opacity: 0; stroke: #1f77b4"/>
     <use xlink:href="#m036add3587" x="784.807915" y="444.709049" style="fill-opacity: 0; stroke: #1f77b4"/>
     <use xlink:href="#m036add3587" x="791.889656" y="444.709049" style="fill-opacity: 0; stroke: #1f77b4"/>
     <use xlink:href="#m036add3587" x="798.971397" y="444.709049" style="fill-opacity: 0; stroke: #1f77b4"/>
     <use xlink:href="#m036add3587" x="806.053138" y="444.709049" style="fill-opacity: 0; stroke: #1f77b4"/>
    </g>
   </g>
   <g id="line2d_38">
    <path d="M 104.96079 444.709049 
L 806.053138 444.709049 
" clip-path="url(#pef6cb96b72)" style="fill: none; stroke: #0000ff; stroke-width: 0.5; stroke-linecap: square"/>
   </g>
   <g id="patch_12">
    <path d="M 69.587495 448.689995 
L 69.587495 361.109166 
" style="fill: none; stroke: #000000; stroke-width: 0.8; stroke-linejoin: miter; stroke-linecap: square"/>
   </g>
   <g id="patch_13">
    <path d="M 69.587495 448.689995 
L 847.8 448.689995 
" style="fill: none; stroke: #000000; stroke-width: 0.8; stroke-linejoin: miter; stroke-linecap: square"/>
   </g>
  </g>
 </g>
 <defs>
  <clipPath id="p1a8eaaf877">
   <rect x="69.587495" y="32.4" width="778.212505" height="87.580829"/>
  </clipPath>
  <clipPath id="pbb431c5448">
   <rect x="69.587495" y="141.969722" width="778.212505" height="87.580829"/>
  </clipPath>
  <clipPath id="p125c2876a6">
   <rect x="69.587495" y="251.539444" width="778.212505" height="87.580829"/>
  </clipPath>
  <clipPath id="pef6cb96b72">
   <rect x="69.587495" y="361.109166" width="778.212505" height="87.580829"/>
  </clipPath>
 </defs>
</svg>
