<?xml version="1.0" encoding="utf-8" standalone="no"?>
<!DOCTYPE svg PUBLIC "-//W3C//DTD SVG 1.1//EN"
  "http://www.w3.org/Graphics/SVG/1.1/DTD/svg11.dtd">
<svg xmlns:xlink="http://www.w3.org/1999/xlink" width="576pt" height="360pt" viewBox="0 0 576 360" xmlns="http://www.w3.org/2000/svg" version="1.1">
 <metadata>
  <rdf:RDF xmlns:dc="http://purl.org/dc/elements/1.1/" xmlns:cc="http://creativecommons.org/ns#" xmlns:rdf="http://www.w3.org/1999/02/22-rdf-syntax-ns#">
   <cc:Work>
    <dc:type rdf:resource="http://purl.org/dc/dcmitype/StillImage"/>
    <dc:date>2022-08-30T12:34:54.320732</dc:date>
    <dc:format>image/svg+xml</dc:format>
    <dc:creator>
     <cc:Agent>
      <dc:title>Matplotlib v3.5.3, https://matplotlib.org/</dc:title>
     </cc:Agent>
    </dc:creator>
   </cc:Work>
  </rdf:RDF>
 </metadata>
 <defs>
  <style type="text/css">*{stroke-linejoin: round; stroke-linecap: butt}</style>
 </defs>
 <g id="figure_1">
  <g id="patch_1">
   <path d="M 0 360 
L 576 360 
L 576 0 
L 0 0 
z
" style="fill: #ffffff"/>
  </g>
  <g id="axes_1">
   <g id="patch_2">
    <path d="M 69.587495 56.355266 
L 559.8 56.355266 
L 559.8 16.2 
L 69.587495 16.2 
z
" style="fill: #ffffff"/>
   </g>
   <g id="PathCollection_1">
    <defs>
     <path id="m5801e0d73d" d="M 0 3 
C 0.795609 3 1.55874 2.683901 2.12132 2.12132 
C 2.683901 1.55874 3 0.795609 3 0 
C 3 -0.795609 2.683901 -1.55874 2.12132 -2.12132 
C 1.55874 -2.683901 0.795609 -3 0 -3 
C -0.795609 -3 -1.55874 -2.683901 -2.12132 -2.12132 
C -2.683901 -1.55874 -3 -0.795609 -3 0 
C -3 0.795609 -2.683901 1.55874 -2.12132 2.12132 
C -1.55874 2.683901 -0.795609 3 0 3 
z
" style="stroke: #1f77b4"/>
    </defs>
    <g clip-path="url(#pd8811d23a6)">
     <use xlink:href="#m5801e0d73d" x="204.838254" y="18.025239" style="fill: #1f77b4; stroke: #1f77b4"/>
     <use xlink:href="#m5801e0d73d" x="205.809776" y="18.025239" style="fill: #1f77b4; stroke: #1f77b4"/>
     <use xlink:href="#m5801e0d73d" x="207.338363" y="18.025239" style="fill: #1f77b4; stroke: #1f77b4"/>
     <use xlink:href="#m5801e0d73d" x="224.010212" y="18.025239" style="fill: #1f77b4; stroke: #1f77b4"/>
     <use xlink:href="#m5801e0d73d" x="237.950212" y="18.025239" style="fill: #1f77b4; stroke: #1f77b4"/>
     <use xlink:href="#m5801e0d73d" x="251.894669" y="18.025239" style="fill: #1f77b4; stroke: #1f77b4"/>
     <use xlink:href="#m5801e0d73d" x="265.839126" y="18.025239" style="fill: #1f77b4; stroke: #1f77b4"/>
     <use xlink:href="#m5801e0d73d" x="279.783583" y="18.025239" style="fill: #1f77b4; stroke: #1f77b4"/>
     <use xlink:href="#m5801e0d73d" x="293.72804" y="18.025239" style="fill: #1f77b4; stroke: #1f77b4"/>
     <use xlink:href="#m5801e0d73d" x="307.672497" y="18.025239" style="fill: #1f77b4; stroke: #1f77b4"/>
     <use xlink:href="#m5801e0d73d" x="321.616954" y="18.025239" style="fill: #1f77b4; stroke: #1f77b4"/>
     <use xlink:href="#m5801e0d73d" x="335.561411" y="18.025239" style="fill: #1f77b4; stroke: #1f77b4"/>
     <use xlink:href="#m5801e0d73d" x="349.505868" y="18.025239" style="fill: #1f77b4; stroke: #1f77b4"/>
     <use xlink:href="#m5801e0d73d" x="363.450325" y="18.025239" style="fill: #1f77b4; stroke: #1f77b4"/>
     <use xlink:href="#m5801e0d73d" x="377.394782" y="18.025239" style="fill: #1f77b4; stroke: #1f77b4"/>
     <use xlink:href="#m5801e0d73d" x="391.339239" y="18.025239" style="fill: #1f77b4; stroke: #1f77b4"/>
     <use xlink:href="#m5801e0d73d" x="405.283696" y="18.025239" style="fill: #1f77b4; stroke: #1f77b4"/>
     <use xlink:href="#m5801e0d73d" x="419.228153" y="18.025239" style="fill: #1f77b4; stroke: #1f77b4"/>
    </g>
   </g>
   <g id="matplotlib.axis_1">
    <g id="xtick_1">
     <g id="line2d_1">
      <defs>
       <path id="m2898af1310" d="M 0 0 
L 0 5 
" style="stroke: #000000; stroke-width: 0.8"/>
      </defs>
      <g>
       <use xlink:href="#m2898af1310" x="91.869881" y="56.355266" style="stroke: #000000; stroke-width: 0.8"/>
      </g>
     </g>
    </g>
    <g id="xtick_2">
     <g id="line2d_2">
      <g>
       <use xlink:href="#m2898af1310" x="181.000319" y="56.355266" style="stroke: #000000; stroke-width: 0.8"/>
      </g>
     </g>
    </g>
    <g id="xtick_3">
     <g id="line2d_3">
      <g>
       <use xlink:href="#m2898af1310" x="270.130757" y="56.355266" style="stroke: #000000; stroke-width: 0.8"/>
      </g>
     </g>
    </g>
    <g id="xtick_4">
     <g id="line2d_4">
      <g>
       <use xlink:href="#m2898af1310" x="359.261194" y="56.355266" style="stroke: #000000; stroke-width: 0.8"/>
      </g>
     </g>
    </g>
    <g id="xtick_5">
     <g id="line2d_5">
      <g>
       <use xlink:href="#m2898af1310" x="448.391632" y="56.355266" style="stroke: #000000; stroke-width: 0.8"/>
      </g>
     </g>
    </g>
    <g id="xtick_6">
     <g id="line2d_6">
      <g>
       <use xlink:href="#m2898af1310" x="537.52207" y="56.355266" style="stroke: #000000; stroke-width: 0.8"/>
      </g>
     </g>
    </g>
   </g>
   <g id="matplotlib.axis_2">
    <g id="ytick_1">
     <g id="line2d_7">
      <defs>
       <path id="m66904f2bd8" d="M 0 0 
L -5 0 
" style="stroke: #000000; stroke-width: 0.8"/>
      </defs>
      <g>
       <use xlink:href="#m66904f2bd8" x="69.587495" y="45.868906" style="stroke: #000000; stroke-width: 0.8"/>
      </g>
     </g>
     <g id="text_1">
      <!-- −50 -->
      <g transform="translate(34.717187 50.61603)scale(0.12495 -0.12495)">
       <defs>
        <path id="DejaVuSans-2212" d="M 678 2272 
L 4684 2272 
L 4684 1741 
L 678 1741 
L 678 2272 
z
" transform="scale(0.015625)"/>
        <path id="DejaVuSans-35" d="M 691 4666 
L 3169 4666 
L 3169 4134 
L 1269 4134 
L 1269 2991 
Q 1406 3038 1543 3061 
Q 1681 3084 1819 3084 
Q 2600 3084 3056 2656 
Q 3513 2228 3513 1497 
Q 3513 744 3044 326 
Q 2575 -91 1722 -91 
Q 1428 -91 1123 -41 
Q 819 9 494 109 
L 494 744 
Q 775 591 1075 516 
Q 1375 441 1709 441 
Q 2250 441 2565 725 
Q 2881 1009 2881 1497 
Q 2881 1984 2565 2268 
Q 2250 2553 1709 2553 
Q 1456 2553 1204 2497 
Q 953 2441 691 2322 
L 691 4666 
z
" transform="scale(0.015625)"/>
        <path id="DejaVuSans-30" d="M 2034 4250 
Q 1547 4250 1301 3770 
Q 1056 3291 1056 2328 
Q 1056 1369 1301 889 
Q 1547 409 2034 409 
Q 2525 409 2770 889 
Q 3016 1369 3016 2328 
Q 3016 3291 2770 3770 
Q 2525 4250 2034 4250 
z
M 2034 4750 
Q 2819 4750 3233 4129 
Q 3647 3509 3647 2328 
Q 3647 1150 3233 529 
Q 2819 -91 2034 -91 
Q 1250 -91 836 529 
Q 422 1150 422 2328 
Q 422 3509 836 4129 
Q 1250 4750 2034 4750 
z
" transform="scale(0.015625)"/>
       </defs>
       <use xlink:href="#DejaVuSans-2212"/>
       <use xlink:href="#DejaVuSans-35" x="83.789062"/>
       <use xlink:href="#DejaVuSans-30" x="147.412109"/>
      </g>
     </g>
    </g>
    <g id="ytick_2">
     <g id="line2d_8">
      <g>
       <use xlink:href="#m66904f2bd8" x="69.587495" y="30.400202" style="stroke: #000000; stroke-width: 0.8"/>
      </g>
     </g>
     <g id="text_2">
      <!-- 0 -->
      <g transform="translate(53.137551 35.147326)scale(0.12495 -0.12495)">
       <use xlink:href="#DejaVuSans-30"/>
      </g>
     </g>
    </g>
    <g id="text_3">
     <!-- V -->
     <g transform="translate(27.597656 41.408102)rotate(-90)scale(0.15 -0.15)">
      <defs>
       <path id="DejaVuSans-56" d="M 1831 0 
L 50 4666 
L 709 4666 
L 2188 738 
L 3669 4666 
L 4325 4666 
L 2547 0 
L 1831 0 
z
" transform="scale(0.015625)"/>
      </defs>
      <use xlink:href="#DejaVuSans-56"/>
     </g>
    </g>
   </g>
   <g id="line2d_9">
    <path d="M 91.869881 52.056388 
L 203.296298 51.964125 
L 204.044994 47.62324 
L 204.374776 44.693024 
L 204.593146 40.531479 
L 204.749124 32.606865 
L 204.838254 19.57211 
L 204.842711 47.415777 
L 204.949668 46.958743 
L 205.257168 45.013554 
L 205.488907 41.977461 
L 205.662711 36.362712 
L 205.787494 23.725755 
L 205.809776 19.57211 
L 205.814233 47.415777 
L 205.921189 47.285733 
L 206.291081 46.61695 
L 206.598581 45.571545 
L 206.852602 43.860125 
L 207.062059 40.740444 
L 207.222494 34.504266 
L 207.338363 19.57211 
L 207.449776 47.588326 
L 207.94445 48.656515 
L 209.263581 51.739303 
L 209.735972 52.175034 
L 210.257385 52.351994 
L 211.010537 52.349037 
L 212.601516 52.069672 
L 216.741624 51.088582 
L 219.362059 50.268387 
L 220.854994 49.58467 
L 221.781951 48.927891 
L 222.405864 48.218205 
L 222.860429 47.356292 
L 223.208038 46.198837 
L 223.484342 44.451857 
L 223.702712 41.513972 
L 223.872059 35.790935 
L 223.992386 22.931303 
L 224.010212 19.57211 
L 224.121625 47.454644 
L 224.946081 47.883516 
L 225.641299 48.504065 
L 226.621733 49.737945 
L 227.490755 50.680112 
L 228.141407 51.063977 
L 228.849994 51.217865 
L 229.799234 51.1789 
L 231.327821 50.869141 
L 233.368908 50.232251 
L 234.817277 49.567331 
L 235.735321 48.913374 
L 236.354777 48.203846 
L 236.804886 47.344883 
L 237.152495 46.179625 
L 237.428799 44.41473 
L 237.647169 41.430385 
L 237.81206 35.813117 
L 237.932386 23.011657 
L 237.950212 19.57211 
L 238.061625 47.454948 
L 238.881625 47.8848 
L 239.576843 48.509784 
L 240.56619 49.761283 
L 241.426299 50.69137 
L 242.076951 51.072606 
L 242.785538 51.223966 
L 243.739234 51.182477 
L 245.281191 50.867745 
L 247.326734 50.227426 
L 248.770647 49.562304 
L 249.684234 48.909373 
L 250.303691 48.197264 
L 250.753799 47.333659 
L 251.101408 46.159214 
L 251.377713 44.373821 
L 251.596082 41.336482 
L 251.760973 35.556612 
L 251.8813 22.077406 
L 251.894669 19.57211 
L 252.006082 47.454942 
L 252.826082 47.884718 
L 253.5213 48.509588 
L 254.510647 49.760959 
L 255.370756 50.691097 
L 256.021408 51.072416 
L 256.729995 51.223848 
L 257.683691 51.182411 
L 259.225648 50.867708 
L 261.271191 50.227391 
L 262.715104 49.562255 
L 263.628691 48.909298 
L 264.248148 48.197141 
L 264.698256 47.333451 
L 265.045865 46.158836 
L 265.32217 44.373065 
L 265.540539 41.334739 
L 265.70543 35.551817 
L 265.825757 22.059657 
L 265.839126 19.57211 
L 265.950539 47.454946 
L 266.770539 47.884782 
L 267.465757 48.509742 
L 268.455104 49.761212 
L 269.315213 50.691311 
L 269.965865 51.072564 
L 270.674452 51.22394 
L 271.628148 51.182463 
L 273.170105 50.867737 
L 275.215648 50.227418 
L 276.659561 49.562293 
L 277.573148 48.909357 
L 278.192605 48.197238 
L 278.642713 47.333614 
L 278.990322 46.159132 
L 279.266627 44.373657 
L 279.484996 41.336104 
L 279.649887 35.555572 
L 279.770213 22.073557 
L 279.783583 19.57211 
L 279.894996 47.454943 
L 280.714996 47.884732 
L 281.410214 48.509622 
L 282.399561 49.761014 
L 283.25967 50.691143 
L 283.910322 51.072448 
L 284.618909 51.223868 
L 285.572605 51.182422 
L 287.114562 50.867714 
L 289.160105 50.227397 
L 290.604018 49.562263 
L 291.517605 48.90931 
L 292.137062 48.197162 
L 292.58717 47.333486 
L 292.934779 46.1589 
L 293.211084 44.373193 
L 293.429453 41.335035 
L 293.594344 35.552632 
L 293.71467 22.062672 
L 293.72804 19.57211 
L 293.839453 47.454946 
L 294.659453 47.884771 
L 295.354671 48.509716 
L 296.344018 49.761169 
L 297.204127 50.691275 
L 297.854779 51.072539 
L 298.563366 51.223925 
L 299.517062 51.182454 
L 301.059019 50.867732 
L 303.104562 50.227414 
L 304.548475 49.562287 
L 305.462062 48.909347 
L 306.081519 48.197221 
L 306.531627 47.333586 
L 306.879236 46.159082 
L 307.15554 44.373557 
L 307.37391 41.335872 
L 307.538801 35.554935 
L 307.659127 22.071197 
L 307.672497 19.57211 
L 307.78391 47.454943 
L 308.60391 47.884741 
L 309.299128 48.509642 
L 310.288475 49.761047 
L 311.148584 50.691172 
L 311.799236 51.072468 
L 312.507823 51.22388 
L 313.461519 51.182429 
L 315.003476 50.867718 
L 317.049019 50.2274 
L 318.492932 49.562268 
L 319.406519 48.909318 
L 320.025976 48.197175 
L 320.476084 47.333508 
L 320.823693 46.15894 
L 321.099997 44.373272 
L 321.318367 41.335216 
L 321.483258 35.553131 
L 321.603584 22.064521 
L 321.616954 19.57211 
L 321.728367 47.454945 
L 322.548367 47.884765 
L 323.243585 48.5097 
L 324.232932 49.761143 
L 325.093041 50.691252 
L 325.743693 51.072524 
L 326.45228 51.223915 
L 327.405976 51.182449 
L 328.947933 50.867729 
L 330.993476 50.227411 
L 332.437389 49.562283 
L 333.350976 48.909341 
L 333.970433 48.197211 
L 334.420541 47.333569 
L 334.76815 46.159051 
L 335.044454 44.373495 
L 335.262824 41.335729 
L 335.427715 35.554543 
L 335.548041 22.069749 
L 335.561411 19.57211 
L 335.672824 47.454944 
L 336.492824 47.884746 
L 337.188041 48.509655 
L 338.177389 49.761068 
L 339.037498 50.691189 
L 339.68815 51.07248 
L 340.396737 51.223888 
L 341.350433 51.182434 
L 342.89239 50.86772 
L 344.937933 50.227403 
L 346.381846 49.562271 
L 347.295433 48.909323 
L 347.91489 48.197183 
L 348.364998 47.333521 
L 348.712607 46.158964 
L 348.988911 44.37332 
L 349.207281 41.335327 
L 349.372172 35.553437 
L 349.492498 22.065655 
L 349.505868 19.57211 
L 349.617281 47.454945 
L 350.437281 47.884761 
L 351.132498 48.50969 
L 352.121846 49.761127 
L 352.981955 50.691239 
L 353.632607 51.072514 
L 354.341194 51.223909 
L 355.29489 51.182445 
L 356.836846 50.867727 
L 358.88239 50.227409 
L 360.326303 49.56228 
L 361.23989 48.909337 
L 361.859347 48.197205 
L 362.309455 47.333559 
L 362.657064 46.159032 
L 362.933368 44.373457 
L 363.151738 41.335642 
L 363.316629 35.554304 
L 363.436955 22.068861 
L 363.450325 19.57211 
L 363.561738 47.454944 
L 364.381738 47.884749 
L 365.076955 48.509662 
L 366.066303 49.761081 
L 366.926412 50.6912 
L 367.577064 51.072487 
L 368.285651 51.223892 
L 369.239347 51.182436 
L 370.781303 50.867722 
L 372.826847 50.227404 
L 374.27076 49.562273 
L 375.184347 48.909326 
L 375.803804 48.197188 
L 376.253912 47.333529 
L 376.601521 46.158979 
L 376.877825 44.37335 
L 377.096195 41.335396 
L 377.261086 35.553625 
L 377.381412 22.066351 
L 377.394782 19.57211 
L 377.506195 47.454945 
L 378.326195 47.884758 
L 379.021412 48.509684 
L 380.01076 49.761117 
L 380.870869 50.69123 
L 381.521521 51.072508 
L 382.230108 51.223905 
L 383.183804 51.182443 
L 384.72576 50.867726 
L 386.771304 50.227408 
L 388.215217 49.562279 
L 389.128804 48.909335 
L 389.748261 48.197201 
L 390.198369 47.333552 
L 390.545978 46.15902 
L 390.822282 44.373434 
L 391.040652 41.335589 
L 391.205543 35.554156 
L 391.325869 22.068317 
L 391.339239 19.57211 
L 391.450652 47.454944 
L 392.270652 47.884751 
L 392.965869 48.509667 
L 393.955217 49.761089 
L 394.815326 50.691207 
L 395.465978 51.072492 
L 396.174565 51.223895 
L 397.128261 51.182438 
L 398.670217 50.867723 
L 400.715761 50.227405 
L 402.159674 49.562274 
L 403.073261 48.909328 
L 403.692718 48.197191 
L 404.142826 47.333534 
L 404.490435 46.158988 
L 404.766739 44.373368 
L 404.985109 41.335438 
L 405.15 35.553741 
L 405.270326 22.066777 
L 405.283696 19.57211 
L 405.395109 47.454945 
L 406.215109 47.884757 
L 406.910326 48.50968 
L 407.899674 49.761111 
L 408.759783 50.691225 
L 409.410435 51.072505 
L 410.119022 51.223903 
L 411.072718 51.182442 
L 412.614674 50.867725 
L 414.660218 50.227407 
L 416.104131 49.562278 
L 417.017718 48.909333 
L 417.637175 48.197199 
L 418.087283 47.333548 
L 418.434892 46.159013 
L 418.711196 44.37342 
L 418.929566 41.335556 
L 419.094457 35.554066 
L 419.214783 22.067983 
L 419.228153 19.57211 
L 419.339566 47.454944 
L 420.159566 47.884752 
L 420.854783 48.50967 
L 421.844131 49.761093 
L 422.70424 50.691211 
L 423.354892 51.072495 
L 424.063479 51.223897 
L 425.017175 51.182439 
L 426.131305 51.126202 
L 426.581414 53.363558 
L 426.937936 54.139241 
L 427.298914 54.433336 
L 427.793588 54.528283 
L 428.974566 54.457519 
L 439.679132 53.577628 
L 449.59935 53.012119 
L 461.008046 52.590907 
L 475.13522 52.302578 
L 495.323264 52.132578 
L 535.311635 52.063296 
L 537.517613 52.062434 
L 537.517613 52.062434 
" clip-path="url(#pd8811d23a6)" style="fill: none; stroke: #1f77b4; stroke-width: 1.5; stroke-linecap: square"/>
   </g>
   <g id="patch_3">
    <path d="M 69.587495 56.355266 
L 69.587495 16.2 
" style="fill: none; stroke: #000000; stroke-width: 0.8; stroke-linejoin: miter; stroke-linecap: square"/>
   </g>
   <g id="patch_4">
    <path d="M 69.587495 56.355266 
L 559.8 56.355266 
" style="fill: none; stroke: #000000; stroke-width: 0.8; stroke-linejoin: miter; stroke-linecap: square"/>
   </g>
  </g>
  <g id="axes_2">
   <g id="patch_5">
    <path d="M 69.587495 139.133509 
L 559.8 139.133509 
L 559.8 98.978243 
L 69.587495 98.978243 
z
" style="fill: #ffffff"/>
   </g>
   <g id="matplotlib.axis_3">
    <g id="xtick_7">
     <g id="line2d_10">
      <g>
       <use xlink:href="#m2898af1310" x="91.869881" y="139.133509" style="stroke: #000000; stroke-width: 0.8"/>
      </g>
     </g>
    </g>
    <g id="xtick_8">
     <g id="line2d_11">
      <g>
       <use xlink:href="#m2898af1310" x="181.000319" y="139.133509" style="stroke: #000000; stroke-width: 0.8"/>
      </g>
     </g>
    </g>
    <g id="xtick_9">
     <g id="line2d_12">
      <g>
       <use xlink:href="#m2898af1310" x="270.130757" y="139.133509" style="stroke: #000000; stroke-width: 0.8"/>
      </g>
     </g>
    </g>
    <g id="xtick_10">
     <g id="line2d_13">
      <g>
       <use xlink:href="#m2898af1310" x="359.261194" y="139.133509" style="stroke: #000000; stroke-width: 0.8"/>
      </g>
     </g>
    </g>
    <g id="xtick_11">
     <g id="line2d_14">
      <g>
       <use xlink:href="#m2898af1310" x="448.391632" y="139.133509" style="stroke: #000000; stroke-width: 0.8"/>
      </g>
     </g>
    </g>
    <g id="xtick_12">
     <g id="line2d_15">
      <g>
       <use xlink:href="#m2898af1310" x="537.52207" y="139.133509" style="stroke: #000000; stroke-width: 0.8"/>
      </g>
     </g>
    </g>
   </g>
   <g id="matplotlib.axis_4">
    <g id="ytick_3">
     <g id="line2d_16">
      <g>
       <use xlink:href="#m66904f2bd8" x="69.587495" y="125.331479" style="stroke: #000000; stroke-width: 0.8"/>
      </g>
     </g>
     <g id="text_4">
      <!-- −10 -->
      <g transform="translate(34.717187 130.078602)scale(0.12495 -0.12495)">
       <defs>
        <path id="DejaVuSans-31" d="M 794 531 
L 1825 531 
L 1825 4091 
L 703 3866 
L 703 4441 
L 1819 4666 
L 2450 4666 
L 2450 531 
L 3481 531 
L 3481 0 
L 794 0 
L 794 531 
z
" transform="scale(0.015625)"/>
       </defs>
       <use xlink:href="#DejaVuSans-2212"/>
       <use xlink:href="#DejaVuSans-31" x="83.789062"/>
       <use xlink:href="#DejaVuSans-30" x="147.412109"/>
      </g>
     </g>
    </g>
    <g id="ytick_4">
     <g id="line2d_17">
      <g>
       <use xlink:href="#m66904f2bd8" x="69.587495" y="110.36049" style="stroke: #000000; stroke-width: 0.8"/>
      </g>
     </g>
     <g id="text_5">
      <!-- −5 -->
      <g transform="translate(42.667131 115.107613)scale(0.12495 -0.12495)">
       <use xlink:href="#DejaVuSans-2212"/>
       <use xlink:href="#DejaVuSans-35" x="83.789062"/>
      </g>
     </g>
    </g>
    <g id="text_6">
     <!-- U -->
     <g transform="translate(27.597656 124.544939)rotate(-90)scale(0.15 -0.15)">
      <defs>
       <path id="DejaVuSans-55" d="M 556 4666 
L 1191 4666 
L 1191 1831 
Q 1191 1081 1462 751 
Q 1734 422 2344 422 
Q 2950 422 3222 751 
Q 3494 1081 3494 1831 
L 3494 4666 
L 4128 4666 
L 4128 1753 
Q 4128 841 3676 375 
Q 3225 -91 2344 -91 
Q 1459 -91 1007 375 
Q 556 841 556 1753 
L 556 4666 
z
" transform="scale(0.015625)"/>
      </defs>
      <use xlink:href="#DejaVuSans-55"/>
     </g>
    </g>
   </g>
   <g id="line2d_18">
    <path d="M 91.869881 137.30827 
L 203.94695 137.197229 
L 204.526298 136.893264 
L 204.815972 136.507336 
L 204.838254 136.449945 
L 204.842711 124.473154 
L 204.949668 124.489628 
L 205.537928 124.456258 
L 205.783037 124.245843 
L 205.809776 124.192385 
L 205.814233 112.215594 
L 205.921189 112.292183 
L 206.93282 112.873748 
L 207.267059 112.860865 
L 207.338363 112.780274 
L 207.34282 100.803483 
L 207.449776 100.936037 
L 209.000646 103.042433 
L 212.824342 108.482462 
L 215.025864 111.143055 
L 217.209559 113.439164 
L 219.344233 115.367605 
L 221.318472 116.862322 
L 222.851516 117.767608 
L 223.649233 118.020506 
L 223.94782 117.920318 
L 224.010212 117.830256 
L 224.014668 105.853465 
L 224.121625 105.961254 
L 227.579886 109.601205 
L 230.891081 113.175085 
L 233.070321 115.174762 
L 235.075755 116.723253 
L 236.675647 117.69844 
L 237.540212 118.004643 
L 237.869995 117.925645 
L 237.950212 117.818789 
L 237.954669 105.841998 
L 238.061625 105.949844 
L 241.497604 109.569293 
L 244.822169 113.16209 
L 247.001408 115.163793 
L 249.011299 116.717388 
L 250.611191 117.694309 
L 251.480213 118.004474 
L 251.809995 117.929778 
L 251.894669 117.819002 
L 251.899126 105.84221 
L 252.006082 105.950055 
L 255.442061 109.569418 
L 258.766626 113.162168 
L 260.945865 115.163857 
L 262.955756 116.71744 
L 264.555648 117.694345 
L 265.42467 118.004477 
L 265.754452 117.929703 
L 265.839126 117.818835 
L 265.843583 105.842044 
L 265.950539 105.949889 
L 269.386517 109.56932 
L 272.711083 113.162107 
L 274.890322 115.163807 
L 276.900213 116.717399 
L 278.500105 117.694317 
L 279.369127 118.004474 
L 279.698909 117.929762 
L 279.783583 117.818965 
L 279.78804 105.842174 
L 279.894996 105.950019 
L 283.330974 109.569397 
L 286.65554 113.162155 
L 288.834779 115.163846 
L 290.84467 116.717431 
L 292.444562 117.694339 
L 293.313584 118.004476 
L 293.643366 117.929715 
L 293.72804 117.818863 
L 293.732497 105.842072 
L 293.839453 105.949918 
L 297.275431 109.569336 
L 300.599997 113.162117 
L 302.779236 115.163815 
L 304.789127 116.717406 
L 306.389019 117.694322 
L 307.25804 118.004475 
L 307.587823 117.929752 
L 307.672497 117.818943 
L 307.676954 105.842152 
L 307.78391 105.949997 
L 311.219888 109.569383 
L 314.544454 113.162146 
L 316.723693 115.16384 
L 318.733584 116.717425 
L 320.333476 117.694335 
L 321.202497 118.004476 
L 321.53228 117.929723 
L 321.616954 117.818881 
L 321.621411 105.84209 
L 321.728367 105.949935 
L 325.164345 109.569347 
L 328.488911 113.162123 
L 330.66815 115.163821 
L 332.678041 116.71741 
L 334.277933 117.694325 
L 335.146954 118.004475 
L 335.476737 117.929746 
L 335.561411 117.81893 
L 335.565868 105.842139 
L 335.672824 105.949984 
L 339.108802 109.569375 
L 342.433368 113.162141 
L 344.612607 115.163836 
L 346.622498 116.717422 
L 348.22239 117.694333 
L 349.091411 118.004476 
L 349.421194 117.929728 
L 349.505868 117.818891 
L 349.510325 105.8421 
L 349.617281 105.949945 
L 353.053259 109.569353 
L 356.377825 113.162127 
L 358.557064 115.163824 
L 360.566955 116.717413 
L 362.166847 117.694327 
L 363.035868 118.004475 
L 363.365651 117.929742 
L 363.450325 117.818921 
L 363.454781 105.84213 
L 363.561738 105.949975 
L 366.997716 109.569371 
L 370.322282 113.162138 
L 372.501521 115.163833 
L 374.511412 116.71742 
L 376.111304 117.694332 
L 376.980325 118.004476 
L 377.310108 117.929731 
L 377.394782 117.818898 
L 377.399238 105.842107 
L 377.506195 105.949952 
L 380.942173 109.569357 
L 384.266739 113.16213 
L 386.445978 115.163826 
L 388.455869 116.717414 
L 390.055761 117.694328 
L 390.924782 118.004475 
L 391.254565 117.929739 
L 391.339239 117.818916 
L 391.343695 105.842125 
L 391.450652 105.94997 
L 394.88663 109.569368 
L 398.211196 113.162137 
L 400.390435 115.163831 
L 402.400326 116.717419 
L 404.000218 117.694331 
L 404.869239 118.004476 
L 405.199022 117.929733 
L 405.283696 117.818902 
L 405.288152 105.842111 
L 405.395109 105.949956 
L 408.831087 109.569359 
L 412.155653 113.162131 
L 414.334892 115.163827 
L 416.344783 116.717415 
L 417.944675 117.694328 
L 418.813696 118.004475 
L 419.143479 117.929738 
L 419.228153 117.818913 
L 419.232609 105.842122 
L 419.339566 105.949967 
L 422.775544 109.569366 
L 426.10011 113.162135 
L 427.071631 114.279885 
L 429.937175 117.6206 
L 432.388262 120.114289 
L 434.910653 122.364514 
L 437.517719 124.393363 
L 440.231741 126.224349 
L 443.079458 127.877058 
L 446.08761 129.364948 
L 449.296306 130.702244 
L 452.750111 131.898303 
L 456.506959 132.96094 
L 460.647067 133.897178 
L 465.277394 134.711905 
L 470.553916 135.409348 
L 476.712829 135.992826 
L 484.141851 136.46526 
L 493.527286 136.828859 
L 506.290765 137.086302 
L 526.153483 137.241479 
L 537.517613 137.274693 
L 537.517613 137.274693 
" clip-path="url(#p30b61a99d3)" style="fill: none; stroke: #1f77b4; stroke-width: 1.5; stroke-linecap: square"/>
   </g>
   <g id="patch_6">
    <path d="M 69.587495 139.133509 
L 69.587495 98.978243 
" style="fill: none; stroke: #000000; stroke-width: 0.8; stroke-linejoin: miter; stroke-linecap: square"/>
   </g>
   <g id="patch_7">
    <path d="M 69.587495 139.133509 
L 559.8 139.133509 
" style="fill: none; stroke: #000000; stroke-width: 0.8; stroke-linejoin: miter; stroke-linecap: square"/>
   </g>
  </g>
  <g id="axes_3">
   <g id="patch_8">
    <path d="M 69.587495 221.911752 
L 559.8 221.911752 
L 559.8 181.756486 
L 69.587495 181.756486 
z
" style="fill: #ffffff"/>
   </g>
   <g id="matplotlib.axis_5">
    <g id="xtick_13">
     <g id="line2d_19">
      <g>
       <use xlink:href="#m2898af1310" x="91.869881" y="221.911752" style="stroke: #000000; stroke-width: 0.8"/>
      </g>
     </g>
    </g>
    <g id="xtick_14">
     <g id="line2d_20">
      <g>
       <use xlink:href="#m2898af1310" x="181.000319" y="221.911752" style="stroke: #000000; stroke-width: 0.8"/>
      </g>
     </g>
    </g>
    <g id="xtick_15">
     <g id="line2d_21">
      <g>
       <use xlink:href="#m2898af1310" x="270.130757" y="221.911752" style="stroke: #000000; stroke-width: 0.8"/>
      </g>
     </g>
    </g>
    <g id="xtick_16">
     <g id="line2d_22">
      <g>
       <use xlink:href="#m2898af1310" x="359.261194" y="221.911752" style="stroke: #000000; stroke-width: 0.8"/>
      </g>
     </g>
    </g>
    <g id="xtick_17">
     <g id="line2d_23">
      <g>
       <use xlink:href="#m2898af1310" x="448.391632" y="221.911752" style="stroke: #000000; stroke-width: 0.8"/>
      </g>
     </g>
    </g>
    <g id="xtick_18">
     <g id="line2d_24">
      <g>
       <use xlink:href="#m2898af1310" x="537.52207" y="221.911752" style="stroke: #000000; stroke-width: 0.8"/>
      </g>
     </g>
    </g>
    <g id="text_7">
     <!-- Time -->
     <g transform="translate(296.343357 242.309408)scale(0.15 -0.15)">
      <defs>
       <path id="DejaVuSans-54" d="M -19 4666 
L 3928 4666 
L 3928 4134 
L 2272 4134 
L 2272 0 
L 1638 0 
L 1638 4134 
L -19 4134 
L -19 4666 
z
" transform="scale(0.015625)"/>
       <path id="DejaVuSans-69" d="M 603 3500 
L 1178 3500 
L 1178 0 
L 603 0 
L 603 3500 
z
M 603 4863 
L 1178 4863 
L 1178 4134 
L 603 4134 
L 603 4863 
z
" transform="scale(0.015625)"/>
       <path id="DejaVuSans-6d" d="M 3328 2828 
Q 3544 3216 3844 3400 
Q 4144 3584 4550 3584 
Q 5097 3584 5394 3201 
Q 5691 2819 5691 2113 
L 5691 0 
L 5113 0 
L 5113 2094 
Q 5113 2597 4934 2840 
Q 4756 3084 4391 3084 
Q 3944 3084 3684 2787 
Q 3425 2491 3425 1978 
L 3425 0 
L 2847 0 
L 2847 2094 
Q 2847 2600 2669 2842 
Q 2491 3084 2119 3084 
Q 1678 3084 1418 2786 
Q 1159 2488 1159 1978 
L 1159 0 
L 581 0 
L 581 3500 
L 1159 3500 
L 1159 2956 
Q 1356 3278 1631 3431 
Q 1906 3584 2284 3584 
Q 2666 3584 2933 3390 
Q 3200 3197 3328 2828 
z
" transform="scale(0.015625)"/>
       <path id="DejaVuSans-65" d="M 3597 1894 
L 3597 1613 
L 953 1613 
Q 991 1019 1311 708 
Q 1631 397 2203 397 
Q 2534 397 2845 478 
Q 3156 559 3463 722 
L 3463 178 
Q 3153 47 2828 -22 
Q 2503 -91 2169 -91 
Q 1331 -91 842 396 
Q 353 884 353 1716 
Q 353 2575 817 3079 
Q 1281 3584 2069 3584 
Q 2775 3584 3186 3129 
Q 3597 2675 3597 1894 
z
M 3022 2063 
Q 3016 2534 2758 2815 
Q 2500 3097 2075 3097 
Q 1594 3097 1305 2825 
Q 1016 2553 972 2059 
L 3022 2063 
z
" transform="scale(0.015625)"/>
      </defs>
      <use xlink:href="#DejaVuSans-54"/>
      <use xlink:href="#DejaVuSans-69" x="57.958984"/>
      <use xlink:href="#DejaVuSans-6d" x="85.742188"/>
      <use xlink:href="#DejaVuSans-65" x="183.154297"/>
     </g>
    </g>
   </g>
   <g id="matplotlib.axis_6">
    <g id="ytick_5">
     <g id="line2d_25">
      <g>
       <use xlink:href="#m66904f2bd8" x="69.587495" y="220.086513" style="stroke: #000000; stroke-width: 0.8"/>
      </g>
     </g>
     <g id="text_8">
      <!-- 0 -->
      <g transform="translate(53.137551 224.833637)scale(0.12495 -0.12495)">
       <use xlink:href="#DejaVuSans-30"/>
      </g>
     </g>
    </g>
    <g id="ytick_6">
     <g id="line2d_26">
      <g>
       <use xlink:href="#m66904f2bd8" x="69.587495" y="183.581726" style="stroke: #000000; stroke-width: 0.8"/>
      </g>
     </g>
     <g id="text_9">
      <!-- 10 -->
      <g transform="translate(45.187607 188.32885)scale(0.12495 -0.12495)">
       <use xlink:href="#DejaVuSans-31"/>
       <use xlink:href="#DejaVuSans-30" x="63.623047"/>
      </g>
     </g>
    </g>
    <g id="text_10">
     <!-- I -->
     <g transform="translate(38.068076 204.046619)rotate(-90)scale(0.15 -0.15)">
      <defs>
       <path id="DejaVuSans-49" d="M 628 4666 
L 1259 4666 
L 1259 0 
L 628 0 
L 628 4666 
z
" transform="scale(0.015625)"/>
      </defs>
      <use xlink:href="#DejaVuSans-49"/>
     </g>
    </g>
   </g>
   <g id="line2d_27">
    <path d="M 91.869881 220.086513 
L 203.278472 220.086513 
L 203.389885 183.581726 
L 426.104566 183.581726 
L 426.215979 220.086513 
L 537.517613 220.086513 
L 537.517613 220.086513 
" clip-path="url(#p60d34f09d2)" style="fill: none; stroke: #1f77b4; stroke-width: 1.5; stroke-linecap: square"/>
   </g>
   <g id="patch_9">
    <path d="M 69.587495 221.911752 
L 69.587495 181.756486 
" style="fill: none; stroke: #000000; stroke-width: 0.8; stroke-linejoin: miter; stroke-linecap: square"/>
   </g>
   <g id="patch_10">
    <path d="M 69.587495 221.911752 
L 559.8 221.911752 
" style="fill: none; stroke: #000000; stroke-width: 0.8; stroke-linejoin: miter; stroke-linecap: square"/>
   </g>
  </g>
  <g id="axes_4">
   <g id="patch_11">
    <path d="M 69.587495 304.689995 
L 559.8 304.689995 
L 559.8 264.534729 
L 69.587495 264.534729 
z
" style="fill: #ffffff"/>
   </g>
   <g id="matplotlib.axis_7">
    <g id="xtick_19">
     <g id="line2d_28">
      <g>
       <use xlink:href="#m2898af1310" x="91.869881" y="304.689995" style="stroke: #000000; stroke-width: 0.8"/>
      </g>
     </g>
     <g id="text_11">
      <!-- 0 -->
      <g transform="translate(87.894909 322.684243)scale(0.12495 -0.12495)">
       <use xlink:href="#DejaVuSans-30"/>
      </g>
     </g>
    </g>
    <g id="xtick_20">
     <g id="line2d_29">
      <g>
       <use xlink:href="#m2898af1310" x="181.000319" y="304.689995" style="stroke: #000000; stroke-width: 0.8"/>
      </g>
     </g>
     <g id="text_12">
      <!-- 200 -->
      <g transform="translate(169.075403 322.684243)scale(0.12495 -0.12495)">
       <defs>
        <path id="DejaVuSans-32" d="M 1228 531 
L 3431 531 
L 3431 0 
L 469 0 
L 469 531 
Q 828 903 1448 1529 
Q 2069 2156 2228 2338 
Q 2531 2678 2651 2914 
Q 2772 3150 2772 3378 
Q 2772 3750 2511 3984 
Q 2250 4219 1831 4219 
Q 1534 4219 1204 4116 
Q 875 4013 500 3803 
L 500 4441 
Q 881 4594 1212 4672 
Q 1544 4750 1819 4750 
Q 2544 4750 2975 4387 
Q 3406 4025 3406 3419 
Q 3406 3131 3298 2873 
Q 3191 2616 2906 2266 
Q 2828 2175 2409 1742 
Q 1991 1309 1228 531 
z
" transform="scale(0.015625)"/>
       </defs>
       <use xlink:href="#DejaVuSans-32"/>
       <use xlink:href="#DejaVuSans-30" x="63.623047"/>
       <use xlink:href="#DejaVuSans-30" x="127.246094"/>
      </g>
     </g>
    </g>
    <g id="xtick_21">
     <g id="line2d_30">
      <g>
       <use xlink:href="#m2898af1310" x="270.130757" y="304.689995" style="stroke: #000000; stroke-width: 0.8"/>
      </g>
     </g>
     <g id="text_13">
      <!-- 400 -->
      <g transform="translate(258.205841 322.684243)scale(0.12495 -0.12495)">
       <defs>
        <path id="DejaVuSans-34" d="M 2419 4116 
L 825 1625 
L 2419 1625 
L 2419 4116 
z
M 2253 4666 
L 3047 4666 
L 3047 1625 
L 3713 1625 
L 3713 1100 
L 3047 1100 
L 3047 0 
L 2419 0 
L 2419 1100 
L 313 1100 
L 313 1709 
L 2253 4666 
z
" transform="scale(0.015625)"/>
       </defs>
       <use xlink:href="#DejaVuSans-34"/>
       <use xlink:href="#DejaVuSans-30" x="63.623047"/>
       <use xlink:href="#DejaVuSans-30" x="127.246094"/>
      </g>
     </g>
    </g>
    <g id="xtick_22">
     <g id="line2d_31">
      <g>
       <use xlink:href="#m2898af1310" x="359.261194" y="304.689995" style="stroke: #000000; stroke-width: 0.8"/>
      </g>
     </g>
     <g id="text_14">
      <!-- 600 -->
      <g transform="translate(347.336279 322.684243)scale(0.12495 -0.12495)">
       <defs>
        <path id="DejaVuSans-36" d="M 2113 2584 
Q 1688 2584 1439 2293 
Q 1191 2003 1191 1497 
Q 1191 994 1439 701 
Q 1688 409 2113 409 
Q 2538 409 2786 701 
Q 3034 994 3034 1497 
Q 3034 2003 2786 2293 
Q 2538 2584 2113 2584 
z
M 3366 4563 
L 3366 3988 
Q 3128 4100 2886 4159 
Q 2644 4219 2406 4219 
Q 1781 4219 1451 3797 
Q 1122 3375 1075 2522 
Q 1259 2794 1537 2939 
Q 1816 3084 2150 3084 
Q 2853 3084 3261 2657 
Q 3669 2231 3669 1497 
Q 3669 778 3244 343 
Q 2819 -91 2113 -91 
Q 1303 -91 875 529 
Q 447 1150 447 2328 
Q 447 3434 972 4092 
Q 1497 4750 2381 4750 
Q 2619 4750 2861 4703 
Q 3103 4656 3366 4563 
z
" transform="scale(0.015625)"/>
       </defs>
       <use xlink:href="#DejaVuSans-36"/>
       <use xlink:href="#DejaVuSans-30" x="63.623047"/>
       <use xlink:href="#DejaVuSans-30" x="127.246094"/>
      </g>
     </g>
    </g>
    <g id="xtick_23">
     <g id="line2d_32">
      <g>
       <use xlink:href="#m2898af1310" x="448.391632" y="304.689995" style="stroke: #000000; stroke-width: 0.8"/>
      </g>
     </g>
     <g id="text_15">
      <!-- 800 -->
      <g transform="translate(436.466717 322.684243)scale(0.12495 -0.12495)">
       <defs>
        <path id="DejaVuSans-38" d="M 2034 2216 
Q 1584 2216 1326 1975 
Q 1069 1734 1069 1313 
Q 1069 891 1326 650 
Q 1584 409 2034 409 
Q 2484 409 2743 651 
Q 3003 894 3003 1313 
Q 3003 1734 2745 1975 
Q 2488 2216 2034 2216 
z
M 1403 2484 
Q 997 2584 770 2862 
Q 544 3141 544 3541 
Q 544 4100 942 4425 
Q 1341 4750 2034 4750 
Q 2731 4750 3128 4425 
Q 3525 4100 3525 3541 
Q 3525 3141 3298 2862 
Q 3072 2584 2669 2484 
Q 3125 2378 3379 2068 
Q 3634 1759 3634 1313 
Q 3634 634 3220 271 
Q 2806 -91 2034 -91 
Q 1263 -91 848 271 
Q 434 634 434 1313 
Q 434 1759 690 2068 
Q 947 2378 1403 2484 
z
M 1172 3481 
Q 1172 3119 1398 2916 
Q 1625 2713 2034 2713 
Q 2441 2713 2670 2916 
Q 2900 3119 2900 3481 
Q 2900 3844 2670 4047 
Q 2441 4250 2034 4250 
Q 1625 4250 1398 4047 
Q 1172 3844 1172 3481 
z
" transform="scale(0.015625)"/>
       </defs>
       <use xlink:href="#DejaVuSans-38"/>
       <use xlink:href="#DejaVuSans-30" x="63.623047"/>
       <use xlink:href="#DejaVuSans-30" x="127.246094"/>
      </g>
     </g>
    </g>
    <g id="xtick_24">
     <g id="line2d_33">
      <g>
       <use xlink:href="#m2898af1310" x="537.52207" y="304.689995" style="stroke: #000000; stroke-width: 0.8"/>
      </g>
     </g>
     <g id="text_16">
      <!-- 1000 -->
      <g transform="translate(521.622182 322.684243)scale(0.12495 -0.12495)">
       <use xlink:href="#DejaVuSans-31"/>
       <use xlink:href="#DejaVuSans-30" x="63.623047"/>
       <use xlink:href="#DejaVuSans-30" x="127.246094"/>
       <use xlink:href="#DejaVuSans-30" x="190.869141"/>
      </g>
     </g>
    </g>
    <g id="text_17">
     <!-- Time -->
     <g transform="translate(296.343357 340.680469)scale(0.15 -0.15)">
      <use xlink:href="#DejaVuSans-54"/>
      <use xlink:href="#DejaVuSans-69" x="57.958984"/>
      <use xlink:href="#DejaVuSans-6d" x="85.742188"/>
      <use xlink:href="#DejaVuSans-65" x="183.154297"/>
     </g>
    </g>
   </g>
   <g id="matplotlib.axis_8">
    <g id="ytick_7">
     <g id="line2d_34">
      <g>
       <use xlink:href="#m66904f2bd8" x="69.587495" y="302.864756" style="stroke: #000000; stroke-width: 0.8"/>
      </g>
     </g>
     <g id="text_18">
      <!-- 0 -->
      <g transform="translate(53.137551 307.61188)scale(0.12495 -0.12495)">
       <use xlink:href="#DejaVuSans-30"/>
      </g>
     </g>
    </g>
    <g id="ytick_8">
     <g id="line2d_35">
      <g>
       <use xlink:href="#m66904f2bd8" x="69.587495" y="266.359969" style="stroke: #000000; stroke-width: 0.8"/>
      </g>
     </g>
     <g id="text_19">
      <!-- 2 -->
      <g transform="translate(53.137551 271.107093)scale(0.12495 -0.12495)">
       <use xlink:href="#DejaVuSans-32"/>
      </g>
     </g>
    </g>
    <g id="text_20">
     <!-- Bin spikes -->
     <g transform="translate(46.01802 322.3233)rotate(-90)scale(0.15 -0.15)">
      <defs>
       <path id="DejaVuSans-42" d="M 1259 2228 
L 1259 519 
L 2272 519 
Q 2781 519 3026 730 
Q 3272 941 3272 1375 
Q 3272 1813 3026 2020 
Q 2781 2228 2272 2228 
L 1259 2228 
z
M 1259 4147 
L 1259 2741 
L 2194 2741 
Q 2656 2741 2882 2914 
Q 3109 3088 3109 3444 
Q 3109 3797 2882 3972 
Q 2656 4147 2194 4147 
L 1259 4147 
z
M 628 4666 
L 2241 4666 
Q 2963 4666 3353 4366 
Q 3744 4066 3744 3513 
Q 3744 3084 3544 2831 
Q 3344 2578 2956 2516 
Q 3422 2416 3680 2098 
Q 3938 1781 3938 1306 
Q 3938 681 3513 340 
Q 3088 0 2303 0 
L 628 0 
L 628 4666 
z
" transform="scale(0.015625)"/>
       <path id="DejaVuSans-6e" d="M 3513 2113 
L 3513 0 
L 2938 0 
L 2938 2094 
Q 2938 2591 2744 2837 
Q 2550 3084 2163 3084 
Q 1697 3084 1428 2787 
Q 1159 2491 1159 1978 
L 1159 0 
L 581 0 
L 581 3500 
L 1159 3500 
L 1159 2956 
Q 1366 3272 1645 3428 
Q 1925 3584 2291 3584 
Q 2894 3584 3203 3211 
Q 3513 2838 3513 2113 
z
" transform="scale(0.015625)"/>
       <path id="DejaVuSans-20" transform="scale(0.015625)"/>
       <path id="DejaVuSans-73" d="M 2834 3397 
L 2834 2853 
Q 2591 2978 2328 3040 
Q 2066 3103 1784 3103 
Q 1356 3103 1142 2972 
Q 928 2841 928 2578 
Q 928 2378 1081 2264 
Q 1234 2150 1697 2047 
L 1894 2003 
Q 2506 1872 2764 1633 
Q 3022 1394 3022 966 
Q 3022 478 2636 193 
Q 2250 -91 1575 -91 
Q 1294 -91 989 -36 
Q 684 19 347 128 
L 347 722 
Q 666 556 975 473 
Q 1284 391 1588 391 
Q 1994 391 2212 530 
Q 2431 669 2431 922 
Q 2431 1156 2273 1281 
Q 2116 1406 1581 1522 
L 1381 1569 
Q 847 1681 609 1914 
Q 372 2147 372 2553 
Q 372 3047 722 3315 
Q 1072 3584 1716 3584 
Q 2034 3584 2315 3537 
Q 2597 3491 2834 3397 
z
" transform="scale(0.015625)"/>
       <path id="DejaVuSans-70" d="M 1159 525 
L 1159 -1331 
L 581 -1331 
L 581 3500 
L 1159 3500 
L 1159 2969 
Q 1341 3281 1617 3432 
Q 1894 3584 2278 3584 
Q 2916 3584 3314 3078 
Q 3713 2572 3713 1747 
Q 3713 922 3314 415 
Q 2916 -91 2278 -91 
Q 1894 -91 1617 61 
Q 1341 213 1159 525 
z
M 3116 1747 
Q 3116 2381 2855 2742 
Q 2594 3103 2138 3103 
Q 1681 3103 1420 2742 
Q 1159 2381 1159 1747 
Q 1159 1113 1420 752 
Q 1681 391 2138 391 
Q 2594 391 2855 752 
Q 3116 1113 3116 1747 
z
" transform="scale(0.015625)"/>
       <path id="DejaVuSans-6b" d="M 581 4863 
L 1159 4863 
L 1159 1991 
L 2875 3500 
L 3609 3500 
L 1753 1863 
L 3688 0 
L 2938 0 
L 1159 1709 
L 1159 0 
L 581 0 
L 581 4863 
z
" transform="scale(0.015625)"/>
      </defs>
      <use xlink:href="#DejaVuSans-42"/>
      <use xlink:href="#DejaVuSans-69" x="68.603516"/>
      <use xlink:href="#DejaVuSans-6e" x="96.386719"/>
      <use xlink:href="#DejaVuSans-20" x="159.765625"/>
      <use xlink:href="#DejaVuSans-73" x="191.552734"/>
      <use xlink:href="#DejaVuSans-70" x="243.652344"/>
      <use xlink:href="#DejaVuSans-69" x="307.128906"/>
      <use xlink:href="#DejaVuSans-6b" x="334.912109"/>
      <use xlink:href="#DejaVuSans-65" x="389.197266"/>
      <use xlink:href="#DejaVuSans-73" x="450.720703"/>
     </g>
    </g>
   </g>
   <g id="line2d_36">
    <path d="M 91.869881 302.864756 
L 201.054667 302.864756 
L 205.511189 266.359969 
L 207.73945 302.864756 
L 221.109016 302.864756 
L 223.337277 284.612362 
L 225.565538 302.864756 
L 234.478582 302.864756 
L 236.706842 284.612362 
L 238.935103 302.864756 
L 247.848147 302.864756 
L 250.076408 284.612362 
L 252.304669 302.864756 
L 263.445974 302.864756 
L 265.674235 284.612362 
L 267.902496 302.864756 
L 276.815539 302.864756 
L 279.0438 284.612362 
L 281.272061 302.864756 
L 290.185105 302.864756 
L 292.413366 284.612362 
L 294.641627 302.864756 
L 303.554671 302.864756 
L 305.782932 284.612362 
L 308.011193 302.864756 
L 319.152497 302.864756 
L 321.380758 284.612362 
L 323.609019 302.864756 
L 332.522063 302.864756 
L 334.750324 284.612362 
L 336.978585 302.864756 
L 345.891629 302.864756 
L 348.11989 284.612362 
L 350.348151 302.864756 
L 359.261194 302.864756 
L 361.489455 284.612362 
L 363.717716 302.864756 
L 374.859021 302.864756 
L 377.087282 284.612362 
L 379.315543 302.864756 
L 388.228587 302.864756 
L 390.456848 284.612362 
L 392.685109 302.864756 
L 401.598152 302.864756 
L 403.826413 284.612362 
L 406.054674 302.864756 
L 414.967718 302.864756 
L 417.195979 284.612362 
L 419.42424 302.864756 
L 535.293809 302.864756 
L 535.293809 302.864756 
" clip-path="url(#pd63f1a229f)" style="fill: none; stroke: #1f77b4; stroke-width: 1.5; stroke-linecap: square"/>
   </g>
   <g id="patch_12">
    <path d="M 69.587495 304.689995 
L 69.587495 264.534729 
" style="fill: none; stroke: #000000; stroke-width: 0.8; stroke-linejoin: miter; stroke-linecap: square"/>
   </g>
   <g id="patch_13">
    <path d="M 69.587495 304.689995 
L 559.8 304.689995 
" style="fill: none; stroke: #000000; stroke-width: 0.8; stroke-linejoin: miter; stroke-linecap: square"/>
   </g>
  </g>
 </g>
 <defs>
  <clipPath id="pd8811d23a6">
   <rect x="69.587495" y="16.2" width="490.212505" height="40.155266"/>
  </clipPath>
  <clipPath id="p30b61a99d3">
   <rect x="69.587495" y="98.978243" width="490.212505" height="40.155266"/>
  </clipPath>
  <clipPath id="p60d34f09d2">
   <rect x="69.587495" y="181.756486" width="490.212505" height="40.155266"/>
  </clipPath>
  <clipPath id="pd63f1a229f">
   <rect x="69.587495" y="264.534729" width="490.212505" height="40.155266"/>
  </clipPath>
 </defs>
</svg>
