<?xml version="1.0" encoding="utf-8" standalone="no"?>
<!DOCTYPE svg PUBLIC "-//W3C//DTD SVG 1.1//EN"
  "http://www.w3.org/Graphics/SVG/1.1/DTD/svg11.dtd">
<svg xmlns:xlink="http://www.w3.org/1999/xlink" width="576pt" height="360pt" viewBox="0 0 576 360" xmlns="http://www.w3.org/2000/svg" version="1.1">
 <metadata>
  <rdf:RDF xmlns:dc="http://purl.org/dc/elements/1.1/" xmlns:cc="http://creativecommons.org/ns#" xmlns:rdf="http://www.w3.org/1999/02/22-rdf-syntax-ns#">
   <cc:Work>
    <dc:type rdf:resource="http://purl.org/dc/dcmitype/StillImage"/>
    <dc:date>2022-08-30T12:34:59.798784</dc:date>
    <dc:format>image/svg+xml</dc:format>
    <dc:creator>
     <cc:Agent>
      <dc:title>Matplotlib v3.5.3, https://matplotlib.org/</dc:title>
     </cc:Agent>
    </dc:creator>
   </cc:Work>
  </rdf:RDF>
 </metadata>
 <defs>
  <style type="text/css">*{stroke-linejoin: round; stroke-linecap: butt}</style>
 </defs>
 <g id="figure_1">
  <g id="patch_1">
   <path d="M 0 360 
L 576 360 
L 576 0 
L 0 0 
z
" style="fill: #ffffff"/>
  </g>
  <g id="axes_1">
   <g id="patch_2">
    <path d="M 81.508505 58.534608 
L 559.8 58.534608 
L 559.8 16.2 
L 81.508505 16.2 
z
" style="fill: #ffffff"/>
   </g>
   <g id="PathCollection_1">
    <defs>
     <path id="macb15cc07c" d="M 0 3 
C 0.795609 3 1.55874 2.683901 2.12132 2.12132 
C 2.683901 1.55874 3 0.795609 3 0 
C 3 -0.795609 2.683901 -1.55874 2.12132 -2.12132 
C 1.55874 -2.683901 0.795609 -3 0 -3 
C -0.795609 -3 -1.55874 -2.683901 -2.12132 -2.12132 
C -2.683901 -1.55874 -3 -0.795609 -3 0 
C -3 0.795609 -2.683901 1.55874 -2.12132 2.12132 
C -1.55874 2.683901 -0.795609 3 0 3 
z
" style="stroke: #1f77b4"/>
    </defs>
    <g clip-path="url(#pccc1962f22)">
     <use xlink:href="#macb15cc07c" x="433.864808" y="18.1243" style="fill: #1f77b4; stroke: #1f77b4"/>
     <use xlink:href="#macb15cc07c" x="434.764874" y="18.1243" style="fill: #1f77b4; stroke: #1f77b4"/>
     <use xlink:href="#macb15cc07c" x="435.699726" y="18.1243" style="fill: #1f77b4; stroke: #1f77b4"/>
     <use xlink:href="#macb15cc07c" x="436.673711" y="18.1243" style="fill: #1f77b4; stroke: #1f77b4"/>
     <use xlink:href="#macb15cc07c" x="437.68683" y="18.1243" style="fill: #1f77b4; stroke: #1f77b4"/>
     <use xlink:href="#macb15cc07c" x="438.747778" y="18.1243" style="fill: #1f77b4; stroke: #1f77b4"/>
     <use xlink:href="#macb15cc07c" x="439.856555" y="18.1243" style="fill: #1f77b4; stroke: #1f77b4"/>
     <use xlink:href="#macb15cc07c" x="441.021859" y="18.1243" style="fill: #1f77b4; stroke: #1f77b4"/>
     <use xlink:href="#macb15cc07c" x="442.252385" y="18.1243" style="fill: #1f77b4; stroke: #1f77b4"/>
     <use xlink:href="#macb15cc07c" x="443.556829" y="18.1243" style="fill: #1f77b4; stroke: #1f77b4"/>
     <use xlink:href="#macb15cc07c" x="444.943889" y="18.1243" style="fill: #1f77b4; stroke: #1f77b4"/>
     <use xlink:href="#macb15cc07c" x="446.435303" y="18.1243" style="fill: #1f77b4; stroke: #1f77b4"/>
     <use xlink:href="#macb15cc07c" x="448.052814" y="18.1243" style="fill: #1f77b4; stroke: #1f77b4"/>
     <use xlink:href="#macb15cc07c" x="449.831207" y="18.1243" style="fill: #1f77b4; stroke: #1f77b4"/>
     <use xlink:href="#macb15cc07c" x="451.831355" y="18.1243" style="fill: #1f77b4; stroke: #1f77b4"/>
     <use xlink:href="#macb15cc07c" x="454.179355" y="18.1243" style="fill: #1f77b4; stroke: #1f77b4"/>
     <use xlink:href="#macb15cc07c" x="457.33611" y="18.1243" style="fill: #1f77b4; stroke: #1f77b4"/>
    </g>
   </g>
   <g id="matplotlib.axis_1">
    <g id="xtick_1">
     <g id="line2d_1">
      <defs>
       <path id="mfe92db1fb9" d="M 0 0 
L 0 5 
" style="stroke: #000000; stroke-width: 0.8"/>
      </defs>
      <g>
       <use xlink:href="#mfe92db1fb9" x="103.249028" y="58.534608" style="stroke: #000000; stroke-width: 0.8"/>
      </g>
     </g>
    </g>
    <g id="xtick_2">
     <g id="line2d_2">
      <g>
       <use xlink:href="#mfe92db1fb9" x="190.211987" y="58.534608" style="stroke: #000000; stroke-width: 0.8"/>
      </g>
     </g>
    </g>
    <g id="xtick_3">
     <g id="line2d_3">
      <g>
       <use xlink:href="#mfe92db1fb9" x="277.174947" y="58.534608" style="stroke: #000000; stroke-width: 0.8"/>
      </g>
     </g>
    </g>
    <g id="xtick_4">
     <g id="line2d_4">
      <g>
       <use xlink:href="#mfe92db1fb9" x="364.137907" y="58.534608" style="stroke: #000000; stroke-width: 0.8"/>
      </g>
     </g>
    </g>
    <g id="xtick_5">
     <g id="line2d_5">
      <g>
       <use xlink:href="#mfe92db1fb9" x="451.100866" y="58.534608" style="stroke: #000000; stroke-width: 0.8"/>
      </g>
     </g>
    </g>
    <g id="xtick_6">
     <g id="line2d_6">
      <g>
       <use xlink:href="#mfe92db1fb9" x="538.063826" y="58.534608" style="stroke: #000000; stroke-width: 0.8"/>
      </g>
     </g>
    </g>
   </g>
   <g id="matplotlib.axis_2">
    <g id="ytick_1">
     <g id="line2d_7">
      <defs>
       <path id="m3ffe9f6b3b" d="M 0 0 
L -5 0 
" style="stroke: #000000; stroke-width: 0.8"/>
      </defs>
      <g>
       <use xlink:href="#m3ffe9f6b3b" x="81.508505" y="48.637901" style="stroke: #000000; stroke-width: 0.8"/>
      </g>
     </g>
     <g id="text_1">
      <!-- −50 -->
      <g transform="translate(46.638198 53.385025)scale(0.12495 -0.12495)">
       <defs>
        <path id="DejaVuSans-2212" d="M 678 2272 
L 4684 2272 
L 4684 1741 
L 678 1741 
L 678 2272 
z
" transform="scale(0.015625)"/>
        <path id="DejaVuSans-35" d="M 691 4666 
L 3169 4666 
L 3169 4134 
L 1269 4134 
L 1269 2991 
Q 1406 3038 1543 3061 
Q 1681 3084 1819 3084 
Q 2600 3084 3056 2656 
Q 3513 2228 3513 1497 
Q 3513 744 3044 326 
Q 2575 -91 1722 -91 
Q 1428 -91 1123 -41 
Q 819 9 494 109 
L 494 744 
Q 775 591 1075 516 
Q 1375 441 1709 441 
Q 2250 441 2565 725 
Q 2881 1009 2881 1497 
Q 2881 1984 2565 2268 
Q 2250 2553 1709 2553 
Q 1456 2553 1204 2497 
Q 953 2441 691 2322 
L 691 4666 
z
" transform="scale(0.015625)"/>
        <path id="DejaVuSans-30" d="M 2034 4250 
Q 1547 4250 1301 3770 
Q 1056 3291 1056 2328 
Q 1056 1369 1301 889 
Q 1547 409 2034 409 
Q 2525 409 2770 889 
Q 3016 1369 3016 2328 
Q 3016 3291 2770 3770 
Q 2525 4250 2034 4250 
z
M 2034 4750 
Q 2819 4750 3233 4129 
Q 3647 3509 3647 2328 
Q 3647 1150 3233 529 
Q 2819 -91 2034 -91 
Q 1250 -91 836 529 
Q 422 1150 422 2328 
Q 422 3509 836 4129 
Q 1250 4750 2034 4750 
z
" transform="scale(0.015625)"/>
       </defs>
       <use xlink:href="#DejaVuSans-2212"/>
       <use xlink:href="#DejaVuSans-35" x="83.789062"/>
       <use xlink:href="#DejaVuSans-30" x="147.412109"/>
      </g>
     </g>
    </g>
    <g id="ytick_2">
     <g id="line2d_8">
      <g>
       <use xlink:href="#m3ffe9f6b3b" x="81.508505" y="31.685901" style="stroke: #000000; stroke-width: 0.8"/>
      </g>
     </g>
     <g id="text_2">
      <!-- 0 -->
      <g transform="translate(65.058562 36.433024)scale(0.12495 -0.12495)">
       <use xlink:href="#DejaVuSans-30"/>
      </g>
     </g>
    </g>
    <g id="text_3">
     <!-- V -->
     <g transform="translate(39.518667 42.497773)rotate(-90)scale(0.15 -0.15)">
      <defs>
       <path id="DejaVuSans-56" d="M 1831 0 
L 50 4666 
L 709 4666 
L 2188 738 
L 3669 4666 
L 4325 4666 
L 2547 0 
L 1831 0 
z
" transform="scale(0.015625)"/>
      </defs>
      <use xlink:href="#DejaVuSans-56"/>
     </g>
    </g>
   </g>
   <g id="line2d_9">
    <path d="M 103.249028 55.418701 
L 104.72305 55.307742 
L 114.980331 54.273327 
L 121.963457 53.851756 
L 129.698812 53.613617 
L 140.525701 53.527558 
L 207.317602 53.524793 
L 211.978816 53.626098 
L 212.565816 55.449501 
L 213.004979 56.144264 
L 213.457187 56.45952 
L 214.065927 56.593421 
L 215.331238 56.589655 
L 228.19306 56.177173 
L 242.376719 56.029523 
L 274.239947 55.976982 
L 429.39926 55.825933 
L 429.851467 54.590084 
L 430.460208 53.580638 
L 431.712474 52.05406 
L 432.408178 50.990623 
L 432.842993 49.905597 
L 433.169104 48.457068 
L 433.425645 46.208155 
L 433.625659 42.249937 
L 433.773496 34.399781 
L 433.864808 19.8195 
L 433.869156 49.315981 
L 433.977859 48.844286 
L 434.251793 46.962397 
L 434.464852 43.811228 
L 434.630082 37.662879 
L 434.747482 23.949189 
L 434.764874 19.8195 
L 434.769222 49.315981 
L 434.877926 48.889404 
L 435.151859 47.202244 
L 435.373615 44.300422 
L 435.543193 38.849922 
L 435.669289 26.477877 
L 435.699726 19.8195 
L 435.704074 49.315981 
L 435.812778 48.932843 
L 436.091059 47.396389 
L 436.317163 44.77984 
L 436.495437 39.798864 
L 436.625882 29.071227 
L 436.673711 19.8195 
L 436.678059 49.315981 
L 436.786763 48.974765 
L 437.069393 47.58768 
L 437.299844 45.250299 
L 437.486815 40.765892 
L 437.625956 31.132292 
L 437.68683 19.8195 
L 437.691178 49.315981 
L 437.799881 49.014526 
L 438.086859 47.772355 
L 438.326007 45.644969 
L 438.517326 41.711931 
L 438.665163 33.253724 
L 438.747778 19.8195 
L 438.752126 49.315981 
L 438.86083 49.052857 
L 439.152155 47.953993 
L 439.395652 46.09424 
L 439.595667 42.654039 
L 439.7522 35.439326 
L 439.856555 19.8195 
L 439.860904 49.315981 
L 439.969607 49.088859 
L 440.26963 48.107746 
L 440.521822 46.436985 
L 440.730533 43.356059 
L 440.891415 37.241633 
L 441.008815 22.910417 
L 441.021859 19.8195 
L 441.026207 49.315981 
L 441.134911 49.123003 
L 441.439281 48.278262 
L 441.695822 46.857339 
L 441.913229 44.25339 
L 442.087155 39.066487 
L 442.213252 27.701536 
L 442.252385 19.8195 
L 442.256733 49.315981 
L 442.365437 49.155406 
L 442.678503 48.429018 
L 442.943741 47.202723 
L 443.169844 44.982926 
L 443.352466 40.698022 
L 443.491607 31.305668 
L 443.556829 19.8195 
L 443.561178 49.315981 
L 443.669881 49.185815 
L 443.995992 48.566015 
L 444.269926 47.524865 
L 444.504726 45.664012 
L 444.696044 42.190858 
L 444.848229 34.710547 
L 444.943889 19.8195 
L 444.948237 49.315981 
L 445.05694 49.213613 
L 445.396096 48.700984 
L 445.683074 47.825594 
L 445.92657 46.297431 
L 446.130933 43.452097 
L 446.296163 37.531729 
L 446.413563 24.201111 
L 446.435303 19.8195 
L 446.439651 49.315981 
L 446.548355 49.239711 
L 446.917948 48.80945 
L 447.213622 48.098995 
L 447.470163 46.842447 
L 447.68757 44.535393 
L 447.865844 39.905663 
L 448.000637 29.43835 
L 448.052814 19.8195 
L 448.057163 49.315981 
L 448.165866 49.263409 
L 448.57894 48.914318 
L 448.892007 48.342351 
L 449.161592 47.337396 
L 449.392044 45.521605 
L 449.583362 42.030662 
L 449.7312 34.76606 
L 449.831207 19.8195 
L 449.835555 49.315981 
L 449.944259 49.284286 
L 450.435599 49.006615 
L 450.774755 48.552701 
L 451.057385 47.771545 
L 451.300881 46.380968 
L 451.509592 43.736514 
L 451.674822 38.474825 
L 451.800918 25.962879 
L 451.831355 19.8195 
L 451.835703 49.315981 
L 451.944407 49.302141 
L 452.592281 49.096636 
L 452.983614 48.7383 
L 453.287985 48.132742 
L 453.548873 47.06136 
L 453.770629 45.116983 
L 453.957599 41.234377 
L 454.101088 32.825025 
L 454.179355 19.8195 
L 454.227185 49.316029 
L 454.292407 49.315876 
L 455.440318 49.19996 
L 455.936007 48.936795 
L 456.275162 48.499681 
L 456.557792 47.739463 
L 456.801288 46.379236 
L 457.009999 43.792026 
L 457.179577 38.452184 
L 457.305673 25.92804 
L 457.33611 19.8195 
L 457.449162 49.322994 
L 458.644903 49.515433 
L 459.19277 49.82254 
L 459.623236 50.330472 
L 460.058051 51.224208 
L 460.710273 53.190204 
L 461.379888 54.938404 
L 461.84514 55.577887 
L 462.319088 55.865742 
L 462.932177 55.962854 
L 464.067043 55.875724 
L 476.059236 54.460964 
L 482.90322 53.974002 
L 490.282028 53.67576 
L 499.452272 53.542603 
L 522.506152 53.524666 
L 538.059478 53.5248 
L 538.059478 53.5248 
" clip-path="url(#pccc1962f22)" style="fill: none; stroke: #1f77b4; stroke-width: 1.5; stroke-linecap: square"/>
   </g>
   <g id="patch_3">
    <path d="M 81.508505 58.534608 
L 81.508505 16.2 
" style="fill: none; stroke: #000000; stroke-width: 0.8; stroke-linejoin: miter; stroke-linecap: square"/>
   </g>
   <g id="patch_4">
    <path d="M 81.508505 58.534608 
L 559.8 58.534608 
" style="fill: none; stroke: #000000; stroke-width: 0.8; stroke-linejoin: miter; stroke-linecap: square"/>
   </g>
  </g>
  <g id="axes_2">
   <g id="patch_5">
    <path d="M 81.508505 140.586404 
L 559.8 140.586404 
L 559.8 98.251796 
L 81.508505 98.251796 
z
" style="fill: #ffffff"/>
   </g>
   <g id="matplotlib.axis_3">
    <g id="xtick_7">
     <g id="line2d_10">
      <g>
       <use xlink:href="#mfe92db1fb9" x="103.249028" y="140.586404" style="stroke: #000000; stroke-width: 0.8"/>
      </g>
     </g>
    </g>
    <g id="xtick_8">
     <g id="line2d_11">
      <g>
       <use xlink:href="#mfe92db1fb9" x="190.211987" y="140.586404" style="stroke: #000000; stroke-width: 0.8"/>
      </g>
     </g>
    </g>
    <g id="xtick_9">
     <g id="line2d_12">
      <g>
       <use xlink:href="#mfe92db1fb9" x="277.174947" y="140.586404" style="stroke: #000000; stroke-width: 0.8"/>
      </g>
     </g>
    </g>
    <g id="xtick_10">
     <g id="line2d_13">
      <g>
       <use xlink:href="#mfe92db1fb9" x="364.137907" y="140.586404" style="stroke: #000000; stroke-width: 0.8"/>
      </g>
     </g>
    </g>
    <g id="xtick_11">
     <g id="line2d_14">
      <g>
       <use xlink:href="#mfe92db1fb9" x="451.100866" y="140.586404" style="stroke: #000000; stroke-width: 0.8"/>
      </g>
     </g>
    </g>
    <g id="xtick_12">
     <g id="line2d_15">
      <g>
       <use xlink:href="#mfe92db1fb9" x="538.063826" y="140.586404" style="stroke: #000000; stroke-width: 0.8"/>
      </g>
     </g>
    </g>
   </g>
   <g id="matplotlib.axis_4">
    <g id="ytick_3">
     <g id="line2d_16">
      <g>
       <use xlink:href="#m3ffe9f6b3b" x="81.508505" y="136.09831" style="stroke: #000000; stroke-width: 0.8"/>
      </g>
     </g>
     <g id="text_4">
      <!-- −17.5 -->
      <g transform="translate(34.717188 140.845434)scale(0.12495 -0.12495)">
       <defs>
        <path id="DejaVuSans-31" d="M 794 531 
L 1825 531 
L 1825 4091 
L 703 3866 
L 703 4441 
L 1819 4666 
L 2450 4666 
L 2450 531 
L 3481 531 
L 3481 0 
L 794 0 
L 794 531 
z
" transform="scale(0.015625)"/>
        <path id="DejaVuSans-37" d="M 525 4666 
L 3525 4666 
L 3525 4397 
L 1831 0 
L 1172 0 
L 2766 4134 
L 525 4134 
L 525 4666 
z
" transform="scale(0.015625)"/>
        <path id="DejaVuSans-2e" d="M 684 794 
L 1344 794 
L 1344 0 
L 684 0 
L 684 794 
z
" transform="scale(0.015625)"/>
       </defs>
       <use xlink:href="#DejaVuSans-2212"/>
       <use xlink:href="#DejaVuSans-31" x="83.789062"/>
       <use xlink:href="#DejaVuSans-37" x="147.412109"/>
       <use xlink:href="#DejaVuSans-2e" x="211.035156"/>
       <use xlink:href="#DejaVuSans-35" x="242.822266"/>
      </g>
     </g>
    </g>
    <g id="ytick_4">
     <g id="line2d_17">
      <g>
       <use xlink:href="#m3ffe9f6b3b" x="81.508505" y="120.450021" style="stroke: #000000; stroke-width: 0.8"/>
      </g>
     </g>
     <g id="text_5">
      <!-- −15.0 -->
      <g transform="translate(34.717188 125.197144)scale(0.12495 -0.12495)">
       <use xlink:href="#DejaVuSans-2212"/>
       <use xlink:href="#DejaVuSans-31" x="83.789062"/>
       <use xlink:href="#DejaVuSans-35" x="147.412109"/>
       <use xlink:href="#DejaVuSans-2e" x="211.035156"/>
       <use xlink:href="#DejaVuSans-30" x="242.822266"/>
      </g>
     </g>
    </g>
    <g id="ytick_5">
     <g id="line2d_18">
      <g>
       <use xlink:href="#m3ffe9f6b3b" x="81.508505" y="104.801731" style="stroke: #000000; stroke-width: 0.8"/>
      </g>
     </g>
     <g id="text_6">
      <!-- −12.5 -->
      <g transform="translate(34.717188 109.548855)scale(0.12495 -0.12495)">
       <defs>
        <path id="DejaVuSans-32" d="M 1228 531 
L 3431 531 
L 3431 0 
L 469 0 
L 469 531 
Q 828 903 1448 1529 
Q 2069 2156 2228 2338 
Q 2531 2678 2651 2914 
Q 2772 3150 2772 3378 
Q 2772 3750 2511 3984 
Q 2250 4219 1831 4219 
Q 1534 4219 1204 4116 
Q 875 4013 500 3803 
L 500 4441 
Q 881 4594 1212 4672 
Q 1544 4750 1819 4750 
Q 2544 4750 2975 4387 
Q 3406 4025 3406 3419 
Q 3406 3131 3298 2873 
Q 3191 2616 2906 2266 
Q 2828 2175 2409 1742 
Q 1991 1309 1228 531 
z
" transform="scale(0.015625)"/>
       </defs>
       <use xlink:href="#DejaVuSans-2212"/>
       <use xlink:href="#DejaVuSans-31" x="83.789062"/>
       <use xlink:href="#DejaVuSans-32" x="147.412109"/>
       <use xlink:href="#DejaVuSans-2e" x="211.035156"/>
       <use xlink:href="#DejaVuSans-35" x="242.822266"/>
      </g>
     </g>
    </g>
    <g id="text_7">
     <!-- U -->
     <g transform="translate(27.597656 124.908162)rotate(-90)scale(0.15 -0.15)">
      <defs>
       <path id="DejaVuSans-55" d="M 556 4666 
L 1191 4666 
L 1191 1831 
Q 1191 1081 1462 751 
Q 1734 422 2344 422 
Q 2950 422 3222 751 
Q 3494 1081 3494 1831 
L 3494 4666 
L 4128 4666 
L 4128 1753 
Q 4128 841 3676 375 
Q 3225 -91 2344 -91 
Q 1459 -91 1007 375 
Q 556 841 556 1753 
L 556 4666 
z
" transform="scale(0.015625)"/>
      </defs>
      <use xlink:href="#DejaVuSans-55"/>
     </g>
    </g>
   </g>
   <g id="line2d_19">
    <path d="M 103.249028 114.190705 
L 105.079598 116.756747 
L 106.805813 118.796186 
L 108.558117 120.526114 
L 110.362598 121.997827 
L 112.245346 123.247364 
L 114.23245 124.299003 
L 116.363042 125.173775 
L 118.697998 125.889019 
L 121.315583 126.453935 
L 124.363635 126.877704 
L 128.120434 127.165578 
L 133.316471 127.32343 
L 143.534619 127.362521 
L 212.331016 127.438549 
L 212.913668 127.799282 
L 214.448564 129.12144 
L 216.566112 130.797591 
L 218.688009 132.190411 
L 220.953394 133.410342 
L 223.405749 134.476344 
L 226.101601 135.402787 
L 229.119216 136.200763 
L 232.571645 136.878504 
L 236.624119 137.440986 
L 241.554919 137.892636 
L 247.86843 138.236502 
L 256.6256 138.475087 
L 270.78317 138.612659 
L 304.907435 138.660103 
L 429.781897 138.573206 
L 430.438467 138.200067 
L 431.329837 137.421438 
L 432.312519 136.26568 
L 433.069096 135.047033 
L 433.538696 133.877787 
L 433.803933 132.614411 
L 434.021341 131.802674 
L 434.456156 130.761205 
L 434.708348 129.575339 
L 434.917059 128.84843 
L 435.36057 127.910603 
L 435.621459 126.828019 
L 435.864956 125.975465 
L 436.304119 125.154658 
L 436.573704 124.163028 
L 436.851985 123.205334 
L 437.291148 122.487496 
L 437.565081 121.601391 
L 437.882496 120.57565 
L 438.321659 119.953306 
L 438.599941 119.161486 
L 438.973881 118.033137 
L 439.413044 117.494642 
L 439.691326 116.79089 
L 440.100052 115.661806 
L 440.543563 115.209458 
L 440.826192 114.597084 
L 441.013163 113.615601 
L 441.134911 113.48965 
L 441.652341 113.138653 
L 441.969755 112.651054 
L 442.182815 111.888726 
L 442.387178 111.338904 
L 442.922 111.065139 
L 443.243763 110.650199 
L 443.46117 109.987717 
L 443.709015 109.325973 
L 444.274274 109.127547 
L 444.604733 108.776263 
L 444.830837 108.180849 
L 445.10477 107.489573 
L 445.717859 107.368429 
L 446.057014 107.081829 
L 446.287466 106.576139 
L 446.63097 105.769618 
L 447.300585 105.726807 
L 447.648437 105.492954 
L 447.883237 105.047782 
L 448.048466 104.20089 
L 448.057163 104.161208 
L 448.161518 104.18749 
L 448.983318 104.272866 
L 449.370303 104.10639 
L 449.6138 103.754163 
L 449.792074 103.065948 
L 449.835555 102.765444 
L 449.944259 102.803545 
L 450.913896 103.02 
L 451.331318 102.907879 
L 451.583511 102.608952 
L 451.770481 101.998148 
L 451.835703 101.571267 
L 451.948755 101.620452 
L 453.166236 102.024133 
L 453.631488 101.971645 
L 453.896725 101.724037 
L 454.088044 101.215996 
L 454.183703 100.652358 
L 454.314147 100.717585 
L 456.109933 101.487523 
L 456.688236 101.527372 
L 456.988258 101.339986 
L 457.19697 100.924058 
L 457.340458 100.176096 
L 457.510036 100.266605 
L 459.736288 101.57676 
L 460.392858 102.259612 
L 461.032036 103.274955 
L 462.023414 105.350556 
L 464.367066 110.277628 
L 466.045451 113.251512 
L 467.723836 115.78173 
L 469.423962 117.949107 
L 471.154525 119.800202 
L 472.932917 121.38026 
L 474.776532 122.722853 
L 476.711458 123.857643 
L 478.77248 124.808031 
L 481.007428 125.591763 
L 483.485872 126.221733 
L 486.320865 126.70734 
L 489.71242 127.054565 
L 494.121442 127.269199 
L 501.095872 127.358358 
L 535.959322 127.357021 
L 538.059478 127.357028 
L 538.059478 127.357028 
" clip-path="url(#p4ff01ab43c)" style="fill: none; stroke: #1f77b4; stroke-width: 1.5; stroke-linecap: square"/>
   </g>
   <g id="patch_6">
    <path d="M 81.508505 140.586404 
L 81.508505 98.251796 
" style="fill: none; stroke: #000000; stroke-width: 0.8; stroke-linejoin: miter; stroke-linecap: square"/>
   </g>
   <g id="patch_7">
    <path d="M 81.508505 140.586404 
L 559.8 140.586404 
" style="fill: none; stroke: #000000; stroke-width: 0.8; stroke-linejoin: miter; stroke-linecap: square"/>
   </g>
  </g>
  <g id="axes_3">
   <g id="patch_8">
    <path d="M 81.508505 222.6382 
L 559.8 222.6382 
L 559.8 180.303591 
L 81.508505 180.303591 
z
" style="fill: #ffffff"/>
   </g>
   <g id="matplotlib.axis_5">
    <g id="xtick_13">
     <g id="line2d_20">
      <g>
       <use xlink:href="#mfe92db1fb9" x="103.249028" y="222.6382" style="stroke: #000000; stroke-width: 0.8"/>
      </g>
     </g>
    </g>
    <g id="xtick_14">
     <g id="line2d_21">
      <g>
       <use xlink:href="#mfe92db1fb9" x="190.211987" y="222.6382" style="stroke: #000000; stroke-width: 0.8"/>
      </g>
     </g>
    </g>
    <g id="xtick_15">
     <g id="line2d_22">
      <g>
       <use xlink:href="#mfe92db1fb9" x="277.174947" y="222.6382" style="stroke: #000000; stroke-width: 0.8"/>
      </g>
     </g>
    </g>
    <g id="xtick_16">
     <g id="line2d_23">
      <g>
       <use xlink:href="#mfe92db1fb9" x="364.137907" y="222.6382" style="stroke: #000000; stroke-width: 0.8"/>
      </g>
     </g>
    </g>
    <g id="xtick_17">
     <g id="line2d_24">
      <g>
       <use xlink:href="#mfe92db1fb9" x="451.100866" y="222.6382" style="stroke: #000000; stroke-width: 0.8"/>
      </g>
     </g>
    </g>
    <g id="xtick_18">
     <g id="line2d_25">
      <g>
       <use xlink:href="#mfe92db1fb9" x="538.063826" y="222.6382" style="stroke: #000000; stroke-width: 0.8"/>
      </g>
     </g>
    </g>
    <g id="text_8">
     <!-- Time -->
     <g transform="translate(302.303862 243.035856)scale(0.15 -0.15)">
      <defs>
       <path id="DejaVuSans-54" d="M -19 4666 
L 3928 4666 
L 3928 4134 
L 2272 4134 
L 2272 0 
L 1638 0 
L 1638 4134 
L -19 4134 
L -19 4666 
z
" transform="scale(0.015625)"/>
       <path id="DejaVuSans-69" d="M 603 3500 
L 1178 3500 
L 1178 0 
L 603 0 
L 603 3500 
z
M 603 4863 
L 1178 4863 
L 1178 4134 
L 603 4134 
L 603 4863 
z
" transform="scale(0.015625)"/>
       <path id="DejaVuSans-6d" d="M 3328 2828 
Q 3544 3216 3844 3400 
Q 4144 3584 4550 3584 
Q 5097 3584 5394 3201 
Q 5691 2819 5691 2113 
L 5691 0 
L 5113 0 
L 5113 2094 
Q 5113 2597 4934 2840 
Q 4756 3084 4391 3084 
Q 3944 3084 3684 2787 
Q 3425 2491 3425 1978 
L 3425 0 
L 2847 0 
L 2847 2094 
Q 2847 2600 2669 2842 
Q 2491 3084 2119 3084 
Q 1678 3084 1418 2786 
Q 1159 2488 1159 1978 
L 1159 0 
L 581 0 
L 581 3500 
L 1159 3500 
L 1159 2956 
Q 1356 3278 1631 3431 
Q 1906 3584 2284 3584 
Q 2666 3584 2933 3390 
Q 3200 3197 3328 2828 
z
" transform="scale(0.015625)"/>
       <path id="DejaVuSans-65" d="M 3597 1894 
L 3597 1613 
L 953 1613 
Q 991 1019 1311 708 
Q 1631 397 2203 397 
Q 2534 397 2845 478 
Q 3156 559 3463 722 
L 3463 178 
Q 3153 47 2828 -22 
Q 2503 -91 2169 -91 
Q 1331 -91 842 396 
Q 353 884 353 1716 
Q 353 2575 817 3079 
Q 1281 3584 2069 3584 
Q 2775 3584 3186 3129 
Q 3597 2675 3597 1894 
z
M 3022 2063 
Q 3016 2534 2758 2815 
Q 2500 3097 2075 3097 
Q 1594 3097 1305 2825 
Q 1016 2553 972 2059 
L 3022 2063 
z
" transform="scale(0.015625)"/>
      </defs>
      <use xlink:href="#DejaVuSans-54"/>
      <use xlink:href="#DejaVuSans-69" x="57.958984"/>
      <use xlink:href="#DejaVuSans-6d" x="85.742188"/>
      <use xlink:href="#DejaVuSans-65" x="183.154297"/>
     </g>
    </g>
   </g>
   <g id="matplotlib.axis_6">
    <g id="ytick_6">
     <g id="line2d_26">
      <g>
       <use xlink:href="#m3ffe9f6b3b" x="81.508505" y="220.713899" style="stroke: #000000; stroke-width: 0.8"/>
      </g>
     </g>
     <g id="text_9">
      <!-- −5 -->
      <g transform="translate(54.588142 225.461023)scale(0.12495 -0.12495)">
       <use xlink:href="#DejaVuSans-2212"/>
       <use xlink:href="#DejaVuSans-35" x="83.789062"/>
      </g>
     </g>
    </g>
    <g id="ytick_7">
     <g id="line2d_27">
      <g>
       <use xlink:href="#m3ffe9f6b3b" x="81.508505" y="182.227892" style="stroke: #000000; stroke-width: 0.8"/>
      </g>
     </g>
     <g id="text_10">
      <!-- 0 -->
      <g transform="translate(65.058562 186.975016)scale(0.12495 -0.12495)">
       <use xlink:href="#DejaVuSans-30"/>
      </g>
     </g>
    </g>
    <g id="text_11">
     <!-- I -->
     <g transform="translate(47.468611 203.683396)rotate(-90)scale(0.15 -0.15)">
      <defs>
       <path id="DejaVuSans-49" d="M 628 4666 
L 1259 4666 
L 1259 0 
L 628 0 
L 628 4666 
z
" transform="scale(0.015625)"/>
      </defs>
      <use xlink:href="#DejaVuSans-49"/>
     </g>
    </g>
   </g>
   <g id="line2d_28">
    <path d="M 103.249028 182.227892 
L 211.948379 182.227892 
L 212.061431 220.713899 
L 429.355778 220.713899 
L 429.46883 182.227892 
L 538.059478 182.227892 
L 538.059478 182.227892 
" clip-path="url(#p8ecb2a4b4d)" style="fill: none; stroke: #1f77b4; stroke-width: 1.5; stroke-linecap: square"/>
   </g>
   <g id="patch_9">
    <path d="M 81.508505 222.6382 
L 81.508505 180.303591 
" style="fill: none; stroke: #000000; stroke-width: 0.8; stroke-linejoin: miter; stroke-linecap: square"/>
   </g>
   <g id="patch_10">
    <path d="M 81.508505 222.6382 
L 559.8 222.6382 
" style="fill: none; stroke: #000000; stroke-width: 0.8; stroke-linejoin: miter; stroke-linecap: square"/>
   </g>
  </g>
  <g id="axes_4">
   <g id="patch_11">
    <path d="M 81.508505 304.689995 
L 559.8 304.689995 
L 559.8 262.355387 
L 81.508505 262.355387 
z
" style="fill: #ffffff"/>
   </g>
   <g id="matplotlib.axis_7">
    <g id="xtick_19">
     <g id="line2d_29">
      <g>
       <use xlink:href="#mfe92db1fb9" x="103.249028" y="304.689995" style="stroke: #000000; stroke-width: 0.8"/>
      </g>
     </g>
     <g id="text_12">
      <!-- 0 -->
      <g transform="translate(99.274056 322.684243)scale(0.12495 -0.12495)">
       <use xlink:href="#DejaVuSans-30"/>
      </g>
     </g>
    </g>
    <g id="xtick_20">
     <g id="line2d_30">
      <g>
       <use xlink:href="#mfe92db1fb9" x="190.211987" y="304.689995" style="stroke: #000000; stroke-width: 0.8"/>
      </g>
     </g>
     <g id="text_13">
      <!-- 200 -->
      <g transform="translate(178.287072 322.684243)scale(0.12495 -0.12495)">
       <use xlink:href="#DejaVuSans-32"/>
       <use xlink:href="#DejaVuSans-30" x="63.623047"/>
       <use xlink:href="#DejaVuSans-30" x="127.246094"/>
      </g>
     </g>
    </g>
    <g id="xtick_21">
     <g id="line2d_31">
      <g>
       <use xlink:href="#mfe92db1fb9" x="277.174947" y="304.689995" style="stroke: #000000; stroke-width: 0.8"/>
      </g>
     </g>
     <g id="text_14">
      <!-- 400 -->
      <g transform="translate(265.250031 322.684243)scale(0.12495 -0.12495)">
       <defs>
        <path id="DejaVuSans-34" d="M 2419 4116 
L 825 1625 
L 2419 1625 
L 2419 4116 
z
M 2253 4666 
L 3047 4666 
L 3047 1625 
L 3713 1625 
L 3713 1100 
L 3047 1100 
L 3047 0 
L 2419 0 
L 2419 1100 
L 313 1100 
L 313 1709 
L 2253 4666 
z
" transform="scale(0.015625)"/>
       </defs>
       <use xlink:href="#DejaVuSans-34"/>
       <use xlink:href="#DejaVuSans-30" x="63.623047"/>
       <use xlink:href="#DejaVuSans-30" x="127.246094"/>
      </g>
     </g>
    </g>
    <g id="xtick_22">
     <g id="line2d_32">
      <g>
       <use xlink:href="#mfe92db1fb9" x="364.137907" y="304.689995" style="stroke: #000000; stroke-width: 0.8"/>
      </g>
     </g>
     <g id="text_15">
      <!-- 600 -->
      <g transform="translate(352.212991 322.684243)scale(0.12495 -0.12495)">
       <defs>
        <path id="DejaVuSans-36" d="M 2113 2584 
Q 1688 2584 1439 2293 
Q 1191 2003 1191 1497 
Q 1191 994 1439 701 
Q 1688 409 2113 409 
Q 2538 409 2786 701 
Q 3034 994 3034 1497 
Q 3034 2003 2786 2293 
Q 2538 2584 2113 2584 
z
M 3366 4563 
L 3366 3988 
Q 3128 4100 2886 4159 
Q 2644 4219 2406 4219 
Q 1781 4219 1451 3797 
Q 1122 3375 1075 2522 
Q 1259 2794 1537 2939 
Q 1816 3084 2150 3084 
Q 2853 3084 3261 2657 
Q 3669 2231 3669 1497 
Q 3669 778 3244 343 
Q 2819 -91 2113 -91 
Q 1303 -91 875 529 
Q 447 1150 447 2328 
Q 447 3434 972 4092 
Q 1497 4750 2381 4750 
Q 2619 4750 2861 4703 
Q 3103 4656 3366 4563 
z
" transform="scale(0.015625)"/>
       </defs>
       <use xlink:href="#DejaVuSans-36"/>
       <use xlink:href="#DejaVuSans-30" x="63.623047"/>
       <use xlink:href="#DejaVuSans-30" x="127.246094"/>
      </g>
     </g>
    </g>
    <g id="xtick_23">
     <g id="line2d_33">
      <g>
       <use xlink:href="#mfe92db1fb9" x="451.100866" y="304.689995" style="stroke: #000000; stroke-width: 0.8"/>
      </g>
     </g>
     <g id="text_16">
      <!-- 800 -->
      <g transform="translate(439.17595 322.684243)scale(0.12495 -0.12495)">
       <defs>
        <path id="DejaVuSans-38" d="M 2034 2216 
Q 1584 2216 1326 1975 
Q 1069 1734 1069 1313 
Q 1069 891 1326 650 
Q 1584 409 2034 409 
Q 2484 409 2743 651 
Q 3003 894 3003 1313 
Q 3003 1734 2745 1975 
Q 2488 2216 2034 2216 
z
M 1403 2484 
Q 997 2584 770 2862 
Q 544 3141 544 3541 
Q 544 4100 942 4425 
Q 1341 4750 2034 4750 
Q 2731 4750 3128 4425 
Q 3525 4100 3525 3541 
Q 3525 3141 3298 2862 
Q 3072 2584 2669 2484 
Q 3125 2378 3379 2068 
Q 3634 1759 3634 1313 
Q 3634 634 3220 271 
Q 2806 -91 2034 -91 
Q 1263 -91 848 271 
Q 434 634 434 1313 
Q 434 1759 690 2068 
Q 947 2378 1403 2484 
z
M 1172 3481 
Q 1172 3119 1398 2916 
Q 1625 2713 2034 2713 
Q 2441 2713 2670 2916 
Q 2900 3119 2900 3481 
Q 2900 3844 2670 4047 
Q 2441 4250 2034 4250 
Q 1625 4250 1398 4047 
Q 1172 3844 1172 3481 
z
" transform="scale(0.015625)"/>
       </defs>
       <use xlink:href="#DejaVuSans-38"/>
       <use xlink:href="#DejaVuSans-30" x="63.623047"/>
       <use xlink:href="#DejaVuSans-30" x="127.246094"/>
      </g>
     </g>
    </g>
    <g id="xtick_24">
     <g id="line2d_34">
      <g>
       <use xlink:href="#mfe92db1fb9" x="538.063826" y="304.689995" style="stroke: #000000; stroke-width: 0.8"/>
      </g>
     </g>
     <g id="text_17">
      <!-- 1000 -->
      <g transform="translate(522.163938 322.684243)scale(0.12495 -0.12495)">
       <use xlink:href="#DejaVuSans-31"/>
       <use xlink:href="#DejaVuSans-30" x="63.623047"/>
       <use xlink:href="#DejaVuSans-30" x="127.246094"/>
       <use xlink:href="#DejaVuSans-30" x="190.869141"/>
      </g>
     </g>
    </g>
    <g id="text_18">
     <!-- Time -->
     <g transform="translate(302.303862 340.680469)scale(0.15 -0.15)">
      <use xlink:href="#DejaVuSans-54"/>
      <use xlink:href="#DejaVuSans-69" x="57.958984"/>
      <use xlink:href="#DejaVuSans-6d" x="85.742188"/>
      <use xlink:href="#DejaVuSans-65" x="183.154297"/>
     </g>
    </g>
   </g>
   <g id="matplotlib.axis_8">
    <g id="ytick_8">
     <g id="line2d_35">
      <g>
       <use xlink:href="#m3ffe9f6b3b" x="81.508505" y="302.765695" style="stroke: #000000; stroke-width: 0.8"/>
      </g>
     </g>
     <g id="text_19">
      <!-- 0.0 -->
      <g transform="translate(53.137551 307.512819)scale(0.12495 -0.12495)">
       <use xlink:href="#DejaVuSans-30"/>
       <use xlink:href="#DejaVuSans-2e" x="63.623047"/>
       <use xlink:href="#DejaVuSans-30" x="95.410156"/>
      </g>
     </g>
    </g>
    <g id="ytick_9">
     <g id="line2d_36">
      <g>
       <use xlink:href="#m3ffe9f6b3b" x="81.508505" y="270.694022" style="stroke: #000000; stroke-width: 0.8"/>
      </g>
     </g>
     <g id="text_20">
      <!-- 2.5 -->
      <g transform="translate(53.137551 275.441146)scale(0.12495 -0.12495)">
       <use xlink:href="#DejaVuSans-32"/>
       <use xlink:href="#DejaVuSans-2e" x="63.623047"/>
       <use xlink:href="#DejaVuSans-35" x="95.410156"/>
      </g>
     </g>
    </g>
    <g id="text_21">
     <!-- Bin spikes -->
     <g transform="translate(46.01802 321.233629)rotate(-90)scale(0.15 -0.15)">
      <defs>
       <path id="DejaVuSans-42" d="M 1259 2228 
L 1259 519 
L 2272 519 
Q 2781 519 3026 730 
Q 3272 941 3272 1375 
Q 3272 1813 3026 2020 
Q 2781 2228 2272 2228 
L 1259 2228 
z
M 1259 4147 
L 1259 2741 
L 2194 2741 
Q 2656 2741 2882 2914 
Q 3109 3088 3109 3444 
Q 3109 3797 2882 3972 
Q 2656 4147 2194 4147 
L 1259 4147 
z
M 628 4666 
L 2241 4666 
Q 2963 4666 3353 4366 
Q 3744 4066 3744 3513 
Q 3744 3084 3544 2831 
Q 3344 2578 2956 2516 
Q 3422 2416 3680 2098 
Q 3938 1781 3938 1306 
Q 3938 681 3513 340 
Q 3088 0 2303 0 
L 628 0 
L 628 4666 
z
" transform="scale(0.015625)"/>
       <path id="DejaVuSans-6e" d="M 3513 2113 
L 3513 0 
L 2938 0 
L 2938 2094 
Q 2938 2591 2744 2837 
Q 2550 3084 2163 3084 
Q 1697 3084 1428 2787 
Q 1159 2491 1159 1978 
L 1159 0 
L 581 0 
L 581 3500 
L 1159 3500 
L 1159 2956 
Q 1366 3272 1645 3428 
Q 1925 3584 2291 3584 
Q 2894 3584 3203 3211 
Q 3513 2838 3513 2113 
z
" transform="scale(0.015625)"/>
       <path id="DejaVuSans-20" transform="scale(0.015625)"/>
       <path id="DejaVuSans-73" d="M 2834 3397 
L 2834 2853 
Q 2591 2978 2328 3040 
Q 2066 3103 1784 3103 
Q 1356 3103 1142 2972 
Q 928 2841 928 2578 
Q 928 2378 1081 2264 
Q 1234 2150 1697 2047 
L 1894 2003 
Q 2506 1872 2764 1633 
Q 3022 1394 3022 966 
Q 3022 478 2636 193 
Q 2250 -91 1575 -91 
Q 1294 -91 989 -36 
Q 684 19 347 128 
L 347 722 
Q 666 556 975 473 
Q 1284 391 1588 391 
Q 1994 391 2212 530 
Q 2431 669 2431 922 
Q 2431 1156 2273 1281 
Q 2116 1406 1581 1522 
L 1381 1569 
Q 847 1681 609 1914 
Q 372 2147 372 2553 
Q 372 3047 722 3315 
Q 1072 3584 1716 3584 
Q 2034 3584 2315 3537 
Q 2597 3491 2834 3397 
z
" transform="scale(0.015625)"/>
       <path id="DejaVuSans-70" d="M 1159 525 
L 1159 -1331 
L 581 -1331 
L 581 3500 
L 1159 3500 
L 1159 2969 
Q 1341 3281 1617 3432 
Q 1894 3584 2278 3584 
Q 2916 3584 3314 3078 
Q 3713 2572 3713 1747 
Q 3713 922 3314 415 
Q 2916 -91 2278 -91 
Q 1894 -91 1617 61 
Q 1341 213 1159 525 
z
M 3116 1747 
Q 3116 2381 2855 2742 
Q 2594 3103 2138 3103 
Q 1681 3103 1420 2742 
Q 1159 2381 1159 1747 
Q 1159 1113 1420 752 
Q 1681 391 2138 391 
Q 2594 391 2855 752 
Q 3116 1113 3116 1747 
z
" transform="scale(0.015625)"/>
       <path id="DejaVuSans-6b" d="M 581 4863 
L 1159 4863 
L 1159 1991 
L 2875 3500 
L 3609 3500 
L 1753 1863 
L 3688 0 
L 2938 0 
L 1159 1709 
L 1159 0 
L 581 0 
L 581 4863 
z
" transform="scale(0.015625)"/>
      </defs>
      <use xlink:href="#DejaVuSans-42"/>
      <use xlink:href="#DejaVuSans-69" x="68.603516"/>
      <use xlink:href="#DejaVuSans-6e" x="96.386719"/>
      <use xlink:href="#DejaVuSans-20" x="159.765625"/>
      <use xlink:href="#DejaVuSans-73" x="191.552734"/>
      <use xlink:href="#DejaVuSans-70" x="243.652344"/>
      <use xlink:href="#DejaVuSans-69" x="307.128906"/>
      <use xlink:href="#DejaVuSans-6b" x="334.912109"/>
      <use xlink:href="#DejaVuSans-65" x="389.197266"/>
      <use xlink:href="#DejaVuSans-73" x="450.720703"/>
     </g>
    </g>
   </g>
   <g id="line2d_37">
    <path d="M 103.249028 302.765695 
L 431.5342 302.765695 
L 433.708274 264.279687 
L 435.882348 277.108357 
L 440.230496 277.108357 
L 442.40457 289.937026 
L 444.578644 277.108357 
L 446.752718 289.937026 
L 455.449014 289.937026 
L 457.623088 302.765695 
L 535.889752 302.765695 
L 535.889752 302.765695 
" clip-path="url(#p7b1d51ba02)" style="fill: none; stroke: #1f77b4; stroke-width: 1.5; stroke-linecap: square"/>
   </g>
   <g id="patch_12">
    <path d="M 81.508505 304.689995 
L 81.508505 262.355387 
" style="fill: none; stroke: #000000; stroke-width: 0.8; stroke-linejoin: miter; stroke-linecap: square"/>
   </g>
   <g id="patch_13">
    <path d="M 81.508505 304.689995 
L 559.8 304.689995 
" style="fill: none; stroke: #000000; stroke-width: 0.8; stroke-linejoin: miter; stroke-linecap: square"/>
   </g>
  </g>
 </g>
 <defs>
  <clipPath id="pccc1962f22">
   <rect x="81.508505" y="16.2" width="478.291495" height="42.334608"/>
  </clipPath>
  <clipPath id="p4ff01ab43c">
   <rect x="81.508505" y="98.251796" width="478.291495" height="42.334608"/>
  </clipPath>
  <clipPath id="p8ecb2a4b4d">
   <rect x="81.508505" y="180.303591" width="478.291495" height="42.334608"/>
  </clipPath>
  <clipPath id="p7b1d51ba02">
   <rect x="81.508505" y="262.355387" width="478.291495" height="42.334608"/>
  </clipPath>
 </defs>
</svg>
