<?xml version="1.0" encoding="utf-8" standalone="no"?>
<!DOCTYPE svg PUBLIC "-//W3C//DTD SVG 1.1//EN"
  "http://www.w3.org/Graphics/SVG/1.1/DTD/svg11.dtd">
<svg xmlns:xlink="http://www.w3.org/1999/xlink" width="576pt" height="360pt" viewBox="0 0 576 360" xmlns="http://www.w3.org/2000/svg" version="1.1">
 <metadata>
  <rdf:RDF xmlns:dc="http://purl.org/dc/elements/1.1/" xmlns:cc="http://creativecommons.org/ns#" xmlns:rdf="http://www.w3.org/1999/02/22-rdf-syntax-ns#">
   <cc:Work>
    <dc:type rdf:resource="http://purl.org/dc/dcmitype/StillImage"/>
    <dc:date>2022-08-30T12:34:57.682962</dc:date>
    <dc:format>image/svg+xml</dc:format>
    <dc:creator>
     <cc:Agent>
      <dc:title>Matplotlib v3.5.3, https://matplotlib.org/</dc:title>
     </cc:Agent>
    </dc:creator>
   </cc:Work>
  </rdf:RDF>
 </metadata>
 <defs>
  <style type="text/css">*{stroke-linejoin: round; stroke-linecap: butt}</style>
 </defs>
 <g id="figure_1">
  <g id="patch_1">
   <path d="M 0 360 
L 576 360 
L 576 0 
L 0 0 
z
" style="fill: #ffffff"/>
  </g>
  <g id="axes_1">
   <g id="patch_2">
    <path d="M 71.038086 56.355266 
L 559.8 56.355266 
L 559.8 16.2 
L 71.038086 16.2 
z
" style="fill: #ffffff"/>
   </g>
   <g id="PathCollection_1">
    <defs>
     <path id="mefa8301733" d="M 0 3 
C 0.795609 3 1.55874 2.683901 2.12132 2.12132 
C 2.683901 1.55874 3 0.795609 3 0 
C 3 -0.795609 2.683901 -1.55874 2.12132 -2.12132 
C 1.55874 -2.683901 0.795609 -3 0 -3 
C -0.795609 -3 -1.55874 -2.683901 -2.12132 -2.12132 
C -2.683901 -1.55874 -3 -0.795609 -3 0 
C -3 0.795609 -2.683901 1.55874 -2.12132 2.12132 
C -1.55874 2.683901 -0.795609 3 0 3 
z
" style="stroke: #1f77b4"/>
    </defs>
    <g clip-path="url(#p27c13fa4c2)">
     <use xlink:href="#mefa8301733" x="212.61139" y="18.025239" style="fill: #1f77b4; stroke: #1f77b4"/>
     <use xlink:href="#mefa8301733" x="229.624918" y="18.025239" style="fill: #1f77b4; stroke: #1f77b4"/>
     <use xlink:href="#mefa8301733" x="246.545136" y="18.025239" style="fill: #1f77b4; stroke: #1f77b4"/>
     <use xlink:href="#mefa8301733" x="263.483127" y="18.025239" style="fill: #1f77b4; stroke: #1f77b4"/>
     <use xlink:href="#mefa8301733" x="280.385572" y="18.025239" style="fill: #1f77b4; stroke: #1f77b4"/>
     <use xlink:href="#mefa8301733" x="297.29246" y="18.025239" style="fill: #1f77b4; stroke: #1f77b4"/>
     <use xlink:href="#mefa8301733" x="314.265998" y="18.025239" style="fill: #1f77b4; stroke: #1f77b4"/>
     <use xlink:href="#mefa8301733" x="331.186216" y="18.025239" style="fill: #1f77b4; stroke: #1f77b4"/>
     <use xlink:href="#mefa8301733" x="348.10199" y="18.025239" style="fill: #1f77b4; stroke: #1f77b4"/>
     <use xlink:href="#mefa8301733" x="365.031095" y="18.025239" style="fill: #1f77b4; stroke: #1f77b4"/>
     <use xlink:href="#mefa8301733" x="381.977973" y="18.025239" style="fill: #1f77b4; stroke: #1f77b4"/>
     <use xlink:href="#mefa8301733" x="398.920408" y="18.025239" style="fill: #1f77b4; stroke: #1f77b4"/>
     <use xlink:href="#mefa8301733" x="415.871729" y="18.025239" style="fill: #1f77b4; stroke: #1f77b4"/>
    </g>
   </g>
   <g id="matplotlib.axis_1">
    <g id="xtick_1">
     <g id="line2d_1">
      <defs>
       <path id="m8e08f15394" d="M 0 0 
L 0 5 
" style="stroke: #000000; stroke-width: 0.8"/>
      </defs>
      <g>
       <use xlink:href="#m8e08f15394" x="93.254537" y="56.355266" style="stroke: #000000; stroke-width: 0.8"/>
      </g>
     </g>
    </g>
    <g id="xtick_2">
     <g id="line2d_2">
      <g>
       <use xlink:href="#m8e08f15394" x="182.121228" y="56.355266" style="stroke: #000000; stroke-width: 0.8"/>
      </g>
     </g>
    </g>
    <g id="xtick_3">
     <g id="line2d_3">
      <g>
       <use xlink:href="#m8e08f15394" x="270.987919" y="56.355266" style="stroke: #000000; stroke-width: 0.8"/>
      </g>
     </g>
    </g>
    <g id="xtick_4">
     <g id="line2d_4">
      <g>
       <use xlink:href="#m8e08f15394" x="359.85461" y="56.355266" style="stroke: #000000; stroke-width: 0.8"/>
      </g>
     </g>
    </g>
    <g id="xtick_5">
     <g id="line2d_5">
      <g>
       <use xlink:href="#m8e08f15394" x="448.721301" y="56.355266" style="stroke: #000000; stroke-width: 0.8"/>
      </g>
     </g>
    </g>
    <g id="xtick_6">
     <g id="line2d_6">
      <g>
       <use xlink:href="#m8e08f15394" x="537.587993" y="56.355266" style="stroke: #000000; stroke-width: 0.8"/>
      </g>
     </g>
    </g>
   </g>
   <g id="matplotlib.axis_2">
    <g id="ytick_1">
     <g id="line2d_7">
      <defs>
       <path id="m238caf7812" d="M 0 0 
L -5 0 
" style="stroke: #000000; stroke-width: 0.8"/>
      </defs>
      <g>
       <use xlink:href="#m238caf7812" x="71.038086" y="47.892792" style="stroke: #000000; stroke-width: 0.8"/>
      </g>
     </g>
     <g id="text_1">
      <!-- −50 -->
      <g transform="translate(36.167779 52.639916)scale(0.12495 -0.12495)">
       <defs>
        <path id="DejaVuSans-2212" d="M 678 2272 
L 4684 2272 
L 4684 1741 
L 678 1741 
L 678 2272 
z
" transform="scale(0.015625)"/>
        <path id="DejaVuSans-35" d="M 691 4666 
L 3169 4666 
L 3169 4134 
L 1269 4134 
L 1269 2991 
Q 1406 3038 1543 3061 
Q 1681 3084 1819 3084 
Q 2600 3084 3056 2656 
Q 3513 2228 3513 1497 
Q 3513 744 3044 326 
Q 2575 -91 1722 -91 
Q 1428 -91 1123 -41 
Q 819 9 494 109 
L 494 744 
Q 775 591 1075 516 
Q 1375 441 1709 441 
Q 2250 441 2565 725 
Q 2881 1009 2881 1497 
Q 2881 1984 2565 2268 
Q 2250 2553 1709 2553 
Q 1456 2553 1204 2497 
Q 953 2441 691 2322 
L 691 4666 
z
" transform="scale(0.015625)"/>
        <path id="DejaVuSans-30" d="M 2034 4250 
Q 1547 4250 1301 3770 
Q 1056 3291 1056 2328 
Q 1056 1369 1301 889 
Q 1547 409 2034 409 
Q 2525 409 2770 889 
Q 3016 1369 3016 2328 
Q 3016 3291 2770 3770 
Q 2525 4250 2034 4250 
z
M 2034 4750 
Q 2819 4750 3233 4129 
Q 3647 3509 3647 2328 
Q 3647 1150 3233 529 
Q 2819 -91 2034 -91 
Q 1250 -91 836 529 
Q 422 1150 422 2328 
Q 422 3509 836 4129 
Q 1250 4750 2034 4750 
z
" transform="scale(0.015625)"/>
       </defs>
       <use xlink:href="#DejaVuSans-2212"/>
       <use xlink:href="#DejaVuSans-35" x="83.789062"/>
       <use xlink:href="#DejaVuSans-30" x="147.412109"/>
      </g>
     </g>
    </g>
    <g id="ytick_2">
     <g id="line2d_8">
      <g>
       <use xlink:href="#m238caf7812" x="71.038086" y="31.299707" style="stroke: #000000; stroke-width: 0.8"/>
      </g>
     </g>
     <g id="text_2">
      <!-- 0 -->
      <g transform="translate(54.588142 36.046831)scale(0.12495 -0.12495)">
       <use xlink:href="#DejaVuSans-30"/>
      </g>
     </g>
    </g>
    <g id="text_3">
     <!-- V -->
     <g transform="translate(29.048248 41.408102)rotate(-90)scale(0.15 -0.15)">
      <defs>
       <path id="DejaVuSans-56" d="M 1831 0 
L 50 4666 
L 709 4666 
L 2188 738 
L 3669 4666 
L 4325 4666 
L 2547 0 
L 1831 0 
z
" transform="scale(0.015625)"/>
      </defs>
      <use xlink:href="#DejaVuSans-56"/>
     </g>
    </g>
   </g>
   <g id="line2d_9">
    <path d="M 93.254537 54.530026 
L 93.916593 54.419102 
L 95.449544 53.867452 
L 98.231071 52.933482 
L 100.794875 52.316085 
L 103.429773 51.909522 
L 105.980247 51.73769 
L 108.544051 51.791221 
L 116.502063 52.152238 
L 129.658777 52.038238 
L 141.660223 52.035971 
L 205.093267 51.871878 
L 209.087825 50.863619 
L 210.198659 50.357919 
L 210.865159 49.818923 
L 211.331709 49.15274 
L 211.691619 48.230866 
L 211.980436 46.838412 
L 212.215933 44.511443 
L 212.402553 40.20918 
L 212.54474 30.888076 
L 212.61139 19.684548 
L 212.726916 51.26049 
L 215.566207 52.411955 
L 216.694814 52.52704 
L 218.138898 52.434412 
L 220.711588 52.007403 
L 225.585926 50.975992 
L 226.9367 50.480678 
L 227.69651 49.977814 
L 228.211937 49.370773 
L 228.598507 48.558577 
L 228.909541 47.348542 
L 229.162811 45.380197 
L 229.367204 41.802837 
L 229.522721 34.511539 
L 229.624918 19.684548 
L 229.740444 51.262714 
L 232.486425 52.426226 
L 233.583929 52.551123 
L 234.979136 52.469737 
L 237.40964 52.067623 
L 242.448381 50.997975 
L 243.830258 50.497479 
L 244.603398 49.992111 
L 245.123269 49.38659 
L 245.514282 48.572743 
L 245.825315 47.374047 
L 246.078585 45.432237 
L 246.282979 41.927327 
L 246.438496 34.875997 
L 246.545136 19.684548 
L 246.660662 51.262321 
L 249.419973 52.423169 
L 250.52192 52.546861 
L 251.92157 52.464495 
L 254.365404 52.060683 
L 259.386372 50.996449 
L 260.76825 50.495949 
L 261.54139 49.990053 
L 262.056817 49.390277 
L 262.44783 48.579703 
L 262.758863 47.387506 
L 263.012133 45.460428 
L 263.216527 41.995033 
L 263.372044 35.072197 
L 263.483127 19.684548 
L 263.598654 51.263202 
L 266.322418 52.428722 
L 267.415478 52.556287 
L 268.797355 52.477735 
L 271.192312 52.082272 
L 276.271044 51.003696 
L 277.661808 50.501769 
L 278.434948 49.998922 
L 278.954818 49.398067 
L 279.345831 48.593003 
L 279.656865 47.412128 
L 279.910135 45.51097 
L 280.114528 42.114917 
L 280.270045 35.414591 
L 280.385572 19.684548 
L 280.501098 51.262998 
L 283.233749 52.427604 
L 284.326809 52.554083 
L 285.71313 52.474795 
L 288.121417 52.077072 
L 293.186818 51.001721 
L 294.573139 50.501067 
L 295.346279 49.998017 
L 295.866149 49.396694 
L 296.257163 48.5907 
L 296.568196 47.407902 
L 296.821466 45.502341 
L 297.02586 42.094544 
L 297.181376 35.356817 
L 297.29246 19.684548 
L 297.407986 51.261431 
L 300.207287 52.41813 
L 301.322564 52.537351 
L 302.744431 52.449616 
L 305.254915 52.03347 
L 310.20479 50.984585 
L 311.568894 50.48641 
L 312.333147 49.982435 
L 312.848574 49.377857 
L 313.235144 48.570514 
L 313.546177 47.370637 
L 313.799448 45.425818 
L 314.003841 41.912482 
L 314.159358 34.833244 
L 314.265998 19.684548 
L 314.381524 51.262743 
L 317.123062 52.425701 
L 318.220565 52.551372 
L 319.611329 52.47099 
L 322.032946 52.071014 
L 327.080575 51.000199 
L 328.466895 50.499134 
L 329.240035 49.995008 
L 329.759905 49.391669 
L 330.150919 48.581868 
L 330.461952 47.391341 
L 330.715222 45.468167 
L 330.919616 42.013328 
L 331.075132 35.124707 
L 331.186216 19.684548 
L 331.301742 51.262834 
L 334.04328 52.427079 
L 335.140783 52.552449 
L 336.531547 52.471594 
L 338.953164 52.071066 
L 344.000793 50.999412 
L 345.387113 50.49747 
L 346.160253 49.991892 
L 346.680123 49.386071 
L 347.066693 48.584097 
L 347.377727 47.395507 
L 347.630997 45.476759 
L 347.83539 42.033778 
L 347.990907 35.183386 
L 348.10199 19.684548 
L 348.217517 51.262476 
L 350.972384 52.424557 
L 352.074331 52.548599 
L 353.473982 52.466046 
L 355.917816 52.061599 
L 360.943227 50.995088 
L 362.320661 50.495271 
L 363.089358 49.992489 
L 363.609228 49.387519 
L 364.000241 48.574609 
L 364.311275 47.377741 
L 364.564545 45.44005 
L 364.768938 41.94618 
L 364.924455 34.930861 
L 365.031095 19.684548 
L 365.146622 51.262043 
L 367.919262 52.421812 
L 369.025653 52.543934 
L 370.43419 52.459481 
L 372.904684 52.050464 
L 377.898992 50.99147 
L 379.271982 50.492359 
L 380.040679 49.988046 
L 380.556106 49.387055 
L 380.947119 48.574124 
L 381.258153 47.377099 
L 381.511423 45.438942 
L 381.715816 41.943718 
L 381.871333 34.923877 
L 381.977973 19.684548 
L 382.0935 51.262143 
L 384.861697 52.422381 
L 385.968087 52.545029 
L 387.376625 52.460668 
L 389.842675 52.052186 
L 394.841427 50.991819 
L 396.214417 50.492678 
L 396.983114 49.988442 
L 397.498541 49.387642 
L 397.889554 48.5751 
L 398.200588 47.378887 
L 398.453858 45.44261 
L 398.658251 41.952467 
L 398.813768 34.949219 
L 398.920408 19.684548 
L 399.035934 51.261985 
L 401.813019 52.421884 
L 402.919409 52.54334 
L 404.327946 52.458571 
L 406.79844 52.049601 
L 411.792748 50.990743 
L 413.165738 50.491244 
L 413.934435 49.986158 
L 414.449862 49.383797 
L 414.836432 48.580705 
L 415.147466 47.389621 
L 415.400736 45.464997 
L 415.605129 42.006097 
L 415.760646 35.104186 
L 415.871729 19.684548 
L 415.987256 51.263061 
L 418.715463 52.427571 
L 419.808523 52.554719 
L 421.194844 52.475738 
L 423.598688 52.0788 
L 427.108922 51.524474 
L 429.237279 51.743077 
L 433.498437 52.247206 
L 436.026695 52.236823 
L 446.068631 51.983269 
L 457.621301 52.045997 
L 476.216656 52.0414 
L 537.583549 52.041062 
L 537.583549 52.041062 
" clip-path="url(#p27c13fa4c2)" style="fill: none; stroke: #1f77b4; stroke-width: 1.5; stroke-linecap: square"/>
   </g>
   <g id="patch_3">
    <path d="M 71.038086 56.355266 
L 71.038086 16.2 
" style="fill: none; stroke: #000000; stroke-width: 0.8; stroke-linejoin: miter; stroke-linecap: square"/>
   </g>
   <g id="patch_4">
    <path d="M 71.038086 56.355266 
L 559.8 56.355266 
" style="fill: none; stroke: #000000; stroke-width: 0.8; stroke-linejoin: miter; stroke-linecap: square"/>
   </g>
  </g>
  <g id="axes_2">
   <g id="patch_5">
    <path d="M 71.038086 139.133509 
L 559.8 139.133509 
L 559.8 98.978243 
L 71.038086 98.978243 
z
" style="fill: #ffffff"/>
   </g>
   <g id="matplotlib.axis_3">
    <g id="xtick_7">
     <g id="line2d_10">
      <g>
       <use xlink:href="#m8e08f15394" x="93.254537" y="139.133509" style="stroke: #000000; stroke-width: 0.8"/>
      </g>
     </g>
    </g>
    <g id="xtick_8">
     <g id="line2d_11">
      <g>
       <use xlink:href="#m8e08f15394" x="182.121228" y="139.133509" style="stroke: #000000; stroke-width: 0.8"/>
      </g>
     </g>
    </g>
    <g id="xtick_9">
     <g id="line2d_12">
      <g>
       <use xlink:href="#m8e08f15394" x="270.987919" y="139.133509" style="stroke: #000000; stroke-width: 0.8"/>
      </g>
     </g>
    </g>
    <g id="xtick_10">
     <g id="line2d_13">
      <g>
       <use xlink:href="#m8e08f15394" x="359.85461" y="139.133509" style="stroke: #000000; stroke-width: 0.8"/>
      </g>
     </g>
    </g>
    <g id="xtick_11">
     <g id="line2d_14">
      <g>
       <use xlink:href="#m8e08f15394" x="448.721301" y="139.133509" style="stroke: #000000; stroke-width: 0.8"/>
      </g>
     </g>
    </g>
    <g id="xtick_12">
     <g id="line2d_15">
      <g>
       <use xlink:href="#m8e08f15394" x="537.587993" y="139.133509" style="stroke: #000000; stroke-width: 0.8"/>
      </g>
     </g>
    </g>
   </g>
   <g id="matplotlib.axis_4">
    <g id="ytick_3">
     <g id="line2d_16">
      <g>
       <use xlink:href="#m238caf7812" x="71.038086" y="130.160953" style="stroke: #000000; stroke-width: 0.8"/>
      </g>
     </g>
     <g id="text_4">
      <!-- −16 -->
      <g transform="translate(36.167779 134.908076)scale(0.12495 -0.12495)">
       <defs>
        <path id="DejaVuSans-31" d="M 794 531 
L 1825 531 
L 1825 4091 
L 703 3866 
L 703 4441 
L 1819 4666 
L 2450 4666 
L 2450 531 
L 3481 531 
L 3481 0 
L 794 0 
L 794 531 
z
" transform="scale(0.015625)"/>
        <path id="DejaVuSans-36" d="M 2113 2584 
Q 1688 2584 1439 2293 
Q 1191 2003 1191 1497 
Q 1191 994 1439 701 
Q 1688 409 2113 409 
Q 2538 409 2786 701 
Q 3034 994 3034 1497 
Q 3034 2003 2786 2293 
Q 2538 2584 2113 2584 
z
M 3366 4563 
L 3366 3988 
Q 3128 4100 2886 4159 
Q 2644 4219 2406 4219 
Q 1781 4219 1451 3797 
Q 1122 3375 1075 2522 
Q 1259 2794 1537 2939 
Q 1816 3084 2150 3084 
Q 2853 3084 3261 2657 
Q 3669 2231 3669 1497 
Q 3669 778 3244 343 
Q 2819 -91 2113 -91 
Q 1303 -91 875 529 
Q 447 1150 447 2328 
Q 447 3434 972 4092 
Q 1497 4750 2381 4750 
Q 2619 4750 2861 4703 
Q 3103 4656 3366 4563 
z
" transform="scale(0.015625)"/>
       </defs>
       <use xlink:href="#DejaVuSans-2212"/>
       <use xlink:href="#DejaVuSans-31" x="83.789062"/>
       <use xlink:href="#DejaVuSans-36" x="147.412109"/>
      </g>
     </g>
    </g>
    <g id="ytick_4">
     <g id="line2d_17">
      <g>
       <use xlink:href="#m238caf7812" x="71.038086" y="100.803483" style="stroke: #000000; stroke-width: 0.8"/>
      </g>
     </g>
     <g id="text_5">
      <!-- −14 -->
      <g transform="translate(36.167779 105.550606)scale(0.12495 -0.12495)">
       <defs>
        <path id="DejaVuSans-34" d="M 2419 4116 
L 825 1625 
L 2419 1625 
L 2419 4116 
z
M 2253 4666 
L 3047 4666 
L 3047 1625 
L 3713 1625 
L 3713 1100 
L 3047 1100 
L 3047 0 
L 2419 0 
L 2419 1100 
L 313 1100 
L 313 1709 
L 2253 4666 
z
" transform="scale(0.015625)"/>
       </defs>
       <use xlink:href="#DejaVuSans-2212"/>
       <use xlink:href="#DejaVuSans-31" x="83.789062"/>
       <use xlink:href="#DejaVuSans-34" x="147.412109"/>
      </g>
     </g>
    </g>
    <g id="text_6">
     <!-- U -->
     <g transform="translate(29.048248 124.544939)rotate(-90)scale(0.15 -0.15)">
      <defs>
       <path id="DejaVuSans-55" d="M 556 4666 
L 1191 4666 
L 1191 1831 
Q 1191 1081 1462 751 
Q 1734 422 2344 422 
Q 2950 422 3222 751 
Q 3494 1081 3494 1831 
L 3494 4666 
L 4128 4666 
L 4128 1753 
Q 4128 841 3676 375 
Q 3225 -91 2344 -91 
Q 1459 -91 1007 375 
Q 556 841 556 1753 
L 556 4666 
z
" transform="scale(0.015625)"/>
      </defs>
      <use xlink:href="#DejaVuSans-55"/>
     </g>
    </g>
   </g>
   <g id="line2d_18">
    <path d="M 93.254537 100.803483 
L 94.223184 112.702912 
L 95.094077 120.807166 
L 95.920537 126.535651 
L 96.711451 130.548819 
L 97.462374 133.280864 
L 98.173308 135.084237 
L 98.844251 136.220062 
L 99.479648 136.884415 
L 100.092828 137.217844 
L 100.719339 137.307355 
L 101.408055 137.175591 
L 102.243402 136.775943 
L 103.372009 135.967599 
L 107.553187 132.744854 
L 108.646247 132.300899 
L 109.659328 132.125511 
L 110.694625 132.174 
L 111.889882 132.463074 
L 113.778299 133.187389 
L 116.026626 133.982272 
L 117.586237 134.290696 
L 119.185837 134.375895 
L 121.154234 134.243709 
L 127.757029 133.627764 
L 130.92957 133.704324 
L 137.541252 133.902882 
L 205.244341 133.608801 
L 205.986378 133.13323 
L 206.848385 132.301931 
L 207.834805 131.028182 
L 208.883432 129.302288 
L 209.847635 127.285689 
L 210.634106 125.124393 
L 211.251729 122.767023 
L 211.736053 120.010759 
L 212.109293 116.552374 
L 212.389223 111.792961 
L 212.58473 104.372218 
L 212.61139 102.511809 
L 212.726916 117.372593 
L 213.468953 118.837888 
L 214.37095 121.156662 
L 217.659018 130.136878 
L 218.507695 131.57336 
L 219.263061 132.441087 
L 219.960665 132.920135 
L 220.627165 133.115921 
L 221.302552 133.082247 
L 222.031259 132.816452 
L 222.853276 132.269688 
L 223.799706 131.361258 
L 224.866106 130.017698 
L 225.954723 128.282608 
L 226.914484 126.334443 
L 227.68318 124.268646 
L 228.287474 121.993395 
L 228.762911 119.30341 
L 229.131707 115.883144 
L 229.411638 111.068788 
L 229.602701 103.674835 
L 229.624918 102.122712 
L 229.740444 116.993411 
L 230.482481 118.53476 
L 231.393365 120.988648 
L 234.517029 129.890233 
L 235.374593 131.449019 
L 236.134403 132.398335 
L 236.832006 132.933908 
L 237.494063 133.17243 
L 238.160563 133.176496 
L 238.871497 132.951924 
L 239.671297 132.455039 
L 240.591067 131.609016 
L 241.635251 130.33394 
L 242.723868 128.647105 
L 243.705845 126.716779 
L 244.501202 124.663793 
L 245.127712 122.421138 
L 245.620922 119.79934 
L 246.007492 116.471464 
L 246.300752 111.862458 
L 246.505146 104.803222 
L 246.545136 102.191448 
L 246.660662 117.060395 
L 247.402699 118.588311 
L 248.309139 121.009761 
L 251.46835 129.943713 
L 252.325914 131.480469 
L 253.085724 132.413028 
L 253.783328 132.935706 
L 254.445384 133.164104 
L 255.111885 133.159867 
L 255.827262 132.926136 
L 256.631505 132.418413 
L 257.555719 131.559872 
L 258.604346 130.2702 
L 259.692963 128.57261 
L 260.670496 126.637284 
L 261.46141 124.576947 
L 262.083477 122.323256 
L 262.572243 119.685804 
L 262.95437 116.337538 
L 263.243187 111.709723 
L 263.443137 104.687868 
L 263.483127 102.037201 
L 263.598654 116.910079 
L 264.340691 118.468139 
L 265.251574 120.946135 
L 268.348578 129.847924 
L 269.206142 131.427038 
L 269.970395 132.395612 
L 270.667999 132.940145 
L 271.330056 133.185231 
L 271.992113 133.194931 
L 272.698603 132.977566 
L 273.49396 132.48947 
L 274.409287 131.653738 
L 275.449027 130.390676 
L 276.537644 128.711366 
L 277.524064 126.781578 
L 278.323864 124.729209 
L 278.954818 122.486666 
L 279.448028 119.890562 
L 279.834598 116.615412 
L 280.127858 112.130571 
L 280.336695 105.208918 
L 280.385572 102.072943 
L 280.501098 116.94491 
L 281.243135 118.495985 
L 282.154019 120.963907 
L 285.25991 129.860923 
L 286.117473 131.432892 
L 286.881727 132.396421 
L 287.57933 132.937369 
L 288.241387 133.179848 
L 288.903444 133.187603 
L 289.609934 132.968776 
L 290.405291 132.479648 
L 291.320618 131.64335 
L 292.360358 130.380227 
L 293.448975 128.701262 
L 294.435396 126.771905 
L 295.235196 124.719706 
L 295.866149 122.4768 
L 296.359359 119.879405 
L 296.745929 116.601062 
L 297.03919 112.108222 
L 297.248026 105.16142 
L 297.29246 102.347102 
L 297.407986 117.212083 
L 298.150023 118.709575 
L 299.056463 121.087285 
L 302.273438 130.034648 
L 303.126558 131.523415 
L 303.886368 132.42746 
L 304.583972 132.928897 
L 305.250472 133.141779 
L 305.921415 133.1225 
L 306.641236 132.873492 
L 307.454366 132.346509 
L 308.391909 131.460788 
L 309.449423 130.143595 
L 310.53804 128.426576 
L 311.506687 126.483971 
L 312.28427 124.426494 
L 312.897451 122.162955 
L 313.377331 119.516437 
L 313.755014 116.120017 
L 314.039388 111.407431 
L 314.234894 104.224705 
L 314.265998 102.117586 
L 314.381524 116.988416 
L 315.123561 118.530767 
L 316.034445 120.986101 
L 319.158109 129.89112 
L 320.015673 131.450146 
L 320.775483 132.399509 
L 321.473086 132.935029 
L 322.135143 133.173441 
L 322.801643 133.177359 
L 323.512577 132.952596 
L 324.312377 132.455471 
L 325.232147 131.609143 
L 326.276331 130.333673 
L 327.364948 128.646319 
L 328.346925 126.715284 
L 329.142282 124.661273 
L 329.768792 122.416994 
L 330.262002 119.792363 
L 330.644129 116.509211 
L 330.937389 111.935879 
L 331.141782 104.985021 
L 331.186216 102.101611 
L 331.301742 116.972848 
L 332.043779 118.518321 
L 332.954663 120.97816 
L 336.073884 129.884438 
L 336.931447 131.44692 
L 337.691257 132.39875 
L 338.388861 132.936064 
L 339.050918 133.175804 
L 339.712975 133.181428 
L 340.423908 132.958836 
L 341.219265 132.467035 
L 342.139035 131.623735 
L 343.183219 130.351182 
L 344.271836 128.667051 
L 345.253813 126.740473 
L 346.04917 124.693588 
L 346.67568 122.461515 
L 347.16889 119.859137 
L 347.55546 116.570389 
L 347.84872 112.052999 
L 348.053114 105.268946 
L 348.10199 102.16433 
L 348.217517 117.033968 
L 348.959554 118.567184 
L 349.865994 120.996248 
L 353.016318 129.929874 
L 353.873882 131.473246 
L 354.633692 132.410636 
L 355.331296 132.936899 
L 355.993353 133.168012 
L 356.659853 133.165913 
L 357.370786 132.936019 
L 358.170586 132.434437 
L 359.0948 131.579542 
L 360.143427 130.293275 
L 361.232044 128.599374 
L 362.209578 126.669204 
L 363.000491 124.617282 
L 363.622558 122.378185 
L 364.111325 119.767492 
L 364.493452 116.473062 
L 364.786712 111.87227 
L 364.991105 104.837228 
L 365.031095 102.240051 
L 365.146622 117.10776 
L 365.888659 118.626177 
L 366.795099 121.033975 
L 369.972083 129.972053 
L 370.825203 131.489335 
L 371.585013 132.414627 
L 372.282617 132.93205 
L 372.944674 133.156582 
L 373.611174 133.149405 
L 374.326551 132.91341 
L 375.130794 132.40404 
L 376.059451 131.539729 
L 377.108078 130.248374 
L 378.196695 128.549354 
L 379.174229 126.611937 
L 379.960699 124.561175 
L 380.578323 122.325222 
L 381.067089 119.69446 
L 381.449216 116.358697 
L 381.738033 111.759228 
L 381.942426 104.569682 
L 381.977973 102.222546 
L 382.0935 117.090701 
L 382.835537 118.612539 
L 383.741977 121.025255 
L 386.914518 129.965975 
L 387.767638 131.4867 
L 388.527448 132.414419 
L 389.225052 132.933574 
L 389.887109 133.159361 
L 390.553609 133.15312 
L 391.268986 132.917826 
L 392.073229 132.408939 
L 393.001886 131.544875 
L 394.050513 130.253513 
L 395.13913 128.554286 
L 396.116664 126.61662 
L 396.903134 124.565732 
L 397.520757 122.329889 
L 398.009524 119.699649 
L 398.391651 116.36525 
L 398.680468 111.769292 
L 398.884861 104.591149 
L 398.920408 102.250118 
L 399.035934 117.117571 
L 399.777971 118.634019 
L 400.684412 121.03899 
L 403.865839 129.979449 
L 404.718959 131.493623 
L 405.47877 132.416549 
L 406.176373 132.932159 
L 406.83843 133.155273 
L 407.50493 133.146937 
L 408.220307 132.909959 
L 409.024551 132.399751 
L 409.953207 131.53474 
L 411.001834 130.242806 
L 412.090451 128.543218 
L 413.067985 126.604986 
L 413.854455 124.552815 
L 414.472079 122.314322 
L 414.960845 119.678769 
L 415.342972 116.333237 
L 415.631789 111.710724 
L 415.831739 104.703638 
L 415.871729 102.061979 
L 415.987256 116.934226 
L 416.729293 118.487444 
L 417.640176 120.958456 
L 420.746067 129.862784 
L 421.603631 131.435276 
L 422.367884 132.398911 
L 423.065488 132.939751 
L 423.727545 133.182001 
L 424.389601 133.189443 
L 425.096092 132.970217 
L 425.891448 132.480585 
L 428.481913 130.643733 
L 429.263939 130.51451 
L 430.03708 130.61297 
L 430.885757 130.952929 
L 431.96993 131.646832 
L 435.577918 134.145732 
L 436.742071 134.574439 
L 437.910668 134.767045 
L 439.203679 134.74858 
L 440.865486 134.486208 
L 446.064187 133.517581 
L 448.099235 133.467227 
L 450.840772 133.646601 
L 455.51516 133.948468 
L 459.203128 133.916799 
L 467.445513 133.791163 
L 485.081108 133.825012 
L 537.583549 133.830624 
L 537.583549 133.830624 
" clip-path="url(#pd788982cec)" style="fill: none; stroke: #1f77b4; stroke-width: 1.5; stroke-linecap: square"/>
   </g>
   <g id="patch_6">
    <path d="M 71.038086 139.133509 
L 71.038086 98.978243 
" style="fill: none; stroke: #000000; stroke-width: 0.8; stroke-linejoin: miter; stroke-linecap: square"/>
   </g>
   <g id="patch_7">
    <path d="M 71.038086 139.133509 
L 559.8 139.133509 
" style="fill: none; stroke: #000000; stroke-width: 0.8; stroke-linejoin: miter; stroke-linecap: square"/>
   </g>
  </g>
  <g id="axes_3">
   <g id="patch_8">
    <path d="M 71.038086 221.911752 
L 559.8 221.911752 
L 559.8 181.756486 
L 71.038086 181.756486 
z
" style="fill: #ffffff"/>
   </g>
   <g id="matplotlib.axis_5">
    <g id="xtick_13">
     <g id="line2d_19">
      <g>
       <use xlink:href="#m8e08f15394" x="93.254537" y="221.911752" style="stroke: #000000; stroke-width: 0.8"/>
      </g>
     </g>
    </g>
    <g id="xtick_14">
     <g id="line2d_20">
      <g>
       <use xlink:href="#m8e08f15394" x="182.121228" y="221.911752" style="stroke: #000000; stroke-width: 0.8"/>
      </g>
     </g>
    </g>
    <g id="xtick_15">
     <g id="line2d_21">
      <g>
       <use xlink:href="#m8e08f15394" x="270.987919" y="221.911752" style="stroke: #000000; stroke-width: 0.8"/>
      </g>
     </g>
    </g>
    <g id="xtick_16">
     <g id="line2d_22">
      <g>
       <use xlink:href="#m8e08f15394" x="359.85461" y="221.911752" style="stroke: #000000; stroke-width: 0.8"/>
      </g>
     </g>
    </g>
    <g id="xtick_17">
     <g id="line2d_23">
      <g>
       <use xlink:href="#m8e08f15394" x="448.721301" y="221.911752" style="stroke: #000000; stroke-width: 0.8"/>
      </g>
     </g>
    </g>
    <g id="xtick_18">
     <g id="line2d_24">
      <g>
       <use xlink:href="#m8e08f15394" x="537.587993" y="221.911752" style="stroke: #000000; stroke-width: 0.8"/>
      </g>
     </g>
    </g>
    <g id="text_7">
     <!-- Time -->
     <g transform="translate(297.068652 242.309408)scale(0.15 -0.15)">
      <defs>
       <path id="DejaVuSans-54" d="M -19 4666 
L 3928 4666 
L 3928 4134 
L 2272 4134 
L 2272 0 
L 1638 0 
L 1638 4134 
L -19 4134 
L -19 4666 
z
" transform="scale(0.015625)"/>
       <path id="DejaVuSans-69" d="M 603 3500 
L 1178 3500 
L 1178 0 
L 603 0 
L 603 3500 
z
M 603 4863 
L 1178 4863 
L 1178 4134 
L 603 4134 
L 603 4863 
z
" transform="scale(0.015625)"/>
       <path id="DejaVuSans-6d" d="M 3328 2828 
Q 3544 3216 3844 3400 
Q 4144 3584 4550 3584 
Q 5097 3584 5394 3201 
Q 5691 2819 5691 2113 
L 5691 0 
L 5113 0 
L 5113 2094 
Q 5113 2597 4934 2840 
Q 4756 3084 4391 3084 
Q 3944 3084 3684 2787 
Q 3425 2491 3425 1978 
L 3425 0 
L 2847 0 
L 2847 2094 
Q 2847 2600 2669 2842 
Q 2491 3084 2119 3084 
Q 1678 3084 1418 2786 
Q 1159 2488 1159 1978 
L 1159 0 
L 581 0 
L 581 3500 
L 1159 3500 
L 1159 2956 
Q 1356 3278 1631 3431 
Q 1906 3584 2284 3584 
Q 2666 3584 2933 3390 
Q 3200 3197 3328 2828 
z
" transform="scale(0.015625)"/>
       <path id="DejaVuSans-65" d="M 3597 1894 
L 3597 1613 
L 953 1613 
Q 991 1019 1311 708 
Q 1631 397 2203 397 
Q 2534 397 2845 478 
Q 3156 559 3463 722 
L 3463 178 
Q 3153 47 2828 -22 
Q 2503 -91 2169 -91 
Q 1331 -91 842 396 
Q 353 884 353 1716 
Q 353 2575 817 3079 
Q 1281 3584 2069 3584 
Q 2775 3584 3186 3129 
Q 3597 2675 3597 1894 
z
M 3022 2063 
Q 3016 2534 2758 2815 
Q 2500 3097 2075 3097 
Q 1594 3097 1305 2825 
Q 1016 2553 972 2059 
L 3022 2063 
z
" transform="scale(0.015625)"/>
      </defs>
      <use xlink:href="#DejaVuSans-54"/>
      <use xlink:href="#DejaVuSans-69" x="57.958984"/>
      <use xlink:href="#DejaVuSans-6d" x="85.742188"/>
      <use xlink:href="#DejaVuSans-65" x="183.154297"/>
     </g>
    </g>
   </g>
   <g id="matplotlib.axis_6">
    <g id="ytick_5">
     <g id="line2d_25">
      <g>
       <use xlink:href="#m238caf7812" x="71.038086" y="220.086513" style="stroke: #000000; stroke-width: 0.8"/>
      </g>
     </g>
     <g id="text_8">
      <!-- 0.00 -->
      <g transform="translate(34.717188 224.833637)scale(0.12495 -0.12495)">
       <defs>
        <path id="DejaVuSans-2e" d="M 684 794 
L 1344 794 
L 1344 0 
L 684 0 
L 684 794 
z
" transform="scale(0.015625)"/>
       </defs>
       <use xlink:href="#DejaVuSans-30"/>
       <use xlink:href="#DejaVuSans-2e" x="63.623047"/>
       <use xlink:href="#DejaVuSans-30" x="95.410156"/>
       <use xlink:href="#DejaVuSans-30" x="159.033203"/>
      </g>
     </g>
    </g>
    <g id="ytick_6">
     <g id="line2d_26">
      <g>
       <use xlink:href="#m238caf7812" x="71.038086" y="189.665857" style="stroke: #000000; stroke-width: 0.8"/>
      </g>
     </g>
     <g id="text_9">
      <!-- 0.25 -->
      <g transform="translate(34.717188 194.412981)scale(0.12495 -0.12495)">
       <defs>
        <path id="DejaVuSans-32" d="M 1228 531 
L 3431 531 
L 3431 0 
L 469 0 
L 469 531 
Q 828 903 1448 1529 
Q 2069 2156 2228 2338 
Q 2531 2678 2651 2914 
Q 2772 3150 2772 3378 
Q 2772 3750 2511 3984 
Q 2250 4219 1831 4219 
Q 1534 4219 1204 4116 
Q 875 4013 500 3803 
L 500 4441 
Q 881 4594 1212 4672 
Q 1544 4750 1819 4750 
Q 2544 4750 2975 4387 
Q 3406 4025 3406 3419 
Q 3406 3131 3298 2873 
Q 3191 2616 2906 2266 
Q 2828 2175 2409 1742 
Q 1991 1309 1228 531 
z
" transform="scale(0.015625)"/>
       </defs>
       <use xlink:href="#DejaVuSans-30"/>
       <use xlink:href="#DejaVuSans-2e" x="63.623047"/>
       <use xlink:href="#DejaVuSans-32" x="95.410156"/>
       <use xlink:href="#DejaVuSans-35" x="159.033203"/>
      </g>
     </g>
    </g>
    <g id="text_10">
     <!-- I -->
     <g transform="translate(27.597656 204.046619)rotate(-90)scale(0.15 -0.15)">
      <defs>
       <path id="DejaVuSans-49" d="M 628 4666 
L 1259 4666 
L 1259 0 
L 628 0 
L 628 4666 
z
" transform="scale(0.015625)"/>
      </defs>
      <use xlink:href="#DejaVuSans-49"/>
     </g>
    </g>
   </g>
   <g id="line2d_27">
    <path d="M 93.254537 220.086513 
L 204.333457 220.086513 
L 204.448984 183.581726 
L 426.500185 183.581726 
L 426.615712 220.086513 
L 537.583549 220.086513 
L 537.583549 220.086513 
" clip-path="url(#p4c589add04)" style="fill: none; stroke: #1f77b4; stroke-width: 1.5; stroke-linecap: square"/>
   </g>
   <g id="patch_9">
    <path d="M 71.038086 221.911752 
L 71.038086 181.756486 
" style="fill: none; stroke: #000000; stroke-width: 0.8; stroke-linejoin: miter; stroke-linecap: square"/>
   </g>
   <g id="patch_10">
    <path d="M 71.038086 221.911752 
L 559.8 221.911752 
" style="fill: none; stroke: #000000; stroke-width: 0.8; stroke-linejoin: miter; stroke-linecap: square"/>
   </g>
  </g>
  <g id="axes_4">
   <g id="patch_11">
    <path d="M 71.038086 304.689995 
L 559.8 304.689995 
L 559.8 264.534729 
L 71.038086 264.534729 
z
" style="fill: #ffffff"/>
   </g>
   <g id="matplotlib.axis_7">
    <g id="xtick_19">
     <g id="line2d_28">
      <g>
       <use xlink:href="#m8e08f15394" x="93.254537" y="304.689995" style="stroke: #000000; stroke-width: 0.8"/>
      </g>
     </g>
     <g id="text_11">
      <!-- 0 -->
      <g transform="translate(89.279565 322.684243)scale(0.12495 -0.12495)">
       <use xlink:href="#DejaVuSans-30"/>
      </g>
     </g>
    </g>
    <g id="xtick_20">
     <g id="line2d_29">
      <g>
       <use xlink:href="#m8e08f15394" x="182.121228" y="304.689995" style="stroke: #000000; stroke-width: 0.8"/>
      </g>
     </g>
     <g id="text_12">
      <!-- 200 -->
      <g transform="translate(170.196312 322.684243)scale(0.12495 -0.12495)">
       <use xlink:href="#DejaVuSans-32"/>
       <use xlink:href="#DejaVuSans-30" x="63.623047"/>
       <use xlink:href="#DejaVuSans-30" x="127.246094"/>
      </g>
     </g>
    </g>
    <g id="xtick_21">
     <g id="line2d_30">
      <g>
       <use xlink:href="#m8e08f15394" x="270.987919" y="304.689995" style="stroke: #000000; stroke-width: 0.8"/>
      </g>
     </g>
     <g id="text_13">
      <!-- 400 -->
      <g transform="translate(259.063003 322.684243)scale(0.12495 -0.12495)">
       <use xlink:href="#DejaVuSans-34"/>
       <use xlink:href="#DejaVuSans-30" x="63.623047"/>
       <use xlink:href="#DejaVuSans-30" x="127.246094"/>
      </g>
     </g>
    </g>
    <g id="xtick_22">
     <g id="line2d_31">
      <g>
       <use xlink:href="#m8e08f15394" x="359.85461" y="304.689995" style="stroke: #000000; stroke-width: 0.8"/>
      </g>
     </g>
     <g id="text_14">
      <!-- 600 -->
      <g transform="translate(347.929695 322.684243)scale(0.12495 -0.12495)">
       <use xlink:href="#DejaVuSans-36"/>
       <use xlink:href="#DejaVuSans-30" x="63.623047"/>
       <use xlink:href="#DejaVuSans-30" x="127.246094"/>
      </g>
     </g>
    </g>
    <g id="xtick_23">
     <g id="line2d_32">
      <g>
       <use xlink:href="#m8e08f15394" x="448.721301" y="304.689995" style="stroke: #000000; stroke-width: 0.8"/>
      </g>
     </g>
     <g id="text_15">
      <!-- 800 -->
      <g transform="translate(436.796386 322.684243)scale(0.12495 -0.12495)">
       <defs>
        <path id="DejaVuSans-38" d="M 2034 2216 
Q 1584 2216 1326 1975 
Q 1069 1734 1069 1313 
Q 1069 891 1326 650 
Q 1584 409 2034 409 
Q 2484 409 2743 651 
Q 3003 894 3003 1313 
Q 3003 1734 2745 1975 
Q 2488 2216 2034 2216 
z
M 1403 2484 
Q 997 2584 770 2862 
Q 544 3141 544 3541 
Q 544 4100 942 4425 
Q 1341 4750 2034 4750 
Q 2731 4750 3128 4425 
Q 3525 4100 3525 3541 
Q 3525 3141 3298 2862 
Q 3072 2584 2669 2484 
Q 3125 2378 3379 2068 
Q 3634 1759 3634 1313 
Q 3634 634 3220 271 
Q 2806 -91 2034 -91 
Q 1263 -91 848 271 
Q 434 634 434 1313 
Q 434 1759 690 2068 
Q 947 2378 1403 2484 
z
M 1172 3481 
Q 1172 3119 1398 2916 
Q 1625 2713 2034 2713 
Q 2441 2713 2670 2916 
Q 2900 3119 2900 3481 
Q 2900 3844 2670 4047 
Q 2441 4250 2034 4250 
Q 1625 4250 1398 4047 
Q 1172 3844 1172 3481 
z
" transform="scale(0.015625)"/>
       </defs>
       <use xlink:href="#DejaVuSans-38"/>
       <use xlink:href="#DejaVuSans-30" x="63.623047"/>
       <use xlink:href="#DejaVuSans-30" x="127.246094"/>
      </g>
     </g>
    </g>
    <g id="xtick_24">
     <g id="line2d_33">
      <g>
       <use xlink:href="#m8e08f15394" x="537.587993" y="304.689995" style="stroke: #000000; stroke-width: 0.8"/>
      </g>
     </g>
     <g id="text_16">
      <!-- 1000 -->
      <g transform="translate(521.688105 322.684243)scale(0.12495 -0.12495)">
       <use xlink:href="#DejaVuSans-31"/>
       <use xlink:href="#DejaVuSans-30" x="63.623047"/>
       <use xlink:href="#DejaVuSans-30" x="127.246094"/>
       <use xlink:href="#DejaVuSans-30" x="190.869141"/>
      </g>
     </g>
    </g>
    <g id="text_17">
     <!-- Time -->
     <g transform="translate(297.068652 340.680469)scale(0.15 -0.15)">
      <use xlink:href="#DejaVuSans-54"/>
      <use xlink:href="#DejaVuSans-69" x="57.958984"/>
      <use xlink:href="#DejaVuSans-6d" x="85.742188"/>
      <use xlink:href="#DejaVuSans-65" x="183.154297"/>
     </g>
    </g>
   </g>
   <g id="matplotlib.axis_8">
    <g id="ytick_7">
     <g id="line2d_34">
      <g>
       <use xlink:href="#m238caf7812" x="71.038086" y="302.864756" style="stroke: #000000; stroke-width: 0.8"/>
      </g>
     </g>
     <g id="text_18">
      <!-- 0 -->
      <g transform="translate(54.588142 307.61188)scale(0.12495 -0.12495)">
       <use xlink:href="#DejaVuSans-30"/>
      </g>
     </g>
    </g>
    <g id="ytick_8">
     <g id="line2d_35">
      <g>
       <use xlink:href="#m238caf7812" x="71.038086" y="266.359969" style="stroke: #000000; stroke-width: 0.8"/>
      </g>
     </g>
     <g id="text_19">
      <!-- 1 -->
      <g transform="translate(54.588142 271.107093)scale(0.12495 -0.12495)">
       <use xlink:href="#DejaVuSans-31"/>
      </g>
     </g>
    </g>
    <g id="text_20">
     <!-- Bin spikes -->
     <g transform="translate(47.468611 322.3233)rotate(-90)scale(0.15 -0.15)">
      <defs>
       <path id="DejaVuSans-42" d="M 1259 2228 
L 1259 519 
L 2272 519 
Q 2781 519 3026 730 
Q 3272 941 3272 1375 
Q 3272 1813 3026 2020 
Q 2781 2228 2272 2228 
L 1259 2228 
z
M 1259 4147 
L 1259 2741 
L 2194 2741 
Q 2656 2741 2882 2914 
Q 3109 3088 3109 3444 
Q 3109 3797 2882 3972 
Q 2656 4147 2194 4147 
L 1259 4147 
z
M 628 4666 
L 2241 4666 
Q 2963 4666 3353 4366 
Q 3744 4066 3744 3513 
Q 3744 3084 3544 2831 
Q 3344 2578 2956 2516 
Q 3422 2416 3680 2098 
Q 3938 1781 3938 1306 
Q 3938 681 3513 340 
Q 3088 0 2303 0 
L 628 0 
L 628 4666 
z
" transform="scale(0.015625)"/>
       <path id="DejaVuSans-6e" d="M 3513 2113 
L 3513 0 
L 2938 0 
L 2938 2094 
Q 2938 2591 2744 2837 
Q 2550 3084 2163 3084 
Q 1697 3084 1428 2787 
Q 1159 2491 1159 1978 
L 1159 0 
L 581 0 
L 581 3500 
L 1159 3500 
L 1159 2956 
Q 1366 3272 1645 3428 
Q 1925 3584 2291 3584 
Q 2894 3584 3203 3211 
Q 3513 2838 3513 2113 
z
" transform="scale(0.015625)"/>
       <path id="DejaVuSans-20" transform="scale(0.015625)"/>
       <path id="DejaVuSans-73" d="M 2834 3397 
L 2834 2853 
Q 2591 2978 2328 3040 
Q 2066 3103 1784 3103 
Q 1356 3103 1142 2972 
Q 928 2841 928 2578 
Q 928 2378 1081 2264 
Q 1234 2150 1697 2047 
L 1894 2003 
Q 2506 1872 2764 1633 
Q 3022 1394 3022 966 
Q 3022 478 2636 193 
Q 2250 -91 1575 -91 
Q 1294 -91 989 -36 
Q 684 19 347 128 
L 347 722 
Q 666 556 975 473 
Q 1284 391 1588 391 
Q 1994 391 2212 530 
Q 2431 669 2431 922 
Q 2431 1156 2273 1281 
Q 2116 1406 1581 1522 
L 1381 1569 
Q 847 1681 609 1914 
Q 372 2147 372 2553 
Q 372 3047 722 3315 
Q 1072 3584 1716 3584 
Q 2034 3584 2315 3537 
Q 2597 3491 2834 3397 
z
" transform="scale(0.015625)"/>
       <path id="DejaVuSans-70" d="M 1159 525 
L 1159 -1331 
L 581 -1331 
L 581 3500 
L 1159 3500 
L 1159 2969 
Q 1341 3281 1617 3432 
Q 1894 3584 2278 3584 
Q 2916 3584 3314 3078 
Q 3713 2572 3713 1747 
Q 3713 922 3314 415 
Q 2916 -91 2278 -91 
Q 1894 -91 1617 61 
Q 1341 213 1159 525 
z
M 3116 1747 
Q 3116 2381 2855 2742 
Q 2594 3103 2138 3103 
Q 1681 3103 1420 2742 
Q 1159 2381 1159 1747 
Q 1159 1113 1420 752 
Q 1681 391 2138 391 
Q 2594 391 2855 752 
Q 3116 1113 3116 1747 
z
" transform="scale(0.015625)"/>
       <path id="DejaVuSans-6b" d="M 581 4863 
L 1159 4863 
L 1159 1991 
L 2875 3500 
L 3609 3500 
L 1753 1863 
L 3688 0 
L 2938 0 
L 1159 1709 
L 1159 0 
L 581 0 
L 581 4863 
z
" transform="scale(0.015625)"/>
      </defs>
      <use xlink:href="#DejaVuSans-42"/>
      <use xlink:href="#DejaVuSans-69" x="68.603516"/>
      <use xlink:href="#DejaVuSans-6e" x="96.386719"/>
      <use xlink:href="#DejaVuSans-20" x="159.765625"/>
      <use xlink:href="#DejaVuSans-73" x="191.552734"/>
      <use xlink:href="#DejaVuSans-70" x="243.652344"/>
      <use xlink:href="#DejaVuSans-69" x="307.128906"/>
      <use xlink:href="#DejaVuSans-6b" x="334.912109"/>
      <use xlink:href="#DejaVuSans-65" x="389.197266"/>
      <use xlink:href="#DejaVuSans-73" x="450.720703"/>
     </g>
    </g>
   </g>
   <g id="line2d_36">
    <path d="M 93.254537 302.864756 
L 208.781235 302.864756 
L 211.002902 266.359969 
L 213.22457 302.864756 
L 226.554573 302.864756 
L 228.776241 266.359969 
L 230.997908 302.864756 
L 242.106244 302.864756 
L 244.327912 266.359969 
L 246.549579 302.864756 
L 259.879583 302.864756 
L 262.10125 266.359969 
L 264.322917 302.864756 
L 277.652921 302.864756 
L 279.874588 266.359969 
L 282.096255 302.864756 
L 293.204592 302.864756 
L 295.426259 266.359969 
L 297.647926 302.864756 
L 310.97793 302.864756 
L 313.199597 266.359969 
L 315.421265 302.864756 
L 328.751268 302.864756 
L 330.972936 266.359969 
L 333.194603 302.864756 
L 344.302939 302.864756 
L 346.524607 266.359969 
L 348.746274 302.864756 
L 362.076278 302.864756 
L 364.297945 266.359969 
L 366.519612 302.864756 
L 377.627948 302.864756 
L 379.849616 266.359969 
L 382.071283 302.864756 
L 395.401287 302.864756 
L 397.622954 266.359969 
L 399.844621 302.864756 
L 413.174625 302.864756 
L 415.396292 266.359969 
L 417.61796 302.864756 
L 535.366325 302.864756 
L 535.366325 302.864756 
" clip-path="url(#p4bfc72e602)" style="fill: none; stroke: #1f77b4; stroke-width: 1.5; stroke-linecap: square"/>
   </g>
   <g id="patch_12">
    <path d="M 71.038086 304.689995 
L 71.038086 264.534729 
" style="fill: none; stroke: #000000; stroke-width: 0.8; stroke-linejoin: miter; stroke-linecap: square"/>
   </g>
   <g id="patch_13">
    <path d="M 71.038086 304.689995 
L 559.8 304.689995 
" style="fill: none; stroke: #000000; stroke-width: 0.8; stroke-linejoin: miter; stroke-linecap: square"/>
   </g>
  </g>
 </g>
 <defs>
  <clipPath id="p27c13fa4c2">
   <rect x="71.038086" y="16.2" width="488.761914" height="40.155266"/>
  </clipPath>
  <clipPath id="pd788982cec">
   <rect x="71.038086" y="98.978243" width="488.761914" height="40.155266"/>
  </clipPath>
  <clipPath id="p4c589add04">
   <rect x="71.038086" y="181.756486" width="488.761914" height="40.155266"/>
  </clipPath>
  <clipPath id="p4bfc72e602">
   <rect x="71.038086" y="264.534729" width="488.761914" height="40.155266"/>
  </clipPath>
 </defs>
</svg>
