<?xml version="1.0" encoding="utf-8" standalone="no"?>
<!DOCTYPE svg PUBLIC "-//W3C//DTD SVG 1.1//EN"
  "http://www.w3.org/Graphics/SVG/1.1/DTD/svg11.dtd">
<svg xmlns:xlink="http://www.w3.org/1999/xlink" width="576pt" height="360pt" viewBox="0 0 576 360" xmlns="http://www.w3.org/2000/svg" version="1.1">
 <metadata>
  <rdf:RDF xmlns:dc="http://purl.org/dc/elements/1.1/" xmlns:cc="http://creativecommons.org/ns#" xmlns:rdf="http://www.w3.org/1999/02/22-rdf-syntax-ns#">
   <cc:Work>
    <dc:type rdf:resource="http://purl.org/dc/dcmitype/StillImage"/>
    <dc:date>2022-08-30T12:34:55.040458</dc:date>
    <dc:format>image/svg+xml</dc:format>
    <dc:creator>
     <cc:Agent>
      <dc:title>Matplotlib v3.5.3, https://matplotlib.org/</dc:title>
     </cc:Agent>
    </dc:creator>
   </cc:Work>
  </rdf:RDF>
 </metadata>
 <defs>
  <style type="text/css">*{stroke-linejoin: round; stroke-linecap: butt}</style>
 </defs>
 <g id="figure_1">
  <g id="patch_1">
   <path d="M 0 360 
L 576 360 
L 576 0 
L 0 0 
z
" style="fill: #ffffff"/>
  </g>
  <g id="axes_1">
   <g id="patch_2">
    <path d="M 69.587495 56.355266 
L 559.8 56.355266 
L 559.8 16.2 
L 69.587495 16.2 
z
" style="fill: #ffffff"/>
   </g>
   <g id="PathCollection_1">
    <defs>
     <path id="m903c0b86d2" d="M 0 3 
C 0.795609 3 1.55874 2.683901 2.12132 2.12132 
C 2.683901 1.55874 3 0.795609 3 0 
C 3 -0.795609 2.683901 -1.55874 2.12132 -2.12132 
C 1.55874 -2.683901 0.795609 -3 0 -3 
C -0.795609 -3 -1.55874 -2.683901 -2.12132 -2.12132 
C -2.683901 -1.55874 -3 -0.795609 -3 0 
C -3 0.795609 -2.683901 1.55874 -2.12132 2.12132 
C -1.55874 2.683901 -0.795609 3 0 3 
z
" style="stroke: #1f77b4"/>
    </defs>
    <g clip-path="url(#p8f0200c626)">
     <use xlink:href="#m903c0b86d2" x="204.192059" y="18.025239" style="fill: #1f77b4; stroke: #1f77b4"/>
     <use xlink:href="#m903c0b86d2" x="205.163581" y="18.025239" style="fill: #1f77b4; stroke: #1f77b4"/>
     <use xlink:href="#m903c0b86d2" x="206.469341" y="18.025239" style="fill: #1f77b4; stroke: #1f77b4"/>
     <use xlink:href="#m903c0b86d2" x="208.751081" y="18.025239" style="fill: #1f77b4; stroke: #1f77b4"/>
     <use xlink:href="#m903c0b86d2" x="218.408364" y="18.025239" style="fill: #1f77b4; stroke: #1f77b4"/>
     <use xlink:href="#m903c0b86d2" x="231.514994" y="18.025239" style="fill: #1f77b4; stroke: #1f77b4"/>
     <use xlink:href="#m903c0b86d2" x="244.608256" y="18.025239" style="fill: #1f77b4; stroke: #1f77b4"/>
     <use xlink:href="#m903c0b86d2" x="257.701517" y="18.025239" style="fill: #1f77b4; stroke: #1f77b4"/>
     <use xlink:href="#m903c0b86d2" x="270.794778" y="18.025239" style="fill: #1f77b4; stroke: #1f77b4"/>
     <use xlink:href="#m903c0b86d2" x="283.88804" y="18.025239" style="fill: #1f77b4; stroke: #1f77b4"/>
     <use xlink:href="#m903c0b86d2" x="296.981301" y="18.025239" style="fill: #1f77b4; stroke: #1f77b4"/>
     <use xlink:href="#m903c0b86d2" x="310.074562" y="18.025239" style="fill: #1f77b4; stroke: #1f77b4"/>
     <use xlink:href="#m903c0b86d2" x="323.167824" y="18.025239" style="fill: #1f77b4; stroke: #1f77b4"/>
     <use xlink:href="#m903c0b86d2" x="336.261085" y="18.025239" style="fill: #1f77b4; stroke: #1f77b4"/>
     <use xlink:href="#m903c0b86d2" x="349.354346" y="18.025239" style="fill: #1f77b4; stroke: #1f77b4"/>
     <use xlink:href="#m903c0b86d2" x="362.447608" y="18.025239" style="fill: #1f77b4; stroke: #1f77b4"/>
     <use xlink:href="#m903c0b86d2" x="375.540869" y="18.025239" style="fill: #1f77b4; stroke: #1f77b4"/>
     <use xlink:href="#m903c0b86d2" x="388.63413" y="18.025239" style="fill: #1f77b4; stroke: #1f77b4"/>
     <use xlink:href="#m903c0b86d2" x="401.727391" y="18.025239" style="fill: #1f77b4; stroke: #1f77b4"/>
     <use xlink:href="#m903c0b86d2" x="414.820653" y="18.025239" style="fill: #1f77b4; stroke: #1f77b4"/>
    </g>
   </g>
   <g id="matplotlib.axis_1">
    <g id="xtick_1">
     <g id="line2d_1">
      <defs>
       <path id="m72c310640c" d="M 0 0 
L 0 5 
" style="stroke: #000000; stroke-width: 0.8"/>
      </defs>
      <g>
       <use xlink:href="#m72c310640c" x="91.869881" y="56.355266" style="stroke: #000000; stroke-width: 0.8"/>
      </g>
     </g>
    </g>
    <g id="xtick_2">
     <g id="line2d_2">
      <g>
       <use xlink:href="#m72c310640c" x="181.000319" y="56.355266" style="stroke: #000000; stroke-width: 0.8"/>
      </g>
     </g>
    </g>
    <g id="xtick_3">
     <g id="line2d_3">
      <g>
       <use xlink:href="#m72c310640c" x="270.130757" y="56.355266" style="stroke: #000000; stroke-width: 0.8"/>
      </g>
     </g>
    </g>
    <g id="xtick_4">
     <g id="line2d_4">
      <g>
       <use xlink:href="#m72c310640c" x="359.261194" y="56.355266" style="stroke: #000000; stroke-width: 0.8"/>
      </g>
     </g>
    </g>
    <g id="xtick_5">
     <g id="line2d_5">
      <g>
       <use xlink:href="#m72c310640c" x="448.391632" y="56.355266" style="stroke: #000000; stroke-width: 0.8"/>
      </g>
     </g>
    </g>
    <g id="xtick_6">
     <g id="line2d_6">
      <g>
       <use xlink:href="#m72c310640c" x="537.52207" y="56.355266" style="stroke: #000000; stroke-width: 0.8"/>
      </g>
     </g>
    </g>
   </g>
   <g id="matplotlib.axis_2">
    <g id="ytick_1">
     <g id="line2d_7">
      <defs>
       <path id="mae46ea5dfd" d="M 0 0 
L -5 0 
" style="stroke: #000000; stroke-width: 0.8"/>
      </defs>
      <g>
       <use xlink:href="#mae46ea5dfd" x="69.587495" y="44.584479" style="stroke: #000000; stroke-width: 0.8"/>
      </g>
     </g>
     <g id="text_1">
      <!-- −50 -->
      <g transform="translate(34.717187 49.331603)scale(0.12495 -0.12495)">
       <defs>
        <path id="DejaVuSans-2212" d="M 678 2272 
L 4684 2272 
L 4684 1741 
L 678 1741 
L 678 2272 
z
" transform="scale(0.015625)"/>
        <path id="DejaVuSans-35" d="M 691 4666 
L 3169 4666 
L 3169 4134 
L 1269 4134 
L 1269 2991 
Q 1406 3038 1543 3061 
Q 1681 3084 1819 3084 
Q 2600 3084 3056 2656 
Q 3513 2228 3513 1497 
Q 3513 744 3044 326 
Q 2575 -91 1722 -91 
Q 1428 -91 1123 -41 
Q 819 9 494 109 
L 494 744 
Q 775 591 1075 516 
Q 1375 441 1709 441 
Q 2250 441 2565 725 
Q 2881 1009 2881 1497 
Q 2881 1984 2565 2268 
Q 2250 2553 1709 2553 
Q 1456 2553 1204 2497 
Q 953 2441 691 2322 
L 691 4666 
z
" transform="scale(0.015625)"/>
        <path id="DejaVuSans-30" d="M 2034 4250 
Q 1547 4250 1301 3770 
Q 1056 3291 1056 2328 
Q 1056 1369 1301 889 
Q 1547 409 2034 409 
Q 2525 409 2770 889 
Q 3016 1369 3016 2328 
Q 3016 3291 2770 3770 
Q 2525 4250 2034 4250 
z
M 2034 4750 
Q 2819 4750 3233 4129 
Q 3647 3509 3647 2328 
Q 3647 1150 3233 529 
Q 2819 -91 2034 -91 
Q 1250 -91 836 529 
Q 422 1150 422 2328 
Q 422 3509 836 4129 
Q 1250 4750 2034 4750 
z
" transform="scale(0.015625)"/>
       </defs>
       <use xlink:href="#DejaVuSans-2212"/>
       <use xlink:href="#DejaVuSans-35" x="83.789062"/>
       <use xlink:href="#DejaVuSans-30" x="147.412109"/>
      </g>
     </g>
    </g>
    <g id="ytick_2">
     <g id="line2d_8">
      <g>
       <use xlink:href="#mae46ea5dfd" x="69.587495" y="29.829346" style="stroke: #000000; stroke-width: 0.8"/>
      </g>
     </g>
     <g id="text_2">
      <!-- 0 -->
      <g transform="translate(53.137551 34.57647)scale(0.12495 -0.12495)">
       <use xlink:href="#DejaVuSans-30"/>
      </g>
     </g>
    </g>
    <g id="text_3">
     <!-- V -->
     <g transform="translate(27.597656 41.408102)rotate(-90)scale(0.15 -0.15)">
      <defs>
       <path id="DejaVuSans-56" d="M 1831 0 
L 50 4666 
L 709 4666 
L 2188 738 
L 3669 4666 
L 4325 4666 
L 2547 0 
L 1831 0 
z
" transform="scale(0.015625)"/>
      </defs>
      <use xlink:href="#DejaVuSans-56"/>
     </g>
    </g>
   </g>
   <g id="line2d_9">
    <path d="M 91.869881 50.486532 
L 203.287385 50.427512 
L 203.94695 40.288962 
L 204.107385 31.907528 
L 204.192059 19.500753 
L 204.196515 49.011019 
L 204.303472 48.110011 
L 204.753581 43.403486 
L 204.963037 38.465623 
L 205.105646 29.142722 
L 205.163581 19.500753 
L 205.168037 49.011019 
L 205.274994 48.461445 
L 205.867711 44.885946 
L 206.126189 41.720966 
L 206.308907 36.44008 
L 206.438146 25.181119 
L 206.469341 19.500753 
L 206.473798 49.011019 
L 206.580755 48.79939 
L 207.632494 46.505061 
L 208.006842 45.027327 
L 208.283146 42.9616 
L 208.492602 39.550577 
L 208.648581 32.919666 
L 208.751081 19.500753 
L 208.862494 49.107229 
L 209.513146 49.520372 
L 210.19945 49.688896 
L 211.095211 49.664357 
L 212.46782 49.383233 
L 214.21032 48.80248 
L 215.502711 48.153835 
L 216.344994 47.493761 
L 216.924342 46.762551 
L 217.352168 45.857566 
L 217.686407 44.594141 
L 217.949342 42.645604 
L 218.154342 39.268034 
L 218.31032 32.391336 
L 218.408364 19.500753 
L 218.519777 49.215263 
L 219.081298 50.017462 
L 219.589342 50.376328 
L 220.182059 50.516122 
L 221.07782 50.472679 
L 222.945103 50.114959 
L 225.855212 49.343146 
L 227.726951 48.636606 
L 228.885647 47.975473 
L 229.643255 47.294984 
L 230.173581 46.518196 
L 230.570212 45.526446 
L 230.877712 44.123593 
L 231.122821 41.868439 
L 231.314451 37.745253 
L 231.452603 29.350761 
L 231.514994 19.500753 
L 231.626408 49.214832 
L 232.187929 50.015392 
L 232.700429 50.375614 
L 233.293147 50.513621 
L 234.193364 50.468643 
L 236.074016 50.106842 
L 238.970756 49.336191 
L 240.833582 48.630516 
L 241.987821 47.96928 
L 242.740973 47.290212 
L 243.266843 46.518758 
L 243.663473 45.527431 
L 243.970973 44.125461 
L 244.216082 41.872439 
L 244.407712 37.755439 
L 244.545864 29.382536 
L 244.608256 19.500753 
L 244.719669 49.21483 
L 245.281191 50.015382 
L 245.793691 50.375601 
L 246.386408 50.513607 
L 247.286625 50.468629 
L 249.167278 50.106826 
L 252.064017 49.336171 
L 253.926843 48.630486 
L 255.081082 47.969233 
L 255.834234 47.290137 
L 256.360104 46.518634 
L 256.756734 45.527214 
L 257.064234 44.125049 
L 257.309343 41.871559 
L 257.500974 37.753197 
L 257.639126 29.375547 
L 257.701517 19.500753 
L 257.81293 49.21483 
L 258.374452 50.015384 
L 258.886952 50.375604 
L 259.479669 50.51361 
L 260.379887 50.468632 
L 262.260539 50.10683 
L 265.157278 49.336175 
L 267.020104 48.630493 
L 268.174344 47.969244 
L 268.927496 47.290154 
L 269.453365 46.518662 
L 269.849996 45.527264 
L 270.157496 44.125143 
L 270.402604 41.871759 
L 270.594235 37.753708 
L 270.732387 29.377142 
L 270.794778 19.500753 
L 270.906191 49.21483 
L 271.467713 50.015383 
L 271.980213 50.375603 
L 272.572931 50.51361 
L 273.473148 50.468632 
L 275.3538 50.106829 
L 278.25054 49.336174 
L 280.113366 48.630491 
L 281.267605 47.969241 
L 282.020757 47.29015 
L 282.546627 46.518656 
L 282.943257 45.527253 
L 283.250757 44.125122 
L 283.495866 41.871714 
L 283.687496 37.753592 
L 283.825648 29.376778 
L 283.88804 19.500753 
L 283.999453 49.21483 
L 284.560975 50.015384 
L 285.073475 50.375603 
L 285.666192 50.51361 
L 286.566409 50.468632 
L 288.447062 50.106829 
L 291.343801 49.336174 
L 293.206627 48.630491 
L 294.360866 47.969242 
L 295.114018 47.290151 
L 295.639888 46.518658 
L 296.036518 45.527255 
L 296.344018 44.125127 
L 296.589127 41.871724 
L 296.780758 37.753618 
L 296.91891 29.376861 
L 296.981301 19.500753 
L 297.092714 49.21483 
L 297.654236 50.015383 
L 298.166736 50.375603 
L 298.759453 50.51361 
L 299.659671 50.468632 
L 301.540323 50.106829 
L 304.437062 49.336174 
L 306.299888 48.630491 
L 307.454127 47.969242 
L 308.20728 47.29015 
L 308.733149 46.518657 
L 309.12978 45.527255 
L 309.43728 44.125126 
L 309.682388 41.871722 
L 309.874019 37.753612 
L 310.012171 29.376842 
L 310.074562 19.500753 
L 310.185975 49.21483 
L 310.747497 50.015384 
L 311.259997 50.375603 
L 311.852715 50.51361 
L 312.752932 50.468632 
L 314.633584 50.106829 
L 317.530323 49.336174 
L 319.39315 48.630491 
L 320.547389 47.969242 
L 321.300541 47.29015 
L 321.826411 46.518657 
L 322.223041 45.527255 
L 322.530541 44.125126 
L 322.77565 41.871722 
L 322.96728 37.753614 
L 323.105432 29.376846 
L 323.167824 19.500753 
L 323.279237 49.21483 
L 323.840758 50.015384 
L 324.353258 50.375603 
L 324.945976 50.51361 
L 325.846193 50.468632 
L 327.726846 50.106829 
L 330.623585 49.336174 
L 332.486411 48.630491 
L 333.64065 47.969242 
L 334.393802 47.29015 
L 334.919672 46.518657 
L 335.316302 45.527255 
L 335.623802 44.125126 
L 335.868911 41.871722 
L 336.060541 37.753613 
L 336.198694 29.376845 
L 336.261085 19.500753 
L 336.372498 49.21483 
L 336.93402 50.015384 
L 337.44652 50.375603 
L 338.039237 50.51361 
L 338.939455 50.468632 
L 340.820107 50.106829 
L 343.716846 49.336174 
L 345.579672 48.630491 
L 346.733911 47.969242 
L 347.487064 47.29015 
L 348.012933 46.518657 
L 348.409564 45.527255 
L 348.717064 44.125126 
L 348.962172 41.871722 
L 349.153803 37.753613 
L 349.291955 29.376845 
L 349.354346 19.500753 
L 349.465759 49.21483 
L 350.027281 50.015384 
L 350.539781 50.375603 
L 351.132498 50.51361 
L 352.032716 50.468632 
L 353.913368 50.106829 
L 356.810107 49.336174 
L 358.672934 48.630491 
L 359.827173 47.969242 
L 360.580325 47.29015 
L 361.106194 46.518657 
L 361.502825 45.527255 
L 361.810325 44.125126 
L 362.055434 41.871722 
L 362.247064 37.753613 
L 362.385216 29.376845 
L 362.447608 19.500753 
L 362.559021 49.21483 
L 363.120542 50.015384 
L 363.633042 50.375603 
L 364.22576 50.51361 
L 365.125977 50.468632 
L 367.006629 50.106829 
L 369.903369 49.336174 
L 371.766195 48.630491 
L 372.920434 47.969242 
L 373.673586 47.29015 
L 374.199456 46.518657 
L 374.596086 45.527255 
L 374.903586 44.125126 
L 375.148695 41.871722 
L 375.340325 37.753613 
L 375.478478 29.376845 
L 375.540869 19.500753 
L 375.652282 49.21483 
L 376.213804 50.015384 
L 376.726304 50.375603 
L 377.319021 50.51361 
L 378.219239 50.468632 
L 380.099891 50.106829 
L 382.99663 49.336174 
L 384.859456 48.630491 
L 386.013695 47.969242 
L 386.766847 47.29015 
L 387.292717 46.518657 
L 387.689348 45.527255 
L 387.996848 44.125126 
L 388.241956 41.871722 
L 388.433587 37.753613 
L 388.571739 29.376845 
L 388.63413 19.500753 
L 388.745543 49.21483 
L 389.307065 50.015384 
L 389.819565 50.375603 
L 390.412282 50.51361 
L 391.3125 50.468632 
L 393.193152 50.106829 
L 396.089891 49.336174 
L 397.952717 48.630491 
L 399.106957 47.969242 
L 399.860109 47.29015 
L 400.385978 46.518657 
L 400.782609 45.527255 
L 401.090109 44.125126 
L 401.335218 41.871722 
L 401.526848 37.753613 
L 401.665 29.376845 
L 401.727391 19.500753 
L 401.838805 49.21483 
L 402.400326 50.015384 
L 402.912826 50.375603 
L 403.505544 50.51361 
L 404.405761 50.468632 
L 406.286413 50.106829 
L 409.183153 49.336174 
L 411.045979 48.630491 
L 412.200218 47.969242 
L 412.95337 47.29015 
L 413.47924 46.518657 
L 413.87587 45.527255 
L 414.18337 44.125126 
L 414.428479 41.871722 
L 414.620109 37.753613 
L 414.758261 29.376845 
L 414.820653 19.500753 
L 414.932066 49.21483 
L 415.493588 50.015384 
L 416.006088 50.375603 
L 416.598805 50.51361 
L 417.499022 50.468632 
L 419.379675 50.106829 
L 422.276414 49.336174 
L 424.13924 48.630491 
L 425.293479 47.969242 
L 426.046631 47.29015 
L 426.109023 47.216671 
L 426.117936 47.324076 
L 426.70174 53.066266 
L 427.00924 54.092844 
L 427.31674 54.427351 
L 427.731197 54.52639 
L 428.876523 54.476798 
L 446.234676 53.378754 
L 463.160546 52.546286 
L 481.615003 51.864739 
L 502.172938 51.332745 
L 526.104461 50.943129 
L 537.517613 50.821495 
L 537.517613 50.821495 
" clip-path="url(#p8f0200c626)" style="fill: none; stroke: #1f77b4; stroke-width: 1.5; stroke-linecap: square"/>
   </g>
   <g id="patch_3">
    <path d="M 69.587495 56.355266 
L 69.587495 16.2 
" style="fill: none; stroke: #000000; stroke-width: 0.8; stroke-linejoin: miter; stroke-linecap: square"/>
   </g>
   <g id="patch_4">
    <path d="M 69.587495 56.355266 
L 559.8 56.355266 
" style="fill: none; stroke: #000000; stroke-width: 0.8; stroke-linejoin: miter; stroke-linecap: square"/>
   </g>
  </g>
  <g id="axes_2">
   <g id="patch_5">
    <path d="M 69.587495 139.133509 
L 559.8 139.133509 
L 559.8 98.978243 
L 69.587495 98.978243 
z
" style="fill: #ffffff"/>
   </g>
   <g id="matplotlib.axis_3">
    <g id="xtick_7">
     <g id="line2d_10">
      <g>
       <use xlink:href="#m72c310640c" x="91.869881" y="139.133509" style="stroke: #000000; stroke-width: 0.8"/>
      </g>
     </g>
    </g>
    <g id="xtick_8">
     <g id="line2d_11">
      <g>
       <use xlink:href="#m72c310640c" x="181.000319" y="139.133509" style="stroke: #000000; stroke-width: 0.8"/>
      </g>
     </g>
    </g>
    <g id="xtick_9">
     <g id="line2d_12">
      <g>
       <use xlink:href="#m72c310640c" x="270.130757" y="139.133509" style="stroke: #000000; stroke-width: 0.8"/>
      </g>
     </g>
    </g>
    <g id="xtick_10">
     <g id="line2d_13">
      <g>
       <use xlink:href="#m72c310640c" x="359.261194" y="139.133509" style="stroke: #000000; stroke-width: 0.8"/>
      </g>
     </g>
    </g>
    <g id="xtick_11">
     <g id="line2d_14">
      <g>
       <use xlink:href="#m72c310640c" x="448.391632" y="139.133509" style="stroke: #000000; stroke-width: 0.8"/>
      </g>
     </g>
    </g>
    <g id="xtick_12">
     <g id="line2d_15">
      <g>
       <use xlink:href="#m72c310640c" x="537.52207" y="139.133509" style="stroke: #000000; stroke-width: 0.8"/>
      </g>
     </g>
    </g>
   </g>
   <g id="matplotlib.axis_4">
    <g id="ytick_3">
     <g id="line2d_16">
      <g>
       <use xlink:href="#mae46ea5dfd" x="69.587495" y="130.348371" style="stroke: #000000; stroke-width: 0.8"/>
      </g>
     </g>
     <g id="text_4">
      <!-- −10 -->
      <g transform="translate(34.717187 135.095495)scale(0.12495 -0.12495)">
       <defs>
        <path id="DejaVuSans-31" d="M 794 531 
L 1825 531 
L 1825 4091 
L 703 3866 
L 703 4441 
L 1819 4666 
L 2450 4666 
L 2450 531 
L 3481 531 
L 3481 0 
L 794 0 
L 794 531 
z
" transform="scale(0.015625)"/>
       </defs>
       <use xlink:href="#DejaVuSans-2212"/>
       <use xlink:href="#DejaVuSans-31" x="83.789062"/>
       <use xlink:href="#DejaVuSans-30" x="147.412109"/>
      </g>
     </g>
    </g>
    <g id="ytick_4">
     <g id="line2d_17">
      <g>
       <use xlink:href="#mae46ea5dfd" x="69.587495" y="112.948623" style="stroke: #000000; stroke-width: 0.8"/>
      </g>
     </g>
     <g id="text_5">
      <!-- 0 -->
      <g transform="translate(53.137551 117.695747)scale(0.12495 -0.12495)">
       <use xlink:href="#DejaVuSans-30"/>
      </g>
     </g>
    </g>
    <g id="text_6">
     <!-- U -->
     <g transform="translate(27.597656 124.544939)rotate(-90)scale(0.15 -0.15)">
      <defs>
       <path id="DejaVuSans-55" d="M 556 4666 
L 1191 4666 
L 1191 1831 
Q 1191 1081 1462 751 
Q 1734 422 2344 422 
Q 2950 422 3222 751 
Q 3494 1081 3494 1831 
L 3494 4666 
L 4128 4666 
L 4128 1753 
Q 4128 841 3676 375 
Q 3225 -91 2344 -91 
Q 1459 -91 1007 375 
Q 556 841 556 1753 
L 556 4666 
z
" transform="scale(0.015625)"/>
      </defs>
      <use xlink:href="#DejaVuSans-55"/>
     </g>
    </g>
   </g>
   <g id="line2d_18">
    <path d="M 91.869881 137.30827 
L 204.053907 137.198754 
L 204.192059 137.123095 
L 204.196515 128.423221 
L 204.303472 128.439124 
L 205.101189 128.437019 
L 205.163581 128.408183 
L 205.168037 119.70831 
L 205.274994 119.745582 
L 206.340102 119.992113 
L 206.469341 119.968851 
L 206.473798 111.268978 
L 206.580755 111.326941 
L 208.372276 112.165786 
L 208.751081 112.230599 
L 208.755537 103.530725 
L 208.862494 103.607659 
L 213.671081 106.931696 
L 216.78619 108.801208 
L 218.292494 109.499654 
L 218.408364 109.503356 
L 218.41282 100.803483 
L 218.519777 100.887102 
L 224.308799 105.28264 
L 227.731407 107.543125 
L 230.552386 109.158434 
L 231.506081 109.515725 
L 231.514994 109.514258 
L 231.519451 100.814384 
L 231.626408 100.897977 
L 237.415429 105.291789 
L 240.838038 107.551212 
L 243.65456 109.162756 
L 244.603799 109.515097 
L 244.608256 109.514312 
L 244.612712 100.814439 
L 244.719669 100.898032 
L 250.508691 105.291835 
L 253.9313 107.551252 
L 256.747821 109.162788 
L 257.697061 109.515086 
L 257.701517 109.5143 
L 257.705974 100.814426 
L 257.81293 100.898019 
L 263.601952 105.291824 
L 267.024561 107.551243 
L 269.841083 109.162781 
L 270.790322 109.515088 
L 270.794778 109.514303 
L 270.799235 100.814429 
L 270.906191 100.898022 
L 276.695213 105.291827 
L 280.117822 107.551245 
L 282.934344 109.162783 
L 283.883583 109.515088 
L 283.88804 109.514302 
L 283.892496 100.814428 
L 283.999453 100.898021 
L 289.788475 105.291826 
L 293.211084 107.551245 
L 296.027605 109.162782 
L 296.976845 109.515088 
L 296.981301 109.514302 
L 296.985758 100.814428 
L 297.092714 100.898021 
L 302.881736 105.291826 
L 306.304345 107.551245 
L 309.120867 109.162782 
L 310.070106 109.515088 
L 310.074562 109.514302 
L 310.079019 100.814428 
L 310.185975 100.898021 
L 315.974997 105.291826 
L 319.397606 107.551245 
L 322.214128 109.162782 
L 323.163367 109.515088 
L 323.167824 109.514302 
L 323.17228 100.814428 
L 323.279237 100.898021 
L 329.068259 105.291826 
L 332.490867 107.551245 
L 335.307389 109.162782 
L 336.256628 109.515088 
L 336.261085 109.514302 
L 336.265541 100.814428 
L 336.372498 100.898021 
L 342.16152 105.291826 
L 345.584129 107.551245 
L 348.400651 109.162782 
L 349.34989 109.515088 
L 349.354346 109.514302 
L 349.358803 100.814428 
L 349.465759 100.898021 
L 355.254781 105.291826 
L 358.67739 107.551245 
L 361.493912 109.162782 
L 362.443151 109.515088 
L 362.447608 109.514302 
L 362.452064 100.814428 
L 362.559021 100.898021 
L 368.348043 105.291826 
L 371.770651 107.551245 
L 374.587173 109.162782 
L 375.536412 109.515088 
L 375.540869 109.514302 
L 375.545325 100.814428 
L 375.652282 100.898021 
L 381.441304 105.291826 
L 384.863913 107.551245 
L 387.680434 109.162782 
L 388.629674 109.515088 
L 388.63413 109.514302 
L 388.638587 100.814428 
L 388.745543 100.898021 
L 394.534565 105.291826 
L 397.957174 107.551245 
L 400.773696 109.162782 
L 401.722935 109.515088 
L 401.727391 109.514302 
L 401.731848 100.814428 
L 401.838805 100.898021 
L 407.627826 105.291826 
L 411.050435 107.551245 
L 413.866957 109.162782 
L 414.816196 109.515088 
L 414.820653 109.514302 
L 414.825109 100.814428 
L 414.932066 100.898021 
L 420.721088 105.291826 
L 424.143697 107.551245 
L 428.421958 110.328155 
L 432.392719 113.018398 
L 436.492719 115.527398 
L 440.739784 117.865419 
L 445.160654 120.044512 
L 449.773154 122.069344 
L 454.612937 123.949921 
L 459.711198 125.690887 
L 465.108046 127.297184 
L 470.856959 128.774184 
L 477.015872 130.124544 
L 483.665003 131.351897 
L 490.897938 132.457771 
L 498.848373 133.444859 
L 507.694569 134.314975 
L 517.690548 135.069867 
L 529.210657 135.711021 
L 537.517613 136.057814 
L 537.517613 136.057814 
" clip-path="url(#p49c707fbe8)" style="fill: none; stroke: #1f77b4; stroke-width: 1.5; stroke-linecap: square"/>
   </g>
   <g id="patch_6">
    <path d="M 69.587495 139.133509 
L 69.587495 98.978243 
" style="fill: none; stroke: #000000; stroke-width: 0.8; stroke-linejoin: miter; stroke-linecap: square"/>
   </g>
   <g id="patch_7">
    <path d="M 69.587495 139.133509 
L 559.8 139.133509 
" style="fill: none; stroke: #000000; stroke-width: 0.8; stroke-linejoin: miter; stroke-linecap: square"/>
   </g>
  </g>
  <g id="axes_3">
   <g id="patch_8">
    <path d="M 69.587495 221.911752 
L 559.8 221.911752 
L 559.8 181.756486 
L 69.587495 181.756486 
z
" style="fill: #ffffff"/>
   </g>
   <g id="matplotlib.axis_5">
    <g id="xtick_13">
     <g id="line2d_19">
      <g>
       <use xlink:href="#m72c310640c" x="91.869881" y="221.911752" style="stroke: #000000; stroke-width: 0.8"/>
      </g>
     </g>
    </g>
    <g id="xtick_14">
     <g id="line2d_20">
      <g>
       <use xlink:href="#m72c310640c" x="181.000319" y="221.911752" style="stroke: #000000; stroke-width: 0.8"/>
      </g>
     </g>
    </g>
    <g id="xtick_15">
     <g id="line2d_21">
      <g>
       <use xlink:href="#m72c310640c" x="270.130757" y="221.911752" style="stroke: #000000; stroke-width: 0.8"/>
      </g>
     </g>
    </g>
    <g id="xtick_16">
     <g id="line2d_22">
      <g>
       <use xlink:href="#m72c310640c" x="359.261194" y="221.911752" style="stroke: #000000; stroke-width: 0.8"/>
      </g>
     </g>
    </g>
    <g id="xtick_17">
     <g id="line2d_23">
      <g>
       <use xlink:href="#m72c310640c" x="448.391632" y="221.911752" style="stroke: #000000; stroke-width: 0.8"/>
      </g>
     </g>
    </g>
    <g id="xtick_18">
     <g id="line2d_24">
      <g>
       <use xlink:href="#m72c310640c" x="537.52207" y="221.911752" style="stroke: #000000; stroke-width: 0.8"/>
      </g>
     </g>
    </g>
    <g id="text_7">
     <!-- Time -->
     <g transform="translate(296.343357 242.309408)scale(0.15 -0.15)">
      <defs>
       <path id="DejaVuSans-54" d="M -19 4666 
L 3928 4666 
L 3928 4134 
L 2272 4134 
L 2272 0 
L 1638 0 
L 1638 4134 
L -19 4134 
L -19 4666 
z
" transform="scale(0.015625)"/>
       <path id="DejaVuSans-69" d="M 603 3500 
L 1178 3500 
L 1178 0 
L 603 0 
L 603 3500 
z
M 603 4863 
L 1178 4863 
L 1178 4134 
L 603 4134 
L 603 4863 
z
" transform="scale(0.015625)"/>
       <path id="DejaVuSans-6d" d="M 3328 2828 
Q 3544 3216 3844 3400 
Q 4144 3584 4550 3584 
Q 5097 3584 5394 3201 
Q 5691 2819 5691 2113 
L 5691 0 
L 5113 0 
L 5113 2094 
Q 5113 2597 4934 2840 
Q 4756 3084 4391 3084 
Q 3944 3084 3684 2787 
Q 3425 2491 3425 1978 
L 3425 0 
L 2847 0 
L 2847 2094 
Q 2847 2600 2669 2842 
Q 2491 3084 2119 3084 
Q 1678 3084 1418 2786 
Q 1159 2488 1159 1978 
L 1159 0 
L 581 0 
L 581 3500 
L 1159 3500 
L 1159 2956 
Q 1356 3278 1631 3431 
Q 1906 3584 2284 3584 
Q 2666 3584 2933 3390 
Q 3200 3197 3328 2828 
z
" transform="scale(0.015625)"/>
       <path id="DejaVuSans-65" d="M 3597 1894 
L 3597 1613 
L 953 1613 
Q 991 1019 1311 708 
Q 1631 397 2203 397 
Q 2534 397 2845 478 
Q 3156 559 3463 722 
L 3463 178 
Q 3153 47 2828 -22 
Q 2503 -91 2169 -91 
Q 1331 -91 842 396 
Q 353 884 353 1716 
Q 353 2575 817 3079 
Q 1281 3584 2069 3584 
Q 2775 3584 3186 3129 
Q 3597 2675 3597 1894 
z
M 3022 2063 
Q 3016 2534 2758 2815 
Q 2500 3097 2075 3097 
Q 1594 3097 1305 2825 
Q 1016 2553 972 2059 
L 3022 2063 
z
" transform="scale(0.015625)"/>
      </defs>
      <use xlink:href="#DejaVuSans-54"/>
      <use xlink:href="#DejaVuSans-69" x="57.958984"/>
      <use xlink:href="#DejaVuSans-6d" x="85.742188"/>
      <use xlink:href="#DejaVuSans-65" x="183.154297"/>
     </g>
    </g>
   </g>
   <g id="matplotlib.axis_6">
    <g id="ytick_5">
     <g id="line2d_25">
      <g>
       <use xlink:href="#mae46ea5dfd" x="69.587495" y="220.086513" style="stroke: #000000; stroke-width: 0.8"/>
      </g>
     </g>
     <g id="text_8">
      <!-- 0 -->
      <g transform="translate(53.137551 224.833637)scale(0.12495 -0.12495)">
       <use xlink:href="#DejaVuSans-30"/>
      </g>
     </g>
    </g>
    <g id="ytick_6">
     <g id="line2d_26">
      <g>
       <use xlink:href="#mae46ea5dfd" x="69.587495" y="183.581726" style="stroke: #000000; stroke-width: 0.8"/>
      </g>
     </g>
     <g id="text_9">
      <!-- 20 -->
      <g transform="translate(45.187607 188.32885)scale(0.12495 -0.12495)">
       <defs>
        <path id="DejaVuSans-32" d="M 1228 531 
L 3431 531 
L 3431 0 
L 469 0 
L 469 531 
Q 828 903 1448 1529 
Q 2069 2156 2228 2338 
Q 2531 2678 2651 2914 
Q 2772 3150 2772 3378 
Q 2772 3750 2511 3984 
Q 2250 4219 1831 4219 
Q 1534 4219 1204 4116 
Q 875 4013 500 3803 
L 500 4441 
Q 881 4594 1212 4672 
Q 1544 4750 1819 4750 
Q 2544 4750 2975 4387 
Q 3406 4025 3406 3419 
Q 3406 3131 3298 2873 
Q 3191 2616 2906 2266 
Q 2828 2175 2409 1742 
Q 1991 1309 1228 531 
z
" transform="scale(0.015625)"/>
       </defs>
       <use xlink:href="#DejaVuSans-32"/>
       <use xlink:href="#DejaVuSans-30" x="63.623047"/>
      </g>
     </g>
    </g>
    <g id="text_10">
     <!-- I -->
     <g transform="translate(38.068076 204.046619)rotate(-90)scale(0.15 -0.15)">
      <defs>
       <path id="DejaVuSans-49" d="M 628 4666 
L 1259 4666 
L 1259 0 
L 628 0 
L 628 4666 
z
" transform="scale(0.015625)"/>
      </defs>
      <use xlink:href="#DejaVuSans-49"/>
     </g>
    </g>
   </g>
   <g id="line2d_27">
    <path d="M 91.869881 220.086513 
L 203.278472 220.086513 
L 203.389885 183.581726 
L 426.104566 183.581726 
L 426.215979 220.086513 
L 537.517613 220.086513 
L 537.517613 220.086513 
" clip-path="url(#p6d156a3d7f)" style="fill: none; stroke: #1f77b4; stroke-width: 1.5; stroke-linecap: square"/>
   </g>
   <g id="patch_9">
    <path d="M 69.587495 221.911752 
L 69.587495 181.756486 
" style="fill: none; stroke: #000000; stroke-width: 0.8; stroke-linejoin: miter; stroke-linecap: square"/>
   </g>
   <g id="patch_10">
    <path d="M 69.587495 221.911752 
L 559.8 221.911752 
" style="fill: none; stroke: #000000; stroke-width: 0.8; stroke-linejoin: miter; stroke-linecap: square"/>
   </g>
  </g>
  <g id="axes_4">
   <g id="patch_11">
    <path d="M 69.587495 304.689995 
L 559.8 304.689995 
L 559.8 264.534729 
L 69.587495 264.534729 
z
" style="fill: #ffffff"/>
   </g>
   <g id="matplotlib.axis_7">
    <g id="xtick_19">
     <g id="line2d_28">
      <g>
       <use xlink:href="#m72c310640c" x="91.869881" y="304.689995" style="stroke: #000000; stroke-width: 0.8"/>
      </g>
     </g>
     <g id="text_11">
      <!-- 0 -->
      <g transform="translate(87.894909 322.684243)scale(0.12495 -0.12495)">
       <use xlink:href="#DejaVuSans-30"/>
      </g>
     </g>
    </g>
    <g id="xtick_20">
     <g id="line2d_29">
      <g>
       <use xlink:href="#m72c310640c" x="181.000319" y="304.689995" style="stroke: #000000; stroke-width: 0.8"/>
      </g>
     </g>
     <g id="text_12">
      <!-- 200 -->
      <g transform="translate(169.075403 322.684243)scale(0.12495 -0.12495)">
       <use xlink:href="#DejaVuSans-32"/>
       <use xlink:href="#DejaVuSans-30" x="63.623047"/>
       <use xlink:href="#DejaVuSans-30" x="127.246094"/>
      </g>
     </g>
    </g>
    <g id="xtick_21">
     <g id="line2d_30">
      <g>
       <use xlink:href="#m72c310640c" x="270.130757" y="304.689995" style="stroke: #000000; stroke-width: 0.8"/>
      </g>
     </g>
     <g id="text_13">
      <!-- 400 -->
      <g transform="translate(258.205841 322.684243)scale(0.12495 -0.12495)">
       <defs>
        <path id="DejaVuSans-34" d="M 2419 4116 
L 825 1625 
L 2419 1625 
L 2419 4116 
z
M 2253 4666 
L 3047 4666 
L 3047 1625 
L 3713 1625 
L 3713 1100 
L 3047 1100 
L 3047 0 
L 2419 0 
L 2419 1100 
L 313 1100 
L 313 1709 
L 2253 4666 
z
" transform="scale(0.015625)"/>
       </defs>
       <use xlink:href="#DejaVuSans-34"/>
       <use xlink:href="#DejaVuSans-30" x="63.623047"/>
       <use xlink:href="#DejaVuSans-30" x="127.246094"/>
      </g>
     </g>
    </g>
    <g id="xtick_22">
     <g id="line2d_31">
      <g>
       <use xlink:href="#m72c310640c" x="359.261194" y="304.689995" style="stroke: #000000; stroke-width: 0.8"/>
      </g>
     </g>
     <g id="text_14">
      <!-- 600 -->
      <g transform="translate(347.336279 322.684243)scale(0.12495 -0.12495)">
       <defs>
        <path id="DejaVuSans-36" d="M 2113 2584 
Q 1688 2584 1439 2293 
Q 1191 2003 1191 1497 
Q 1191 994 1439 701 
Q 1688 409 2113 409 
Q 2538 409 2786 701 
Q 3034 994 3034 1497 
Q 3034 2003 2786 2293 
Q 2538 2584 2113 2584 
z
M 3366 4563 
L 3366 3988 
Q 3128 4100 2886 4159 
Q 2644 4219 2406 4219 
Q 1781 4219 1451 3797 
Q 1122 3375 1075 2522 
Q 1259 2794 1537 2939 
Q 1816 3084 2150 3084 
Q 2853 3084 3261 2657 
Q 3669 2231 3669 1497 
Q 3669 778 3244 343 
Q 2819 -91 2113 -91 
Q 1303 -91 875 529 
Q 447 1150 447 2328 
Q 447 3434 972 4092 
Q 1497 4750 2381 4750 
Q 2619 4750 2861 4703 
Q 3103 4656 3366 4563 
z
" transform="scale(0.015625)"/>
       </defs>
       <use xlink:href="#DejaVuSans-36"/>
       <use xlink:href="#DejaVuSans-30" x="63.623047"/>
       <use xlink:href="#DejaVuSans-30" x="127.246094"/>
      </g>
     </g>
    </g>
    <g id="xtick_23">
     <g id="line2d_32">
      <g>
       <use xlink:href="#m72c310640c" x="448.391632" y="304.689995" style="stroke: #000000; stroke-width: 0.8"/>
      </g>
     </g>
     <g id="text_15">
      <!-- 800 -->
      <g transform="translate(436.466717 322.684243)scale(0.12495 -0.12495)">
       <defs>
        <path id="DejaVuSans-38" d="M 2034 2216 
Q 1584 2216 1326 1975 
Q 1069 1734 1069 1313 
Q 1069 891 1326 650 
Q 1584 409 2034 409 
Q 2484 409 2743 651 
Q 3003 894 3003 1313 
Q 3003 1734 2745 1975 
Q 2488 2216 2034 2216 
z
M 1403 2484 
Q 997 2584 770 2862 
Q 544 3141 544 3541 
Q 544 4100 942 4425 
Q 1341 4750 2034 4750 
Q 2731 4750 3128 4425 
Q 3525 4100 3525 3541 
Q 3525 3141 3298 2862 
Q 3072 2584 2669 2484 
Q 3125 2378 3379 2068 
Q 3634 1759 3634 1313 
Q 3634 634 3220 271 
Q 2806 -91 2034 -91 
Q 1263 -91 848 271 
Q 434 634 434 1313 
Q 434 1759 690 2068 
Q 947 2378 1403 2484 
z
M 1172 3481 
Q 1172 3119 1398 2916 
Q 1625 2713 2034 2713 
Q 2441 2713 2670 2916 
Q 2900 3119 2900 3481 
Q 2900 3844 2670 4047 
Q 2441 4250 2034 4250 
Q 1625 4250 1398 4047 
Q 1172 3844 1172 3481 
z
" transform="scale(0.015625)"/>
       </defs>
       <use xlink:href="#DejaVuSans-38"/>
       <use xlink:href="#DejaVuSans-30" x="63.623047"/>
       <use xlink:href="#DejaVuSans-30" x="127.246094"/>
      </g>
     </g>
    </g>
    <g id="xtick_24">
     <g id="line2d_33">
      <g>
       <use xlink:href="#m72c310640c" x="537.52207" y="304.689995" style="stroke: #000000; stroke-width: 0.8"/>
      </g>
     </g>
     <g id="text_16">
      <!-- 1000 -->
      <g transform="translate(521.622182 322.684243)scale(0.12495 -0.12495)">
       <use xlink:href="#DejaVuSans-31"/>
       <use xlink:href="#DejaVuSans-30" x="63.623047"/>
       <use xlink:href="#DejaVuSans-30" x="127.246094"/>
       <use xlink:href="#DejaVuSans-30" x="190.869141"/>
      </g>
     </g>
    </g>
    <g id="text_17">
     <!-- Time -->
     <g transform="translate(296.343357 340.680469)scale(0.15 -0.15)">
      <use xlink:href="#DejaVuSans-54"/>
      <use xlink:href="#DejaVuSans-69" x="57.958984"/>
      <use xlink:href="#DejaVuSans-6d" x="85.742188"/>
      <use xlink:href="#DejaVuSans-65" x="183.154297"/>
     </g>
    </g>
   </g>
   <g id="matplotlib.axis_8">
    <g id="ytick_7">
     <g id="line2d_34">
      <g>
       <use xlink:href="#mae46ea5dfd" x="69.587495" y="302.864756" style="stroke: #000000; stroke-width: 0.8"/>
      </g>
     </g>
     <g id="text_18">
      <!-- 0 -->
      <g transform="translate(53.137551 307.61188)scale(0.12495 -0.12495)">
       <use xlink:href="#DejaVuSans-30"/>
      </g>
     </g>
    </g>
    <g id="ytick_8">
     <g id="line2d_35">
      <g>
       <use xlink:href="#mae46ea5dfd" x="69.587495" y="266.359969" style="stroke: #000000; stroke-width: 0.8"/>
      </g>
     </g>
     <g id="text_19">
      <!-- 2 -->
      <g transform="translate(53.137551 271.107093)scale(0.12495 -0.12495)">
       <use xlink:href="#DejaVuSans-32"/>
      </g>
     </g>
    </g>
    <g id="text_20">
     <!-- Bin spikes -->
     <g transform="translate(46.01802 322.3233)rotate(-90)scale(0.15 -0.15)">
      <defs>
       <path id="DejaVuSans-42" d="M 1259 2228 
L 1259 519 
L 2272 519 
Q 2781 519 3026 730 
Q 3272 941 3272 1375 
Q 3272 1813 3026 2020 
Q 2781 2228 2272 2228 
L 1259 2228 
z
M 1259 4147 
L 1259 2741 
L 2194 2741 
Q 2656 2741 2882 2914 
Q 3109 3088 3109 3444 
Q 3109 3797 2882 3972 
Q 2656 4147 2194 4147 
L 1259 4147 
z
M 628 4666 
L 2241 4666 
Q 2963 4666 3353 4366 
Q 3744 4066 3744 3513 
Q 3744 3084 3544 2831 
Q 3344 2578 2956 2516 
Q 3422 2416 3680 2098 
Q 3938 1781 3938 1306 
Q 3938 681 3513 340 
Q 3088 0 2303 0 
L 628 0 
L 628 4666 
z
" transform="scale(0.015625)"/>
       <path id="DejaVuSans-6e" d="M 3513 2113 
L 3513 0 
L 2938 0 
L 2938 2094 
Q 2938 2591 2744 2837 
Q 2550 3084 2163 3084 
Q 1697 3084 1428 2787 
Q 1159 2491 1159 1978 
L 1159 0 
L 581 0 
L 581 3500 
L 1159 3500 
L 1159 2956 
Q 1366 3272 1645 3428 
Q 1925 3584 2291 3584 
Q 2894 3584 3203 3211 
Q 3513 2838 3513 2113 
z
" transform="scale(0.015625)"/>
       <path id="DejaVuSans-20" transform="scale(0.015625)"/>
       <path id="DejaVuSans-73" d="M 2834 3397 
L 2834 2853 
Q 2591 2978 2328 3040 
Q 2066 3103 1784 3103 
Q 1356 3103 1142 2972 
Q 928 2841 928 2578 
Q 928 2378 1081 2264 
Q 1234 2150 1697 2047 
L 1894 2003 
Q 2506 1872 2764 1633 
Q 3022 1394 3022 966 
Q 3022 478 2636 193 
Q 2250 -91 1575 -91 
Q 1294 -91 989 -36 
Q 684 19 347 128 
L 347 722 
Q 666 556 975 473 
Q 1284 391 1588 391 
Q 1994 391 2212 530 
Q 2431 669 2431 922 
Q 2431 1156 2273 1281 
Q 2116 1406 1581 1522 
L 1381 1569 
Q 847 1681 609 1914 
Q 372 2147 372 2553 
Q 372 3047 722 3315 
Q 1072 3584 1716 3584 
Q 2034 3584 2315 3537 
Q 2597 3491 2834 3397 
z
" transform="scale(0.015625)"/>
       <path id="DejaVuSans-70" d="M 1159 525 
L 1159 -1331 
L 581 -1331 
L 581 3500 
L 1159 3500 
L 1159 2969 
Q 1341 3281 1617 3432 
Q 1894 3584 2278 3584 
Q 2916 3584 3314 3078 
Q 3713 2572 3713 1747 
Q 3713 922 3314 415 
Q 2916 -91 2278 -91 
Q 1894 -91 1617 61 
Q 1341 213 1159 525 
z
M 3116 1747 
Q 3116 2381 2855 2742 
Q 2594 3103 2138 3103 
Q 1681 3103 1420 2742 
Q 1159 2381 1159 1747 
Q 1159 1113 1420 752 
Q 1681 391 2138 391 
Q 2594 391 2855 752 
Q 3116 1113 3116 1747 
z
" transform="scale(0.015625)"/>
       <path id="DejaVuSans-6b" d="M 581 4863 
L 1159 4863 
L 1159 1991 
L 2875 3500 
L 3609 3500 
L 1753 1863 
L 3688 0 
L 2938 0 
L 1159 1709 
L 1159 0 
L 581 0 
L 581 4863 
z
" transform="scale(0.015625)"/>
      </defs>
      <use xlink:href="#DejaVuSans-42"/>
      <use xlink:href="#DejaVuSans-69" x="68.603516"/>
      <use xlink:href="#DejaVuSans-6e" x="96.386719"/>
      <use xlink:href="#DejaVuSans-20" x="159.765625"/>
      <use xlink:href="#DejaVuSans-73" x="191.552734"/>
      <use xlink:href="#DejaVuSans-70" x="243.652344"/>
      <use xlink:href="#DejaVuSans-69" x="307.128906"/>
      <use xlink:href="#DejaVuSans-6b" x="334.912109"/>
      <use xlink:href="#DejaVuSans-65" x="389.197266"/>
      <use xlink:href="#DejaVuSans-73" x="450.720703"/>
     </g>
    </g>
   </g>
   <g id="line2d_36">
    <path d="M 91.869881 302.864756 
L 201.054667 302.864756 
L 203.282928 266.359969 
L 205.511189 284.612362 
L 207.73945 284.612362 
L 209.967711 302.864756 
L 214.424233 302.864756 
L 216.652494 284.612362 
L 218.880755 302.864756 
L 227.793799 302.864756 
L 230.02206 284.612362 
L 232.250321 302.864756 
L 241.163364 302.864756 
L 243.391625 284.612362 
L 245.619886 302.864756 
L 254.53293 302.864756 
L 256.761191 284.612362 
L 258.989452 302.864756 
L 267.902496 302.864756 
L 270.130757 284.612362 
L 272.359018 302.864756 
L 281.272061 302.864756 
L 283.500322 284.612362 
L 285.728583 302.864756 
L 294.641627 302.864756 
L 296.869888 284.612362 
L 299.098149 302.864756 
L 305.782932 302.864756 
L 308.011193 284.612362 
L 310.239454 302.864756 
L 319.152497 302.864756 
L 321.380758 284.612362 
L 323.609019 302.864756 
L 332.522063 302.864756 
L 334.750324 284.612362 
L 336.978585 302.864756 
L 345.891629 302.864756 
L 348.11989 284.612362 
L 350.348151 302.864756 
L 359.261194 302.864756 
L 361.489455 284.612362 
L 363.717716 302.864756 
L 372.63076 302.864756 
L 374.859021 284.612362 
L 377.087282 302.864756 
L 386.000326 302.864756 
L 388.228587 284.612362 
L 390.456848 302.864756 
L 399.369891 302.864756 
L 401.598152 284.612362 
L 403.826413 302.864756 
L 410.511196 302.864756 
L 412.739457 284.612362 
L 414.967718 302.864756 
L 535.293809 302.864756 
L 535.293809 302.864756 
" clip-path="url(#pafa6dab55a)" style="fill: none; stroke: #1f77b4; stroke-width: 1.5; stroke-linecap: square"/>
   </g>
   <g id="patch_12">
    <path d="M 69.587495 304.689995 
L 69.587495 264.534729 
" style="fill: none; stroke: #000000; stroke-width: 0.8; stroke-linejoin: miter; stroke-linecap: square"/>
   </g>
   <g id="patch_13">
    <path d="M 69.587495 304.689995 
L 559.8 304.689995 
" style="fill: none; stroke: #000000; stroke-width: 0.8; stroke-linejoin: miter; stroke-linecap: square"/>
   </g>
  </g>
 </g>
 <defs>
  <clipPath id="p8f0200c626">
   <rect x="69.587495" y="16.2" width="490.212505" height="40.155266"/>
  </clipPath>
  <clipPath id="p49c707fbe8">
   <rect x="69.587495" y="98.978243" width="490.212505" height="40.155266"/>
  </clipPath>
  <clipPath id="p6d156a3d7f">
   <rect x="69.587495" y="181.756486" width="490.212505" height="40.155266"/>
  </clipPath>
  <clipPath id="pafa6dab55a">
   <rect x="69.587495" y="264.534729" width="490.212505" height="40.155266"/>
  </clipPath>
 </defs>
</svg>
