<?xml version="1.0" encoding="utf-8" standalone="no"?>
<!DOCTYPE svg PUBLIC "-//W3C//DTD SVG 1.1//EN"
  "http://www.w3.org/Graphics/SVG/1.1/DTD/svg11.dtd">
<svg xmlns:xlink="http://www.w3.org/1999/xlink" width="576pt" height="360pt" viewBox="0 0 576 360" xmlns="http://www.w3.org/2000/svg" version="1.1">
 <metadata>
  <rdf:RDF xmlns:dc="http://purl.org/dc/elements/1.1/" xmlns:cc="http://creativecommons.org/ns#" xmlns:rdf="http://www.w3.org/1999/02/22-rdf-syntax-ns#">
   <cc:Work>
    <dc:type rdf:resource="http://purl.org/dc/dcmitype/StillImage"/>
    <dc:date>2022-08-30T12:35:00.547619</dc:date>
    <dc:format>image/svg+xml</dc:format>
    <dc:creator>
     <cc:Agent>
      <dc:title>Matplotlib v3.5.3, https://matplotlib.org/</dc:title>
     </cc:Agent>
    </dc:creator>
   </cc:Work>
  </rdf:RDF>
 </metadata>
 <defs>
  <style type="text/css">*{stroke-linejoin: round; stroke-linecap: butt}</style>
 </defs>
 <g id="figure_1">
  <g id="patch_1">
   <path d="M 0 360 
L 576 360 
L 576 0 
L 0 0 
z
" style="fill: #ffffff"/>
  </g>
  <g id="axes_1">
   <g id="patch_2">
    <path d="M 69.587495 56.355266 
L 559.8 56.355266 
L 559.8 16.2 
L 69.587495 16.2 
z
" style="fill: #ffffff"/>
   </g>
   <g id="PathCollection_1">
    <defs>
     <path id="meaffc526a4" d="M 0 3 
C 0.795609 3 1.55874 2.683901 2.12132 2.12132 
C 2.683901 1.55874 3 0.795609 3 0 
C 3 -0.795609 2.683901 -1.55874 2.12132 -2.12132 
C 1.55874 -2.683901 0.795609 -3 0 -3 
C -0.795609 -3 -1.55874 -2.683901 -2.12132 -2.12132 
C -2.683901 -1.55874 -3 -0.795609 -3 0 
C -3 0.795609 -2.683901 1.55874 -2.12132 2.12132 
C -1.55874 2.683901 -0.795609 3 0 3 
z
" style="stroke: #1f77b4"/>
    </defs>
    <g clip-path="url(#pb078911d29)">
     <use xlink:href="#meaffc526a4" x="205.992494" y="18.025239" style="fill: #1f77b4; stroke: #1f77b4"/>
     <use xlink:href="#meaffc526a4" x="223.711625" y="18.025239" style="fill: #1f77b4; stroke: #1f77b4"/>
     <use xlink:href="#meaffc526a4" x="244.211625" y="18.025239" style="fill: #1f77b4; stroke: #1f77b4"/>
     <use xlink:href="#meaffc526a4" x="264.70717" y="18.025239" style="fill: #1f77b4; stroke: #1f77b4"/>
     <use xlink:href="#meaffc526a4" x="285.202714" y="18.025239" style="fill: #1f77b4; stroke: #1f77b4"/>
     <use xlink:href="#meaffc526a4" x="305.702714" y="18.025239" style="fill: #1f77b4; stroke: #1f77b4"/>
     <use xlink:href="#meaffc526a4" x="326.198259" y="18.025239" style="fill: #1f77b4; stroke: #1f77b4"/>
     <use xlink:href="#meaffc526a4" x="346.693803" y="18.025239" style="fill: #1f77b4; stroke: #1f77b4"/>
     <use xlink:href="#meaffc526a4" x="367.189347" y="18.025239" style="fill: #1f77b4; stroke: #1f77b4"/>
     <use xlink:href="#meaffc526a4" x="387.684891" y="18.025239" style="fill: #1f77b4; stroke: #1f77b4"/>
     <use xlink:href="#meaffc526a4" x="408.189348" y="18.025239" style="fill: #1f77b4; stroke: #1f77b4"/>
    </g>
   </g>
   <g id="matplotlib.axis_1">
    <g id="xtick_1">
     <g id="line2d_1">
      <defs>
       <path id="mfdf9a8c74a" d="M 0 0 
L 0 5 
" style="stroke: #000000; stroke-width: 0.8"/>
      </defs>
      <g>
       <use xlink:href="#mfdf9a8c74a" x="91.869881" y="56.355266" style="stroke: #000000; stroke-width: 0.8"/>
      </g>
     </g>
    </g>
    <g id="xtick_2">
     <g id="line2d_2">
      <g>
       <use xlink:href="#mfdf9a8c74a" x="181.000319" y="56.355266" style="stroke: #000000; stroke-width: 0.8"/>
      </g>
     </g>
    </g>
    <g id="xtick_3">
     <g id="line2d_3">
      <g>
       <use xlink:href="#mfdf9a8c74a" x="270.130757" y="56.355266" style="stroke: #000000; stroke-width: 0.8"/>
      </g>
     </g>
    </g>
    <g id="xtick_4">
     <g id="line2d_4">
      <g>
       <use xlink:href="#mfdf9a8c74a" x="359.261194" y="56.355266" style="stroke: #000000; stroke-width: 0.8"/>
      </g>
     </g>
    </g>
    <g id="xtick_5">
     <g id="line2d_5">
      <g>
       <use xlink:href="#mfdf9a8c74a" x="448.391632" y="56.355266" style="stroke: #000000; stroke-width: 0.8"/>
      </g>
     </g>
    </g>
    <g id="xtick_6">
     <g id="line2d_6">
      <g>
       <use xlink:href="#mfdf9a8c74a" x="537.52207" y="56.355266" style="stroke: #000000; stroke-width: 0.8"/>
      </g>
     </g>
    </g>
   </g>
   <g id="matplotlib.axis_2">
    <g id="ytick_1">
     <g id="line2d_7">
      <defs>
       <path id="m61fc3700be" d="M 0 0 
L -5 0 
" style="stroke: #000000; stroke-width: 0.8"/>
      </defs>
      <g>
       <use xlink:href="#m61fc3700be" x="69.587495" y="47.694086" style="stroke: #000000; stroke-width: 0.8"/>
      </g>
     </g>
     <g id="text_1">
      <!-- −50 -->
      <g transform="translate(34.717187 52.441209)scale(0.12495 -0.12495)">
       <defs>
        <path id="DejaVuSans-2212" d="M 678 2272 
L 4684 2272 
L 4684 1741 
L 678 1741 
L 678 2272 
z
" transform="scale(0.015625)"/>
        <path id="DejaVuSans-35" d="M 691 4666 
L 3169 4666 
L 3169 4134 
L 1269 4134 
L 1269 2991 
Q 1406 3038 1543 3061 
Q 1681 3084 1819 3084 
Q 2600 3084 3056 2656 
Q 3513 2228 3513 1497 
Q 3513 744 3044 326 
Q 2575 -91 1722 -91 
Q 1428 -91 1123 -41 
Q 819 9 494 109 
L 494 744 
Q 775 591 1075 516 
Q 1375 441 1709 441 
Q 2250 441 2565 725 
Q 2881 1009 2881 1497 
Q 2881 1984 2565 2268 
Q 2250 2553 1709 2553 
Q 1456 2553 1204 2497 
Q 953 2441 691 2322 
L 691 4666 
z
" transform="scale(0.015625)"/>
        <path id="DejaVuSans-30" d="M 2034 4250 
Q 1547 4250 1301 3770 
Q 1056 3291 1056 2328 
Q 1056 1369 1301 889 
Q 1547 409 2034 409 
Q 2525 409 2770 889 
Q 3016 1369 3016 2328 
Q 3016 3291 2770 3770 
Q 2525 4250 2034 4250 
z
M 2034 4750 
Q 2819 4750 3233 4129 
Q 3647 3509 3647 2328 
Q 3647 1150 3233 529 
Q 2819 -91 2034 -91 
Q 1250 -91 836 529 
Q 422 1150 422 2328 
Q 422 3509 836 4129 
Q 1250 4750 2034 4750 
z
" transform="scale(0.015625)"/>
       </defs>
       <use xlink:href="#DejaVuSans-2212"/>
       <use xlink:href="#DejaVuSans-35" x="83.789062"/>
       <use xlink:href="#DejaVuSans-30" x="147.412109"/>
      </g>
     </g>
    </g>
    <g id="ytick_2">
     <g id="line2d_8">
      <g>
       <use xlink:href="#m61fc3700be" x="69.587495" y="31.211393" style="stroke: #000000; stroke-width: 0.8"/>
      </g>
     </g>
     <g id="text_2">
      <!-- 0 -->
      <g transform="translate(53.137551 35.958517)scale(0.12495 -0.12495)">
       <use xlink:href="#DejaVuSans-30"/>
      </g>
     </g>
    </g>
    <g id="text_3">
     <!-- V -->
     <g transform="translate(27.597656 41.408102)rotate(-90)scale(0.15 -0.15)">
      <defs>
       <path id="DejaVuSans-56" d="M 1831 0 
L 50 4666 
L 709 4666 
L 2188 738 
L 3669 4666 
L 4325 4666 
L 2547 0 
L 1831 0 
z
" transform="scale(0.015625)"/>
      </defs>
      <use xlink:href="#DejaVuSans-56"/>
     </g>
    </g>
   </g>
   <g id="line2d_9">
    <path d="M 91.869881 54.287162 
L 93.407381 54.176435 
L 103.844555 53.177053 
L 111.10423 52.761312 
L 119.161621 52.528936 
L 130.605969 52.447585 
L 203.407711 52.237273 
L 204.700102 49.905668 
L 205.105646 48.585703 
L 205.408689 46.789679 
L 205.644885 43.899547 
L 205.823146 38.641967 
L 205.952385 27.358589 
L 205.992494 19.673509 
L 206.103907 51.163831 
L 207.440863 53.150192 
L 208.033581 53.583517 
L 208.679776 53.775362 
L 209.566624 53.786564 
L 211.233363 53.544689 
L 216.050864 52.559658 
L 219.072385 51.761085 
L 220.587603 51.148872 
L 221.492277 50.557174 
L 222.098364 49.900097 
L 222.539559 49.089552 
L 222.887168 47.958575 
L 223.163472 46.248045 
L 223.386299 43.328364 
L 223.560103 37.667899 
L 223.684886 25.07286 
L 223.711625 19.673509 
L 223.823038 51.277368 
L 224.799016 53.612406 
L 225.284777 54.197179 
L 225.783907 54.45869 
L 226.425646 54.528112 
L 227.570973 54.390128 
L 232.330538 53.446958 
L 238.360212 52.11832 
L 240.436951 51.447305 
L 241.59119 50.856717 
L 242.32206 50.243054 
L 242.83456 49.523106 
L 243.222277 48.584025 
L 243.534234 47.20159 
L 243.783799 44.984081 
L 243.979886 41.025867 
L 244.126951 32.987524 
L 244.211625 19.673509 
L 244.323038 51.277203 
L 245.299017 53.611233 
L 245.784778 54.196013 
L 246.283908 54.457643 
L 246.925647 54.5272 
L 248.070973 54.389332 
L 252.821626 53.448022 
L 258.855756 52.118542 
L 260.936952 51.445823 
L 262.091191 50.854324 
L 262.822061 50.239105 
L 263.334561 49.51644 
L 263.722278 48.572306 
L 264.029778 47.206654 
L 264.279343 44.994763 
L 264.47543 41.05193 
L 264.622496 33.065505 
L 264.70717 19.673509 
L 264.818583 51.277101 
L 265.794561 53.610513 
L 266.284778 54.198911 
L 266.783909 54.45828 
L 267.430104 54.526428 
L 268.584344 54.385731 
L 273.459779 53.418815 
L 279.36467 52.114359 
L 281.436953 51.443089 
L 282.586735 50.852854 
L 283.317605 50.236676 
L 283.830105 49.512337 
L 284.217822 48.565081 
L 284.525322 47.193016 
L 284.774888 44.96597 
L 284.970975 40.981574 
L 285.11804 32.854385 
L 285.202714 19.673509 
L 285.314127 51.277376 
L 286.290105 53.612459 
L 286.775866 54.197233 
L 287.274996 54.458738 
L 287.916736 54.528154 
L 289.062062 54.390164 
L 293.821627 53.446991 
L 299.851301 52.118364 
L 301.92804 51.447373 
L 303.082279 50.856827 
L 303.813149 50.243234 
L 304.325649 49.52341 
L 304.713366 48.58456 
L 305.025323 47.202607 
L 305.274888 44.986227 
L 305.470975 41.031106 
L 305.61804 33.00322 
L 305.702714 19.673509 
L 305.814127 51.277182 
L 306.790106 53.611088 
L 307.275867 54.19587 
L 307.774997 54.457514 
L 308.416736 54.527088 
L 309.562062 54.389234 
L 314.312715 53.447932 
L 320.346845 52.118422 
L 322.423584 51.44746 
L 323.577824 50.856968 
L 324.308693 50.243467 
L 324.821193 49.523802 
L 325.208911 48.585248 
L 325.520867 47.203916 
L 325.770432 44.988989 
L 325.966519 41.037846 
L 326.113585 33.0234 
L 326.198259 19.673509 
L 326.309672 51.277156 
L 327.28565 53.610902 
L 327.771411 54.195685 
L 328.270541 54.457348 
L 328.91228 54.526943 
L 330.057606 54.389108 
L 334.808259 53.447816 
L 340.842389 52.118267 
L 342.919129 51.447225 
L 344.073368 50.856588 
L 344.804237 50.242841 
L 345.316737 49.522747 
L 345.704455 48.583395 
L 346.016411 47.200391 
L 346.265977 44.981549 
L 346.462064 41.019683 
L 346.609129 32.968983 
L 346.693803 19.673509 
L 346.805216 51.277227 
L 347.781194 53.611404 
L 348.266955 54.196183 
L 348.766085 54.457796 
L 349.407825 54.527333 
L 350.553151 54.389448 
L 355.303803 53.448129 
L 361.337934 52.118683 
L 363.419129 51.446039 
L 364.573368 50.854673 
L 365.304238 50.239681 
L 365.816738 49.517414 
L 366.204456 48.574019 
L 366.511956 47.209884 
L 366.761521 45.00157 
L 366.957608 41.068515 
L 367.104673 33.114989 
L 367.189347 19.673509 
L 367.30076 51.277037 
L 368.276738 53.610056 
L 368.766956 54.198457 
L 369.266086 54.457873 
L 369.912282 54.526073 
L 371.066521 54.385421 
L 375.937499 53.419428 
L 381.846847 52.11398 
L 383.91913 51.44251 
L 385.068913 50.85192 
L 385.799782 50.235132 
L 386.312282 49.509726 
L 386.7 48.560478 
L 387.0075 47.184315 
L 387.257065 44.94756 
L 387.453152 40.936418 
L 387.600217 32.717848 
L 387.684891 19.673509 
L 387.796304 51.277553 
L 388.772282 53.613715 
L 389.258043 54.198481 
L 389.757174 54.459859 
L 390.398913 54.52913 
L 391.544239 54.391015 
L 396.312717 53.445979 
L 402.337935 52.118211 
L 404.414674 51.447139 
L 405.568913 50.85645 
L 406.299783 50.242613 
L 406.812283 49.522362 
L 407.2 48.582719 
L 407.511957 47.199106 
L 407.761522 44.978836 
L 407.957609 41.013052 
L 408.104674 32.949084 
L 408.189348 19.673509 
L 408.300761 51.277253 
L 409.27674 53.611587 
L 409.7625 54.196366 
L 410.261631 54.45796 
L 410.90337 54.527476 
L 412.048696 54.389573 
L 416.803805 53.447345 
L 422.833479 52.118835 
L 424.914675 51.446271 
L 426.068914 50.855048 
L 426.184784 50.907429 
L 427.307827 52.265783 
L 428.13674 53.076031 
L 428.840871 53.457005 
L 429.660871 53.638083 
L 430.90424 53.658844 
L 434.153045 53.411983 
L 441.764784 52.887964 
L 449.430002 52.592526 
L 458.980328 52.462223 
L 483.843264 52.44561 
L 537.517613 52.445687 
L 537.517613 52.445687 
" clip-path="url(#pb078911d29)" style="fill: none; stroke: #1f77b4; stroke-width: 1.5; stroke-linecap: square"/>
   </g>
   <g id="patch_3">
    <path d="M 69.587495 56.355266 
L 69.587495 16.2 
" style="fill: none; stroke: #000000; stroke-width: 0.8; stroke-linejoin: miter; stroke-linecap: square"/>
   </g>
   <g id="patch_4">
    <path d="M 69.587495 56.355266 
L 559.8 56.355266 
" style="fill: none; stroke: #000000; stroke-width: 0.8; stroke-linejoin: miter; stroke-linecap: square"/>
   </g>
  </g>
  <g id="axes_2">
   <g id="patch_5">
    <path d="M 69.587495 139.133509 
L 559.8 139.133509 
L 559.8 98.978243 
L 69.587495 98.978243 
z
" style="fill: #ffffff"/>
   </g>
   <g id="matplotlib.axis_3">
    <g id="xtick_7">
     <g id="line2d_10">
      <g>
       <use xlink:href="#mfdf9a8c74a" x="91.869881" y="139.133509" style="stroke: #000000; stroke-width: 0.8"/>
      </g>
     </g>
    </g>
    <g id="xtick_8">
     <g id="line2d_11">
      <g>
       <use xlink:href="#mfdf9a8c74a" x="181.000319" y="139.133509" style="stroke: #000000; stroke-width: 0.8"/>
      </g>
     </g>
    </g>
    <g id="xtick_9">
     <g id="line2d_12">
      <g>
       <use xlink:href="#mfdf9a8c74a" x="270.130757" y="139.133509" style="stroke: #000000; stroke-width: 0.8"/>
      </g>
     </g>
    </g>
    <g id="xtick_10">
     <g id="line2d_13">
      <g>
       <use xlink:href="#mfdf9a8c74a" x="359.261194" y="139.133509" style="stroke: #000000; stroke-width: 0.8"/>
      </g>
     </g>
    </g>
    <g id="xtick_11">
     <g id="line2d_14">
      <g>
       <use xlink:href="#mfdf9a8c74a" x="448.391632" y="139.133509" style="stroke: #000000; stroke-width: 0.8"/>
      </g>
     </g>
    </g>
    <g id="xtick_12">
     <g id="line2d_15">
      <g>
       <use xlink:href="#mfdf9a8c74a" x="537.52207" y="139.133509" style="stroke: #000000; stroke-width: 0.8"/>
      </g>
     </g>
    </g>
   </g>
   <g id="matplotlib.axis_4">
    <g id="ytick_3">
     <g id="line2d_16">
      <g>
       <use xlink:href="#m61fc3700be" x="69.587495" y="130.559993" style="stroke: #000000; stroke-width: 0.8"/>
      </g>
     </g>
     <g id="text_4">
      <!-- −15 -->
      <g transform="translate(34.717187 135.307117)scale(0.12495 -0.12495)">
       <defs>
        <path id="DejaVuSans-31" d="M 794 531 
L 1825 531 
L 1825 4091 
L 703 3866 
L 703 4441 
L 1819 4666 
L 2450 4666 
L 2450 531 
L 3481 531 
L 3481 0 
L 794 0 
L 794 531 
z
" transform="scale(0.015625)"/>
       </defs>
       <use xlink:href="#DejaVuSans-2212"/>
       <use xlink:href="#DejaVuSans-31" x="83.789062"/>
       <use xlink:href="#DejaVuSans-35" x="147.412109"/>
      </g>
     </g>
    </g>
    <g id="ytick_4">
     <g id="line2d_17">
      <g>
       <use xlink:href="#m61fc3700be" x="69.587495" y="100.009565" style="stroke: #000000; stroke-width: 0.8"/>
      </g>
     </g>
     <g id="text_5">
      <!-- −10 -->
      <g transform="translate(34.717187 104.756689)scale(0.12495 -0.12495)">
       <use xlink:href="#DejaVuSans-2212"/>
       <use xlink:href="#DejaVuSans-31" x="83.789062"/>
       <use xlink:href="#DejaVuSans-30" x="147.412109"/>
      </g>
     </g>
    </g>
    <g id="text_6">
     <!-- U -->
     <g transform="translate(27.597656 124.544939)rotate(-90)scale(0.15 -0.15)">
      <defs>
       <path id="DejaVuSans-55" d="M 556 4666 
L 1191 4666 
L 1191 1831 
Q 1191 1081 1462 751 
Q 1734 422 2344 422 
Q 2950 422 3222 751 
Q 3494 1081 3494 1831 
L 3494 4666 
L 4128 4666 
L 4128 1753 
Q 4128 841 3676 375 
Q 3225 -91 2344 -91 
Q 1459 -91 1007 375 
Q 556 841 556 1753 
L 556 4666 
z
" transform="scale(0.015625)"/>
      </defs>
      <use xlink:href="#DejaVuSans-55"/>
     </g>
    </g>
   </g>
   <g id="line2d_18">
    <path d="M 91.869881 124.449908 
L 93.737164 126.943847 
L 95.501946 128.931819 
L 97.297925 130.622826 
L 99.151838 132.064638 
L 101.085968 133.288121 
L 103.135968 134.321183 
L 105.341947 135.181711 
L 107.761838 135.883588 
L 110.484773 136.437087 
L 113.66673 136.850027 
L 117.610752 137.127446 
L 123.145752 137.275565 
L 134.719339 137.306829 
L 204.053907 137.155025 
L 204.713472 136.785833 
L 205.257168 136.229242 
L 205.649341 135.506498 
L 205.903363 134.560385 
L 205.992494 133.892259 
L 205.99695 109.451916 
L 206.103907 109.606119 
L 207.084342 111.237617 
L 212.004342 120.080587 
L 213.599777 122.20985 
L 215.172929 123.94642 
L 216.714885 125.324768 
L 218.20782 126.368654 
L 219.611625 127.087164 
L 220.850538 127.482528 
L 221.844342 127.579724 
L 222.557385 127.441013 
L 223.047603 127.127355 
L 223.386299 126.64061 
L 223.618038 125.896101 
L 223.711625 125.257887 
L 223.716081 100.817544 
L 223.823038 101.035503 
L 224.700973 103.114126 
L 228.680647 113.200183 
L 230.307277 116.454493 
L 231.916081 119.186382 
L 233.511516 121.466249 
L 235.089125 123.340788 
L 236.644451 124.850423 
L 238.159669 126.018199 
L 239.603582 126.857966 
L 240.913799 127.37268 
L 242.005647 127.575903 
L 242.821191 127.516753 
L 243.387169 127.263831 
L 243.774886 126.847123 
L 244.042278 126.220404 
L 244.211625 125.270478 
L 244.216082 100.830136 
L 244.323038 101.048001 
L 245.200973 103.125708 
L 249.180647 113.208044 
L 250.807278 116.461181 
L 252.416082 119.192036 
L 254.011517 121.47098 
L 255.589126 123.344691 
L 257.144452 124.853571 
L 258.659669 126.020645 
L 260.103582 126.859731 
L 261.4138 127.373737 
L 262.505648 127.57613 
L 263.321191 127.515864 
L 263.882713 127.264426 
L 264.27043 126.848429 
L 264.537822 126.223323 
L 264.70717 125.2782 
L 264.711626 100.837858 
L 264.818583 101.055666 
L 265.696517 103.132811 
L 269.676191 113.212865 
L 271.302822 116.465283 
L 272.911626 119.195502 
L 274.507061 121.473881 
L 276.08467 123.347083 
L 277.639996 124.855501 
L 279.155213 126.022144 
L 280.599127 126.860814 
L 281.909344 127.374384 
L 283.001192 127.576267 
L 283.816735 127.515315 
L 284.378257 127.262824 
L 284.761518 126.851938 
L 285.028909 126.231143 
L 285.202714 125.25731 
L 285.20717 100.816968 
L 285.314127 101.03493 
L 286.192062 103.113596 
L 290.171736 113.199823 
L 291.798366 116.454186 
L 293.40717 119.186123 
L 295.002605 121.466033 
L 296.580214 123.340609 
L 298.13554 124.850279 
L 299.650758 126.018087 
L 301.094671 126.857885 
L 302.404888 127.372632 
L 303.496736 127.575892 
L 304.31228 127.516794 
L 304.878258 127.263951 
L 305.265975 126.847385 
L 305.533367 126.22099 
L 305.702714 125.272032 
L 305.707171 100.83169 
L 305.814127 101.049544 
L 306.692062 103.127138 
L 310.671736 113.209014 
L 312.298367 116.462006 
L 313.907171 119.192733 
L 315.502606 121.471564 
L 317.080215 123.345172 
L 318.635541 124.85396 
L 320.150758 126.020947 
L 321.594671 126.859949 
L 322.904889 127.373867 
L 323.996737 127.576158 
L 324.81228 127.515753 
L 325.373802 127.264104 
L 325.761519 126.847723 
L 326.028911 126.221745 
L 326.198259 125.27403 
L 326.202715 100.833687 
L 326.309672 101.051527 
L 327.187606 103.128975 
L 331.16728 113.210262 
L 332.793911 116.463068 
L 334.402715 119.19363 
L 335.99815 121.472315 
L 337.575759 123.345791 
L 339.131085 124.854459 
L 340.646302 126.021335 
L 342.090216 126.860229 
L 343.400433 127.374035 
L 344.492281 127.576193 
L 345.307824 127.515611 
L 345.869346 127.26369 
L 346.257064 126.846813 
L 346.524455 126.219711 
L 346.693803 125.268643 
L 346.698259 100.828301 
L 346.805216 101.04618 
L 347.683151 103.124021 
L 351.662825 113.206899 
L 353.289455 116.460207 
L 354.898259 119.191212 
L 356.493694 121.470291 
L 358.071303 123.344122 
L 359.626629 124.853113 
L 361.141847 126.020289 
L 362.58576 126.859474 
L 363.895977 127.373583 
L 364.987825 127.576097 
L 365.803369 127.515994 
L 366.36489 127.264806 
L 366.752608 126.849263 
L 367.019999 126.225183 
L 367.189347 125.283103 
L 367.193803 100.842761 
L 367.30076 101.060533 
L 368.178695 103.137321 
L 372.158369 113.215926 
L 373.784999 116.467887 
L 375.393804 119.197704 
L 376.989238 121.475723 
L 378.566847 123.348603 
L 380.122173 124.856727 
L 381.637391 126.023096 
L 383.081304 126.8615 
L 384.391521 127.374795 
L 385.483369 127.576354 
L 386.298913 127.514964 
L 386.860434 127.261804 
L 387.243695 126.849717 
L 387.511087 126.226196 
L 387.684891 125.243825 
L 387.689348 100.803483 
L 387.796304 101.021545 
L 388.674239 103.101192 
L 392.649456 113.181754 
L 394.276087 116.438804 
L 395.884891 119.173119 
L 397.480326 121.455149 
L 399.057935 123.331631 
L 400.613261 124.843036 
L 402.128478 126.012457 
L 403.572392 126.853819 
L 404.887065 127.371498 
L 405.98337 127.575928 
L 406.798913 127.516654 
L 407.364892 127.263539 
L 407.752609 126.846482 
L 408.02 126.21897 
L 408.189348 125.266675 
L 408.193805 100.826332 
L 408.300761 101.044226 
L 409.178696 103.12221 
L 413.15837 113.20567 
L 414.785001 116.459161 
L 416.393805 119.190328 
L 417.98924 121.469551 
L 419.566849 123.343512 
L 421.122175 124.85262 
L 422.637392 126.019906 
L 424.081305 126.859198 
L 425.391523 127.373418 
L 427.557392 128.118578 
L 428.653697 128.963495 
L 432.486306 132.08687 
L 434.456088 133.322797 
L 436.515001 134.351725 
L 438.725436 135.206273 
L 441.154241 135.903502 
L 443.890545 136.452661 
L 447.090328 136.861039 
L 451.070002 137.134294 
L 456.685219 137.278288 
L 468.771307 137.306382 
L 537.517613 137.302337 
L 537.517613 137.302337 
" clip-path="url(#p06e9c206e2)" style="fill: none; stroke: #1f77b4; stroke-width: 1.5; stroke-linecap: square"/>
   </g>
   <g id="patch_6">
    <path d="M 69.587495 139.133509 
L 69.587495 98.978243 
" style="fill: none; stroke: #000000; stroke-width: 0.8; stroke-linejoin: miter; stroke-linecap: square"/>
   </g>
   <g id="patch_7">
    <path d="M 69.587495 139.133509 
L 559.8 139.133509 
" style="fill: none; stroke: #000000; stroke-width: 0.8; stroke-linejoin: miter; stroke-linecap: square"/>
   </g>
  </g>
  <g id="axes_3">
   <g id="patch_8">
    <path d="M 69.587495 221.911752 
L 559.8 221.911752 
L 559.8 181.756486 
L 69.587495 181.756486 
z
" style="fill: #ffffff"/>
   </g>
   <g id="matplotlib.axis_5">
    <g id="xtick_13">
     <g id="line2d_19">
      <g>
       <use xlink:href="#mfdf9a8c74a" x="91.869881" y="221.911752" style="stroke: #000000; stroke-width: 0.8"/>
      </g>
     </g>
    </g>
    <g id="xtick_14">
     <g id="line2d_20">
      <g>
       <use xlink:href="#mfdf9a8c74a" x="181.000319" y="221.911752" style="stroke: #000000; stroke-width: 0.8"/>
      </g>
     </g>
    </g>
    <g id="xtick_15">
     <g id="line2d_21">
      <g>
       <use xlink:href="#mfdf9a8c74a" x="270.130757" y="221.911752" style="stroke: #000000; stroke-width: 0.8"/>
      </g>
     </g>
    </g>
    <g id="xtick_16">
     <g id="line2d_22">
      <g>
       <use xlink:href="#mfdf9a8c74a" x="359.261194" y="221.911752" style="stroke: #000000; stroke-width: 0.8"/>
      </g>
     </g>
    </g>
    <g id="xtick_17">
     <g id="line2d_23">
      <g>
       <use xlink:href="#mfdf9a8c74a" x="448.391632" y="221.911752" style="stroke: #000000; stroke-width: 0.8"/>
      </g>
     </g>
    </g>
    <g id="xtick_18">
     <g id="line2d_24">
      <g>
       <use xlink:href="#mfdf9a8c74a" x="537.52207" y="221.911752" style="stroke: #000000; stroke-width: 0.8"/>
      </g>
     </g>
    </g>
    <g id="text_7">
     <!-- Time -->
     <g transform="translate(296.343357 242.309408)scale(0.15 -0.15)">
      <defs>
       <path id="DejaVuSans-54" d="M -19 4666 
L 3928 4666 
L 3928 4134 
L 2272 4134 
L 2272 0 
L 1638 0 
L 1638 4134 
L -19 4134 
L -19 4666 
z
" transform="scale(0.015625)"/>
       <path id="DejaVuSans-69" d="M 603 3500 
L 1178 3500 
L 1178 0 
L 603 0 
L 603 3500 
z
M 603 4863 
L 1178 4863 
L 1178 4134 
L 603 4134 
L 603 4863 
z
" transform="scale(0.015625)"/>
       <path id="DejaVuSans-6d" d="M 3328 2828 
Q 3544 3216 3844 3400 
Q 4144 3584 4550 3584 
Q 5097 3584 5394 3201 
Q 5691 2819 5691 2113 
L 5691 0 
L 5113 0 
L 5113 2094 
Q 5113 2597 4934 2840 
Q 4756 3084 4391 3084 
Q 3944 3084 3684 2787 
Q 3425 2491 3425 1978 
L 3425 0 
L 2847 0 
L 2847 2094 
Q 2847 2600 2669 2842 
Q 2491 3084 2119 3084 
Q 1678 3084 1418 2786 
Q 1159 2488 1159 1978 
L 1159 0 
L 581 0 
L 581 3500 
L 1159 3500 
L 1159 2956 
Q 1356 3278 1631 3431 
Q 1906 3584 2284 3584 
Q 2666 3584 2933 3390 
Q 3200 3197 3328 2828 
z
" transform="scale(0.015625)"/>
       <path id="DejaVuSans-65" d="M 3597 1894 
L 3597 1613 
L 953 1613 
Q 991 1019 1311 708 
Q 1631 397 2203 397 
Q 2534 397 2845 478 
Q 3156 559 3463 722 
L 3463 178 
Q 3153 47 2828 -22 
Q 2503 -91 2169 -91 
Q 1331 -91 842 396 
Q 353 884 353 1716 
Q 353 2575 817 3079 
Q 1281 3584 2069 3584 
Q 2775 3584 3186 3129 
Q 3597 2675 3597 1894 
z
M 3022 2063 
Q 3016 2534 2758 2815 
Q 2500 3097 2075 3097 
Q 1594 3097 1305 2825 
Q 1016 2553 972 2059 
L 3022 2063 
z
" transform="scale(0.015625)"/>
      </defs>
      <use xlink:href="#DejaVuSans-54"/>
      <use xlink:href="#DejaVuSans-69" x="57.958984"/>
      <use xlink:href="#DejaVuSans-6d" x="85.742188"/>
      <use xlink:href="#DejaVuSans-65" x="183.154297"/>
     </g>
    </g>
   </g>
   <g id="matplotlib.axis_6">
    <g id="ytick_5">
     <g id="line2d_25">
      <g>
       <use xlink:href="#m61fc3700be" x="69.587495" y="220.086513" style="stroke: #000000; stroke-width: 0.8"/>
      </g>
     </g>
     <g id="text_8">
      <!-- 0 -->
      <g transform="translate(53.137551 224.833637)scale(0.12495 -0.12495)">
       <use xlink:href="#DejaVuSans-30"/>
      </g>
     </g>
    </g>
    <g id="ytick_6">
     <g id="line2d_26">
      <g>
       <use xlink:href="#m61fc3700be" x="69.587495" y="188.34322" style="stroke: #000000; stroke-width: 0.8"/>
      </g>
     </g>
     <g id="text_9">
      <!-- 2 -->
      <g transform="translate(53.137551 193.090343)scale(0.12495 -0.12495)">
       <defs>
        <path id="DejaVuSans-32" d="M 1228 531 
L 3431 531 
L 3431 0 
L 469 0 
L 469 531 
Q 828 903 1448 1529 
Q 2069 2156 2228 2338 
Q 2531 2678 2651 2914 
Q 2772 3150 2772 3378 
Q 2772 3750 2511 3984 
Q 2250 4219 1831 4219 
Q 1534 4219 1204 4116 
Q 875 4013 500 3803 
L 500 4441 
Q 881 4594 1212 4672 
Q 1544 4750 1819 4750 
Q 2544 4750 2975 4387 
Q 3406 4025 3406 3419 
Q 3406 3131 3298 2873 
Q 3191 2616 2906 2266 
Q 2828 2175 2409 1742 
Q 1991 1309 1228 531 
z
" transform="scale(0.015625)"/>
       </defs>
       <use xlink:href="#DejaVuSans-32"/>
      </g>
     </g>
    </g>
    <g id="text_10">
     <!-- I -->
     <g transform="translate(46.01802 204.046619)rotate(-90)scale(0.15 -0.15)">
      <defs>
       <path id="DejaVuSans-49" d="M 628 4666 
L 1259 4666 
L 1259 0 
L 628 0 
L 628 4666 
z
" transform="scale(0.015625)"/>
      </defs>
      <use xlink:href="#DejaVuSans-49"/>
     </g>
    </g>
   </g>
   <g id="line2d_27">
    <path d="M 91.869881 220.086513 
L 203.278472 220.086513 
L 203.389885 183.581726 
L 426.104566 183.581726 
L 426.215979 220.086513 
L 537.517613 220.086513 
L 537.517613 220.086513 
" clip-path="url(#pf2d24afe8e)" style="fill: none; stroke: #1f77b4; stroke-width: 1.5; stroke-linecap: square"/>
   </g>
   <g id="patch_9">
    <path d="M 69.587495 221.911752 
L 69.587495 181.756486 
" style="fill: none; stroke: #000000; stroke-width: 0.8; stroke-linejoin: miter; stroke-linecap: square"/>
   </g>
   <g id="patch_10">
    <path d="M 69.587495 221.911752 
L 559.8 221.911752 
" style="fill: none; stroke: #000000; stroke-width: 0.8; stroke-linejoin: miter; stroke-linecap: square"/>
   </g>
  </g>
  <g id="axes_4">
   <g id="patch_11">
    <path d="M 69.587495 304.689995 
L 559.8 304.689995 
L 559.8 264.534729 
L 69.587495 264.534729 
z
" style="fill: #ffffff"/>
   </g>
   <g id="matplotlib.axis_7">
    <g id="xtick_19">
     <g id="line2d_28">
      <g>
       <use xlink:href="#mfdf9a8c74a" x="91.869881" y="304.689995" style="stroke: #000000; stroke-width: 0.8"/>
      </g>
     </g>
     <g id="text_11">
      <!-- 0 -->
      <g transform="translate(87.894909 322.684243)scale(0.12495 -0.12495)">
       <use xlink:href="#DejaVuSans-30"/>
      </g>
     </g>
    </g>
    <g id="xtick_20">
     <g id="line2d_29">
      <g>
       <use xlink:href="#mfdf9a8c74a" x="181.000319" y="304.689995" style="stroke: #000000; stroke-width: 0.8"/>
      </g>
     </g>
     <g id="text_12">
      <!-- 200 -->
      <g transform="translate(169.075403 322.684243)scale(0.12495 -0.12495)">
       <use xlink:href="#DejaVuSans-32"/>
       <use xlink:href="#DejaVuSans-30" x="63.623047"/>
       <use xlink:href="#DejaVuSans-30" x="127.246094"/>
      </g>
     </g>
    </g>
    <g id="xtick_21">
     <g id="line2d_30">
      <g>
       <use xlink:href="#mfdf9a8c74a" x="270.130757" y="304.689995" style="stroke: #000000; stroke-width: 0.8"/>
      </g>
     </g>
     <g id="text_13">
      <!-- 400 -->
      <g transform="translate(258.205841 322.684243)scale(0.12495 -0.12495)">
       <defs>
        <path id="DejaVuSans-34" d="M 2419 4116 
L 825 1625 
L 2419 1625 
L 2419 4116 
z
M 2253 4666 
L 3047 4666 
L 3047 1625 
L 3713 1625 
L 3713 1100 
L 3047 1100 
L 3047 0 
L 2419 0 
L 2419 1100 
L 313 1100 
L 313 1709 
L 2253 4666 
z
" transform="scale(0.015625)"/>
       </defs>
       <use xlink:href="#DejaVuSans-34"/>
       <use xlink:href="#DejaVuSans-30" x="63.623047"/>
       <use xlink:href="#DejaVuSans-30" x="127.246094"/>
      </g>
     </g>
    </g>
    <g id="xtick_22">
     <g id="line2d_31">
      <g>
       <use xlink:href="#mfdf9a8c74a" x="359.261194" y="304.689995" style="stroke: #000000; stroke-width: 0.8"/>
      </g>
     </g>
     <g id="text_14">
      <!-- 600 -->
      <g transform="translate(347.336279 322.684243)scale(0.12495 -0.12495)">
       <defs>
        <path id="DejaVuSans-36" d="M 2113 2584 
Q 1688 2584 1439 2293 
Q 1191 2003 1191 1497 
Q 1191 994 1439 701 
Q 1688 409 2113 409 
Q 2538 409 2786 701 
Q 3034 994 3034 1497 
Q 3034 2003 2786 2293 
Q 2538 2584 2113 2584 
z
M 3366 4563 
L 3366 3988 
Q 3128 4100 2886 4159 
Q 2644 4219 2406 4219 
Q 1781 4219 1451 3797 
Q 1122 3375 1075 2522 
Q 1259 2794 1537 2939 
Q 1816 3084 2150 3084 
Q 2853 3084 3261 2657 
Q 3669 2231 3669 1497 
Q 3669 778 3244 343 
Q 2819 -91 2113 -91 
Q 1303 -91 875 529 
Q 447 1150 447 2328 
Q 447 3434 972 4092 
Q 1497 4750 2381 4750 
Q 2619 4750 2861 4703 
Q 3103 4656 3366 4563 
z
" transform="scale(0.015625)"/>
       </defs>
       <use xlink:href="#DejaVuSans-36"/>
       <use xlink:href="#DejaVuSans-30" x="63.623047"/>
       <use xlink:href="#DejaVuSans-30" x="127.246094"/>
      </g>
     </g>
    </g>
    <g id="xtick_23">
     <g id="line2d_32">
      <g>
       <use xlink:href="#mfdf9a8c74a" x="448.391632" y="304.689995" style="stroke: #000000; stroke-width: 0.8"/>
      </g>
     </g>
     <g id="text_15">
      <!-- 800 -->
      <g transform="translate(436.466717 322.684243)scale(0.12495 -0.12495)">
       <defs>
        <path id="DejaVuSans-38" d="M 2034 2216 
Q 1584 2216 1326 1975 
Q 1069 1734 1069 1313 
Q 1069 891 1326 650 
Q 1584 409 2034 409 
Q 2484 409 2743 651 
Q 3003 894 3003 1313 
Q 3003 1734 2745 1975 
Q 2488 2216 2034 2216 
z
M 1403 2484 
Q 997 2584 770 2862 
Q 544 3141 544 3541 
Q 544 4100 942 4425 
Q 1341 4750 2034 4750 
Q 2731 4750 3128 4425 
Q 3525 4100 3525 3541 
Q 3525 3141 3298 2862 
Q 3072 2584 2669 2484 
Q 3125 2378 3379 2068 
Q 3634 1759 3634 1313 
Q 3634 634 3220 271 
Q 2806 -91 2034 -91 
Q 1263 -91 848 271 
Q 434 634 434 1313 
Q 434 1759 690 2068 
Q 947 2378 1403 2484 
z
M 1172 3481 
Q 1172 3119 1398 2916 
Q 1625 2713 2034 2713 
Q 2441 2713 2670 2916 
Q 2900 3119 2900 3481 
Q 2900 3844 2670 4047 
Q 2441 4250 2034 4250 
Q 1625 4250 1398 4047 
Q 1172 3844 1172 3481 
z
" transform="scale(0.015625)"/>
       </defs>
       <use xlink:href="#DejaVuSans-38"/>
       <use xlink:href="#DejaVuSans-30" x="63.623047"/>
       <use xlink:href="#DejaVuSans-30" x="127.246094"/>
      </g>
     </g>
    </g>
    <g id="xtick_24">
     <g id="line2d_33">
      <g>
       <use xlink:href="#mfdf9a8c74a" x="537.52207" y="304.689995" style="stroke: #000000; stroke-width: 0.8"/>
      </g>
     </g>
     <g id="text_16">
      <!-- 1000 -->
      <g transform="translate(521.622182 322.684243)scale(0.12495 -0.12495)">
       <use xlink:href="#DejaVuSans-31"/>
       <use xlink:href="#DejaVuSans-30" x="63.623047"/>
       <use xlink:href="#DejaVuSans-30" x="127.246094"/>
       <use xlink:href="#DejaVuSans-30" x="190.869141"/>
      </g>
     </g>
    </g>
    <g id="text_17">
     <!-- Time -->
     <g transform="translate(296.343357 340.680469)scale(0.15 -0.15)">
      <use xlink:href="#DejaVuSans-54"/>
      <use xlink:href="#DejaVuSans-69" x="57.958984"/>
      <use xlink:href="#DejaVuSans-6d" x="85.742188"/>
      <use xlink:href="#DejaVuSans-65" x="183.154297"/>
     </g>
    </g>
   </g>
   <g id="matplotlib.axis_8">
    <g id="ytick_7">
     <g id="line2d_34">
      <g>
       <use xlink:href="#m61fc3700be" x="69.587495" y="302.864756" style="stroke: #000000; stroke-width: 0.8"/>
      </g>
     </g>
     <g id="text_18">
      <!-- 0 -->
      <g transform="translate(53.137551 307.61188)scale(0.12495 -0.12495)">
       <use xlink:href="#DejaVuSans-30"/>
      </g>
     </g>
    </g>
    <g id="ytick_8">
     <g id="line2d_35">
      <g>
       <use xlink:href="#m61fc3700be" x="69.587495" y="266.359969" style="stroke: #000000; stroke-width: 0.8"/>
      </g>
     </g>
     <g id="text_19">
      <!-- 1 -->
      <g transform="translate(53.137551 271.107093)scale(0.12495 -0.12495)">
       <use xlink:href="#DejaVuSans-31"/>
      </g>
     </g>
    </g>
    <g id="text_20">
     <!-- Bin spikes -->
     <g transform="translate(46.01802 322.3233)rotate(-90)scale(0.15 -0.15)">
      <defs>
       <path id="DejaVuSans-42" d="M 1259 2228 
L 1259 519 
L 2272 519 
Q 2781 519 3026 730 
Q 3272 941 3272 1375 
Q 3272 1813 3026 2020 
Q 2781 2228 2272 2228 
L 1259 2228 
z
M 1259 4147 
L 1259 2741 
L 2194 2741 
Q 2656 2741 2882 2914 
Q 3109 3088 3109 3444 
Q 3109 3797 2882 3972 
Q 2656 4147 2194 4147 
L 1259 4147 
z
M 628 4666 
L 2241 4666 
Q 2963 4666 3353 4366 
Q 3744 4066 3744 3513 
Q 3744 3084 3544 2831 
Q 3344 2578 2956 2516 
Q 3422 2416 3680 2098 
Q 3938 1781 3938 1306 
Q 3938 681 3513 340 
Q 3088 0 2303 0 
L 628 0 
L 628 4666 
z
" transform="scale(0.015625)"/>
       <path id="DejaVuSans-6e" d="M 3513 2113 
L 3513 0 
L 2938 0 
L 2938 2094 
Q 2938 2591 2744 2837 
Q 2550 3084 2163 3084 
Q 1697 3084 1428 2787 
Q 1159 2491 1159 1978 
L 1159 0 
L 581 0 
L 581 3500 
L 1159 3500 
L 1159 2956 
Q 1366 3272 1645 3428 
Q 1925 3584 2291 3584 
Q 2894 3584 3203 3211 
Q 3513 2838 3513 2113 
z
" transform="scale(0.015625)"/>
       <path id="DejaVuSans-20" transform="scale(0.015625)"/>
       <path id="DejaVuSans-73" d="M 2834 3397 
L 2834 2853 
Q 2591 2978 2328 3040 
Q 2066 3103 1784 3103 
Q 1356 3103 1142 2972 
Q 928 2841 928 2578 
Q 928 2378 1081 2264 
Q 1234 2150 1697 2047 
L 1894 2003 
Q 2506 1872 2764 1633 
Q 3022 1394 3022 966 
Q 3022 478 2636 193 
Q 2250 -91 1575 -91 
Q 1294 -91 989 -36 
Q 684 19 347 128 
L 347 722 
Q 666 556 975 473 
Q 1284 391 1588 391 
Q 1994 391 2212 530 
Q 2431 669 2431 922 
Q 2431 1156 2273 1281 
Q 2116 1406 1581 1522 
L 1381 1569 
Q 847 1681 609 1914 
Q 372 2147 372 2553 
Q 372 3047 722 3315 
Q 1072 3584 1716 3584 
Q 2034 3584 2315 3537 
Q 2597 3491 2834 3397 
z
" transform="scale(0.015625)"/>
       <path id="DejaVuSans-70" d="M 1159 525 
L 1159 -1331 
L 581 -1331 
L 581 3500 
L 1159 3500 
L 1159 2969 
Q 1341 3281 1617 3432 
Q 1894 3584 2278 3584 
Q 2916 3584 3314 3078 
Q 3713 2572 3713 1747 
Q 3713 922 3314 415 
Q 2916 -91 2278 -91 
Q 1894 -91 1617 61 
Q 1341 213 1159 525 
z
M 3116 1747 
Q 3116 2381 2855 2742 
Q 2594 3103 2138 3103 
Q 1681 3103 1420 2742 
Q 1159 2381 1159 1747 
Q 1159 1113 1420 752 
Q 1681 391 2138 391 
Q 2594 391 2855 752 
Q 3116 1113 3116 1747 
z
" transform="scale(0.015625)"/>
       <path id="DejaVuSans-6b" d="M 581 4863 
L 1159 4863 
L 1159 1991 
L 2875 3500 
L 3609 3500 
L 1753 1863 
L 3688 0 
L 2938 0 
L 1159 1709 
L 1159 0 
L 581 0 
L 581 4863 
z
" transform="scale(0.015625)"/>
      </defs>
      <use xlink:href="#DejaVuSans-42"/>
      <use xlink:href="#DejaVuSans-69" x="68.603516"/>
      <use xlink:href="#DejaVuSans-6e" x="96.386719"/>
      <use xlink:href="#DejaVuSans-20" x="159.765625"/>
      <use xlink:href="#DejaVuSans-73" x="191.552734"/>
      <use xlink:href="#DejaVuSans-70" x="243.652344"/>
      <use xlink:href="#DejaVuSans-69" x="307.128906"/>
      <use xlink:href="#DejaVuSans-6b" x="334.912109"/>
      <use xlink:href="#DejaVuSans-65" x="389.197266"/>
      <use xlink:href="#DejaVuSans-73" x="450.720703"/>
     </g>
    </g>
   </g>
   <g id="line2d_36">
    <path d="M 91.869881 302.864756 
L 203.282928 302.864756 
L 205.511189 266.359969 
L 207.73945 302.864756 
L 221.109016 302.864756 
L 223.337277 266.359969 
L 225.565538 302.864756 
L 241.163364 302.864756 
L 243.391625 266.359969 
L 245.619886 302.864756 
L 261.217713 302.864756 
L 263.445974 266.359969 
L 265.674235 302.864756 
L 281.272061 302.864756 
L 283.500322 266.359969 
L 285.728583 302.864756 
L 301.32641 302.864756 
L 303.554671 266.359969 
L 305.782932 302.864756 
L 323.609019 302.864756 
L 325.83728 266.359969 
L 328.065541 302.864756 
L 343.663368 302.864756 
L 345.891629 266.359969 
L 348.11989 302.864756 
L 363.717716 302.864756 
L 365.945977 266.359969 
L 368.174238 302.864756 
L 383.772065 302.864756 
L 386.000326 266.359969 
L 388.228587 302.864756 
L 403.826413 302.864756 
L 406.054674 266.359969 
L 408.282935 302.864756 
L 535.293809 302.864756 
L 535.293809 302.864756 
" clip-path="url(#pf533271ffe)" style="fill: none; stroke: #1f77b4; stroke-width: 1.5; stroke-linecap: square"/>
   </g>
   <g id="patch_12">
    <path d="M 69.587495 304.689995 
L 69.587495 264.534729 
" style="fill: none; stroke: #000000; stroke-width: 0.8; stroke-linejoin: miter; stroke-linecap: square"/>
   </g>
   <g id="patch_13">
    <path d="M 69.587495 304.689995 
L 559.8 304.689995 
" style="fill: none; stroke: #000000; stroke-width: 0.8; stroke-linejoin: miter; stroke-linecap: square"/>
   </g>
  </g>
 </g>
 <defs>
  <clipPath id="pb078911d29">
   <rect x="69.587495" y="16.2" width="490.212505" height="40.155266"/>
  </clipPath>
  <clipPath id="p06e9c206e2">
   <rect x="69.587495" y="98.978243" width="490.212505" height="40.155266"/>
  </clipPath>
  <clipPath id="pf2d24afe8e">
   <rect x="69.587495" y="181.756486" width="490.212505" height="40.155266"/>
  </clipPath>
  <clipPath id="pf533271ffe">
   <rect x="69.587495" y="264.534729" width="490.212505" height="40.155266"/>
  </clipPath>
 </defs>
</svg>
