<?xml version="1.0" encoding="utf-8" standalone="no"?>
<!DOCTYPE svg PUBLIC "-//W3C//DTD SVG 1.1//EN"
  "http://www.w3.org/Graphics/SVG/1.1/DTD/svg11.dtd">
<svg xmlns:xlink="http://www.w3.org/1999/xlink" width="576pt" height="360pt" viewBox="0 0 576 360" xmlns="http://www.w3.org/2000/svg" version="1.1">
 <metadata>
  <rdf:RDF xmlns:dc="http://purl.org/dc/elements/1.1/" xmlns:cc="http://creativecommons.org/ns#" xmlns:rdf="http://www.w3.org/1999/02/22-rdf-syntax-ns#">
   <cc:Work>
    <dc:type rdf:resource="http://purl.org/dc/dcmitype/StillImage"/>
    <dc:date>2022-08-30T12:34:51.687036</dc:date>
    <dc:format>image/svg+xml</dc:format>
    <dc:creator>
     <cc:Agent>
      <dc:title>Matplotlib v3.5.3, https://matplotlib.org/</dc:title>
     </cc:Agent>
    </dc:creator>
   </cc:Work>
  </rdf:RDF>
 </metadata>
 <defs>
  <style type="text/css">*{stroke-linejoin: round; stroke-linecap: butt}</style>
 </defs>
 <g id="figure_1">
  <g id="patch_1">
   <path d="M 0 360 
L 576 360 
L 576 0 
L 0 0 
z
" style="fill: #ffffff"/>
  </g>
  <g id="axes_1">
   <g id="patch_2">
    <path d="M 69.587495 56.355266 
L 559.8 56.355266 
L 559.8 16.2 
L 69.587495 16.2 
z
" style="fill: #ffffff"/>
   </g>
   <g id="PathCollection_1">
    <defs>
     <path id="mf336f731cc" d="M 0 3 
C 0.795609 3 1.55874 2.683901 2.12132 2.12132 
C 2.683901 1.55874 3 0.795609 3 0 
C 3 -0.795609 2.683901 -1.55874 2.12132 -2.12132 
C 1.55874 -2.683901 0.795609 -3 0 -3 
C -0.795609 -3 -1.55874 -2.683901 -2.12132 -2.12132 
C -2.683901 -1.55874 -3 -0.795609 -3 0 
C -3 0.795609 -2.683901 1.55874 -2.12132 2.12132 
C -1.55874 2.683901 -0.795609 3 0 3 
z
" style="stroke: #1f77b4"/>
    </defs>
    <g clip-path="url(#p1e9edf32d8)">
     <use xlink:href="#mf336f731cc" x="204.47282" y="18.025239" style="fill: #1f77b4; stroke: #1f77b4"/>
     <use xlink:href="#mf336f731cc" x="206.050428" y="18.025239" style="fill: #1f77b4; stroke: #1f77b4"/>
     <use xlink:href="#mf336f731cc" x="211.812711" y="18.025239" style="fill: #1f77b4; stroke: #1f77b4"/>
     <use xlink:href="#mf336f731cc" x="223.867603" y="18.025239" style="fill: #1f77b4; stroke: #1f77b4"/>
     <use xlink:href="#mf336f731cc" x="235.811082" y="18.025239" style="fill: #1f77b4; stroke: #1f77b4"/>
     <use xlink:href="#mf336f731cc" x="247.75456" y="18.025239" style="fill: #1f77b4; stroke: #1f77b4"/>
     <use xlink:href="#mf336f731cc" x="259.698039" y="18.025239" style="fill: #1f77b4; stroke: #1f77b4"/>
     <use xlink:href="#mf336f731cc" x="271.641518" y="18.025239" style="fill: #1f77b4; stroke: #1f77b4"/>
     <use xlink:href="#mf336f731cc" x="283.584996" y="18.025239" style="fill: #1f77b4; stroke: #1f77b4"/>
     <use xlink:href="#mf336f731cc" x="295.528475" y="18.025239" style="fill: #1f77b4; stroke: #1f77b4"/>
     <use xlink:href="#mf336f731cc" x="307.471954" y="18.025239" style="fill: #1f77b4; stroke: #1f77b4"/>
     <use xlink:href="#mf336f731cc" x="319.415432" y="18.025239" style="fill: #1f77b4; stroke: #1f77b4"/>
     <use xlink:href="#mf336f731cc" x="331.358911" y="18.025239" style="fill: #1f77b4; stroke: #1f77b4"/>
     <use xlink:href="#mf336f731cc" x="343.30239" y="18.025239" style="fill: #1f77b4; stroke: #1f77b4"/>
     <use xlink:href="#mf336f731cc" x="355.245868" y="18.025239" style="fill: #1f77b4; stroke: #1f77b4"/>
     <use xlink:href="#mf336f731cc" x="367.189347" y="18.025239" style="fill: #1f77b4; stroke: #1f77b4"/>
     <use xlink:href="#mf336f731cc" x="379.132826" y="18.025239" style="fill: #1f77b4; stroke: #1f77b4"/>
     <use xlink:href="#mf336f731cc" x="391.076304" y="18.025239" style="fill: #1f77b4; stroke: #1f77b4"/>
     <use xlink:href="#mf336f731cc" x="403.019783" y="18.025239" style="fill: #1f77b4; stroke: #1f77b4"/>
     <use xlink:href="#mf336f731cc" x="414.963261" y="18.025239" style="fill: #1f77b4; stroke: #1f77b4"/>
    </g>
   </g>
   <g id="matplotlib.axis_1">
    <g id="xtick_1">
     <g id="line2d_1">
      <defs>
       <path id="mb70d05b72e" d="M 0 0 
L 0 5 
" style="stroke: #000000; stroke-width: 0.8"/>
      </defs>
      <g>
       <use xlink:href="#mb70d05b72e" x="91.869881" y="56.355266" style="stroke: #000000; stroke-width: 0.8"/>
      </g>
     </g>
    </g>
    <g id="xtick_2">
     <g id="line2d_2">
      <g>
       <use xlink:href="#mb70d05b72e" x="181.000319" y="56.355266" style="stroke: #000000; stroke-width: 0.8"/>
      </g>
     </g>
    </g>
    <g id="xtick_3">
     <g id="line2d_3">
      <g>
       <use xlink:href="#mb70d05b72e" x="270.130757" y="56.355266" style="stroke: #000000; stroke-width: 0.8"/>
      </g>
     </g>
    </g>
    <g id="xtick_4">
     <g id="line2d_4">
      <g>
       <use xlink:href="#mb70d05b72e" x="359.261194" y="56.355266" style="stroke: #000000; stroke-width: 0.8"/>
      </g>
     </g>
    </g>
    <g id="xtick_5">
     <g id="line2d_5">
      <g>
       <use xlink:href="#mb70d05b72e" x="448.391632" y="56.355266" style="stroke: #000000; stroke-width: 0.8"/>
      </g>
     </g>
    </g>
    <g id="xtick_6">
     <g id="line2d_6">
      <g>
       <use xlink:href="#mb70d05b72e" x="537.52207" y="56.355266" style="stroke: #000000; stroke-width: 0.8"/>
      </g>
     </g>
    </g>
   </g>
   <g id="matplotlib.axis_2">
    <g id="ytick_1">
     <g id="line2d_7">
      <defs>
       <path id="mcd95dbbe05" d="M 0 0 
L -5 0 
" style="stroke: #000000; stroke-width: 0.8"/>
      </defs>
      <g>
       <use xlink:href="#mcd95dbbe05" x="69.587495" y="45.580471" style="stroke: #000000; stroke-width: 0.8"/>
      </g>
     </g>
     <g id="text_1">
      <!-- −50 -->
      <g transform="translate(34.717187 50.327595)scale(0.12495 -0.12495)">
       <defs>
        <path id="DejaVuSans-2212" d="M 678 2272 
L 4684 2272 
L 4684 1741 
L 678 1741 
L 678 2272 
z
" transform="scale(0.015625)"/>
        <path id="DejaVuSans-35" d="M 691 4666 
L 3169 4666 
L 3169 4134 
L 1269 4134 
L 1269 2991 
Q 1406 3038 1543 3061 
Q 1681 3084 1819 3084 
Q 2600 3084 3056 2656 
Q 3513 2228 3513 1497 
Q 3513 744 3044 326 
Q 2575 -91 1722 -91 
Q 1428 -91 1123 -41 
Q 819 9 494 109 
L 494 744 
Q 775 591 1075 516 
Q 1375 441 1709 441 
Q 2250 441 2565 725 
Q 2881 1009 2881 1497 
Q 2881 1984 2565 2268 
Q 2250 2553 1709 2553 
Q 1456 2553 1204 2497 
Q 953 2441 691 2322 
L 691 4666 
z
" transform="scale(0.015625)"/>
        <path id="DejaVuSans-30" d="M 2034 4250 
Q 1547 4250 1301 3770 
Q 1056 3291 1056 2328 
Q 1056 1369 1301 889 
Q 1547 409 2034 409 
Q 2525 409 2770 889 
Q 3016 1369 3016 2328 
Q 3016 3291 2770 3770 
Q 2525 4250 2034 4250 
z
M 2034 4750 
Q 2819 4750 3233 4129 
Q 3647 3509 3647 2328 
Q 3647 1150 3233 529 
Q 2819 -91 2034 -91 
Q 1250 -91 836 529 
Q 422 1150 422 2328 
Q 422 3509 836 4129 
Q 1250 4750 2034 4750 
z
" transform="scale(0.015625)"/>
       </defs>
       <use xlink:href="#DejaVuSans-2212"/>
       <use xlink:href="#DejaVuSans-35" x="83.789062"/>
       <use xlink:href="#DejaVuSans-30" x="147.412109"/>
      </g>
     </g>
    </g>
    <g id="ytick_2">
     <g id="line2d_8">
      <g>
       <use xlink:href="#mcd95dbbe05" x="69.587495" y="30.272009" style="stroke: #000000; stroke-width: 0.8"/>
      </g>
     </g>
     <g id="text_2">
      <!-- 0 -->
      <g transform="translate(53.137551 35.019133)scale(0.12495 -0.12495)">
       <use xlink:href="#DejaVuSans-30"/>
      </g>
     </g>
    </g>
    <g id="text_3">
     <!-- V -->
     <g transform="translate(27.597656 41.408102)rotate(-90)scale(0.15 -0.15)">
      <defs>
       <path id="DejaVuSans-56" d="M 1831 0 
L 50 4666 
L 709 4666 
L 2188 738 
L 3669 4666 
L 4325 4666 
L 2547 0 
L 1831 0 
z
" transform="scale(0.015625)"/>
      </defs>
      <use xlink:href="#DejaVuSans-56"/>
     </g>
    </g>
   </g>
   <g id="line2d_9">
    <path d="M 91.869881 51.703856 
L 203.291841 51.618383 
L 204.160863 42.330854 
L 204.339124 35.794913 
L 204.45945 21.7504 
L 204.47282 19.556086 
L 204.477276 50.173009 
L 204.584233 49.757392 
L 205.301733 46.575703 
L 205.595863 44.052992 
L 205.80532 40.168488 
L 205.961298 32.449791 
L 206.050428 19.556086 
L 206.161841 50.180761 
L 206.995211 50.113271 
L 208.002385 49.800521 
L 209.014015 49.257681 
L 209.793907 48.595343 
L 210.355429 47.829794 
L 210.778798 46.863834 
L 211.108581 45.516721 
L 211.367059 43.443344 
L 211.567603 39.866984 
L 211.719124 32.687422 
L 211.812711 19.556086 
L 211.924124 50.453493 
L 212.445537 51.465466 
L 212.895646 51.887067 
L 213.385863 52.043217 
L 214.085537 52.010286 
L 215.467059 51.679424 
L 218.181081 50.790941 
L 220.06619 49.964193 
L 221.224885 49.227616 
L 221.982494 48.492596 
L 222.517277 47.663799 
L 222.918364 46.614295 
L 223.23032 45.129033 
L 223.475429 42.777314 
L 223.667059 38.487607 
L 223.805212 29.759007 
L 223.867603 19.556086 
L 223.979016 50.447629 
L 224.500429 51.439492 
L 224.950538 51.854716 
L 225.445212 52.010021 
L 226.149342 51.975587 
L 227.530864 51.64309 
L 230.195864 50.764244 
L 232.054234 49.940983 
L 233.19956 49.203628 
L 233.948255 48.466232 
L 234.478582 47.629665 
L 234.875212 46.570485 
L 235.182712 45.075596 
L 235.427821 42.662617 
L 235.614995 38.358295 
L 235.753147 29.351722 
L 235.811082 19.556086 
L 235.922495 50.447599 
L 236.443908 51.439359 
L 236.894016 51.85455 
L 237.38869 52.009848 
L 238.092821 51.975416 
L 239.474343 51.642916 
L 242.139343 50.764029 
L 243.997712 49.940681 
L 245.143038 49.203176 
L 245.891734 48.465528 
L 246.42206 47.628512 
L 246.818691 46.568476 
L 247.126191 45.071786 
L 247.371299 42.654392 
L 247.558473 38.33754 
L 247.696625 29.285682 
L 247.75456 19.556086 
L 247.865973 50.447619 
L 248.387386 51.439447 
L 248.837495 51.85466 
L 249.332169 52.009963 
L 250.036299 51.975529 
L 251.417821 51.643031 
L 254.082821 50.764171 
L 255.941191 49.940881 
L 257.086517 49.203475 
L 257.835213 48.465994 
L 258.365539 47.629275 
L 258.762169 46.569807 
L 259.069669 45.074309 
L 259.314778 42.65984 
L 259.501952 38.35129 
L 259.640104 29.329453 
L 259.698039 19.556086 
L 259.809452 50.447606 
L 260.330865 51.439389 
L 260.780974 51.854587 
L 261.275648 52.009887 
L 261.979778 51.975454 
L 263.3613 51.642955 
L 266.0263 50.764077 
L 267.88467 49.940748 
L 269.029996 49.203277 
L 269.778691 48.465685 
L 270.309018 47.628769 
L 270.705648 46.568925 
L 271.013148 45.072637 
L 271.258257 42.656229 
L 271.445431 38.342177 
L 271.583583 29.300453 
L 271.641518 19.556086 
L 271.752931 50.447614 
L 272.274344 51.439428 
L 272.724452 51.854636 
L 273.219126 52.009937 
L 273.923257 51.975504 
L 275.304779 51.643005 
L 277.969779 50.764139 
L 279.828148 49.940836 
L 280.973474 49.203408 
L 281.72217 48.46589 
L 282.252496 47.629104 
L 282.649127 46.569509 
L 282.956627 45.073745 
L 283.201735 42.658621 
L 283.388909 38.348215 
L 283.527061 29.319671 
L 283.584996 19.556086 
L 283.696409 50.447608 
L 284.217822 51.439402 
L 284.667931 51.854604 
L 285.162605 52.009904 
L 285.866735 51.975471 
L 287.248257 51.642972 
L 289.913257 50.764098 
L 291.771627 49.940778 
L 292.916953 49.203321 
L 293.665649 48.465754 
L 294.195975 47.628882 
L 294.592605 46.569122 
L 294.900105 45.07301 
L 295.145214 42.657036 
L 295.332388 38.344214 
L 295.47054 29.306937 
L 295.528475 19.556086 
L 295.639888 50.447612 
L 296.161301 51.439419 
L 296.61141 51.854625 
L 297.106084 52.009926 
L 297.810214 51.975493 
L 299.191736 51.642994 
L 301.856736 50.764125 
L 303.715106 49.940817 
L 304.860432 49.203379 
L 305.609127 48.465844 
L 306.139454 47.62903 
L 306.536084 46.569378 
L 306.843584 45.073497 
L 307.088693 42.658086 
L 307.275867 38.346865 
L 307.414019 29.315376 
L 307.471954 19.556086 
L 307.583367 50.44761 
L 308.10478 51.439408 
L 308.554888 51.854611 
L 309.049562 52.009911 
L 309.753693 51.975478 
L 311.135215 51.642979 
L 313.800215 50.764107 
L 315.658584 49.940791 
L 316.80391 49.203341 
L 317.552606 48.465785 
L 318.082932 47.628932 
L 318.479563 46.569208 
L 318.787063 45.073175 
L 319.032171 42.65739 
L 319.219345 38.345108 
L 319.357497 29.309784 
L 319.415432 19.556086 
L 319.526845 50.447611 
L 320.048258 51.439415 
L 320.498367 51.85462 
L 320.993041 52.009921 
L 321.697171 51.975488 
L 323.078693 51.642989 
L 325.743693 50.764119 
L 327.602063 49.940808 
L 328.747389 49.203366 
L 329.496085 48.465824 
L 330.026411 47.628997 
L 330.423041 46.569321 
L 330.730541 45.073388 
L 330.97565 42.657851 
L 331.162824 38.346273 
L 331.300976 29.313489 
L 331.358911 19.556086 
L 331.470324 50.44761 
L 331.991737 51.43941 
L 332.441846 51.854614 
L 332.93652 52.009915 
L 333.64065 51.975482 
L 335.022172 51.642983 
L 337.687172 50.764111 
L 339.545542 49.940797 
L 340.690868 49.203349 
L 341.439563 48.465798 
L 341.969889 47.628954 
L 342.36652 46.569246 
L 342.67402 45.073247 
L 342.919129 42.657546 
L 343.106303 38.345501 
L 343.244455 29.311034 
L 343.30239 19.556086 
L 343.413803 50.447611 
L 343.935216 51.439414 
L 344.385324 51.854618 
L 344.879998 52.009919 
L 345.584129 51.975486 
L 346.965651 51.642987 
L 349.630651 50.764117 
L 351.48902 49.940804 
L 352.634346 49.20336 
L 353.383042 48.465815 
L 353.913368 47.628982 
L 354.309999 46.569296 
L 354.617499 45.07334 
L 354.862607 42.657748 
L 355.049781 38.346012 
L 355.187933 29.312661 
L 355.245868 19.556086 
L 355.357281 50.447611 
L 355.878694 51.439411 
L 356.328803 51.854615 
L 356.823477 52.009916 
L 357.527607 51.975483 
L 358.909129 51.642984 
L 361.574129 50.764113 
L 363.432499 49.940799 
L 364.577825 49.203353 
L 365.326521 48.465804 
L 365.856847 47.628963 
L 366.253477 46.569263 
L 366.560977 45.073278 
L 366.806086 42.657614 
L 366.99326 38.345674 
L 367.131412 29.311583 
L 367.189347 19.556086 
L 367.30076 50.447611 
L 367.822173 51.439413 
L 368.272282 51.854617 
L 368.766956 52.009918 
L 369.471086 51.975485 
L 370.852608 51.642986 
L 373.517608 50.764115 
L 375.375978 49.940803 
L 376.521304 49.203358 
L 377.269999 48.465811 
L 377.800325 47.628976 
L 378.196956 46.569285 
L 378.504456 45.073319 
L 378.749565 42.657703 
L 378.936739 38.345898 
L 379.074891 29.312297 
L 379.132826 19.556086 
L 379.244239 50.447611 
L 379.765652 51.439412 
L 380.21576 51.854616 
L 380.710434 52.009917 
L 381.414565 51.975484 
L 382.796086 51.642985 
L 385.461087 50.764114 
L 387.319456 49.9408 
L 388.464782 49.203355 
L 389.213478 48.465806 
L 389.743804 47.628968 
L 390.140435 46.56927 
L 390.447935 45.073292 
L 390.693043 42.657644 
L 390.880217 38.345749 
L 391.018369 29.311824 
L 391.076304 19.556086 
L 391.187717 50.447611 
L 391.70913 51.439413 
L 392.159239 51.854617 
L 392.653913 52.009918 
L 393.358043 51.975485 
L 394.739565 51.642986 
L 397.404565 50.764115 
L 399.262935 49.940802 
L 400.408261 49.203357 
L 401.156957 48.46581 
L 401.687283 47.628973 
L 402.083913 46.56928 
L 402.391413 45.07331 
L 402.636522 42.657683 
L 402.823696 38.345848 
L 402.961848 29.312138 
L 403.019783 19.556086 
L 403.131196 50.447611 
L 403.652609 51.439412 
L 404.102718 51.854616 
L 404.597392 52.009917 
L 405.301522 51.975484 
L 406.683044 51.642985 
L 409.348044 50.764114 
L 411.206414 49.940801 
L 412.35174 49.203355 
L 413.100435 48.465808 
L 413.630761 47.628969 
L 414.027392 46.569274 
L 414.334892 45.073298 
L 414.580001 42.657657 
L 414.767175 38.345783 
L 414.905327 29.31193 
L 414.963261 19.556086 
L 415.074675 50.447611 
L 415.596088 51.439412 
L 416.046196 51.854616 
L 416.54087 52.009917 
L 417.245001 51.975484 
L 418.626522 51.642985 
L 421.291523 50.764115 
L 423.149892 49.940802 
L 424.295218 49.203356 
L 425.043914 48.465809 
L 425.57424 47.628972 
L 425.970871 46.569278 
L 426.109023 46.01257 
L 426.162501 46.293486 
L 426.545762 49.034201 
L 427.151849 53.121266 
L 427.499458 54.072087 
L 427.838153 54.4142 
L 428.274892 54.525468 
L 429.228588 54.47531 
L 441.568697 53.366156 
L 451.279458 52.768189 
L 462.327176 52.316591 
L 475.727937 52.000934 
L 494.12446 51.807053 
L 527.107178 51.718242 
L 537.517613 51.711531 
L 537.517613 51.711531 
" clip-path="url(#p1e9edf32d8)" style="fill: none; stroke: #1f77b4; stroke-width: 1.5; stroke-linecap: square"/>
   </g>
   <g id="patch_3">
    <path d="M 69.587495 56.355266 
L 69.587495 16.2 
" style="fill: none; stroke: #000000; stroke-width: 0.8; stroke-linejoin: miter; stroke-linecap: square"/>
   </g>
   <g id="patch_4">
    <path d="M 69.587495 56.355266 
L 559.8 56.355266 
" style="fill: none; stroke: #000000; stroke-width: 0.8; stroke-linejoin: miter; stroke-linecap: square"/>
   </g>
  </g>
  <g id="axes_2">
   <g id="patch_5">
    <path d="M 69.587495 139.133509 
L 559.8 139.133509 
L 559.8 98.978243 
L 69.587495 98.978243 
z
" style="fill: #ffffff"/>
   </g>
   <g id="matplotlib.axis_3">
    <g id="xtick_7">
     <g id="line2d_10">
      <g>
       <use xlink:href="#mb70d05b72e" x="91.869881" y="139.133509" style="stroke: #000000; stroke-width: 0.8"/>
      </g>
     </g>
    </g>
    <g id="xtick_8">
     <g id="line2d_11">
      <g>
       <use xlink:href="#mb70d05b72e" x="181.000319" y="139.133509" style="stroke: #000000; stroke-width: 0.8"/>
      </g>
     </g>
    </g>
    <g id="xtick_9">
     <g id="line2d_12">
      <g>
       <use xlink:href="#mb70d05b72e" x="270.130757" y="139.133509" style="stroke: #000000; stroke-width: 0.8"/>
      </g>
     </g>
    </g>
    <g id="xtick_10">
     <g id="line2d_13">
      <g>
       <use xlink:href="#mb70d05b72e" x="359.261194" y="139.133509" style="stroke: #000000; stroke-width: 0.8"/>
      </g>
     </g>
    </g>
    <g id="xtick_11">
     <g id="line2d_14">
      <g>
       <use xlink:href="#mb70d05b72e" x="448.391632" y="139.133509" style="stroke: #000000; stroke-width: 0.8"/>
      </g>
     </g>
    </g>
    <g id="xtick_12">
     <g id="line2d_15">
      <g>
       <use xlink:href="#mb70d05b72e" x="537.52207" y="139.133509" style="stroke: #000000; stroke-width: 0.8"/>
      </g>
     </g>
    </g>
   </g>
   <g id="matplotlib.axis_4">
    <g id="ytick_3">
     <g id="line2d_16">
      <g>
       <use xlink:href="#mcd95dbbe05" x="69.587495" y="128.15417" style="stroke: #000000; stroke-width: 0.8"/>
      </g>
     </g>
     <g id="text_4">
      <!-- −10 -->
      <g transform="translate(34.717187 132.901294)scale(0.12495 -0.12495)">
       <defs>
        <path id="DejaVuSans-31" d="M 794 531 
L 1825 531 
L 1825 4091 
L 703 3866 
L 703 4441 
L 1819 4666 
L 2450 4666 
L 2450 531 
L 3481 531 
L 3481 0 
L 794 0 
L 794 531 
z
" transform="scale(0.015625)"/>
       </defs>
       <use xlink:href="#DejaVuSans-2212"/>
       <use xlink:href="#DejaVuSans-31" x="83.789062"/>
       <use xlink:href="#DejaVuSans-30" x="147.412109"/>
      </g>
     </g>
    </g>
    <g id="ytick_4">
     <g id="line2d_17">
      <g>
       <use xlink:href="#mcd95dbbe05" x="69.587495" y="105.26892" style="stroke: #000000; stroke-width: 0.8"/>
      </g>
     </g>
     <g id="text_5">
      <!-- 0 -->
      <g transform="translate(53.137551 110.016044)scale(0.12495 -0.12495)">
       <use xlink:href="#DejaVuSans-30"/>
      </g>
     </g>
    </g>
    <g id="text_6">
     <!-- U -->
     <g transform="translate(27.597656 124.544939)rotate(-90)scale(0.15 -0.15)">
      <defs>
       <path id="DejaVuSans-55" d="M 556 4666 
L 1191 4666 
L 1191 1831 
Q 1191 1081 1462 751 
Q 1734 422 2344 422 
Q 2950 422 3222 751 
Q 3494 1081 3494 1831 
L 3494 4666 
L 4128 4666 
L 4128 1753 
Q 4128 841 3676 375 
Q 3225 -91 2344 -91 
Q 1459 -91 1007 375 
Q 556 841 556 1753 
L 556 4666 
z
" transform="scale(0.015625)"/>
      </defs>
      <use xlink:href="#DejaVuSans-55"/>
     </g>
    </g>
   </g>
   <g id="line2d_18">
    <path d="M 91.869881 137.30827 
L 203.906841 137.197914 
L 204.35695 136.917139 
L 204.47282 136.74036 
L 204.477276 123.00921 
L 204.584233 123.065294 
L 205.48445 123.39908 
L 205.939015 123.374358 
L 206.050428 123.271061 
L 206.054885 109.539912 
L 206.161841 109.661963 
L 208.519342 112.177977 
L 210.355429 113.828408 
L 211.42945 114.540085 
L 211.777059 114.566048 
L 211.812711 114.534632 
L 211.817168 100.803483 
L 211.924124 100.968319 
L 215.930537 106.961723 
L 218.096407 109.701789 
L 220.190972 112.001633 
L 222.071625 113.751871 
L 223.33282 114.659446 
L 223.791842 114.774553 
L 223.867603 114.722963 
L 223.872059 100.991813 
L 223.979016 101.155727 
L 227.963147 107.080697 
L 230.129016 109.805589 
L 232.219125 112.086334 
L 234.086408 113.810288 
L 235.307495 114.675033 
L 235.744234 114.771473 
L 235.811082 114.723925 
L 235.815538 100.992775 
L 235.922495 101.156684 
L 239.906625 107.081459 
L 242.072495 109.806254 
L 244.162604 112.086905 
L 246.029886 113.810755 
L 247.250973 114.675319 
L 247.687712 114.771242 
L 247.75456 114.723288 
L 247.759017 100.992138 
L 247.865973 101.156051 
L 251.850104 107.080955 
L 254.015974 109.805814 
L 256.106082 112.086527 
L 257.973365 113.810446 
L 259.194452 114.67513 
L 259.631191 114.771395 
L 259.698039 114.72371 
L 259.702495 100.99256 
L 259.809452 101.156471 
L 263.793583 107.081289 
L 265.959452 109.806105 
L 268.049561 112.086777 
L 269.916844 113.810651 
L 271.137931 114.675255 
L 271.57467 114.771293 
L 271.641518 114.72343 
L 271.645974 100.992281 
L 271.752931 101.156192 
L 275.737061 107.081067 
L 277.902931 109.805912 
L 279.99304 112.086611 
L 281.860322 113.810515 
L 283.081409 114.675172 
L 283.518148 114.771361 
L 283.584996 114.723616 
L 283.589453 100.992466 
L 283.696409 101.156377 
L 287.68054 107.081214 
L 289.846409 109.80604 
L 291.936518 112.086721 
L 293.803801 113.810605 
L 295.024888 114.675227 
L 295.461627 114.771316 
L 295.528475 114.723493 
L 295.532931 100.992343 
L 295.639888 101.156255 
L 299.624019 107.081117 
L 301.789888 109.805955 
L 303.879997 112.086649 
L 305.74728 113.810546 
L 306.968367 114.675191 
L 307.405106 114.771346 
L 307.471954 114.723574 
L 307.47641 100.992425 
L 307.583367 101.156336 
L 311.567497 107.081181 
L 313.733367 109.806012 
L 315.823476 112.086697 
L 317.690758 113.810585 
L 318.911845 114.675215 
L 319.348584 114.771326 
L 319.415432 114.72352 
L 319.419889 100.992371 
L 319.526845 101.156282 
L 323.510976 107.081139 
L 325.676845 109.805974 
L 327.766954 112.086665 
L 329.634237 113.810559 
L 330.855324 114.675199 
L 331.292063 114.771339 
L 331.358911 114.723556 
L 331.363367 100.992406 
L 331.470324 101.156318 
L 335.454454 107.081167 
L 337.620324 109.805999 
L 339.710433 112.086686 
L 341.577716 113.810576 
L 342.798803 114.675209 
L 343.235542 114.77133 
L 343.30239 114.723532 
L 343.306846 100.992383 
L 343.413803 101.156294 
L 347.397933 107.081148 
L 349.563803 109.805983 
L 351.653912 112.086672 
L 353.521194 113.810565 
L 354.742281 114.675202 
L 355.17902 114.771336 
L 355.245868 114.723548 
L 355.250325 100.992398 
L 355.357281 101.15631 
L 359.341412 107.081161 
L 361.507281 109.805994 
L 363.59739 112.086681 
L 365.464673 113.810573 
L 366.68576 114.675207 
L 367.122499 114.771332 
L 367.189347 114.723538 
L 367.193803 100.992388 
L 367.30076 101.156299 
L 371.28489 107.081152 
L 373.45076 109.805986 
L 375.540869 112.086675 
L 377.408152 113.810567 
L 378.629239 114.675204 
L 379.065978 114.771335 
L 379.132826 114.723545 
L 379.137282 100.992395 
L 379.244239 101.156306 
L 383.228369 107.081158 
L 385.394239 109.805991 
L 387.484348 112.086679 
L 389.35163 113.810571 
L 390.572717 114.675206 
L 391.009456 114.771333 
L 391.076304 114.72354 
L 391.080761 100.99239 
L 391.187717 101.156302 
L 395.171848 107.081154 
L 397.337717 109.805988 
L 399.427826 112.086677 
L 401.295109 113.810569 
L 402.516196 114.675205 
L 402.952935 114.771334 
L 403.019783 114.723543 
L 403.024239 100.992393 
L 403.131196 101.156305 
L 407.115326 107.081157 
L 409.281196 109.80599 
L 411.371305 112.086678 
L 413.238588 113.81057 
L 414.459675 114.675206 
L 414.896414 114.771334 
L 414.963261 114.723541 
L 414.967718 100.992391 
L 415.074675 101.156303 
L 419.058805 107.081155 
L 421.224675 109.805989 
L 423.314783 112.086677 
L 425.182066 113.810569 
L 427.74011 116.064921 
L 430.503153 119.022172 
L 433.016632 121.373002 
L 435.610327 123.495651 
L 438.306523 125.415124 
L 441.123045 127.147121 
L 444.091089 128.710251 
L 447.237393 130.114774 
L 450.61098 131.375238 
L 454.260871 132.498866 
L 458.253915 133.492392 
L 462.688154 134.36265 
L 467.692828 135.113482 
L 473.464024 135.748586 
L 480.304785 136.270541 
L 488.745438 136.682323 
L 499.793156 136.986264 
L 515.796526 137.185732 
L 537.517613 137.275335 
L 537.517613 137.275335 
" clip-path="url(#p300cfd5249)" style="fill: none; stroke: #1f77b4; stroke-width: 1.5; stroke-linecap: square"/>
   </g>
   <g id="patch_6">
    <path d="M 69.587495 139.133509 
L 69.587495 98.978243 
" style="fill: none; stroke: #000000; stroke-width: 0.8; stroke-linejoin: miter; stroke-linecap: square"/>
   </g>
   <g id="patch_7">
    <path d="M 69.587495 139.133509 
L 559.8 139.133509 
" style="fill: none; stroke: #000000; stroke-width: 0.8; stroke-linejoin: miter; stroke-linecap: square"/>
   </g>
  </g>
  <g id="axes_3">
   <g id="patch_8">
    <path d="M 69.587495 221.911752 
L 559.8 221.911752 
L 559.8 181.756486 
L 69.587495 181.756486 
z
" style="fill: #ffffff"/>
   </g>
   <g id="matplotlib.axis_5">
    <g id="xtick_13">
     <g id="line2d_19">
      <g>
       <use xlink:href="#mb70d05b72e" x="91.869881" y="221.911752" style="stroke: #000000; stroke-width: 0.8"/>
      </g>
     </g>
    </g>
    <g id="xtick_14">
     <g id="line2d_20">
      <g>
       <use xlink:href="#mb70d05b72e" x="181.000319" y="221.911752" style="stroke: #000000; stroke-width: 0.8"/>
      </g>
     </g>
    </g>
    <g id="xtick_15">
     <g id="line2d_21">
      <g>
       <use xlink:href="#mb70d05b72e" x="270.130757" y="221.911752" style="stroke: #000000; stroke-width: 0.8"/>
      </g>
     </g>
    </g>
    <g id="xtick_16">
     <g id="line2d_22">
      <g>
       <use xlink:href="#mb70d05b72e" x="359.261194" y="221.911752" style="stroke: #000000; stroke-width: 0.8"/>
      </g>
     </g>
    </g>
    <g id="xtick_17">
     <g id="line2d_23">
      <g>
       <use xlink:href="#mb70d05b72e" x="448.391632" y="221.911752" style="stroke: #000000; stroke-width: 0.8"/>
      </g>
     </g>
    </g>
    <g id="xtick_18">
     <g id="line2d_24">
      <g>
       <use xlink:href="#mb70d05b72e" x="537.52207" y="221.911752" style="stroke: #000000; stroke-width: 0.8"/>
      </g>
     </g>
    </g>
    <g id="text_7">
     <!-- Time -->
     <g transform="translate(296.343357 242.309408)scale(0.15 -0.15)">
      <defs>
       <path id="DejaVuSans-54" d="M -19 4666 
L 3928 4666 
L 3928 4134 
L 2272 4134 
L 2272 0 
L 1638 0 
L 1638 4134 
L -19 4134 
L -19 4666 
z
" transform="scale(0.015625)"/>
       <path id="DejaVuSans-69" d="M 603 3500 
L 1178 3500 
L 1178 0 
L 603 0 
L 603 3500 
z
M 603 4863 
L 1178 4863 
L 1178 4134 
L 603 4134 
L 603 4863 
z
" transform="scale(0.015625)"/>
       <path id="DejaVuSans-6d" d="M 3328 2828 
Q 3544 3216 3844 3400 
Q 4144 3584 4550 3584 
Q 5097 3584 5394 3201 
Q 5691 2819 5691 2113 
L 5691 0 
L 5113 0 
L 5113 2094 
Q 5113 2597 4934 2840 
Q 4756 3084 4391 3084 
Q 3944 3084 3684 2787 
Q 3425 2491 3425 1978 
L 3425 0 
L 2847 0 
L 2847 2094 
Q 2847 2600 2669 2842 
Q 2491 3084 2119 3084 
Q 1678 3084 1418 2786 
Q 1159 2488 1159 1978 
L 1159 0 
L 581 0 
L 581 3500 
L 1159 3500 
L 1159 2956 
Q 1356 3278 1631 3431 
Q 1906 3584 2284 3584 
Q 2666 3584 2933 3390 
Q 3200 3197 3328 2828 
z
" transform="scale(0.015625)"/>
       <path id="DejaVuSans-65" d="M 3597 1894 
L 3597 1613 
L 953 1613 
Q 991 1019 1311 708 
Q 1631 397 2203 397 
Q 2534 397 2845 478 
Q 3156 559 3463 722 
L 3463 178 
Q 3153 47 2828 -22 
Q 2503 -91 2169 -91 
Q 1331 -91 842 396 
Q 353 884 353 1716 
Q 353 2575 817 3079 
Q 1281 3584 2069 3584 
Q 2775 3584 3186 3129 
Q 3597 2675 3597 1894 
z
M 3022 2063 
Q 3016 2534 2758 2815 
Q 2500 3097 2075 3097 
Q 1594 3097 1305 2825 
Q 1016 2553 972 2059 
L 3022 2063 
z
" transform="scale(0.015625)"/>
      </defs>
      <use xlink:href="#DejaVuSans-54"/>
      <use xlink:href="#DejaVuSans-69" x="57.958984"/>
      <use xlink:href="#DejaVuSans-6d" x="85.742188"/>
      <use xlink:href="#DejaVuSans-65" x="183.154297"/>
     </g>
    </g>
   </g>
   <g id="matplotlib.axis_6">
    <g id="ytick_5">
     <g id="line2d_25">
      <g>
       <use xlink:href="#mcd95dbbe05" x="69.587495" y="220.086513" style="stroke: #000000; stroke-width: 0.8"/>
      </g>
     </g>
     <g id="text_8">
      <!-- 0 -->
      <g transform="translate(53.137551 224.833637)scale(0.12495 -0.12495)">
       <use xlink:href="#DejaVuSans-30"/>
      </g>
     </g>
    </g>
    <g id="ytick_6">
     <g id="line2d_26">
      <g>
       <use xlink:href="#mcd95dbbe05" x="69.587495" y="194.011665" style="stroke: #000000; stroke-width: 0.8"/>
      </g>
     </g>
     <g id="text_9">
      <!-- 10 -->
      <g transform="translate(45.187607 198.758789)scale(0.12495 -0.12495)">
       <use xlink:href="#DejaVuSans-31"/>
       <use xlink:href="#DejaVuSans-30" x="63.623047"/>
      </g>
     </g>
    </g>
    <g id="text_10">
     <!-- I -->
     <g transform="translate(38.068076 204.046619)rotate(-90)scale(0.15 -0.15)">
      <defs>
       <path id="DejaVuSans-49" d="M 628 4666 
L 1259 4666 
L 1259 0 
L 628 0 
L 628 4666 
z
" transform="scale(0.015625)"/>
      </defs>
      <use xlink:href="#DejaVuSans-49"/>
     </g>
    </g>
   </g>
   <g id="line2d_27">
    <path d="M 91.869881 220.086513 
L 203.278472 220.086513 
L 203.389885 183.581726 
L 426.104566 183.581726 
L 426.215979 220.086513 
L 537.517613 220.086513 
L 537.517613 220.086513 
" clip-path="url(#pac580287eb)" style="fill: none; stroke: #1f77b4; stroke-width: 1.5; stroke-linecap: square"/>
   </g>
   <g id="patch_9">
    <path d="M 69.587495 221.911752 
L 69.587495 181.756486 
" style="fill: none; stroke: #000000; stroke-width: 0.8; stroke-linejoin: miter; stroke-linecap: square"/>
   </g>
   <g id="patch_10">
    <path d="M 69.587495 221.911752 
L 559.8 221.911752 
" style="fill: none; stroke: #000000; stroke-width: 0.8; stroke-linejoin: miter; stroke-linecap: square"/>
   </g>
  </g>
  <g id="axes_4">
   <g id="patch_11">
    <path d="M 69.587495 304.689995 
L 559.8 304.689995 
L 559.8 264.534729 
L 69.587495 264.534729 
z
" style="fill: #ffffff"/>
   </g>
   <g id="matplotlib.axis_7">
    <g id="xtick_19">
     <g id="line2d_28">
      <g>
       <use xlink:href="#mb70d05b72e" x="91.869881" y="304.689995" style="stroke: #000000; stroke-width: 0.8"/>
      </g>
     </g>
     <g id="text_11">
      <!-- 0 -->
      <g transform="translate(87.894909 322.684243)scale(0.12495 -0.12495)">
       <use xlink:href="#DejaVuSans-30"/>
      </g>
     </g>
    </g>
    <g id="xtick_20">
     <g id="line2d_29">
      <g>
       <use xlink:href="#mb70d05b72e" x="181.000319" y="304.689995" style="stroke: #000000; stroke-width: 0.8"/>
      </g>
     </g>
     <g id="text_12">
      <!-- 200 -->
      <g transform="translate(169.075403 322.684243)scale(0.12495 -0.12495)">
       <defs>
        <path id="DejaVuSans-32" d="M 1228 531 
L 3431 531 
L 3431 0 
L 469 0 
L 469 531 
Q 828 903 1448 1529 
Q 2069 2156 2228 2338 
Q 2531 2678 2651 2914 
Q 2772 3150 2772 3378 
Q 2772 3750 2511 3984 
Q 2250 4219 1831 4219 
Q 1534 4219 1204 4116 
Q 875 4013 500 3803 
L 500 4441 
Q 881 4594 1212 4672 
Q 1544 4750 1819 4750 
Q 2544 4750 2975 4387 
Q 3406 4025 3406 3419 
Q 3406 3131 3298 2873 
Q 3191 2616 2906 2266 
Q 2828 2175 2409 1742 
Q 1991 1309 1228 531 
z
" transform="scale(0.015625)"/>
       </defs>
       <use xlink:href="#DejaVuSans-32"/>
       <use xlink:href="#DejaVuSans-30" x="63.623047"/>
       <use xlink:href="#DejaVuSans-30" x="127.246094"/>
      </g>
     </g>
    </g>
    <g id="xtick_21">
     <g id="line2d_30">
      <g>
       <use xlink:href="#mb70d05b72e" x="270.130757" y="304.689995" style="stroke: #000000; stroke-width: 0.8"/>
      </g>
     </g>
     <g id="text_13">
      <!-- 400 -->
      <g transform="translate(258.205841 322.684243)scale(0.12495 -0.12495)">
       <defs>
        <path id="DejaVuSans-34" d="M 2419 4116 
L 825 1625 
L 2419 1625 
L 2419 4116 
z
M 2253 4666 
L 3047 4666 
L 3047 1625 
L 3713 1625 
L 3713 1100 
L 3047 1100 
L 3047 0 
L 2419 0 
L 2419 1100 
L 313 1100 
L 313 1709 
L 2253 4666 
z
" transform="scale(0.015625)"/>
       </defs>
       <use xlink:href="#DejaVuSans-34"/>
       <use xlink:href="#DejaVuSans-30" x="63.623047"/>
       <use xlink:href="#DejaVuSans-30" x="127.246094"/>
      </g>
     </g>
    </g>
    <g id="xtick_22">
     <g id="line2d_31">
      <g>
       <use xlink:href="#mb70d05b72e" x="359.261194" y="304.689995" style="stroke: #000000; stroke-width: 0.8"/>
      </g>
     </g>
     <g id="text_14">
      <!-- 600 -->
      <g transform="translate(347.336279 322.684243)scale(0.12495 -0.12495)">
       <defs>
        <path id="DejaVuSans-36" d="M 2113 2584 
Q 1688 2584 1439 2293 
Q 1191 2003 1191 1497 
Q 1191 994 1439 701 
Q 1688 409 2113 409 
Q 2538 409 2786 701 
Q 3034 994 3034 1497 
Q 3034 2003 2786 2293 
Q 2538 2584 2113 2584 
z
M 3366 4563 
L 3366 3988 
Q 3128 4100 2886 4159 
Q 2644 4219 2406 4219 
Q 1781 4219 1451 3797 
Q 1122 3375 1075 2522 
Q 1259 2794 1537 2939 
Q 1816 3084 2150 3084 
Q 2853 3084 3261 2657 
Q 3669 2231 3669 1497 
Q 3669 778 3244 343 
Q 2819 -91 2113 -91 
Q 1303 -91 875 529 
Q 447 1150 447 2328 
Q 447 3434 972 4092 
Q 1497 4750 2381 4750 
Q 2619 4750 2861 4703 
Q 3103 4656 3366 4563 
z
" transform="scale(0.015625)"/>
       </defs>
       <use xlink:href="#DejaVuSans-36"/>
       <use xlink:href="#DejaVuSans-30" x="63.623047"/>
       <use xlink:href="#DejaVuSans-30" x="127.246094"/>
      </g>
     </g>
    </g>
    <g id="xtick_23">
     <g id="line2d_32">
      <g>
       <use xlink:href="#mb70d05b72e" x="448.391632" y="304.689995" style="stroke: #000000; stroke-width: 0.8"/>
      </g>
     </g>
     <g id="text_15">
      <!-- 800 -->
      <g transform="translate(436.466717 322.684243)scale(0.12495 -0.12495)">
       <defs>
        <path id="DejaVuSans-38" d="M 2034 2216 
Q 1584 2216 1326 1975 
Q 1069 1734 1069 1313 
Q 1069 891 1326 650 
Q 1584 409 2034 409 
Q 2484 409 2743 651 
Q 3003 894 3003 1313 
Q 3003 1734 2745 1975 
Q 2488 2216 2034 2216 
z
M 1403 2484 
Q 997 2584 770 2862 
Q 544 3141 544 3541 
Q 544 4100 942 4425 
Q 1341 4750 2034 4750 
Q 2731 4750 3128 4425 
Q 3525 4100 3525 3541 
Q 3525 3141 3298 2862 
Q 3072 2584 2669 2484 
Q 3125 2378 3379 2068 
Q 3634 1759 3634 1313 
Q 3634 634 3220 271 
Q 2806 -91 2034 -91 
Q 1263 -91 848 271 
Q 434 634 434 1313 
Q 434 1759 690 2068 
Q 947 2378 1403 2484 
z
M 1172 3481 
Q 1172 3119 1398 2916 
Q 1625 2713 2034 2713 
Q 2441 2713 2670 2916 
Q 2900 3119 2900 3481 
Q 2900 3844 2670 4047 
Q 2441 4250 2034 4250 
Q 1625 4250 1398 4047 
Q 1172 3844 1172 3481 
z
" transform="scale(0.015625)"/>
       </defs>
       <use xlink:href="#DejaVuSans-38"/>
       <use xlink:href="#DejaVuSans-30" x="63.623047"/>
       <use xlink:href="#DejaVuSans-30" x="127.246094"/>
      </g>
     </g>
    </g>
    <g id="xtick_24">
     <g id="line2d_33">
      <g>
       <use xlink:href="#mb70d05b72e" x="537.52207" y="304.689995" style="stroke: #000000; stroke-width: 0.8"/>
      </g>
     </g>
     <g id="text_16">
      <!-- 1000 -->
      <g transform="translate(521.622182 322.684243)scale(0.12495 -0.12495)">
       <use xlink:href="#DejaVuSans-31"/>
       <use xlink:href="#DejaVuSans-30" x="63.623047"/>
       <use xlink:href="#DejaVuSans-30" x="127.246094"/>
       <use xlink:href="#DejaVuSans-30" x="190.869141"/>
      </g>
     </g>
    </g>
    <g id="text_17">
     <!-- Time -->
     <g transform="translate(296.343357 340.680469)scale(0.15 -0.15)">
      <use xlink:href="#DejaVuSans-54"/>
      <use xlink:href="#DejaVuSans-69" x="57.958984"/>
      <use xlink:href="#DejaVuSans-6d" x="85.742188"/>
      <use xlink:href="#DejaVuSans-65" x="183.154297"/>
     </g>
    </g>
   </g>
   <g id="matplotlib.axis_8">
    <g id="ytick_7">
     <g id="line2d_34">
      <g>
       <use xlink:href="#mcd95dbbe05" x="69.587495" y="302.864756" style="stroke: #000000; stroke-width: 0.8"/>
      </g>
     </g>
     <g id="text_18">
      <!-- 0 -->
      <g transform="translate(53.137551 307.61188)scale(0.12495 -0.12495)">
       <use xlink:href="#DejaVuSans-30"/>
      </g>
     </g>
    </g>
    <g id="ytick_8">
     <g id="line2d_35">
      <g>
       <use xlink:href="#mcd95dbbe05" x="69.587495" y="266.359969" style="stroke: #000000; stroke-width: 0.8"/>
      </g>
     </g>
     <g id="text_19">
      <!-- 1 -->
      <g transform="translate(53.137551 271.107093)scale(0.12495 -0.12495)">
       <use xlink:href="#DejaVuSans-31"/>
      </g>
     </g>
    </g>
    <g id="text_20">
     <!-- Bin spikes -->
     <g transform="translate(46.01802 322.3233)rotate(-90)scale(0.15 -0.15)">
      <defs>
       <path id="DejaVuSans-42" d="M 1259 2228 
L 1259 519 
L 2272 519 
Q 2781 519 3026 730 
Q 3272 941 3272 1375 
Q 3272 1813 3026 2020 
Q 2781 2228 2272 2228 
L 1259 2228 
z
M 1259 4147 
L 1259 2741 
L 2194 2741 
Q 2656 2741 2882 2914 
Q 3109 3088 3109 3444 
Q 3109 3797 2882 3972 
Q 2656 4147 2194 4147 
L 1259 4147 
z
M 628 4666 
L 2241 4666 
Q 2963 4666 3353 4366 
Q 3744 4066 3744 3513 
Q 3744 3084 3544 2831 
Q 3344 2578 2956 2516 
Q 3422 2416 3680 2098 
Q 3938 1781 3938 1306 
Q 3938 681 3513 340 
Q 3088 0 2303 0 
L 628 0 
L 628 4666 
z
" transform="scale(0.015625)"/>
       <path id="DejaVuSans-6e" d="M 3513 2113 
L 3513 0 
L 2938 0 
L 2938 2094 
Q 2938 2591 2744 2837 
Q 2550 3084 2163 3084 
Q 1697 3084 1428 2787 
Q 1159 2491 1159 1978 
L 1159 0 
L 581 0 
L 581 3500 
L 1159 3500 
L 1159 2956 
Q 1366 3272 1645 3428 
Q 1925 3584 2291 3584 
Q 2894 3584 3203 3211 
Q 3513 2838 3513 2113 
z
" transform="scale(0.015625)"/>
       <path id="DejaVuSans-20" transform="scale(0.015625)"/>
       <path id="DejaVuSans-73" d="M 2834 3397 
L 2834 2853 
Q 2591 2978 2328 3040 
Q 2066 3103 1784 3103 
Q 1356 3103 1142 2972 
Q 928 2841 928 2578 
Q 928 2378 1081 2264 
Q 1234 2150 1697 2047 
L 1894 2003 
Q 2506 1872 2764 1633 
Q 3022 1394 3022 966 
Q 3022 478 2636 193 
Q 2250 -91 1575 -91 
Q 1294 -91 989 -36 
Q 684 19 347 128 
L 347 722 
Q 666 556 975 473 
Q 1284 391 1588 391 
Q 1994 391 2212 530 
Q 2431 669 2431 922 
Q 2431 1156 2273 1281 
Q 2116 1406 1581 1522 
L 1381 1569 
Q 847 1681 609 1914 
Q 372 2147 372 2553 
Q 372 3047 722 3315 
Q 1072 3584 1716 3584 
Q 2034 3584 2315 3537 
Q 2597 3491 2834 3397 
z
" transform="scale(0.015625)"/>
       <path id="DejaVuSans-70" d="M 1159 525 
L 1159 -1331 
L 581 -1331 
L 581 3500 
L 1159 3500 
L 1159 2969 
Q 1341 3281 1617 3432 
Q 1894 3584 2278 3584 
Q 2916 3584 3314 3078 
Q 3713 2572 3713 1747 
Q 3713 922 3314 415 
Q 2916 -91 2278 -91 
Q 1894 -91 1617 61 
Q 1341 213 1159 525 
z
M 3116 1747 
Q 3116 2381 2855 2742 
Q 2594 3103 2138 3103 
Q 1681 3103 1420 2742 
Q 1159 2381 1159 1747 
Q 1159 1113 1420 752 
Q 1681 391 2138 391 
Q 2594 391 2855 752 
Q 3116 1113 3116 1747 
z
" transform="scale(0.015625)"/>
       <path id="DejaVuSans-6b" d="M 581 4863 
L 1159 4863 
L 1159 1991 
L 2875 3500 
L 3609 3500 
L 1753 1863 
L 3688 0 
L 2938 0 
L 1159 1709 
L 1159 0 
L 581 0 
L 581 4863 
z
" transform="scale(0.015625)"/>
      </defs>
      <use xlink:href="#DejaVuSans-42"/>
      <use xlink:href="#DejaVuSans-69" x="68.603516"/>
      <use xlink:href="#DejaVuSans-6e" x="96.386719"/>
      <use xlink:href="#DejaVuSans-20" x="159.765625"/>
      <use xlink:href="#DejaVuSans-73" x="191.552734"/>
      <use xlink:href="#DejaVuSans-70" x="243.652344"/>
      <use xlink:href="#DejaVuSans-69" x="307.128906"/>
      <use xlink:href="#DejaVuSans-6b" x="334.912109"/>
      <use xlink:href="#DejaVuSans-65" x="389.197266"/>
      <use xlink:href="#DejaVuSans-73" x="450.720703"/>
     </g>
    </g>
   </g>
   <g id="line2d_36">
    <path d="M 91.869881 302.864756 
L 201.054667 302.864756 
L 203.282928 266.359969 
L 205.511189 266.359969 
L 207.73945 302.864756 
L 209.967711 266.359969 
L 212.195972 302.864756 
L 221.109016 302.864756 
L 223.337277 266.359969 
L 225.565538 302.864756 
L 232.250321 302.864756 
L 234.478582 266.359969 
L 236.706842 302.864756 
L 243.391625 302.864756 
L 245.619886 266.359969 
L 247.848147 302.864756 
L 256.761191 302.864756 
L 258.989452 266.359969 
L 261.217713 302.864756 
L 267.902496 302.864756 
L 270.130757 266.359969 
L 272.359018 302.864756 
L 281.272061 302.864756 
L 283.500322 266.359969 
L 285.728583 302.864756 
L 292.413366 302.864756 
L 294.641627 266.359969 
L 296.869888 302.864756 
L 303.554671 302.864756 
L 305.782932 266.359969 
L 308.011193 302.864756 
L 316.924236 302.864756 
L 319.152497 266.359969 
L 321.380758 302.864756 
L 328.065541 302.864756 
L 330.293802 266.359969 
L 332.522063 302.864756 
L 339.206846 302.864756 
L 341.435107 266.359969 
L 343.663368 302.864756 
L 352.576412 302.864756 
L 354.804673 266.359969 
L 357.032933 302.864756 
L 363.717716 302.864756 
L 365.945977 266.359969 
L 368.174238 302.864756 
L 374.859021 302.864756 
L 377.087282 266.359969 
L 379.315543 302.864756 
L 388.228587 302.864756 
L 390.456848 266.359969 
L 392.685109 302.864756 
L 399.369891 302.864756 
L 401.598152 266.359969 
L 403.826413 302.864756 
L 410.511196 302.864756 
L 412.739457 266.359969 
L 414.967718 302.864756 
L 535.293809 302.864756 
L 535.293809 302.864756 
" clip-path="url(#p5edc744ac2)" style="fill: none; stroke: #1f77b4; stroke-width: 1.5; stroke-linecap: square"/>
   </g>
   <g id="patch_12">
    <path d="M 69.587495 304.689995 
L 69.587495 264.534729 
" style="fill: none; stroke: #000000; stroke-width: 0.8; stroke-linejoin: miter; stroke-linecap: square"/>
   </g>
   <g id="patch_13">
    <path d="M 69.587495 304.689995 
L 559.8 304.689995 
" style="fill: none; stroke: #000000; stroke-width: 0.8; stroke-linejoin: miter; stroke-linecap: square"/>
   </g>
  </g>
 </g>
 <defs>
  <clipPath id="p1e9edf32d8">
   <rect x="69.587495" y="16.2" width="490.212505" height="40.155266"/>
  </clipPath>
  <clipPath id="p300cfd5249">
   <rect x="69.587495" y="98.978243" width="490.212505" height="40.155266"/>
  </clipPath>
  <clipPath id="pac580287eb">
   <rect x="69.587495" y="181.756486" width="490.212505" height="40.155266"/>
  </clipPath>
  <clipPath id="p5edc744ac2">
   <rect x="69.587495" y="264.534729" width="490.212505" height="40.155266"/>
  </clipPath>
 </defs>
</svg>
