<?xml version="1.0" encoding="utf-8" standalone="no"?>
<!DOCTYPE svg PUBLIC "-//W3C//DTD SVG 1.1//EN"
  "http://www.w3.org/Graphics/SVG/1.1/DTD/svg11.dtd">
<svg xmlns:xlink="http://www.w3.org/1999/xlink" width="576pt" height="360pt" viewBox="0 0 576 360" xmlns="http://www.w3.org/2000/svg" version="1.1">
 <metadata>
  <rdf:RDF xmlns:dc="http://purl.org/dc/elements/1.1/" xmlns:cc="http://creativecommons.org/ns#" xmlns:rdf="http://www.w3.org/1999/02/22-rdf-syntax-ns#">
   <cc:Work>
    <dc:type rdf:resource="http://purl.org/dc/dcmitype/StillImage"/>
    <dc:date>2022-08-30T12:34:53.051003</dc:date>
    <dc:format>image/svg+xml</dc:format>
    <dc:creator>
     <cc:Agent>
      <dc:title>Matplotlib v3.5.3, https://matplotlib.org/</dc:title>
     </cc:Agent>
    </dc:creator>
   </cc:Work>
  </rdf:RDF>
 </metadata>
 <defs>
  <style type="text/css">*{stroke-linejoin: round; stroke-linecap: butt}</style>
 </defs>
 <g id="figure_1">
  <g id="patch_1">
   <path d="M 0 360 
L 576 360 
L 576 0 
L 0 0 
z
" style="fill: #ffffff"/>
  </g>
  <g id="axes_1">
   <g id="patch_2">
    <path d="M 69.587495 58.534608 
L 559.8 58.534608 
L 559.8 16.2 
L 69.587495 16.2 
z
" style="fill: #ffffff"/>
   </g>
   <g id="PathCollection_1">
    <defs>
     <path id="m3c261ba6cf" d="M 0 3 
C 0.795609 3 1.55874 2.683901 2.12132 2.12132 
C 2.683901 1.55874 3 0.795609 3 0 
C 3 -0.795609 2.683901 -1.55874 2.12132 -2.12132 
C 1.55874 -2.683901 0.795609 -3 0 -3 
C -0.795609 -3 -1.55874 -2.683901 -2.12132 -2.12132 
C -2.683901 -1.55874 -3 -0.795609 -3 0 
C -3 0.795609 -2.683901 1.55874 -2.12132 2.12132 
C -1.55874 2.683901 -0.795609 3 0 3 
z
" style="stroke: #1f77b4"/>
    </defs>
    <g clip-path="url(#p7444e5a934)">
     <use xlink:href="#m3c261ba6cf" x="204.838254" y="18.1243" style="fill: #1f77b4; stroke: #1f77b4"/>
     <use xlink:href="#m3c261ba6cf" x="205.457711" y="18.1243" style="fill: #1f77b4; stroke: #1f77b4"/>
     <use xlink:href="#m3c261ba6cf" x="206.130646" y="18.1243" style="fill: #1f77b4; stroke: #1f77b4"/>
     <use xlink:href="#m3c261ba6cf" x="206.870428" y="18.1243" style="fill: #1f77b4; stroke: #1f77b4"/>
     <use xlink:href="#m3c261ba6cf" x="207.703798" y="18.1243" style="fill: #1f77b4; stroke: #1f77b4"/>
     <use xlink:href="#m3c261ba6cf" x="208.67532" y="18.1243" style="fill: #1f77b4; stroke: #1f77b4"/>
     <use xlink:href="#m3c261ba6cf" x="209.896407" y="18.1243" style="fill: #1f77b4; stroke: #1f77b4"/>
     <use xlink:href="#m3c261ba6cf" x="212.231624" y="18.1243" style="fill: #1f77b4; stroke: #1f77b4"/>
     <use xlink:href="#m3c261ba6cf" x="233.605103" y="18.1243" style="fill: #1f77b4; stroke: #1f77b4"/>
     <use xlink:href="#m3c261ba6cf" x="234.434016" y="18.1243" style="fill: #1f77b4; stroke: #1f77b4"/>
     <use xlink:href="#m3c261ba6cf" x="235.401082" y="18.1243" style="fill: #1f77b4; stroke: #1f77b4"/>
     <use xlink:href="#m3c261ba6cf" x="236.613256" y="18.1243" style="fill: #1f77b4; stroke: #1f77b4"/>
     <use xlink:href="#m3c261ba6cf" x="238.792495" y="18.1243" style="fill: #1f77b4; stroke: #1f77b4"/>
     <use xlink:href="#m3c261ba6cf" x="260.1838" y="18.1243" style="fill: #1f77b4; stroke: #1f77b4"/>
     <use xlink:href="#m3c261ba6cf" x="261.012713" y="18.1243" style="fill: #1f77b4; stroke: #1f77b4"/>
     <use xlink:href="#m3c261ba6cf" x="261.979778" y="18.1243" style="fill: #1f77b4; stroke: #1f77b4"/>
     <use xlink:href="#m3c261ba6cf" x="263.191952" y="18.1243" style="fill: #1f77b4; stroke: #1f77b4"/>
     <use xlink:href="#m3c261ba6cf" x="265.371191" y="18.1243" style="fill: #1f77b4; stroke: #1f77b4"/>
     <use xlink:href="#m3c261ba6cf" x="286.762496" y="18.1243" style="fill: #1f77b4; stroke: #1f77b4"/>
     <use xlink:href="#m3c261ba6cf" x="287.591409" y="18.1243" style="fill: #1f77b4; stroke: #1f77b4"/>
     <use xlink:href="#m3c261ba6cf" x="288.558475" y="18.1243" style="fill: #1f77b4; stroke: #1f77b4"/>
     <use xlink:href="#m3c261ba6cf" x="289.770649" y="18.1243" style="fill: #1f77b4; stroke: #1f77b4"/>
     <use xlink:href="#m3c261ba6cf" x="291.949888" y="18.1243" style="fill: #1f77b4; stroke: #1f77b4"/>
     <use xlink:href="#m3c261ba6cf" x="313.341193" y="18.1243" style="fill: #1f77b4; stroke: #1f77b4"/>
     <use xlink:href="#m3c261ba6cf" x="314.170106" y="18.1243" style="fill: #1f77b4; stroke: #1f77b4"/>
     <use xlink:href="#m3c261ba6cf" x="315.137171" y="18.1243" style="fill: #1f77b4; stroke: #1f77b4"/>
     <use xlink:href="#m3c261ba6cf" x="316.349345" y="18.1243" style="fill: #1f77b4; stroke: #1f77b4"/>
     <use xlink:href="#m3c261ba6cf" x="318.528584" y="18.1243" style="fill: #1f77b4; stroke: #1f77b4"/>
     <use xlink:href="#m3c261ba6cf" x="339.919889" y="18.1243" style="fill: #1f77b4; stroke: #1f77b4"/>
     <use xlink:href="#m3c261ba6cf" x="340.748802" y="18.1243" style="fill: #1f77b4; stroke: #1f77b4"/>
     <use xlink:href="#m3c261ba6cf" x="341.715868" y="18.1243" style="fill: #1f77b4; stroke: #1f77b4"/>
     <use xlink:href="#m3c261ba6cf" x="342.928042" y="18.1243" style="fill: #1f77b4; stroke: #1f77b4"/>
     <use xlink:href="#m3c261ba6cf" x="345.107281" y="18.1243" style="fill: #1f77b4; stroke: #1f77b4"/>
     <use xlink:href="#m3c261ba6cf" x="366.498586" y="18.1243" style="fill: #1f77b4; stroke: #1f77b4"/>
     <use xlink:href="#m3c261ba6cf" x="367.327499" y="18.1243" style="fill: #1f77b4; stroke: #1f77b4"/>
     <use xlink:href="#m3c261ba6cf" x="368.294564" y="18.1243" style="fill: #1f77b4; stroke: #1f77b4"/>
     <use xlink:href="#m3c261ba6cf" x="369.506738" y="18.1243" style="fill: #1f77b4; stroke: #1f77b4"/>
     <use xlink:href="#m3c261ba6cf" x="371.685977" y="18.1243" style="fill: #1f77b4; stroke: #1f77b4"/>
     <use xlink:href="#m3c261ba6cf" x="393.077282" y="18.1243" style="fill: #1f77b4; stroke: #1f77b4"/>
     <use xlink:href="#m3c261ba6cf" x="393.906196" y="18.1243" style="fill: #1f77b4; stroke: #1f77b4"/>
     <use xlink:href="#m3c261ba6cf" x="394.873261" y="18.1243" style="fill: #1f77b4; stroke: #1f77b4"/>
     <use xlink:href="#m3c261ba6cf" x="396.085435" y="18.1243" style="fill: #1f77b4; stroke: #1f77b4"/>
     <use xlink:href="#m3c261ba6cf" x="398.264674" y="18.1243" style="fill: #1f77b4; stroke: #1f77b4"/>
     <use xlink:href="#m3c261ba6cf" x="419.655979" y="18.1243" style="fill: #1f77b4; stroke: #1f77b4"/>
     <use xlink:href="#m3c261ba6cf" x="420.484892" y="18.1243" style="fill: #1f77b4; stroke: #1f77b4"/>
     <use xlink:href="#m3c261ba6cf" x="421.451957" y="18.1243" style="fill: #1f77b4; stroke: #1f77b4"/>
     <use xlink:href="#m3c261ba6cf" x="422.664131" y="18.1243" style="fill: #1f77b4; stroke: #1f77b4"/>
     <use xlink:href="#m3c261ba6cf" x="424.843371" y="18.1243" style="fill: #1f77b4; stroke: #1f77b4"/>
    </g>
   </g>
   <g id="matplotlib.axis_1">
    <g id="xtick_1">
     <g id="line2d_1">
      <defs>
       <path id="mcbe88bd70f" d="M 0 0 
L 0 5 
" style="stroke: #000000; stroke-width: 0.8"/>
      </defs>
      <g>
       <use xlink:href="#mcbe88bd70f" x="91.869881" y="58.534608" style="stroke: #000000; stroke-width: 0.8"/>
      </g>
     </g>
    </g>
    <g id="xtick_2">
     <g id="line2d_2">
      <g>
       <use xlink:href="#mcbe88bd70f" x="181.000319" y="58.534608" style="stroke: #000000; stroke-width: 0.8"/>
      </g>
     </g>
    </g>
    <g id="xtick_3">
     <g id="line2d_3">
      <g>
       <use xlink:href="#mcbe88bd70f" x="270.130757" y="58.534608" style="stroke: #000000; stroke-width: 0.8"/>
      </g>
     </g>
    </g>
    <g id="xtick_4">
     <g id="line2d_4">
      <g>
       <use xlink:href="#mcbe88bd70f" x="359.261194" y="58.534608" style="stroke: #000000; stroke-width: 0.8"/>
      </g>
     </g>
    </g>
    <g id="xtick_5">
     <g id="line2d_5">
      <g>
       <use xlink:href="#mcbe88bd70f" x="448.391632" y="58.534608" style="stroke: #000000; stroke-width: 0.8"/>
      </g>
     </g>
    </g>
    <g id="xtick_6">
     <g id="line2d_6">
      <g>
       <use xlink:href="#mcbe88bd70f" x="537.52207" y="58.534608" style="stroke: #000000; stroke-width: 0.8"/>
      </g>
     </g>
    </g>
   </g>
   <g id="matplotlib.axis_2">
    <g id="ytick_1">
     <g id="line2d_7">
      <defs>
       <path id="m18bcb867e2" d="M 0 0 
L -5 0 
" style="stroke: #000000; stroke-width: 0.8"/>
      </defs>
      <g>
       <use xlink:href="#m18bcb867e2" x="69.587495" y="46.446019" style="stroke: #000000; stroke-width: 0.8"/>
      </g>
     </g>
     <g id="text_1">
      <!-- −50 -->
      <g transform="translate(34.717187 51.193143)scale(0.12495 -0.12495)">
       <defs>
        <path id="DejaVuSans-2212" d="M 678 2272 
L 4684 2272 
L 4684 1741 
L 678 1741 
L 678 2272 
z
" transform="scale(0.015625)"/>
        <path id="DejaVuSans-35" d="M 691 4666 
L 3169 4666 
L 3169 4134 
L 1269 4134 
L 1269 2991 
Q 1406 3038 1543 3061 
Q 1681 3084 1819 3084 
Q 2600 3084 3056 2656 
Q 3513 2228 3513 1497 
Q 3513 744 3044 326 
Q 2575 -91 1722 -91 
Q 1428 -91 1123 -41 
Q 819 9 494 109 
L 494 744 
Q 775 591 1075 516 
Q 1375 441 1709 441 
Q 2250 441 2565 725 
Q 2881 1009 2881 1497 
Q 2881 1984 2565 2268 
Q 2250 2553 1709 2553 
Q 1456 2553 1204 2497 
Q 953 2441 691 2322 
L 691 4666 
z
" transform="scale(0.015625)"/>
        <path id="DejaVuSans-30" d="M 2034 4250 
Q 1547 4250 1301 3770 
Q 1056 3291 1056 2328 
Q 1056 1369 1301 889 
Q 1547 409 2034 409 
Q 2525 409 2770 889 
Q 3016 1369 3016 2328 
Q 3016 3291 2770 3770 
Q 2525 4250 2034 4250 
z
M 2034 4750 
Q 2819 4750 3233 4129 
Q 3647 3509 3647 2328 
Q 3647 1150 3233 529 
Q 2819 -91 2034 -91 
Q 1250 -91 836 529 
Q 422 1150 422 2328 
Q 422 3509 836 4129 
Q 1250 4750 2034 4750 
z
" transform="scale(0.015625)"/>
       </defs>
       <use xlink:href="#DejaVuSans-2212"/>
       <use xlink:href="#DejaVuSans-35" x="83.789062"/>
       <use xlink:href="#DejaVuSans-30" x="147.412109"/>
      </g>
     </g>
    </g>
    <g id="ytick_2">
     <g id="line2d_8">
      <g>
       <use xlink:href="#m18bcb867e2" x="69.587495" y="30.711731" style="stroke: #000000; stroke-width: 0.8"/>
      </g>
     </g>
     <g id="text_2">
      <!-- 0 -->
      <g transform="translate(53.137551 35.458855)scale(0.12495 -0.12495)">
       <use xlink:href="#DejaVuSans-30"/>
      </g>
     </g>
    </g>
    <g id="text_3">
     <!-- V -->
     <g transform="translate(27.597656 42.497773)rotate(-90)scale(0.15 -0.15)">
      <defs>
       <path id="DejaVuSans-56" d="M 1831 0 
L 50 4666 
L 709 4666 
L 2188 738 
L 3669 4666 
L 4325 4666 
L 2547 0 
L 1831 0 
z
" transform="scale(0.015625)"/>
      </defs>
      <use xlink:href="#DejaVuSans-56"/>
     </g>
    </g>
   </g>
   <g id="line2d_9">
    <path d="M 91.869881 52.739734 
L 203.296298 52.645887 
L 204.044994 48.230472 
L 204.374776 45.249947 
L 204.593146 41.016952 
L 204.749124 32.956279 
L 204.838254 19.697729 
L 204.842711 46.446019 
L 204.949668 45.442711 
L 205.172494 41.886644 
L 205.337385 35.239386 
L 205.457711 19.697729 
L 205.462168 46.446019 
L 205.569124 45.628505 
L 205.800863 42.64666 
L 205.974668 37.237528 
L 206.09945 25.566247 
L 206.130646 19.697729 
L 206.135102 46.446019 
L 206.242059 45.808839 
L 206.482711 43.423931 
L 206.669885 39.112414 
L 206.808037 30.177953 
L 206.870428 19.697729 
L 206.874885 46.446019 
L 206.981842 45.982868 
L 207.231407 44.207187 
L 207.436407 40.951734 
L 207.592385 34.465386 
L 207.703798 19.697729 
L 207.708255 46.446019 
L 207.815211 46.149571 
L 208.078146 44.956095 
L 208.300972 42.79711 
L 208.483689 38.52664 
L 208.621842 29.02586 
L 208.67532 19.697729 
L 208.679776 46.446019 
L 208.786733 46.306845 
L 209.07195 45.685932 
L 209.321515 44.551655 
L 209.535429 42.433923 
L 209.713689 38.117385 
L 209.847385 28.56521 
L 209.896407 19.697729 
L 210.00782 46.449968 
L 210.698581 46.355045 
L 211.072929 46.084338 
L 211.358146 45.586843 
L 211.607711 44.657558 
L 211.826081 42.891702 
L 212.008798 39.396881 
L 212.151407 31.863098 
L 212.231624 19.697729 
L 212.343037 46.546529 
L 212.708472 47.082875 
L 213.06945 48.048269 
L 213.550755 50.086014 
L 214.254885 52.90211 
L 214.660429 53.66783 
L 215.057059 53.974808 
L 215.55619 54.066197 
L 216.469777 53.963527 
L 220.338038 53.165782 
L 226.135973 51.809807 
L 228.832168 50.968472 
L 230.365212 50.273905 
L 231.318908 49.609401 
L 231.95619 48.900321 
L 232.419668 48.046536 
L 232.77619 46.899969 
L 233.056951 45.199523 
L 233.279777 42.367079 
L 233.453582 36.91528 
L 233.578364 24.810912 
L 233.605103 19.697729 
L 233.60956 46.446019 
L 233.716516 45.97673 
L 233.966082 44.175716 
L 234.171082 40.859637 
L 234.32706 34.185704 
L 234.434016 19.697729 
L 234.438473 46.446019 
L 234.545429 46.143701 
L 234.808364 44.925589 
L 235.03119 42.712593 
L 235.209451 38.461977 
L 235.343147 29.351833 
L 235.401082 19.697729 
L 235.405538 46.446019 
L 235.512495 46.301444 
L 235.797712 45.656583 
L 236.047277 44.474138 
L 236.26119 42.24341 
L 236.434995 37.779994 
L 236.564234 28.039786 
L 236.613256 19.697729 
L 236.653364 46.446213 
L 236.724669 46.445366 
L 237.326299 46.32084 
L 237.682821 46.02 
L 237.963582 45.46379 
L 238.20869 44.424802 
L 238.422603 42.426133 
L 238.600864 38.351292 
L 238.73456 29.537216 
L 238.792495 19.697729 
L 238.903908 46.547774 
L 239.269343 47.091001 
L 239.630321 48.0677 
L 240.116082 50.140892 
L 240.806843 52.903222 
L 241.212386 53.672036 
L 241.609017 53.980091 
L 242.108147 54.071772 
L 243.017277 53.969859 
L 246.867712 53.17621 
L 252.696843 51.814513 
L 255.397495 50.973363 
L 256.939452 50.276218 
L 257.893148 49.613025 
L 258.534887 48.899835 
L 258.998365 48.045714 
L 259.354887 46.898489 
L 259.635648 45.196613 
L 259.858474 42.36057 
L 260.032278 36.897582 
L 260.157061 24.748752 
L 260.1838 19.697729 
L 260.188256 46.446019 
L 260.295213 45.976749 
L 260.544778 44.175815 
L 260.749778 40.859926 
L 260.905756 34.186589 
L 261.012713 19.697729 
L 261.017169 46.446019 
L 261.124126 46.143719 
L 261.387061 44.925681 
L 261.609887 42.71285 
L 261.788148 38.462679 
L 261.921843 29.354099 
L 261.979778 19.697729 
L 261.984235 46.446019 
L 262.091191 46.30146 
L 262.376409 45.656669 
L 262.625974 44.474366 
L 262.839887 42.243972 
L 263.013691 37.78152 
L 263.14293 28.044788 
L 263.191952 19.697729 
L 263.232061 46.446217 
L 263.303365 46.445378 
L 263.904996 46.321021 
L 264.261517 46.020476 
L 264.542278 45.464817 
L 264.787387 44.426997 
L 265.0013 42.431154 
L 265.179561 38.364495 
L 265.313256 29.579103 
L 265.371191 19.697729 
L 265.482604 46.547762 
L 265.848039 47.090927 
L 266.209017 48.067524 
L 266.694778 50.140588 
L 267.385539 52.902996 
L 267.791083 53.6719 
L 268.187713 53.980008 
L 268.686844 54.071721 
L 269.595974 53.969824 
L 273.446409 53.176176 
L 279.27554 51.81447 
L 281.976192 50.973304 
L 283.518148 50.276129 
L 284.471844 49.612885 
L 285.113583 48.899608 
L 285.577062 48.045332 
L 285.933583 46.897802 
L 286.214344 45.195261 
L 286.43717 42.357544 
L 286.610975 36.889352 
L 286.735757 24.719795 
L 286.762496 19.697729 
L 286.766953 46.446019 
L 286.873909 45.976758 
L 287.123475 44.175861 
L 287.328475 40.860061 
L 287.484453 34.187001 
L 287.591409 19.697729 
L 287.595866 46.446019 
L 287.702822 46.143727 
L 287.965757 44.925724 
L 288.188583 42.712969 
L 288.366844 38.463006 
L 288.50054 29.355154 
L 288.558475 19.697729 
L 288.562931 46.446019 
L 288.669888 46.301467 
L 288.955105 45.656709 
L 289.20467 44.474471 
L 289.418583 42.244234 
L 289.592388 37.782231 
L 289.721627 28.047116 
L 289.770649 19.697729 
L 289.810757 46.446219 
L 289.882062 46.445384 
L 290.483692 46.321104 
L 290.840214 46.020697 
L 291.120975 45.465296 
L 291.366083 44.428019 
L 291.579996 42.43349 
L 291.758257 38.370634 
L 291.891953 29.598557 
L 291.949888 19.697729 
L 292.061301 46.547757 
L 292.426736 47.090893 
L 292.787714 48.067443 
L 293.273475 50.140447 
L 293.964236 52.902892 
L 294.369779 53.671837 
L 294.76641 53.97997 
L 295.26554 54.071697 
L 296.174671 53.969807 
L 300.025105 53.176161 
L 305.854236 51.81445 
L 308.554888 50.973276 
L 310.092388 50.27859 
L 311.046084 49.616735 
L 311.687823 48.905846 
L 312.151302 48.055855 
L 312.507823 46.916723 
L 312.793041 45.194634 
L 313.015867 42.356141 
L 313.189671 36.885531 
L 313.314454 24.706343 
L 313.341193 19.697729 
L 313.345649 46.446019 
L 313.452606 45.976763 
L 313.702171 44.175882 
L 313.907171 40.860124 
L 314.063149 34.187193 
L 314.170106 19.697729 
L 314.174562 46.446019 
L 314.281519 46.143731 
L 314.544454 44.925744 
L 314.76728 42.713025 
L 314.945541 38.463158 
L 315.079236 29.355644 
L 315.137171 19.697729 
L 315.141628 46.446019 
L 315.248584 46.301471 
L 315.533802 45.656727 
L 315.783367 44.474521 
L 315.99728 42.244356 
L 316.171084 37.782561 
L 316.300323 28.048198 
L 316.349345 19.697729 
L 316.389454 46.446219 
L 316.460758 46.445387 
L 317.062389 46.321143 
L 317.41891 46.0208 
L 317.699671 45.465518 
L 317.94478 44.428494 
L 318.158693 42.434575 
L 318.336954 38.373484 
L 318.47065 29.607582 
L 318.528584 19.697729 
L 318.639997 46.547755 
L 319.005432 47.090877 
L 319.36641 48.067405 
L 319.852171 50.140382 
L 320.542932 52.902843 
L 320.948476 53.671808 
L 321.345106 53.979953 
L 321.844237 54.071686 
L 322.753367 53.969799 
L 326.603802 53.176153 
L 332.432933 51.814441 
L 335.133585 50.973263 
L 336.671085 50.278571 
L 337.624781 49.616705 
L 338.26652 48.905797 
L 338.729998 48.055773 
L 339.08652 46.916576 
L 339.371737 45.194343 
L 339.594563 42.35549 
L 339.768368 36.883759 
L 339.89315 24.700102 
L 339.919889 19.697729 
L 339.924346 46.446019 
L 340.031302 45.976764 
L 340.280868 44.175892 
L 340.485868 40.860153 
L 340.641846 34.187281 
L 340.748802 19.697729 
L 340.753259 46.446019 
L 340.860216 46.143733 
L 341.12315 44.925753 
L 341.345976 42.71305 
L 341.524237 38.463229 
L 341.657933 29.355871 
L 341.715868 19.697729 
L 341.720324 46.446019 
L 341.827281 46.301472 
L 342.112498 45.656736 
L 342.362063 44.474543 
L 342.575976 42.244412 
L 342.749781 37.782714 
L 342.87902 28.048699 
L 342.928042 19.697729 
L 342.96815 46.44622 
L 343.039455 46.445388 
L 343.641085 46.321161 
L 343.997607 46.020847 
L 344.278368 45.465621 
L 344.523477 44.428714 
L 344.73739 42.435078 
L 344.91565 38.374806 
L 345.049346 29.611767 
L 345.107281 19.697729 
L 345.218694 46.547754 
L 345.584129 47.09087 
L 345.945107 48.067387 
L 346.430868 50.140352 
L 347.121629 52.902821 
L 347.527172 53.671794 
L 347.923803 53.979944 
L 348.422933 54.071681 
L 349.332064 53.969796 
L 353.182499 53.17615 
L 359.011629 51.814437 
L 361.712281 50.973257 
L 363.249781 50.278562 
L 364.203477 49.616691 
L 364.845216 48.905775 
L 365.308695 48.055735 
L 365.665216 46.916508 
L 365.950434 45.194208 
L 366.17326 42.355188 
L 366.347064 36.882937 
L 366.471847 24.697208 
L 366.498586 19.697729 
L 366.503042 46.446019 
L 366.609999 45.976765 
L 366.859564 44.175897 
L 367.064564 40.860166 
L 367.220542 34.187322 
L 367.327499 19.697729 
L 367.331956 46.446019 
L 367.438912 46.143734 
L 367.701847 44.925758 
L 367.924673 42.713062 
L 368.102934 38.463261 
L 368.236629 29.355977 
L 368.294564 19.697729 
L 368.299021 46.446019 
L 368.405977 46.301473 
L 368.691195 45.65674 
L 368.94076 44.474554 
L 369.154673 42.244438 
L 369.328477 37.782785 
L 369.457716 28.048932 
L 369.506738 19.697729 
L 369.546847 46.44622 
L 369.618151 46.445389 
L 370.219782 46.32117 
L 370.576303 46.020869 
L 370.857064 45.465669 
L 371.102173 44.428816 
L 371.316086 42.435312 
L 371.494347 38.375419 
L 371.628043 29.613706 
L 371.685977 19.697729 
L 371.79739 46.547753 
L 372.162825 47.090866 
L 372.523804 48.067379 
L 373.009564 50.140338 
L 373.700325 52.90281 
L 374.105869 53.671788 
L 374.502499 53.979941 
L 375.00163 54.071679 
L 375.91076 53.969794 
L 379.761195 53.176148 
L 385.590326 51.814435 
L 388.290978 50.973255 
L 389.828478 50.278558 
L 390.782174 49.616685 
L 391.423913 48.905764 
L 391.887391 48.055718 
L 392.243913 46.916477 
L 392.52913 45.194145 
L 392.751956 42.355048 
L 392.925761 36.882556 
L 393.050543 24.695866 
L 393.077282 19.697729 
L 393.081739 46.446019 
L 393.188696 45.976766 
L 393.438261 44.175899 
L 393.643261 40.860172 
L 393.799239 34.187342 
L 393.906196 19.697729 
L 393.910652 46.446019 
L 394.017609 46.143734 
L 394.280543 44.92576 
L 394.503369 42.713068 
L 394.68163 38.463276 
L 394.815326 29.356026 
L 394.873261 19.697729 
L 394.877717 46.446019 
L 394.984674 46.301473 
L 395.269891 45.656742 
L 395.519456 44.474559 
L 395.73337 42.24445 
L 395.907174 37.782818 
L 396.036413 28.049039 
L 396.085435 19.697729 
L 396.125543 46.44622 
L 396.196848 46.445389 
L 396.798478 46.321174 
L 397.155 46.02088 
L 397.435761 45.465691 
L 397.68087 44.428863 
L 397.894783 42.43542 
L 398.073044 38.375703 
L 398.206739 29.614605 
L 398.264674 19.697729 
L 398.376087 46.547753 
L 398.741522 47.090865 
L 399.1025 48.067376 
L 399.588261 50.140331 
L 400.279022 52.902806 
L 400.684565 53.671785 
L 401.081196 53.979939 
L 401.580326 54.071678 
L 402.489457 53.969793 
L 406.339892 53.176148 
L 412.169022 51.814434 
L 414.869675 50.973253 
L 416.407175 50.278556 
L 417.36087 49.616682 
L 418.002609 48.90576 
L 418.466088 48.05571 
L 418.822609 46.916462 
L 419.107827 45.194116 
L 419.330653 42.354983 
L 419.504457 36.88238 
L 419.62924 24.695244 
L 419.655979 19.697729 
L 419.660436 46.446019 
L 419.767392 45.976766 
L 420.016957 44.1759 
L 420.221957 40.860175 
L 420.377936 34.18735 
L 420.484892 19.697729 
L 420.489349 46.446019 
L 420.596305 46.143734 
L 420.85924 44.92576 
L 421.082066 42.71307 
L 421.260327 38.463283 
L 421.394023 29.356048 
L 421.451957 19.697729 
L 421.456414 46.446019 
L 421.56337 46.301473 
L 421.848588 45.656742 
L 422.098153 44.474561 
L 422.312066 42.244456 
L 422.48587 37.782833 
L 422.61511 28.049089 
L 422.664131 19.697729 
L 422.70424 46.44622 
L 422.775544 46.445389 
L 423.377175 46.321175 
L 423.733697 46.020884 
L 424.014457 45.465701 
L 424.259566 44.428885 
L 424.473479 42.43547 
L 424.65174 38.375834 
L 424.785436 29.615022 
L 424.843371 19.697729 
L 424.954784 46.547753 
L 425.320218 47.090864 
L 425.681197 48.067374 
L 426.117936 49.970047 
L 426.657175 55.052256 
L 426.973588 56.153863 
L 427.281088 56.511388 
L 427.668805 56.609007 
L 428.56011 56.53221 
L 438.645219 55.318071 
L 447.255219 54.539196 
L 456.698589 53.912014 
L 467.358589 53.432373 
L 480.090872 53.090727 
L 497.039025 52.873456 
L 525.230983 52.764773 
L 537.517613 52.751679 
L 537.517613 52.751679 
" clip-path="url(#p7444e5a934)" style="fill: none; stroke: #1f77b4; stroke-width: 1.5; stroke-linecap: square"/>
   </g>
   <g id="patch_3">
    <path d="M 69.587495 58.534608 
L 69.587495 16.2 
" style="fill: none; stroke: #000000; stroke-width: 0.8; stroke-linejoin: miter; stroke-linecap: square"/>
   </g>
   <g id="patch_4">
    <path d="M 69.587495 58.534608 
L 559.8 58.534608 
" style="fill: none; stroke: #000000; stroke-width: 0.8; stroke-linejoin: miter; stroke-linecap: square"/>
   </g>
  </g>
  <g id="axes_2">
   <g id="patch_5">
    <path d="M 69.587495 140.586404 
L 559.8 140.586404 
L 559.8 98.251796 
L 69.587495 98.251796 
z
" style="fill: #ffffff"/>
   </g>
   <g id="matplotlib.axis_3">
    <g id="xtick_7">
     <g id="line2d_10">
      <g>
       <use xlink:href="#mcbe88bd70f" x="91.869881" y="140.586404" style="stroke: #000000; stroke-width: 0.8"/>
      </g>
     </g>
    </g>
    <g id="xtick_8">
     <g id="line2d_11">
      <g>
       <use xlink:href="#mcbe88bd70f" x="181.000319" y="140.586404" style="stroke: #000000; stroke-width: 0.8"/>
      </g>
     </g>
    </g>
    <g id="xtick_9">
     <g id="line2d_12">
      <g>
       <use xlink:href="#mcbe88bd70f" x="270.130757" y="140.586404" style="stroke: #000000; stroke-width: 0.8"/>
      </g>
     </g>
    </g>
    <g id="xtick_10">
     <g id="line2d_13">
      <g>
       <use xlink:href="#mcbe88bd70f" x="359.261194" y="140.586404" style="stroke: #000000; stroke-width: 0.8"/>
      </g>
     </g>
    </g>
    <g id="xtick_11">
     <g id="line2d_14">
      <g>
       <use xlink:href="#mcbe88bd70f" x="448.391632" y="140.586404" style="stroke: #000000; stroke-width: 0.8"/>
      </g>
     </g>
    </g>
    <g id="xtick_12">
     <g id="line2d_15">
      <g>
       <use xlink:href="#mcbe88bd70f" x="537.52207" y="140.586404" style="stroke: #000000; stroke-width: 0.8"/>
      </g>
     </g>
    </g>
   </g>
   <g id="matplotlib.axis_4">
    <g id="ytick_3">
     <g id="line2d_16">
      <g>
       <use xlink:href="#m18bcb867e2" x="69.587495" y="128.550641" style="stroke: #000000; stroke-width: 0.8"/>
      </g>
     </g>
     <g id="text_4">
      <!-- −10 -->
      <g transform="translate(34.717187 133.297764)scale(0.12495 -0.12495)">
       <defs>
        <path id="DejaVuSans-31" d="M 794 531 
L 1825 531 
L 1825 4091 
L 703 3866 
L 703 4441 
L 1819 4666 
L 2450 4666 
L 2450 531 
L 3481 531 
L 3481 0 
L 794 0 
L 794 531 
z
" transform="scale(0.015625)"/>
       </defs>
       <use xlink:href="#DejaVuSans-2212"/>
       <use xlink:href="#DejaVuSans-31" x="83.789062"/>
       <use xlink:href="#DejaVuSans-30" x="147.412109"/>
      </g>
     </g>
    </g>
    <g id="ytick_4">
     <g id="line2d_17">
      <g>
       <use xlink:href="#m18bcb867e2" x="69.587495" y="103.271983" style="stroke: #000000; stroke-width: 0.8"/>
      </g>
     </g>
     <g id="text_5">
      <!-- 0 -->
      <g transform="translate(53.137551 108.019107)scale(0.12495 -0.12495)">
       <use xlink:href="#DejaVuSans-30"/>
      </g>
     </g>
    </g>
    <g id="text_6">
     <!-- U -->
     <g transform="translate(27.597656 124.908162)rotate(-90)scale(0.15 -0.15)">
      <defs>
       <path id="DejaVuSans-55" d="M 556 4666 
L 1191 4666 
L 1191 1831 
Q 1191 1081 1462 751 
Q 1734 422 2344 422 
Q 2950 422 3222 751 
Q 3494 1081 3494 1831 
L 3494 4666 
L 4128 4666 
L 4128 1753 
Q 4128 841 3676 375 
Q 3225 -91 2344 -91 
Q 1459 -91 1007 375 
Q 556 841 556 1753 
L 556 4666 
z
" transform="scale(0.015625)"/>
      </defs>
      <use xlink:href="#DejaVuSans-55"/>
     </g>
    </g>
   </g>
   <g id="line2d_18">
    <path d="M 91.869881 138.662104 
L 204.004885 138.55171 
L 204.597602 138.257279 
L 204.838254 137.937459 
L 204.949668 132.857455 
L 205.359668 132.63456 
L 205.457711 132.486125 
L 205.462168 127.430393 
L 205.569124 127.432879 
L 206.01032 127.319729 
L 206.130646 127.176724 
L 206.135102 122.120992 
L 206.242059 122.149538 
L 206.736733 122.155789 
L 206.870428 122.03588 
L 206.874885 116.980148 
L 206.981842 117.033926 
L 207.556733 117.189748 
L 207.703798 117.095628 
L 207.708255 112.039897 
L 207.815211 112.117921 
L 208.514885 112.483098 
L 208.67532 112.420548 
L 208.679776 107.364816 
L 208.786733 107.465785 
L 209.704776 108.17563 
L 209.896407 108.154053 
L 209.900863 103.098322 
L 210.00782 103.220229 
L 211.83945 105.136159 
L 212.204885 105.286426 
L 212.231624 105.269061 
L 212.236081 100.21333 
L 212.343037 100.349395 
L 213.987494 102.621682 
L 218.702494 109.80104 
L 220.957494 112.661126 
L 223.23032 115.188677 
L 225.51206 117.397201 
L 227.780429 119.287554 
L 229.968581 120.828133 
L 231.86706 121.907225 
L 233.043582 122.353556 
L 233.49369 122.32878 
L 233.605103 122.217478 
L 233.60956 117.161747 
L 233.716516 117.214633 
L 234.286951 117.364473 
L 234.434016 117.269843 
L 234.438473 112.214112 
L 234.545429 112.291281 
L 235.240647 112.647335 
L 235.401082 112.581327 
L 235.405538 107.525596 
L 235.512495 107.625775 
L 236.421625 108.319585 
L 236.613256 108.291431 
L 236.617712 103.235699 
L 236.724669 103.356932 
L 238.44043 105.129276 
L 238.774669 105.244554 
L 238.792495 105.231828 
L 238.796951 100.176096 
L 238.903908 100.312344 
L 240.543908 102.58269 
L 245.241082 109.74725 
L 247.496082 112.613823 
L 249.764452 115.142702 
L 252.046191 117.357376 
L 254.31456 119.253532 
L 256.507169 120.80272 
L 258.414561 121.892231 
L 259.608908 122.350932 
L 260.063474 122.333507 
L 260.1838 122.216909 
L 260.188256 117.161178 
L 260.295213 117.214067 
L 260.865648 117.363928 
L 261.012713 117.269317 
L 261.017169 112.213586 
L 261.124126 112.290757 
L 261.819343 112.646838 
L 261.979778 112.580858 
L 261.984235 107.525126 
L 262.091191 107.625308 
L 263.000322 108.319155 
L 263.191952 108.291056 
L 263.196409 103.235324 
L 263.303365 103.356559 
L 265.019126 105.129039 
L 265.353365 105.244792 
L 265.371191 105.232165 
L 265.375648 100.176434 
L 265.482604 100.31268 
L 267.122604 102.582981 
L 271.819778 109.747465 
L 274.074779 112.614012 
L 276.343148 115.142867 
L 278.624887 117.357519 
L 280.893257 119.253655 
L 283.085866 120.802822 
L 284.993257 121.892309 
L 286.187605 122.350964 
L 286.64217 122.333423 
L 286.762496 122.216645 
L 286.766953 117.160913 
L 286.873909 117.213803 
L 287.444344 117.363675 
L 287.591409 117.269072 
L 287.595866 112.213341 
L 287.702822 112.290513 
L 288.39804 112.646607 
L 288.558475 112.580639 
L 288.562931 107.524907 
L 288.669888 107.62509 
L 289.579018 108.318956 
L 289.770649 108.290881 
L 289.775105 103.23515 
L 289.882062 103.356385 
L 291.597823 105.128929 
L 291.936518 105.242209 
L 291.949888 105.232322 
L 291.954344 100.17659 
L 292.061301 100.312835 
L 293.701301 102.583115 
L 298.398475 109.747565 
L 300.653475 112.6141 
L 302.921845 115.142943 
L 305.203584 117.357585 
L 307.471954 119.253711 
L 309.664562 120.802869 
L 311.571954 121.892345 
L 312.766302 122.350979 
L 313.220867 122.333384 
L 313.341193 122.216522 
L 313.345649 117.16079 
L 313.452606 117.213681 
L 314.023041 117.363557 
L 314.170106 117.268958 
L 314.174562 112.213227 
L 314.281519 112.2904 
L 314.976736 112.646499 
L 315.137171 112.580537 
L 315.141628 107.524806 
L 315.248584 107.624989 
L 316.157715 108.318863 
L 316.349345 108.2908 
L 316.353802 103.235069 
L 316.460758 103.356305 
L 318.176519 105.128878 
L 318.515215 105.242265 
L 318.528584 105.232394 
L 318.533041 100.176663 
L 318.639997 100.312908 
L 320.279997 102.583178 
L 324.977172 109.747611 
L 327.232172 112.61414 
L 329.500541 115.142979 
L 331.78228 117.357616 
L 334.05065 119.253738 
L 336.243259 120.80289 
L 338.15065 121.892361 
L 339.344998 122.350986 
L 339.799563 122.333366 
L 339.919889 122.216465 
L 339.924346 117.160733 
L 340.031302 117.213624 
L 340.601737 117.363502 
L 340.748802 117.268905 
L 340.753259 112.213174 
L 340.860216 112.290348 
L 341.555433 112.646449 
L 341.715868 112.58049 
L 341.720324 107.524759 
L 341.827281 107.624942 
L 342.736411 108.31882 
L 342.928042 108.290763 
L 342.932498 103.235031 
L 343.039455 103.356267 
L 344.755216 105.128854 
L 345.093911 105.242291 
L 345.107281 105.232428 
L 345.111737 100.176696 
L 345.218694 100.312941 
L 346.858694 102.583207 
L 351.555868 109.747632 
L 353.810868 112.614159 
L 356.079238 115.142995 
L 358.360977 117.35763 
L 360.629347 119.25375 
L 362.821955 120.802901 
L 364.729347 121.892369 
L 365.923695 122.35099 
L 366.37826 122.333357 
L 366.498586 122.216438 
L 366.503042 117.160707 
L 366.609999 117.213598 
L 367.180434 117.363477 
L 367.327499 117.268881 
L 367.331956 112.213149 
L 367.438912 112.290323 
L 368.134129 112.646426 
L 368.294564 112.580468 
L 368.299021 107.524737 
L 368.405977 107.624921 
L 369.315108 108.3188 
L 369.506738 108.290745 
L 369.511195 103.235014 
L 369.618151 103.35625 
L 371.333912 105.128843 
L 371.672608 105.242303 
L 371.685977 105.232443 
L 371.690434 100.176712 
L 371.79739 100.312957 
L 373.437391 102.58322 
L 378.134565 109.747642 
L 380.389565 112.614168 
L 382.657934 115.143003 
L 384.939674 117.357637 
L 387.208043 119.253755 
L 389.400652 120.802905 
L 391.308043 121.892373 
L 392.502391 122.350991 
L 392.956956 122.333353 
L 393.077282 122.216426 
L 393.081739 117.160694 
L 393.188696 117.213586 
L 393.75913 117.363465 
L 393.906196 117.26887 
L 393.910652 112.213138 
L 394.017609 112.290312 
L 394.712826 112.646416 
L 394.873261 112.580458 
L 394.877717 107.524727 
L 394.984674 107.62491 
L 395.893804 108.31879 
L 396.085435 108.290737 
L 396.089891 103.235006 
L 396.196848 103.356242 
L 397.912609 105.128838 
L 398.251304 105.242308 
L 398.264674 105.232451 
L 398.26913 100.176719 
L 398.376087 100.312964 
L 400.016087 102.583226 
L 404.713261 109.747647 
L 406.968261 112.614172 
L 409.236631 115.143006 
L 411.51837 117.35764 
L 413.78674 119.253758 
L 415.979348 120.802907 
L 417.88674 121.892374 
L 419.081088 122.350992 
L 419.535653 122.333352 
L 419.655979 122.21642 
L 419.660436 117.160689 
L 419.767392 117.21358 
L 420.337827 117.36346 
L 420.484892 117.268864 
L 420.489349 112.213133 
L 420.596305 112.290307 
L 421.291523 112.646411 
L 421.451957 112.580454 
L 421.456414 107.524722 
L 421.56337 107.624906 
L 422.472501 108.318786 
L 422.664131 108.290733 
L 422.668588 103.235002 
L 422.775544 103.356238 
L 424.491305 105.128835 
L 424.830001 105.242311 
L 424.843371 105.232454 
L 424.847827 100.176723 
L 424.954784 100.312967 
L 426.478914 102.434991 
L 432.03174 111.680336 
L 434.371414 114.880726 
L 436.755654 117.768801 
L 439.193371 120.374899 
L 441.697936 122.728528 
L 444.282719 124.853385 
L 446.965545 126.771574 
L 449.768697 128.502614 
L 452.723371 130.06505 
L 455.856306 131.469065 
L 459.212067 132.727645 
L 462.844133 133.85004 
L 466.823807 134.843856 
L 471.24022 135.713622 
L 476.227068 136.464333 
L 481.975981 137.099201 
L 488.79446 137.621426 
L 497.208373 138.033666 
L 508.220438 138.33824 
L 524.161417 138.538424 
L 537.517613 138.606963 
L 537.517613 138.606963 
" clip-path="url(#p202424e30a)" style="fill: none; stroke: #1f77b4; stroke-width: 1.5; stroke-linecap: square"/>
   </g>
   <g id="patch_6">
    <path d="M 69.587495 140.586404 
L 69.587495 98.251796 
" style="fill: none; stroke: #000000; stroke-width: 0.8; stroke-linejoin: miter; stroke-linecap: square"/>
   </g>
   <g id="patch_7">
    <path d="M 69.587495 140.586404 
L 559.8 140.586404 
" style="fill: none; stroke: #000000; stroke-width: 0.8; stroke-linejoin: miter; stroke-linecap: square"/>
   </g>
  </g>
  <g id="axes_3">
   <g id="patch_8">
    <path d="M 69.587495 222.6382 
L 559.8 222.6382 
L 559.8 180.303591 
L 69.587495 180.303591 
z
" style="fill: #ffffff"/>
   </g>
   <g id="matplotlib.axis_5">
    <g id="xtick_13">
     <g id="line2d_19">
      <g>
       <use xlink:href="#mcbe88bd70f" x="91.869881" y="222.6382" style="stroke: #000000; stroke-width: 0.8"/>
      </g>
     </g>
    </g>
    <g id="xtick_14">
     <g id="line2d_20">
      <g>
       <use xlink:href="#mcbe88bd70f" x="181.000319" y="222.6382" style="stroke: #000000; stroke-width: 0.8"/>
      </g>
     </g>
    </g>
    <g id="xtick_15">
     <g id="line2d_21">
      <g>
       <use xlink:href="#mcbe88bd70f" x="270.130757" y="222.6382" style="stroke: #000000; stroke-width: 0.8"/>
      </g>
     </g>
    </g>
    <g id="xtick_16">
     <g id="line2d_22">
      <g>
       <use xlink:href="#mcbe88bd70f" x="359.261194" y="222.6382" style="stroke: #000000; stroke-width: 0.8"/>
      </g>
     </g>
    </g>
    <g id="xtick_17">
     <g id="line2d_23">
      <g>
       <use xlink:href="#mcbe88bd70f" x="448.391632" y="222.6382" style="stroke: #000000; stroke-width: 0.8"/>
      </g>
     </g>
    </g>
    <g id="xtick_18">
     <g id="line2d_24">
      <g>
       <use xlink:href="#mcbe88bd70f" x="537.52207" y="222.6382" style="stroke: #000000; stroke-width: 0.8"/>
      </g>
     </g>
    </g>
    <g id="text_7">
     <!-- Time -->
     <g transform="translate(296.343357 243.035856)scale(0.15 -0.15)">
      <defs>
       <path id="DejaVuSans-54" d="M -19 4666 
L 3928 4666 
L 3928 4134 
L 2272 4134 
L 2272 0 
L 1638 0 
L 1638 4134 
L -19 4134 
L -19 4666 
z
" transform="scale(0.015625)"/>
       <path id="DejaVuSans-69" d="M 603 3500 
L 1178 3500 
L 1178 0 
L 603 0 
L 603 3500 
z
M 603 4863 
L 1178 4863 
L 1178 4134 
L 603 4134 
L 603 4863 
z
" transform="scale(0.015625)"/>
       <path id="DejaVuSans-6d" d="M 3328 2828 
Q 3544 3216 3844 3400 
Q 4144 3584 4550 3584 
Q 5097 3584 5394 3201 
Q 5691 2819 5691 2113 
L 5691 0 
L 5113 0 
L 5113 2094 
Q 5113 2597 4934 2840 
Q 4756 3084 4391 3084 
Q 3944 3084 3684 2787 
Q 3425 2491 3425 1978 
L 3425 0 
L 2847 0 
L 2847 2094 
Q 2847 2600 2669 2842 
Q 2491 3084 2119 3084 
Q 1678 3084 1418 2786 
Q 1159 2488 1159 1978 
L 1159 0 
L 581 0 
L 581 3500 
L 1159 3500 
L 1159 2956 
Q 1356 3278 1631 3431 
Q 1906 3584 2284 3584 
Q 2666 3584 2933 3390 
Q 3200 3197 3328 2828 
z
" transform="scale(0.015625)"/>
       <path id="DejaVuSans-65" d="M 3597 1894 
L 3597 1613 
L 953 1613 
Q 991 1019 1311 708 
Q 1631 397 2203 397 
Q 2534 397 2845 478 
Q 3156 559 3463 722 
L 3463 178 
Q 3153 47 2828 -22 
Q 2503 -91 2169 -91 
Q 1331 -91 842 396 
Q 353 884 353 1716 
Q 353 2575 817 3079 
Q 1281 3584 2069 3584 
Q 2775 3584 3186 3129 
Q 3597 2675 3597 1894 
z
M 3022 2063 
Q 3016 2534 2758 2815 
Q 2500 3097 2075 3097 
Q 1594 3097 1305 2825 
Q 1016 2553 972 2059 
L 3022 2063 
z
" transform="scale(0.015625)"/>
      </defs>
      <use xlink:href="#DejaVuSans-54"/>
      <use xlink:href="#DejaVuSans-69" x="57.958984"/>
      <use xlink:href="#DejaVuSans-6d" x="85.742188"/>
      <use xlink:href="#DejaVuSans-65" x="183.154297"/>
     </g>
    </g>
   </g>
   <g id="matplotlib.axis_6">
    <g id="ytick_5">
     <g id="line2d_25">
      <g>
       <use xlink:href="#m18bcb867e2" x="69.587495" y="220.713899" style="stroke: #000000; stroke-width: 0.8"/>
      </g>
     </g>
     <g id="text_8">
      <!-- 0 -->
      <g transform="translate(53.137551 225.461023)scale(0.12495 -0.12495)">
       <use xlink:href="#DejaVuSans-30"/>
      </g>
     </g>
    </g>
    <g id="ytick_6">
     <g id="line2d_26">
      <g>
       <use xlink:href="#m18bcb867e2" x="69.587495" y="182.227892" style="stroke: #000000; stroke-width: 0.8"/>
      </g>
     </g>
     <g id="text_9">
      <!-- 10 -->
      <g transform="translate(45.187607 186.975016)scale(0.12495 -0.12495)">
       <use xlink:href="#DejaVuSans-31"/>
       <use xlink:href="#DejaVuSans-30" x="63.623047"/>
      </g>
     </g>
    </g>
    <g id="text_10">
     <!-- I -->
     <g transform="translate(38.068076 203.683396)rotate(-90)scale(0.15 -0.15)">
      <defs>
       <path id="DejaVuSans-49" d="M 628 4666 
L 1259 4666 
L 1259 0 
L 628 0 
L 628 4666 
z
" transform="scale(0.015625)"/>
      </defs>
      <use xlink:href="#DejaVuSans-49"/>
     </g>
    </g>
   </g>
   <g id="line2d_27">
    <path d="M 91.869881 220.713899 
L 203.278472 220.713899 
L 203.389885 182.227892 
L 426.104566 182.227892 
L 426.215979 220.713899 
L 537.517613 220.713899 
L 537.517613 220.713899 
" clip-path="url(#p978495c567)" style="fill: none; stroke: #1f77b4; stroke-width: 1.5; stroke-linecap: square"/>
   </g>
   <g id="patch_9">
    <path d="M 69.587495 222.6382 
L 69.587495 180.303591 
" style="fill: none; stroke: #000000; stroke-width: 0.8; stroke-linejoin: miter; stroke-linecap: square"/>
   </g>
   <g id="patch_10">
    <path d="M 69.587495 222.6382 
L 559.8 222.6382 
" style="fill: none; stroke: #000000; stroke-width: 0.8; stroke-linejoin: miter; stroke-linecap: square"/>
   </g>
  </g>
  <g id="axes_4">
   <g id="patch_11">
    <path d="M 69.587495 304.689995 
L 559.8 304.689995 
L 559.8 262.355387 
L 69.587495 262.355387 
z
" style="fill: #ffffff"/>
   </g>
   <g id="matplotlib.axis_7">
    <g id="xtick_19">
     <g id="line2d_28">
      <g>
       <use xlink:href="#mcbe88bd70f" x="91.869881" y="304.689995" style="stroke: #000000; stroke-width: 0.8"/>
      </g>
     </g>
     <g id="text_11">
      <!-- 0 -->
      <g transform="translate(87.894909 322.684243)scale(0.12495 -0.12495)">
       <use xlink:href="#DejaVuSans-30"/>
      </g>
     </g>
    </g>
    <g id="xtick_20">
     <g id="line2d_29">
      <g>
       <use xlink:href="#mcbe88bd70f" x="181.000319" y="304.689995" style="stroke: #000000; stroke-width: 0.8"/>
      </g>
     </g>
     <g id="text_12">
      <!-- 200 -->
      <g transform="translate(169.075403 322.684243)scale(0.12495 -0.12495)">
       <defs>
        <path id="DejaVuSans-32" d="M 1228 531 
L 3431 531 
L 3431 0 
L 469 0 
L 469 531 
Q 828 903 1448 1529 
Q 2069 2156 2228 2338 
Q 2531 2678 2651 2914 
Q 2772 3150 2772 3378 
Q 2772 3750 2511 3984 
Q 2250 4219 1831 4219 
Q 1534 4219 1204 4116 
Q 875 4013 500 3803 
L 500 4441 
Q 881 4594 1212 4672 
Q 1544 4750 1819 4750 
Q 2544 4750 2975 4387 
Q 3406 4025 3406 3419 
Q 3406 3131 3298 2873 
Q 3191 2616 2906 2266 
Q 2828 2175 2409 1742 
Q 1991 1309 1228 531 
z
" transform="scale(0.015625)"/>
       </defs>
       <use xlink:href="#DejaVuSans-32"/>
       <use xlink:href="#DejaVuSans-30" x="63.623047"/>
       <use xlink:href="#DejaVuSans-30" x="127.246094"/>
      </g>
     </g>
    </g>
    <g id="xtick_21">
     <g id="line2d_30">
      <g>
       <use xlink:href="#mcbe88bd70f" x="270.130757" y="304.689995" style="stroke: #000000; stroke-width: 0.8"/>
      </g>
     </g>
     <g id="text_13">
      <!-- 400 -->
      <g transform="translate(258.205841 322.684243)scale(0.12495 -0.12495)">
       <defs>
        <path id="DejaVuSans-34" d="M 2419 4116 
L 825 1625 
L 2419 1625 
L 2419 4116 
z
M 2253 4666 
L 3047 4666 
L 3047 1625 
L 3713 1625 
L 3713 1100 
L 3047 1100 
L 3047 0 
L 2419 0 
L 2419 1100 
L 313 1100 
L 313 1709 
L 2253 4666 
z
" transform="scale(0.015625)"/>
       </defs>
       <use xlink:href="#DejaVuSans-34"/>
       <use xlink:href="#DejaVuSans-30" x="63.623047"/>
       <use xlink:href="#DejaVuSans-30" x="127.246094"/>
      </g>
     </g>
    </g>
    <g id="xtick_22">
     <g id="line2d_31">
      <g>
       <use xlink:href="#mcbe88bd70f" x="359.261194" y="304.689995" style="stroke: #000000; stroke-width: 0.8"/>
      </g>
     </g>
     <g id="text_14">
      <!-- 600 -->
      <g transform="translate(347.336279 322.684243)scale(0.12495 -0.12495)">
       <defs>
        <path id="DejaVuSans-36" d="M 2113 2584 
Q 1688 2584 1439 2293 
Q 1191 2003 1191 1497 
Q 1191 994 1439 701 
Q 1688 409 2113 409 
Q 2538 409 2786 701 
Q 3034 994 3034 1497 
Q 3034 2003 2786 2293 
Q 2538 2584 2113 2584 
z
M 3366 4563 
L 3366 3988 
Q 3128 4100 2886 4159 
Q 2644 4219 2406 4219 
Q 1781 4219 1451 3797 
Q 1122 3375 1075 2522 
Q 1259 2794 1537 2939 
Q 1816 3084 2150 3084 
Q 2853 3084 3261 2657 
Q 3669 2231 3669 1497 
Q 3669 778 3244 343 
Q 2819 -91 2113 -91 
Q 1303 -91 875 529 
Q 447 1150 447 2328 
Q 447 3434 972 4092 
Q 1497 4750 2381 4750 
Q 2619 4750 2861 4703 
Q 3103 4656 3366 4563 
z
" transform="scale(0.015625)"/>
       </defs>
       <use xlink:href="#DejaVuSans-36"/>
       <use xlink:href="#DejaVuSans-30" x="63.623047"/>
       <use xlink:href="#DejaVuSans-30" x="127.246094"/>
      </g>
     </g>
    </g>
    <g id="xtick_23">
     <g id="line2d_32">
      <g>
       <use xlink:href="#mcbe88bd70f" x="448.391632" y="304.689995" style="stroke: #000000; stroke-width: 0.8"/>
      </g>
     </g>
     <g id="text_15">
      <!-- 800 -->
      <g transform="translate(436.466717 322.684243)scale(0.12495 -0.12495)">
       <defs>
        <path id="DejaVuSans-38" d="M 2034 2216 
Q 1584 2216 1326 1975 
Q 1069 1734 1069 1313 
Q 1069 891 1326 650 
Q 1584 409 2034 409 
Q 2484 409 2743 651 
Q 3003 894 3003 1313 
Q 3003 1734 2745 1975 
Q 2488 2216 2034 2216 
z
M 1403 2484 
Q 997 2584 770 2862 
Q 544 3141 544 3541 
Q 544 4100 942 4425 
Q 1341 4750 2034 4750 
Q 2731 4750 3128 4425 
Q 3525 4100 3525 3541 
Q 3525 3141 3298 2862 
Q 3072 2584 2669 2484 
Q 3125 2378 3379 2068 
Q 3634 1759 3634 1313 
Q 3634 634 3220 271 
Q 2806 -91 2034 -91 
Q 1263 -91 848 271 
Q 434 634 434 1313 
Q 434 1759 690 2068 
Q 947 2378 1403 2484 
z
M 1172 3481 
Q 1172 3119 1398 2916 
Q 1625 2713 2034 2713 
Q 2441 2713 2670 2916 
Q 2900 3119 2900 3481 
Q 2900 3844 2670 4047 
Q 2441 4250 2034 4250 
Q 1625 4250 1398 4047 
Q 1172 3844 1172 3481 
z
" transform="scale(0.015625)"/>
       </defs>
       <use xlink:href="#DejaVuSans-38"/>
       <use xlink:href="#DejaVuSans-30" x="63.623047"/>
       <use xlink:href="#DejaVuSans-30" x="127.246094"/>
      </g>
     </g>
    </g>
    <g id="xtick_24">
     <g id="line2d_33">
      <g>
       <use xlink:href="#mcbe88bd70f" x="537.52207" y="304.689995" style="stroke: #000000; stroke-width: 0.8"/>
      </g>
     </g>
     <g id="text_16">
      <!-- 1000 -->
      <g transform="translate(521.622182 322.684243)scale(0.12495 -0.12495)">
       <use xlink:href="#DejaVuSans-31"/>
       <use xlink:href="#DejaVuSans-30" x="63.623047"/>
       <use xlink:href="#DejaVuSans-30" x="127.246094"/>
       <use xlink:href="#DejaVuSans-30" x="190.869141"/>
      </g>
     </g>
    </g>
    <g id="text_17">
     <!-- Time -->
     <g transform="translate(296.343357 340.680469)scale(0.15 -0.15)">
      <use xlink:href="#DejaVuSans-54"/>
      <use xlink:href="#DejaVuSans-69" x="57.958984"/>
      <use xlink:href="#DejaVuSans-6d" x="85.742188"/>
      <use xlink:href="#DejaVuSans-65" x="183.154297"/>
     </g>
    </g>
   </g>
   <g id="matplotlib.axis_8">
    <g id="ytick_7">
     <g id="line2d_34">
      <g>
       <use xlink:href="#m18bcb867e2" x="69.587495" y="302.765695" style="stroke: #000000; stroke-width: 0.8"/>
      </g>
     </g>
     <g id="text_18">
      <!-- 0.0 -->
      <g transform="translate(41.21654 307.512819)scale(0.12495 -0.12495)">
       <defs>
        <path id="DejaVuSans-2e" d="M 684 794 
L 1344 794 
L 1344 0 
L 684 0 
L 684 794 
z
" transform="scale(0.015625)"/>
       </defs>
       <use xlink:href="#DejaVuSans-30"/>
       <use xlink:href="#DejaVuSans-2e" x="63.623047"/>
       <use xlink:href="#DejaVuSans-30" x="95.410156"/>
      </g>
     </g>
    </g>
    <g id="ytick_8">
     <g id="line2d_35">
      <g>
       <use xlink:href="#m18bcb867e2" x="69.587495" y="270.694022" style="stroke: #000000; stroke-width: 0.8"/>
      </g>
     </g>
     <g id="text_19">
      <!-- 2.5 -->
      <g transform="translate(41.21654 275.441146)scale(0.12495 -0.12495)">
       <use xlink:href="#DejaVuSans-32"/>
       <use xlink:href="#DejaVuSans-2e" x="63.623047"/>
       <use xlink:href="#DejaVuSans-35" x="95.410156"/>
      </g>
     </g>
    </g>
    <g id="text_20">
     <!-- Bin spikes -->
     <g transform="translate(34.097009 321.233629)rotate(-90)scale(0.15 -0.15)">
      <defs>
       <path id="DejaVuSans-42" d="M 1259 2228 
L 1259 519 
L 2272 519 
Q 2781 519 3026 730 
Q 3272 941 3272 1375 
Q 3272 1813 3026 2020 
Q 2781 2228 2272 2228 
L 1259 2228 
z
M 1259 4147 
L 1259 2741 
L 2194 2741 
Q 2656 2741 2882 2914 
Q 3109 3088 3109 3444 
Q 3109 3797 2882 3972 
Q 2656 4147 2194 4147 
L 1259 4147 
z
M 628 4666 
L 2241 4666 
Q 2963 4666 3353 4366 
Q 3744 4066 3744 3513 
Q 3744 3084 3544 2831 
Q 3344 2578 2956 2516 
Q 3422 2416 3680 2098 
Q 3938 1781 3938 1306 
Q 3938 681 3513 340 
Q 3088 0 2303 0 
L 628 0 
L 628 4666 
z
" transform="scale(0.015625)"/>
       <path id="DejaVuSans-6e" d="M 3513 2113 
L 3513 0 
L 2938 0 
L 2938 2094 
Q 2938 2591 2744 2837 
Q 2550 3084 2163 3084 
Q 1697 3084 1428 2787 
Q 1159 2491 1159 1978 
L 1159 0 
L 581 0 
L 581 3500 
L 1159 3500 
L 1159 2956 
Q 1366 3272 1645 3428 
Q 1925 3584 2291 3584 
Q 2894 3584 3203 3211 
Q 3513 2838 3513 2113 
z
" transform="scale(0.015625)"/>
       <path id="DejaVuSans-20" transform="scale(0.015625)"/>
       <path id="DejaVuSans-73" d="M 2834 3397 
L 2834 2853 
Q 2591 2978 2328 3040 
Q 2066 3103 1784 3103 
Q 1356 3103 1142 2972 
Q 928 2841 928 2578 
Q 928 2378 1081 2264 
Q 1234 2150 1697 2047 
L 1894 2003 
Q 2506 1872 2764 1633 
Q 3022 1394 3022 966 
Q 3022 478 2636 193 
Q 2250 -91 1575 -91 
Q 1294 -91 989 -36 
Q 684 19 347 128 
L 347 722 
Q 666 556 975 473 
Q 1284 391 1588 391 
Q 1994 391 2212 530 
Q 2431 669 2431 922 
Q 2431 1156 2273 1281 
Q 2116 1406 1581 1522 
L 1381 1569 
Q 847 1681 609 1914 
Q 372 2147 372 2553 
Q 372 3047 722 3315 
Q 1072 3584 1716 3584 
Q 2034 3584 2315 3537 
Q 2597 3491 2834 3397 
z
" transform="scale(0.015625)"/>
       <path id="DejaVuSans-70" d="M 1159 525 
L 1159 -1331 
L 581 -1331 
L 581 3500 
L 1159 3500 
L 1159 2969 
Q 1341 3281 1617 3432 
Q 1894 3584 2278 3584 
Q 2916 3584 3314 3078 
Q 3713 2572 3713 1747 
Q 3713 922 3314 415 
Q 2916 -91 2278 -91 
Q 1894 -91 1617 61 
Q 1341 213 1159 525 
z
M 3116 1747 
Q 3116 2381 2855 2742 
Q 2594 3103 2138 3103 
Q 1681 3103 1420 2742 
Q 1159 2381 1159 1747 
Q 1159 1113 1420 752 
Q 1681 391 2138 391 
Q 2594 391 2855 752 
Q 3116 1113 3116 1747 
z
" transform="scale(0.015625)"/>
       <path id="DejaVuSans-6b" d="M 581 4863 
L 1159 4863 
L 1159 1991 
L 2875 3500 
L 3609 3500 
L 1753 1863 
L 3688 0 
L 2938 0 
L 1159 1709 
L 1159 0 
L 581 0 
L 581 4863 
z
" transform="scale(0.015625)"/>
      </defs>
      <use xlink:href="#DejaVuSans-42"/>
      <use xlink:href="#DejaVuSans-69" x="68.603516"/>
      <use xlink:href="#DejaVuSans-6e" x="96.386719"/>
      <use xlink:href="#DejaVuSans-20" x="159.765625"/>
      <use xlink:href="#DejaVuSans-73" x="191.552734"/>
      <use xlink:href="#DejaVuSans-70" x="243.652344"/>
      <use xlink:href="#DejaVuSans-69" x="307.128906"/>
      <use xlink:href="#DejaVuSans-6b" x="334.912109"/>
      <use xlink:href="#DejaVuSans-65" x="389.197266"/>
      <use xlink:href="#DejaVuSans-73" x="450.720703"/>
     </g>
    </g>
   </g>
   <g id="line2d_36">
    <path d="M 91.869881 302.765695 
L 201.054667 302.765695 
L 203.282928 277.108357 
L 205.511189 264.279687 
L 207.73945 277.108357 
L 209.967711 302.765695 
L 212.195972 289.937026 
L 214.424233 302.765695 
L 230.02206 302.765695 
L 232.250321 277.108357 
L 234.478582 277.108357 
L 238.935103 302.765695 
L 256.761191 302.765695 
L 258.989452 277.108357 
L 261.217713 277.108357 
L 265.674235 302.765695 
L 283.500322 302.765695 
L 285.728583 277.108357 
L 287.956844 277.108357 
L 292.413366 302.765695 
L 310.239454 302.765695 
L 312.467715 277.108357 
L 314.695976 277.108357 
L 319.152497 302.765695 
L 336.978585 302.765695 
L 339.206846 277.108357 
L 341.435107 277.108357 
L 345.891629 302.765695 
L 363.717716 302.765695 
L 365.945977 277.108357 
L 368.174238 277.108357 
L 372.63076 302.765695 
L 390.456848 302.765695 
L 392.685109 264.279687 
L 394.91337 289.937026 
L 397.14163 289.937026 
L 399.369891 302.765695 
L 417.195979 302.765695 
L 419.42424 264.279687 
L 421.652501 289.937026 
L 423.880762 289.937026 
L 426.109023 302.765695 
L 535.293809 302.765695 
L 535.293809 302.765695 
" clip-path="url(#p3552e7edec)" style="fill: none; stroke: #1f77b4; stroke-width: 1.5; stroke-linecap: square"/>
   </g>
   <g id="patch_12">
    <path d="M 69.587495 304.689995 
L 69.587495 262.355387 
" style="fill: none; stroke: #000000; stroke-width: 0.8; stroke-linejoin: miter; stroke-linecap: square"/>
   </g>
   <g id="patch_13">
    <path d="M 69.587495 304.689995 
L 559.8 304.689995 
" style="fill: none; stroke: #000000; stroke-width: 0.8; stroke-linejoin: miter; stroke-linecap: square"/>
   </g>
  </g>
 </g>
 <defs>
  <clipPath id="p7444e5a934">
   <rect x="69.587495" y="16.2" width="490.212505" height="42.334608"/>
  </clipPath>
  <clipPath id="p202424e30a">
   <rect x="69.587495" y="98.251796" width="490.212505" height="42.334608"/>
  </clipPath>
  <clipPath id="p978495c567">
   <rect x="69.587495" y="180.303591" width="490.212505" height="42.334608"/>
  </clipPath>
  <clipPath id="p3552e7edec">
   <rect x="69.587495" y="262.355387" width="490.212505" height="42.334608"/>
  </clipPath>
 </defs>
</svg>
